<svg width="128" height="45" viewBox="0 0 128 45" fill="none" xmlns="http://www.w3.org/2000/svg">
<rect x="2" y="2" width="124" height="41" rx="3" fill="#424242"/>
<rect x="2" y="2" width="124" height="41" rx="3" stroke="#424242" stroke-width="4"/>
<path d="M26.585 16.2031H29.0986L31.9551 25.1064L34.8115 16.2031H37.3252L32.9746 29H30.9355L26.585 16.2031ZM25.0557 16.2031H27.6572L28.1406 26.0117V29H25.0557V16.2031ZM36.2529 16.2031H38.8633V29H35.7695V26.0117L36.2529 16.2031ZM40.3311 24.3418V24.1572C40.3311 23.46 40.4307 22.8184 40.6299 22.2324C40.8291 21.6406 41.1221 21.1279 41.5088 20.6943C41.8955 20.2607 42.373 19.9238 42.9414 19.6836C43.5098 19.4375 44.166 19.3145 44.9102 19.3145C45.6602 19.3145 46.3193 19.4375 46.8877 19.6836C47.4619 19.9238 47.9424 20.2607 48.3291 20.6943C48.7158 21.1279 49.0088 21.6406 49.208 22.2324C49.4072 22.8184 49.5068 23.46 49.5068 24.1572V24.3418C49.5068 25.0332 49.4072 25.6748 49.208 26.2666C49.0088 26.8525 48.7158 27.3652 48.3291 27.8047C47.9424 28.2383 47.4648 28.5752 46.8965 28.8154C46.3281 29.0557 45.6719 29.1758 44.9277 29.1758C44.1836 29.1758 43.5244 29.0557 42.9502 28.8154C42.376 28.5752 41.8955 28.2383 41.5088 27.8047C41.1221 27.3652 40.8291 26.8525 40.6299 26.2666C40.4307 25.6748 40.3311 25.0332 40.3311 24.3418ZM43.293 24.1572V24.3418C43.293 24.6992 43.3193 25.0332 43.3721 25.3438C43.4248 25.6543 43.5127 25.9268 43.6357 26.1611C43.7588 26.3896 43.9258 26.5684 44.1367 26.6973C44.3477 26.8262 44.6113 26.8906 44.9277 26.8906C45.2383 26.8906 45.4961 26.8262 45.7012 26.6973C45.9121 26.5684 46.0791 26.3896 46.2021 26.1611C46.3252 25.9268 46.4131 25.6543 46.4658 25.3438C46.5186 25.0332 46.5449 24.6992 46.5449 24.3418V24.1572C46.5449 23.8115 46.5186 23.4863 46.4658 23.1816C46.4131 22.8711 46.3252 22.5986 46.2021 22.3643C46.0791 22.124 45.9121 21.9365 45.7012 21.8018C45.4902 21.667 45.2266 21.5996 44.9102 21.5996C44.5996 21.5996 44.3389 21.667 44.1279 21.8018C43.9229 21.9365 43.7588 22.124 43.6357 22.3643C43.5127 22.5986 43.4248 22.8711 43.3721 23.1816C43.3193 23.4863 43.293 23.8115 43.293 24.1572ZM53.7344 21.5205V29H50.7725V19.4902H53.5498L53.7344 21.5205ZM53.3828 23.9199L52.6885 23.9375C52.6885 23.2109 52.7764 22.5635 52.9521 21.9951C53.1279 21.4209 53.377 20.9346 53.6992 20.5361C54.0215 20.1377 54.4053 19.8359 54.8506 19.6309C55.3018 19.4199 55.8027 19.3145 56.3535 19.3145C56.793 19.3145 57.1943 19.3789 57.5576 19.5078C57.9268 19.6367 58.2432 19.8447 58.5068 20.1318C58.7764 20.4189 58.9814 20.7998 59.1221 21.2744C59.2686 21.7432 59.3418 22.3232 59.3418 23.0146V29H56.3623V23.0059C56.3623 22.625 56.3096 22.335 56.2041 22.1357C56.0986 21.9307 55.9463 21.79 55.7471 21.7139C55.5479 21.6377 55.3047 21.5996 55.0176 21.5996C54.7129 21.5996 54.4551 21.6582 54.2441 21.7754C54.0332 21.8926 53.8633 22.0566 53.7344 22.2676C53.6113 22.4727 53.5205 22.7158 53.4619 22.9971C53.4092 23.2783 53.3828 23.5859 53.3828 23.9199ZM66.9619 19.4902H69.6514V28.6309C69.6514 29.5098 69.4492 30.2539 69.0449 30.8633C68.6406 31.4785 68.0752 31.9443 67.3486 32.2607C66.6279 32.583 65.7842 32.7441 64.8174 32.7441C64.3896 32.7441 63.9531 32.6885 63.5078 32.5771C63.0625 32.4717 62.6465 32.3135 62.2598 32.1025C61.873 31.8916 61.5479 31.6309 61.2842 31.3203L62.5234 29.5801C62.7637 29.8496 63.0654 30.0781 63.4287 30.2656C63.792 30.459 64.2197 30.5557 64.7119 30.5557C65.1396 30.5557 65.4971 30.4795 65.7842 30.3271C66.0771 30.1748 66.2998 29.9521 66.4521 29.6592C66.6045 29.3721 66.6807 29.0234 66.6807 28.6133V21.7402L66.9619 19.4902ZM60.6426 24.3594V24.1748C60.6426 23.4541 60.7305 22.7979 60.9062 22.2061C61.0879 21.6084 61.3457 21.0957 61.6797 20.668C62.0195 20.2344 62.4297 19.9004 62.9102 19.666C63.3906 19.4316 63.9326 19.3145 64.5361 19.3145C65.1865 19.3145 65.7197 19.4404 66.1357 19.6924C66.5576 19.9385 66.8945 20.2842 67.1465 20.7295C67.4043 21.1748 67.6035 21.6963 67.7441 22.2939C67.8906 22.8857 68.0137 23.5244 68.1133 24.21V24.4297C68.0137 25.0742 67.876 25.6836 67.7002 26.2578C67.5303 26.8262 67.3076 27.3301 67.0322 27.7695C66.7568 28.209 66.4111 28.5547 65.9951 28.8066C65.585 29.0527 65.0928 29.1758 64.5186 29.1758C63.9209 29.1758 63.3818 29.0557 62.9014 28.8154C62.4268 28.5752 62.0195 28.2383 61.6797 27.8047C61.3457 27.3711 61.0879 26.8613 60.9062 26.2754C60.7305 25.6895 60.6426 25.0508 60.6426 24.3594ZM63.6045 24.1748V24.3594C63.6045 24.7168 63.6367 25.0479 63.7012 25.3525C63.7715 25.6572 63.877 25.9268 64.0176 26.1611C64.1582 26.3896 64.3311 26.5684 64.5361 26.6973C64.7471 26.8262 64.9932 26.8906 65.2744 26.8906C65.7021 26.8906 66.0479 26.7998 66.3115 26.6182C66.5752 26.4365 66.7656 26.1787 66.8828 25.8447C67 25.5107 67.0498 25.1182 67.0322 24.667V23.9727C67.0439 23.5859 67.0176 23.2461 66.9531 22.9531C66.8887 22.6543 66.7861 22.4053 66.6455 22.2061C66.5107 22.0068 66.3291 21.8574 66.1006 21.7578C65.8779 21.6523 65.6084 21.5996 65.292 21.5996C65.0166 21.5996 64.7734 21.6641 64.5625 21.793C64.3516 21.9219 64.1758 22.1035 64.0352 22.3379C63.8945 22.5664 63.7861 22.8389 63.71 23.1553C63.6396 23.4658 63.6045 23.8057 63.6045 24.1748ZM70.9873 24.3418V24.1572C70.9873 23.46 71.0869 22.8184 71.2861 22.2324C71.4854 21.6406 71.7783 21.1279 72.165 20.6943C72.5518 20.2607 73.0293 19.9238 73.5977 19.6836C74.166 19.4375 74.8223 19.3145 75.5664 19.3145C76.3164 19.3145 76.9756 19.4375 77.5439 19.6836C78.1182 19.9238 78.5986 20.2607 78.9854 20.6943C79.3721 21.1279 79.665 21.6406 79.8643 22.2324C80.0635 22.8184 80.1631 23.46 80.1631 24.1572V24.3418C80.1631 25.0332 80.0635 25.6748 79.8643 26.2666C79.665 26.8525 79.3721 27.3652 78.9854 27.8047C78.5986 28.2383 78.1211 28.5752 77.5527 28.8154C76.9844 29.0557 76.3281 29.1758 75.584 29.1758C74.8398 29.1758 74.1807 29.0557 73.6064 28.8154C73.0322 28.5752 72.5518 28.2383 72.165 27.8047C71.7783 27.3652 71.4854 26.8525 71.2861 26.2666C71.0869 25.6748 70.9873 25.0332 70.9873 24.3418ZM73.9492 24.1572V24.3418C73.9492 24.6992 73.9756 25.0332 74.0283 25.3438C74.0811 25.6543 74.1689 25.9268 74.292 26.1611C74.415 26.3896 74.582 26.5684 74.793 26.6973C75.0039 26.8262 75.2676 26.8906 75.584 26.8906C75.8945 26.8906 76.1523 26.8262 76.3574 26.6973C76.5684 26.5684 76.7354 26.3896 76.8584 26.1611C76.9814 25.9268 77.0693 25.6543 77.1221 25.3438C77.1748 25.0332 77.2012 24.6992 77.2012 24.3418V24.1572C77.2012 23.8115 77.1748 23.4863 77.1221 23.1816C77.0693 22.8711 76.9814 22.5986 76.8584 22.3643C76.7354 22.124 76.5684 21.9365 76.3574 21.8018C76.1465 21.667 75.8828 21.5996 75.5664 21.5996C75.2559 21.5996 74.9951 21.667 74.7842 21.8018C74.5791 21.9365 74.415 22.124 74.292 22.3643C74.1689 22.5986 74.0811 22.8711 74.0283 23.1816C73.9756 23.4863 73.9492 23.8115 73.9492 24.1572ZM85.7793 29H82.9404L82.958 26.627H85.7793C86.3652 26.627 86.8604 26.4863 87.2646 26.2051C87.6748 25.9238 87.9854 25.5049 88.1963 24.9482C88.4131 24.3857 88.5215 23.6943 88.5215 22.874V22.3203C88.5215 21.7051 88.46 21.166 88.3369 20.7031C88.2197 20.2344 88.0439 19.8447 87.8096 19.5342C87.5752 19.2178 87.2822 18.9805 86.9307 18.8223C86.585 18.6641 86.1865 18.585 85.7354 18.585H82.8877V16.2031H85.7354C86.6025 16.2031 87.3965 16.3525 88.1172 16.6514C88.8438 16.9443 89.4707 17.3662 89.998 17.917C90.5312 18.4619 90.9414 19.1094 91.2285 19.8594C91.5215 20.6035 91.668 21.4297 91.668 22.3379V22.874C91.668 23.7764 91.5215 24.6025 91.2285 25.3525C90.9414 26.1025 90.5342 26.75 90.0068 27.2949C89.4795 27.8398 88.8555 28.2617 88.1348 28.5605C87.4199 28.8535 86.6348 29 85.7793 29ZM84.707 16.2031V29H81.6221V16.2031H84.707ZM98.4971 23.5596H95.2012L95.1836 21.5381H97.8555C98.3359 21.5381 98.7197 21.4854 99.0068 21.3799C99.2939 21.2686 99.502 21.1074 99.6309 20.8965C99.7656 20.6855 99.833 20.4219 99.833 20.1055C99.833 19.7422 99.7656 19.4492 99.6309 19.2266C99.4961 19.0039 99.2822 18.8428 98.9893 18.7432C98.7021 18.6377 98.3301 18.585 97.873 18.585H96.3613V29H93.2764V16.2031H97.873C98.6641 16.2031 99.3701 16.2764 99.9912 16.4229C100.612 16.5635 101.14 16.7803 101.573 17.0732C102.013 17.3662 102.347 17.7354 102.575 18.1807C102.804 18.6201 102.918 19.1387 102.918 19.7363C102.918 20.2578 102.807 20.7471 102.584 21.2041C102.361 21.6611 101.989 22.0332 101.468 22.3203C100.952 22.6016 100.246 22.748 99.3496 22.7598L98.4971 23.5596ZM98.374 29H94.4541L95.5088 26.627H98.374C98.7959 26.627 99.1328 26.5625 99.3848 26.4336C99.6426 26.2988 99.8271 26.123 99.9385 25.9062C100.056 25.6836 100.114 25.4375 100.114 25.168C100.114 24.8398 100.059 24.5557 99.9473 24.3154C99.8418 24.0752 99.6719 23.8906 99.4375 23.7617C99.2031 23.627 98.8896 23.5596 98.4971 23.5596H95.9043L95.9219 21.5381H99.0244L99.7451 22.3467C100.601 22.3115 101.277 22.4316 101.775 22.707C102.279 22.9824 102.64 23.3457 102.856 23.7969C103.073 24.248 103.182 24.7197 103.182 25.2119C103.182 26.0498 103 26.75 102.637 27.3125C102.279 27.875 101.743 28.2969 101.028 28.5781C100.313 28.8594 99.4287 29 98.374 29Z" fill="white"/>
</svg>
