<svg width="156" height="45" viewBox="0 0 156 45" fill="none" xmlns="http://www.w3.org/2000/svg">
<rect x="2" y="2" width="152" height="41" rx="3" fill="#424242"/>
<rect x="2" y="2" width="152" height="41" rx="3" stroke="#424242" stroke-width="4"/>
<path d="M28.623 16.2031V29H25.5469V16.2031H28.623ZM41.6221 22.3467V22.8652C41.6221 23.8438 41.4844 24.7227 41.209 25.502C40.9395 26.2754 40.5557 26.9375 40.0576 27.4883C39.5596 28.0332 38.9707 28.4521 38.291 28.7451C37.6113 29.0322 36.8613 29.1758 36.041 29.1758C35.2148 29.1758 34.459 29.0322 33.7734 28.7451C33.0938 28.4521 32.502 28.0332 31.998 27.4883C31.5 26.9375 31.1133 26.2754 30.8379 25.502C30.5684 24.7227 30.4336 23.8438 30.4336 22.8652V22.3467C30.4336 21.3682 30.5684 20.4893 30.8379 19.71C31.1133 18.9307 31.4971 18.2686 31.9893 17.7236C32.4873 17.1729 33.0762 16.7539 33.7559 16.4668C34.4414 16.1738 35.1973 16.0273 36.0234 16.0273C36.8438 16.0273 37.5938 16.1738 38.2734 16.4668C38.959 16.7539 39.5508 17.1729 40.0488 17.7236C40.5469 18.2686 40.9336 18.9307 41.209 19.71C41.4844 20.4893 41.6221 21.3682 41.6221 22.3467ZM38.4932 22.8652V22.3291C38.4932 21.6963 38.4375 21.1396 38.3262 20.6592C38.2207 20.1729 38.0625 19.7656 37.8516 19.4375C37.6406 19.1094 37.3799 18.8633 37.0693 18.6992C36.7646 18.5293 36.416 18.4443 36.0234 18.4443C35.6133 18.4443 35.2559 18.5293 34.9512 18.6992C34.6465 18.8633 34.3916 19.1094 34.1865 19.4375C33.9814 19.7656 33.8262 20.1729 33.7207 20.6592C33.6211 21.1396 33.5713 21.6963 33.5713 22.3291V22.8652C33.5713 23.4922 33.6211 24.0488 33.7207 24.5352C33.8262 25.0156 33.9814 25.4229 34.1865 25.7568C34.3975 26.0908 34.6553 26.3428 34.96 26.5127C35.2705 26.6826 35.6309 26.7676 36.041 26.7676C36.4336 26.7676 36.7822 26.6826 37.0869 26.5127C37.3916 26.3428 37.6465 26.0908 37.8516 25.7568C38.0625 25.4229 38.2207 25.0156 38.3262 24.5352C38.4375 24.0488 38.4932 23.4922 38.4932 22.8652ZM48.6621 16.2031V29H45.5771V16.2031H48.6621ZM52.5117 16.2031V18.585H41.8154V16.2031H52.5117ZM66.583 26.627V29H59.7627V26.627H66.583ZM60.8613 16.2031V29H57.7764V16.2031H60.8613ZM65.7041 21.2832V23.5771H59.7627V21.2832H65.7041ZM66.6094 16.2031V18.585H59.7627V16.2031H66.6094ZM74.4404 25.5986C74.4404 25.3994 74.4111 25.2207 74.3525 25.0625C74.2939 24.8984 74.1855 24.7461 74.0273 24.6055C73.8691 24.4648 73.6406 24.3242 73.3418 24.1836C73.0488 24.0371 72.6621 23.8848 72.1816 23.7266C71.6191 23.5391 71.0771 23.3281 70.5557 23.0938C70.0342 22.8535 69.5684 22.5752 69.1582 22.2588C68.748 21.9365 68.4229 21.5615 68.1826 21.1338C67.9424 20.7002 67.8223 20.1963 67.8223 19.6221C67.8223 19.0713 67.9453 18.5762 68.1914 18.1367C68.4375 17.6914 68.7803 17.3135 69.2197 17.0029C69.665 16.6865 70.1865 16.4463 70.7842 16.2822C71.3818 16.1123 72.0352 16.0273 72.7441 16.0273C73.6816 16.0273 74.5078 16.1914 75.2227 16.5195C75.9434 16.8418 76.5059 17.3018 76.9102 17.8994C77.3203 18.4912 77.5254 19.1914 77.5254 20H74.458C74.458 19.6777 74.3906 19.3936 74.2559 19.1475C74.127 18.9014 73.9307 18.708 73.667 18.5674C73.4033 18.4268 73.0723 18.3564 72.6738 18.3564C72.2871 18.3564 71.9619 18.415 71.6982 18.5322C71.4346 18.6494 71.2354 18.8076 71.1006 19.0068C70.9658 19.2002 70.8984 19.4141 70.8984 19.6484C70.8984 19.8418 70.9512 20.0176 71.0566 20.1758C71.168 20.3281 71.3232 20.4717 71.5225 20.6064C71.7275 20.7412 71.9736 20.8701 72.2607 20.9932C72.5537 21.1162 72.8818 21.2363 73.2451 21.3535C73.9248 21.5703 74.5283 21.8135 75.0557 22.083C75.5889 22.3467 76.0371 22.6484 76.4004 22.9883C76.7695 23.3223 77.0479 23.7031 77.2354 24.1309C77.4287 24.5586 77.5254 25.042 77.5254 25.5811C77.5254 26.1553 77.4141 26.665 77.1914 27.1104C76.9688 27.5557 76.6494 27.9336 76.2334 28.2441C75.8174 28.5488 75.3193 28.7803 74.7393 28.9385C74.1592 29.0967 73.5117 29.1758 72.7969 29.1758C72.1406 29.1758 71.4932 29.0938 70.8545 28.9297C70.2217 28.7598 69.6475 28.502 69.1318 28.1562C68.6162 27.8047 68.2031 27.3564 67.8926 26.8115C67.5879 26.2607 67.4355 25.6074 67.4355 24.8516H70.5293C70.5293 25.2266 70.5791 25.543 70.6787 25.8008C70.7783 26.0586 70.9248 26.2666 71.1182 26.4248C71.3115 26.5771 71.5488 26.6885 71.8301 26.7588C72.1113 26.8232 72.4336 26.8555 72.7969 26.8555C73.1895 26.8555 73.5059 26.7998 73.7461 26.6885C73.9863 26.5713 74.1621 26.4189 74.2734 26.2314C74.3848 26.0381 74.4404 25.8271 74.4404 25.5986ZM84.2227 24.6582H81.041V22.2764H84.2227C84.6562 22.2764 85.0078 22.2031 85.2773 22.0566C85.5469 21.9102 85.7432 21.708 85.8662 21.4502C85.9951 21.1865 86.0596 20.8906 86.0596 20.5625C86.0596 20.2109 85.9951 19.8857 85.8662 19.5869C85.7432 19.2881 85.5469 19.0479 85.2773 18.8662C85.0078 18.6787 84.6562 18.585 84.2227 18.585H82.2012V29H79.1162V16.2031H84.2227C85.248 16.2031 86.1299 16.3906 86.8682 16.7656C87.6123 17.1406 88.1836 17.6562 88.582 18.3125C88.9805 18.9629 89.1797 19.707 89.1797 20.5449C89.1797 21.3711 88.9805 22.0918 88.582 22.707C88.1836 23.3223 87.6123 23.8027 86.8682 24.1484C86.1299 24.4883 85.248 24.6582 84.2227 24.6582ZM99.542 25.4756C99.542 26.29 99.3486 26.9727 98.9619 27.5234C98.5811 28.0742 98.0537 28.4873 97.3799 28.7627C96.7119 29.0381 95.9502 29.1758 95.0947 29.1758C94.2451 29.1758 93.4805 29.0381 92.8008 28.7627C92.127 28.4873 91.5938 28.0742 91.2012 27.5234C90.8086 26.9727 90.6123 26.29 90.6123 25.4756C90.6123 24.9189 90.7236 24.4209 90.9463 23.9814C91.1748 23.5361 91.4912 23.1582 91.8955 22.8477C92.2998 22.5371 92.7715 22.2998 93.3105 22.1357C93.8555 21.9717 94.4443 21.8896 95.0771 21.8896C95.9326 21.8896 96.6973 22.0361 97.3711 22.3291C98.0449 22.6162 98.5752 23.0264 98.9619 23.5596C99.3486 24.0928 99.542 24.7314 99.542 25.4756ZM96.5625 25.2383C96.5625 24.8867 96.501 24.5908 96.3779 24.3506C96.2549 24.1045 96.082 23.917 95.8594 23.7881C95.6367 23.6592 95.376 23.5947 95.0771 23.5947C94.7842 23.5947 94.5234 23.6592 94.2949 23.7881C94.0723 23.917 93.8965 24.1045 93.7676 24.3506C93.6445 24.5908 93.583 24.8867 93.583 25.2383C93.583 25.5781 93.6475 25.874 93.7764 26.126C93.9053 26.3721 94.0811 26.5625 94.3037 26.6973C94.5322 26.8262 94.7959 26.8906 95.0947 26.8906C95.3936 26.8906 95.6514 26.8262 95.8682 26.6973C96.0908 26.5625 96.2607 26.3721 96.3779 26.126C96.501 25.874 96.5625 25.5781 96.5625 25.2383ZM99.2783 19.6221C99.2783 20.29 99.0996 20.876 98.7422 21.3799C98.3906 21.8779 97.8984 22.2676 97.2656 22.5488C96.6387 22.8242 95.915 22.9619 95.0947 22.9619C94.2803 22.9619 93.5537 22.8242 92.915 22.5488C92.2822 22.2676 91.7842 21.8779 91.4209 21.3799C91.0635 20.876 90.8848 20.29 90.8848 19.6221C90.8848 18.8369 91.0635 18.1777 91.4209 17.6445C91.7842 17.1113 92.2822 16.707 92.915 16.4316C93.5479 16.1562 94.2686 16.0186 95.0771 16.0186C95.8975 16.0186 96.624 16.1562 97.2568 16.4316C97.8896 16.707 98.3848 17.1113 98.7422 17.6445C99.0996 18.1777 99.2783 18.8369 99.2783 19.6221ZM96.3164 19.7803C96.3164 19.4756 96.2695 19.2148 96.1758 18.998C96.082 18.7754 95.9443 18.6055 95.7627 18.4883C95.5811 18.3652 95.3525 18.3037 95.0771 18.3037C94.8135 18.3037 94.5908 18.3623 94.4092 18.4795C94.2275 18.5967 94.0898 18.7666 93.9961 18.9893C93.9023 19.2061 93.8555 19.4697 93.8555 19.7803C93.8555 20.085 93.9023 20.3516 93.9961 20.5801C94.0898 20.8086 94.2275 20.9873 94.4092 21.1162C94.5967 21.2451 94.8252 21.3096 95.0947 21.3096C95.3701 21.3096 95.5957 21.2451 95.7715 21.1162C95.9531 20.9873 96.0879 20.8086 96.1758 20.5801C96.2695 20.3516 96.3164 20.085 96.3164 19.7803ZM110.027 26.7148V29H101.098V27.0664L105.211 22.7422C105.574 22.3262 105.867 21.9541 106.09 21.626C106.312 21.292 106.474 20.9902 106.573 20.7207C106.679 20.4512 106.731 20.208 106.731 19.9912C106.731 19.6221 106.676 19.3145 106.564 19.0684C106.459 18.8164 106.301 18.626 106.09 18.4971C105.885 18.3682 105.63 18.3037 105.325 18.3037C105.021 18.3037 104.754 18.3916 104.525 18.5674C104.297 18.7432 104.118 18.9834 103.989 19.2881C103.866 19.5928 103.805 19.9355 103.805 20.3164H100.834C100.834 19.5312 101.024 18.8135 101.405 18.1631C101.792 17.5127 102.328 16.9941 103.014 16.6074C103.699 16.2148 104.493 16.0186 105.396 16.0186C106.339 16.0186 107.13 16.165 107.769 16.458C108.407 16.751 108.888 17.1758 109.21 17.7324C109.538 18.2832 109.702 18.9482 109.702 19.7275C109.702 20.1729 109.632 20.6006 109.491 21.0107C109.351 21.4209 109.148 21.8281 108.885 22.2324C108.621 22.6309 108.299 23.041 107.918 23.4629C107.543 23.8848 107.115 24.333 106.635 24.8076L104.982 26.7148H110.027ZM118.21 16.0186H118.685V18.3477H118.526C117.958 18.3477 117.425 18.4268 116.927 18.585C116.435 18.7432 116.001 18.9834 115.626 19.3057C115.257 19.6221 114.967 20.0234 114.756 20.5098C114.551 20.9961 114.448 21.5674 114.448 22.2236V24.4648C114.448 24.875 114.483 25.2324 114.554 25.5371C114.624 25.8418 114.729 26.0938 114.87 26.293C115.011 26.4922 115.184 26.6416 115.389 26.7412C115.6 26.8408 115.843 26.8906 116.118 26.8906C116.347 26.8906 116.558 26.8379 116.751 26.7324C116.944 26.627 117.111 26.4775 117.252 26.2842C117.398 26.0908 117.51 25.8652 117.586 25.6074C117.662 25.3496 117.7 25.0684 117.7 24.7637C117.7 24.4355 117.659 24.1396 117.577 23.876C117.495 23.6123 117.378 23.3896 117.226 23.208C117.079 23.0205 116.9 22.8799 116.689 22.7861C116.484 22.6865 116.259 22.6367 116.013 22.6367C115.638 22.6367 115.318 22.7217 115.055 22.8916C114.797 23.0557 114.601 23.2666 114.466 23.5244C114.337 23.7822 114.272 24.043 114.272 24.3066L113.561 23.5859C113.549 23.2344 113.616 22.8711 113.763 22.4961C113.909 22.1211 114.129 21.7725 114.422 21.4502C114.715 21.1279 115.081 20.8672 115.521 20.668C115.96 20.4688 116.47 20.3691 117.05 20.3691C117.636 20.3691 118.151 20.4805 118.597 20.7031C119.048 20.9258 119.426 21.2363 119.73 21.6348C120.041 22.0332 120.275 22.499 120.434 23.0322C120.592 23.5654 120.671 24.1426 120.671 24.7637C120.671 25.3906 120.56 25.9736 120.337 26.5127C120.12 27.0459 119.812 27.5117 119.414 27.9102C119.016 28.3086 118.544 28.6191 117.999 28.8418C117.454 29.0645 116.854 29.1758 116.197 29.1758C115.523 29.1758 114.899 29.0615 114.325 28.833C113.757 28.5986 113.259 28.2617 112.831 27.8223C112.409 27.377 112.078 26.835 111.838 26.1963C111.604 25.5576 111.486 24.834 111.486 24.0254V22.9443C111.486 21.8486 111.665 20.873 112.022 20.0176C112.386 19.1621 112.878 18.4385 113.499 17.8467C114.126 17.249 114.844 16.7949 115.652 16.4844C116.461 16.1738 117.313 16.0186 118.21 16.0186ZM128.651 16.0186H129.126V18.3477H128.968C128.399 18.3477 127.866 18.4268 127.368 18.585C126.876 18.7432 126.442 18.9834 126.067 19.3057C125.698 19.6221 125.408 20.0234 125.197 20.5098C124.992 20.9961 124.89 21.5674 124.89 22.2236V24.4648C124.89 24.875 124.925 25.2324 124.995 25.5371C125.065 25.8418 125.171 26.0938 125.312 26.293C125.452 26.4922 125.625 26.6416 125.83 26.7412C126.041 26.8408 126.284 26.8906 126.56 26.8906C126.788 26.8906 126.999 26.8379 127.192 26.7324C127.386 26.627 127.553 26.4775 127.693 26.2842C127.84 26.0908 127.951 25.8652 128.027 25.6074C128.104 25.3496 128.142 25.0684 128.142 24.7637C128.142 24.4355 128.101 24.1396 128.019 23.876C127.937 23.6123 127.819 23.3896 127.667 23.208C127.521 23.0205 127.342 22.8799 127.131 22.7861C126.926 22.6865 126.7 22.6367 126.454 22.6367C126.079 22.6367 125.76 22.7217 125.496 22.8916C125.238 23.0557 125.042 23.2666 124.907 23.5244C124.778 23.7822 124.714 24.043 124.714 24.3066L124.002 23.5859C123.99 23.2344 124.058 22.8711 124.204 22.4961C124.351 22.1211 124.57 21.7725 124.863 21.4502C125.156 21.1279 125.522 20.8672 125.962 20.668C126.401 20.4688 126.911 20.3691 127.491 20.3691C128.077 20.3691 128.593 20.4805 129.038 20.7031C129.489 20.9258 129.867 21.2363 130.172 21.6348C130.482 22.0332 130.717 22.499 130.875 23.0322C131.033 23.5654 131.112 24.1426 131.112 24.7637C131.112 25.3906 131.001 25.9736 130.778 26.5127C130.562 27.0459 130.254 27.5117 129.855 27.9102C129.457 28.3086 128.985 28.6191 128.44 28.8418C127.896 29.0645 127.295 29.1758 126.639 29.1758C125.965 29.1758 125.341 29.0615 124.767 28.833C124.198 28.5986 123.7 28.2617 123.272 27.8223C122.851 27.377 122.52 26.835 122.279 26.1963C122.045 25.5576 121.928 24.834 121.928 24.0254V22.9443C121.928 21.8486 122.106 20.873 122.464 20.0176C122.827 19.1621 123.319 18.4385 123.94 17.8467C124.567 17.249 125.285 16.7949 126.094 16.4844C126.902 16.1738 127.755 16.0186 128.651 16.0186Z" fill="white"/>
</svg>
