<svg width="1363" height="163" viewBox="0 0 1363 163" fill="none" xmlns="http://www.w3.org/2000/svg">
<path d="M0 15C0 6.71573 6.71573 0 15 0H37V163H15C6.71573 163 0 156.284 0 148V15Z" fill="#0049B6"/>
<rect width="1097" height="163" transform="translate(37)" fill="#F0F0F0"/>
<path d="M104.414 55.3398H107.918C107.848 56.4883 107.531 57.5078 106.969 58.3984C106.414 59.2891 105.637 59.9844 104.637 60.4844C103.645 60.9844 102.449 61.2344 101.051 61.2344C99.957 61.2344 98.9766 61.0469 98.1094 60.6719C97.2422 60.2891 96.5 59.7422 95.8828 59.0312C95.2734 58.3203 94.8086 57.4609 94.4883 56.4531C94.168 55.4453 94.0078 54.3164 94.0078 53.0664V51.8828C94.0078 50.6328 94.1719 49.5039 94.5 48.4961C94.8359 47.4805 95.3125 46.6172 95.9297 45.9062C96.5547 45.1953 97.3008 44.6484 98.168 44.2656C99.0352 43.8828 100.004 43.6914 101.074 43.6914C102.496 43.6914 103.695 43.9492 104.672 44.4648C105.656 44.9805 106.418 45.6914 106.957 46.5977C107.504 47.5039 107.832 48.5352 107.941 49.6914H104.426C104.387 49.0039 104.25 48.4219 104.016 47.9453C103.781 47.4609 103.426 47.0977 102.949 46.8555C102.48 46.6055 101.855 46.4805 101.074 46.4805C100.488 46.4805 99.9766 46.5898 99.5391 46.8086C99.1016 47.0273 98.7344 47.3594 98.4375 47.8047C98.1406 48.25 97.918 48.8125 97.7695 49.4922C97.6289 50.1641 97.5586 50.9531 97.5586 51.8594V53.0664C97.5586 53.9492 97.625 54.7266 97.7578 55.3984C97.8906 56.0625 98.0938 56.625 98.3672 57.0859C98.6484 57.5391 99.0078 57.8828 99.4453 58.1172C99.8906 58.3438 100.426 58.457 101.051 58.457C101.785 58.457 102.391 58.3398 102.867 58.1055C103.344 57.8711 103.707 57.5234 103.957 57.0625C104.215 56.6016 104.367 56.0273 104.414 55.3398ZM115.852 61.2344C114.867 61.2344 113.984 61.0781 113.203 60.7656C112.422 60.4453 111.758 60.0039 111.211 59.4414C110.672 58.8789 110.258 58.2266 109.969 57.4844C109.68 56.7344 109.535 55.9375 109.535 55.0938V54.625C109.535 53.6641 109.672 52.7852 109.945 51.9883C110.219 51.1914 110.609 50.5 111.117 49.9141C111.633 49.3281 112.258 48.8789 112.992 48.5664C113.727 48.2461 114.555 48.0859 115.477 48.0859C116.375 48.0859 117.172 48.2344 117.867 48.5312C118.562 48.8281 119.145 49.25 119.613 49.7969C120.09 50.3438 120.449 51 120.691 51.7656C120.934 52.5234 121.055 53.3672 121.055 54.2969V55.7031H110.977V53.4531H117.738V53.1953C117.738 52.7266 117.652 52.3086 117.48 51.9414C117.316 51.5664 117.066 51.2695 116.73 51.0508C116.395 50.832 115.965 50.7227 115.441 50.7227C114.996 50.7227 114.613 50.8203 114.293 51.0156C113.973 51.2109 113.711 51.4844 113.508 51.8359C113.312 52.1875 113.164 52.6016 113.062 53.0781C112.969 53.5469 112.922 54.0625 112.922 54.625V55.0938C112.922 55.6016 112.992 56.0703 113.133 56.5C113.281 56.9297 113.488 57.3008 113.754 57.6133C114.027 57.9258 114.355 58.168 114.738 58.3398C115.129 58.5117 115.57 58.5977 116.062 58.5977C116.672 58.5977 117.238 58.4805 117.762 58.2461C118.293 58.0039 118.75 57.6406 119.133 57.1562L120.773 58.9375C120.508 59.3203 120.145 59.6875 119.684 60.0391C119.23 60.3906 118.684 60.6797 118.043 60.9062C117.402 61.125 116.672 61.2344 115.852 61.2344ZM126.539 43V61H123.152V43H126.539ZM135.164 61.2344C134.18 61.2344 133.297 61.0781 132.516 60.7656C131.734 60.4453 131.07 60.0039 130.523 59.4414C129.984 58.8789 129.57 58.2266 129.281 57.4844C128.992 56.7344 128.848 55.9375 128.848 55.0938V54.625C128.848 53.6641 128.984 52.7852 129.258 51.9883C129.531 51.1914 129.922 50.5 130.43 49.9141C130.945 49.3281 131.57 48.8789 132.305 48.5664C133.039 48.2461 133.867 48.0859 134.789 48.0859C135.688 48.0859 136.484 48.2344 137.18 48.5312C137.875 48.8281 138.457 49.25 138.926 49.7969C139.402 50.3438 139.762 51 140.004 51.7656C140.246 52.5234 140.367 53.3672 140.367 54.2969V55.7031H130.289V53.4531H137.051V53.1953C137.051 52.7266 136.965 52.3086 136.793 51.9414C136.629 51.5664 136.379 51.2695 136.043 51.0508C135.707 50.832 135.277 50.7227 134.754 50.7227C134.309 50.7227 133.926 50.8203 133.605 51.0156C133.285 51.2109 133.023 51.4844 132.82 51.8359C132.625 52.1875 132.477 52.6016 132.375 53.0781C132.281 53.5469 132.234 54.0625 132.234 54.625V55.0938C132.234 55.6016 132.305 56.0703 132.445 56.5C132.594 56.9297 132.801 57.3008 133.066 57.6133C133.34 57.9258 133.668 58.168 134.051 58.3398C134.441 58.5117 134.883 58.5977 135.375 58.5977C135.984 58.5977 136.551 58.4805 137.074 58.2461C137.605 58.0039 138.062 57.6406 138.445 57.1562L140.086 58.9375C139.82 59.3203 139.457 59.6875 138.996 60.0391C138.543 60.3906 137.996 60.6797 137.355 60.9062C136.715 61.125 135.984 61.2344 135.164 61.2344ZM149.145 57.4961C149.145 57.2539 149.074 57.0352 148.934 56.8398C148.793 56.6445 148.531 56.4648 148.148 56.3008C147.773 56.1289 147.23 55.9727 146.52 55.832C145.879 55.6914 145.281 55.5156 144.727 55.3047C144.18 55.0859 143.703 54.8242 143.297 54.5195C142.898 54.2148 142.586 53.8555 142.359 53.4414C142.133 53.0195 142.02 52.5391 142.02 52C142.02 51.4688 142.133 50.9688 142.359 50.5C142.594 50.0312 142.926 49.6172 143.355 49.2578C143.793 48.8906 144.324 48.6055 144.949 48.4023C145.582 48.1914 146.293 48.0859 147.082 48.0859C148.184 48.0859 149.129 48.2617 149.918 48.6133C150.715 48.9648 151.324 49.4492 151.746 50.0664C152.176 50.6758 152.391 51.3711 152.391 52.1523H149.016C149.016 51.8242 148.945 51.5312 148.805 51.2734C148.672 51.0078 148.461 50.8008 148.172 50.6523C147.891 50.4961 147.523 50.418 147.07 50.418C146.695 50.418 146.371 50.4844 146.098 50.6172C145.824 50.7422 145.613 50.9141 145.465 51.1328C145.324 51.3438 145.254 51.5781 145.254 51.8359C145.254 52.0312 145.293 52.207 145.371 52.3633C145.457 52.5117 145.594 52.6484 145.781 52.7734C145.969 52.8984 146.211 53.0156 146.508 53.125C146.812 53.2266 147.188 53.3203 147.633 53.4062C148.547 53.5938 149.363 53.8398 150.082 54.1445C150.801 54.4414 151.371 54.8477 151.793 55.3633C152.215 55.8711 152.426 56.5391 152.426 57.3672C152.426 57.9297 152.301 58.4453 152.051 58.9141C151.801 59.3828 151.441 59.793 150.973 60.1445C150.504 60.4883 149.941 60.7578 149.285 60.9531C148.637 61.1406 147.906 61.2344 147.094 61.2344C145.914 61.2344 144.914 61.0234 144.094 60.6016C143.281 60.1797 142.664 59.6445 142.242 58.9961C141.828 58.3398 141.621 57.668 141.621 56.9805H144.82C144.836 57.4414 144.953 57.8125 145.172 58.0938C145.398 58.375 145.684 58.5781 146.027 58.7031C146.379 58.8281 146.758 58.8906 147.164 58.8906C147.602 58.8906 147.965 58.832 148.254 58.7148C148.543 58.5898 148.762 58.4258 148.91 58.2227C149.066 58.0117 149.145 57.7695 149.145 57.4961ZM160.828 48.3203V50.7109H153.445V48.3203H160.828ZM155.273 45.1914H158.648V57.1797C158.648 57.5469 158.695 57.8281 158.789 58.0234C158.891 58.2188 159.039 58.3555 159.234 58.4336C159.43 58.5039 159.676 58.5391 159.973 58.5391C160.184 58.5391 160.371 58.5312 160.535 58.5156C160.707 58.4922 160.852 58.4688 160.969 58.4453L160.98 60.9297C160.691 61.0234 160.379 61.0977 160.043 61.1523C159.707 61.207 159.336 61.2344 158.93 61.2344C158.188 61.2344 157.539 61.1133 156.984 60.8711C156.438 60.6211 156.016 60.2227 155.719 59.6758C155.422 59.1289 155.273 58.4102 155.273 57.5195V45.1914ZM166.312 48.3203V61H162.926V48.3203H166.312ZM162.715 45.0156C162.715 44.5234 162.887 44.1172 163.23 43.7969C163.574 43.4766 164.035 43.3164 164.613 43.3164C165.184 43.3164 165.641 43.4766 165.984 43.7969C166.336 44.1172 166.512 44.5234 166.512 45.0156C166.512 45.5078 166.336 45.9141 165.984 46.2344C165.641 46.5547 165.184 46.7148 164.613 46.7148C164.035 46.7148 163.574 46.5547 163.23 46.2344C162.887 45.9141 162.715 45.5078 162.715 45.0156ZM175.945 58.1406V52.4922C175.945 52.0859 175.879 51.7383 175.746 51.4492C175.613 51.1523 175.406 50.9219 175.125 50.7578C174.852 50.5938 174.496 50.5117 174.059 50.5117C173.684 50.5117 173.359 50.5781 173.086 50.7109C172.812 50.8359 172.602 51.0195 172.453 51.2617C172.305 51.4961 172.23 51.7734 172.23 52.0938H168.855C168.855 51.5547 168.98 51.043 169.23 50.5586C169.48 50.0742 169.844 49.6484 170.32 49.2812C170.797 48.9062 171.363 48.6133 172.02 48.4023C172.684 48.1914 173.426 48.0859 174.246 48.0859C175.23 48.0859 176.105 48.25 176.871 48.5781C177.637 48.9062 178.238 49.3984 178.676 50.0547C179.121 50.7109 179.344 51.5312 179.344 52.5156V57.9414C179.344 58.6367 179.387 59.207 179.473 59.6523C179.559 60.0898 179.684 60.4727 179.848 60.8008V61H176.438C176.273 60.6562 176.148 60.2266 176.062 59.7109C175.984 59.1875 175.945 58.6641 175.945 58.1406ZM176.391 53.2773L176.414 55.1875H174.527C174.082 55.1875 173.695 55.2383 173.367 55.3398C173.039 55.4414 172.77 55.5859 172.559 55.7734C172.348 55.9531 172.191 56.1641 172.09 56.4062C171.996 56.6484 171.949 56.9141 171.949 57.2031C171.949 57.4922 172.016 57.7539 172.148 57.9883C172.281 58.2148 172.473 58.3945 172.723 58.5273C172.973 58.6523 173.266 58.7148 173.602 58.7148C174.109 58.7148 174.551 58.6133 174.926 58.4102C175.301 58.207 175.59 57.957 175.793 57.6602C176.004 57.3633 176.113 57.082 176.121 56.8164L177.012 58.2461C176.887 58.5664 176.715 58.8984 176.496 59.2422C176.285 59.5859 176.016 59.9102 175.688 60.2148C175.359 60.5117 174.965 60.7578 174.504 60.9531C174.043 61.1406 173.496 61.2344 172.863 61.2344C172.059 61.2344 171.328 61.0742 170.672 60.7539C170.023 60.4258 169.508 59.9766 169.125 59.4062C168.75 58.8281 168.562 58.1719 168.562 57.4375C168.562 56.7734 168.688 56.1836 168.938 55.668C169.188 55.1523 169.555 54.7188 170.039 54.3672C170.531 54.0078 171.145 53.7383 171.879 53.5586C172.613 53.3711 173.465 53.2773 174.434 53.2773H176.391ZM185.508 43V61H182.121V43H185.508ZM195.152 54.918H190.805V52.1758H195.152C195.824 52.1758 196.371 52.0664 196.793 51.8477C197.215 51.6211 197.523 51.3086 197.719 50.9102C197.914 50.5117 198.012 50.0625 198.012 49.5625C198.012 49.0547 197.914 48.582 197.719 48.1445C197.523 47.707 197.215 47.3555 196.793 47.0898C196.371 46.8242 195.824 46.6914 195.152 46.6914H192.023V61H188.508V43.9375H195.152C196.488 43.9375 197.633 44.1797 198.586 44.6641C199.547 45.1406 200.281 45.8008 200.789 46.6445C201.297 47.4883 201.551 48.4531 201.551 49.5391C201.551 50.6406 201.297 51.5938 200.789 52.3984C200.281 53.2031 199.547 53.8242 198.586 54.2617C197.633 54.6992 196.488 54.918 195.152 54.918ZM210.469 58.1406V52.4922C210.469 52.0859 210.402 51.7383 210.27 51.4492C210.137 51.1523 209.93 50.9219 209.648 50.7578C209.375 50.5938 209.02 50.5117 208.582 50.5117C208.207 50.5117 207.883 50.5781 207.609 50.7109C207.336 50.8359 207.125 51.0195 206.977 51.2617C206.828 51.4961 206.754 51.7734 206.754 52.0938H203.379C203.379 51.5547 203.504 51.043 203.754 50.5586C204.004 50.0742 204.367 49.6484 204.844 49.2812C205.32 48.9062 205.887 48.6133 206.543 48.4023C207.207 48.1914 207.949 48.0859 208.77 48.0859C209.754 48.0859 210.629 48.25 211.395 48.5781C212.16 48.9062 212.762 49.3984 213.199 50.0547C213.645 50.7109 213.867 51.5312 213.867 52.5156V57.9414C213.867 58.6367 213.91 59.207 213.996 59.6523C214.082 60.0898 214.207 60.4727 214.371 60.8008V61H210.961C210.797 60.6562 210.672 60.2266 210.586 59.7109C210.508 59.1875 210.469 58.6641 210.469 58.1406ZM210.914 53.2773L210.938 55.1875H209.051C208.605 55.1875 208.219 55.2383 207.891 55.3398C207.562 55.4414 207.293 55.5859 207.082 55.7734C206.871 55.9531 206.715 56.1641 206.613 56.4062C206.52 56.6484 206.473 56.9141 206.473 57.2031C206.473 57.4922 206.539 57.7539 206.672 57.9883C206.805 58.2148 206.996 58.3945 207.246 58.5273C207.496 58.6523 207.789 58.7148 208.125 58.7148C208.633 58.7148 209.074 58.6133 209.449 58.4102C209.824 58.207 210.113 57.957 210.316 57.6602C210.527 57.3633 210.637 57.082 210.645 56.8164L211.535 58.2461C211.41 58.5664 211.238 58.8984 211.02 59.2422C210.809 59.5859 210.539 59.9102 210.211 60.2148C209.883 60.5117 209.488 60.7578 209.027 60.9531C208.566 61.1406 208.02 61.2344 207.387 61.2344C206.582 61.2344 205.852 61.0742 205.195 60.7539C204.547 60.4258 204.031 59.9766 203.648 59.4062C203.273 58.8281 203.086 58.1719 203.086 57.4375C203.086 56.7734 203.211 56.1836 203.461 55.668C203.711 55.1523 204.078 54.7188 204.562 54.3672C205.055 54.0078 205.668 53.7383 206.402 53.5586C207.137 53.3711 207.988 53.2773 208.957 53.2773H210.914ZM222.68 48.3203V50.7109H215.297V48.3203H222.68ZM217.125 45.1914H220.5V57.1797C220.5 57.5469 220.547 57.8281 220.641 58.0234C220.742 58.2188 220.891 58.3555 221.086 58.4336C221.281 58.5039 221.527 58.5391 221.824 58.5391C222.035 58.5391 222.223 58.5312 222.387 58.5156C222.559 58.4922 222.703 58.4688 222.82 58.4453L222.832 60.9297C222.543 61.0234 222.23 61.0977 221.895 61.1523C221.559 61.207 221.188 61.2344 220.781 61.2344C220.039 61.2344 219.391 61.1133 218.836 60.8711C218.289 60.6211 217.867 60.2227 217.57 59.6758C217.273 59.1289 217.125 58.4102 217.125 57.5195V45.1914ZM227.895 43V61H224.52V43H227.895ZM227.414 54.2148H226.488C226.496 53.332 226.613 52.5195 226.84 51.7773C227.066 51.0273 227.391 50.3789 227.812 49.832C228.234 49.2773 228.738 48.8477 229.324 48.543C229.918 48.2383 230.574 48.0859 231.293 48.0859C231.918 48.0859 232.484 48.1758 232.992 48.3555C233.508 48.5273 233.949 48.8086 234.316 49.1992C234.691 49.582 234.98 50.0859 235.184 50.7109C235.387 51.3359 235.488 52.0938 235.488 52.9844V61H232.09V52.9609C232.09 52.3984 232.008 51.957 231.844 51.6367C231.688 51.3086 231.457 51.0781 231.152 50.9453C230.855 50.8047 230.488 50.7344 230.051 50.7344C229.566 50.7344 229.152 50.8242 228.809 51.0039C228.473 51.1836 228.203 51.4336 228 51.7539C227.797 52.0664 227.648 52.4336 227.555 52.8555C227.461 53.2773 227.414 53.7305 227.414 54.2148ZM241.676 57.7188L244.312 48.3203H246.457L245.766 52.0117L243.129 61H241.336L241.676 57.7188ZM240.34 48.3203L242.227 57.707L242.402 61H240.293L237.082 48.3203H240.34ZM248.871 57.5547L250.711 48.3203H253.98L250.77 61H248.672L248.871 57.5547ZM246.75 48.3203L249.375 57.6484L249.738 61H247.934L245.297 52.0234L244.629 48.3203H246.75ZM262.523 58.1406V52.4922C262.523 52.0859 262.457 51.7383 262.324 51.4492C262.191 51.1523 261.984 50.9219 261.703 50.7578C261.43 50.5938 261.074 50.5117 260.637 50.5117C260.262 50.5117 259.938 50.5781 259.664 50.7109C259.391 50.8359 259.18 51.0195 259.031 51.2617C258.883 51.4961 258.809 51.7734 258.809 52.0938H255.434C255.434 51.5547 255.559 51.043 255.809 50.5586C256.059 50.0742 256.422 49.6484 256.898 49.2812C257.375 48.9062 257.941 48.6133 258.598 48.4023C259.262 48.1914 260.004 48.0859 260.824 48.0859C261.809 48.0859 262.684 48.25 263.449 48.5781C264.215 48.9062 264.816 49.3984 265.254 50.0547C265.699 50.7109 265.922 51.5312 265.922 52.5156V57.9414C265.922 58.6367 265.965 59.207 266.051 59.6523C266.137 60.0898 266.262 60.4727 266.426 60.8008V61H263.016C262.852 60.6562 262.727 60.2266 262.641 59.7109C262.562 59.1875 262.523 58.6641 262.523 58.1406ZM262.969 53.2773L262.992 55.1875H261.105C260.66 55.1875 260.273 55.2383 259.945 55.3398C259.617 55.4414 259.348 55.5859 259.137 55.7734C258.926 55.9531 258.77 56.1641 258.668 56.4062C258.574 56.6484 258.527 56.9141 258.527 57.2031C258.527 57.4922 258.594 57.7539 258.727 57.9883C258.859 58.2148 259.051 58.3945 259.301 58.5273C259.551 58.6523 259.844 58.7148 260.18 58.7148C260.688 58.7148 261.129 58.6133 261.504 58.4102C261.879 58.207 262.168 57.957 262.371 57.6602C262.582 57.3633 262.691 57.082 262.699 56.8164L263.59 58.2461C263.465 58.5664 263.293 58.8984 263.074 59.2422C262.863 59.5859 262.594 59.9102 262.266 60.2148C261.938 60.5117 261.543 60.7578 261.082 60.9531C260.621 61.1406 260.074 61.2344 259.441 61.2344C258.637 61.2344 257.906 61.0742 257.25 60.7539C256.602 60.4258 256.086 59.9766 255.703 59.4062C255.328 58.8281 255.141 58.1719 255.141 57.4375C255.141 56.7734 255.266 56.1836 255.516 55.668C255.766 55.1523 256.133 54.7188 256.617 54.3672C257.109 54.0078 257.723 53.7383 258.457 53.5586C259.191 53.3711 260.043 53.2773 261.012 53.2773H262.969ZM272.098 59.5703L275.461 48.3203H279.082L273.984 62.9102C273.875 63.2305 273.727 63.5742 273.539 63.9414C273.359 64.3086 273.113 64.6562 272.801 64.9844C272.496 65.3203 272.109 65.5938 271.641 65.8047C271.18 66.0156 270.613 66.1211 269.941 66.1211C269.621 66.1211 269.359 66.1016 269.156 66.0625C268.953 66.0234 268.711 65.9688 268.43 65.8984V63.4258C268.516 63.4258 268.605 63.4258 268.699 63.4258C268.793 63.4336 268.883 63.4375 268.969 63.4375C269.414 63.4375 269.777 63.3867 270.059 63.2852C270.34 63.1836 270.566 63.0273 270.738 62.8164C270.91 62.6133 271.047 62.3477 271.148 62.0195L272.098 59.5703ZM270.691 48.3203L273.445 57.5078L273.926 61.082L271.629 61.3281L267.07 48.3203H270.691Z" fill="#888888"/>
<path d="M112.125 84.875V119H103.898V84.875H112.125ZM122.391 84.875V91.2266H93.8672V84.875H122.391ZM135.68 119.469C133.617 119.469 131.773 119.148 130.148 118.508C128.523 117.852 127.148 116.953 126.023 115.812C124.914 114.672 124.062 113.359 123.469 111.875C122.891 110.391 122.602 108.82 122.602 107.164V106.273C122.602 104.414 122.859 102.695 123.375 101.117C123.891 99.5234 124.656 98.1328 125.672 96.9453C126.688 95.7578 127.961 94.8359 129.492 94.1797C131.023 93.5078 132.805 93.1719 134.836 93.1719C136.633 93.1719 138.242 93.4609 139.664 94.0391C141.086 94.6172 142.289 95.4453 143.273 96.5234C144.273 97.6016 145.031 98.9062 145.547 100.438C146.078 101.969 146.344 103.688 146.344 105.594V108.805H125.625V103.859H138.633V103.25C138.648 102.406 138.5 101.688 138.188 101.094C137.891 100.5 137.453 100.047 136.875 99.7344C136.297 99.4219 135.594 99.2656 134.766 99.2656C133.906 99.2656 133.195 99.4531 132.633 99.8281C132.086 100.203 131.656 100.719 131.344 101.375C131.047 102.016 130.836 102.758 130.711 103.602C130.586 104.445 130.523 105.336 130.523 106.273V107.164C130.523 108.102 130.648 108.953 130.898 109.719C131.164 110.484 131.539 111.141 132.023 111.688C132.523 112.219 133.117 112.633 133.805 112.93C134.508 113.227 135.305 113.375 136.195 113.375C137.273 113.375 138.336 113.172 139.383 112.766C140.43 112.359 141.328 111.688 142.078 110.75L145.664 115.016C145.148 115.75 144.414 116.461 143.461 117.148C142.523 117.836 141.398 118.398 140.086 118.836C138.773 119.258 137.305 119.469 135.68 119.469ZM160.266 113.375C161 113.375 161.625 113.242 162.141 112.977C162.672 112.695 163.07 112.305 163.336 111.805C163.617 111.289 163.75 110.672 163.734 109.953H171.164C171.18 111.859 170.711 113.531 169.758 114.969C168.82 116.391 167.539 117.5 165.914 118.297C164.305 119.078 162.484 119.469 160.453 119.469C158.469 119.469 156.734 119.148 155.25 118.508C153.766 117.852 152.523 116.945 151.523 115.789C150.539 114.617 149.797 113.25 149.297 111.688C148.812 110.125 148.57 108.43 148.57 106.602V106.062C148.57 104.234 148.812 102.539 149.297 100.977C149.797 99.3984 150.539 98.0312 151.523 96.875C152.523 95.7031 153.758 94.7969 155.227 94.1562C156.711 93.5 158.438 93.1719 160.406 93.1719C162.516 93.1719 164.375 93.5703 165.984 94.3672C167.609 95.1641 168.883 96.3203 169.805 97.8359C170.727 99.3516 171.18 101.188 171.164 103.344H163.734C163.75 102.578 163.633 101.891 163.383 101.281C163.133 100.672 162.742 100.188 162.211 99.8281C161.695 99.4531 161.031 99.2656 160.219 99.2656C159.406 99.2656 158.75 99.4453 158.25 99.8047C157.75 100.164 157.367 100.664 157.102 101.305C156.852 101.93 156.68 102.648 156.586 103.461C156.508 104.273 156.469 105.141 156.469 106.062V106.602C156.469 107.539 156.508 108.422 156.586 109.25C156.68 110.062 156.859 110.781 157.125 111.406C157.391 112.016 157.773 112.5 158.273 112.859C158.773 113.203 159.438 113.375 160.266 113.375ZM182.273 83V119H174.375V83H182.273ZM181.336 105.453L179.484 105.5C179.484 103.719 179.703 102.078 180.141 100.578C180.578 99.0781 181.203 97.7734 182.016 96.6641C182.828 95.5547 183.805 94.6953 184.945 94.0859C186.086 93.4766 187.352 93.1719 188.742 93.1719C189.992 93.1719 191.133 93.3516 192.164 93.7109C193.211 94.0703 194.109 94.6484 194.859 95.4453C195.625 96.2422 196.211 97.2812 196.617 98.5625C197.039 99.8438 197.25 101.406 197.25 103.25V119H189.305V103.203C189.305 102.172 189.156 101.375 188.859 100.812C188.578 100.234 188.172 99.8359 187.641 99.6172C187.109 99.3828 186.461 99.2656 185.695 99.2656C184.773 99.2656 184.023 99.4219 183.445 99.7344C182.867 100.047 182.422 100.484 182.109 101.047C181.812 101.594 181.609 102.242 181.5 102.992C181.391 103.742 181.336 104.562 181.336 105.453ZM231.539 109.93C231.539 109.398 231.461 108.922 231.305 108.5C231.148 108.062 230.859 107.656 230.438 107.281C230.016 106.906 229.406 106.531 228.609 106.156C227.828 105.766 226.797 105.359 225.516 104.938C224.016 104.438 222.57 103.875 221.18 103.25C219.789 102.609 218.547 101.867 217.453 101.023C216.359 100.164 215.492 99.1641 214.852 98.0234C214.211 96.8672 213.891 95.5234 213.891 93.9922C213.891 92.5234 214.219 91.2031 214.875 90.0312C215.531 88.8438 216.445 87.8359 217.617 87.0078C218.805 86.1641 220.195 85.5234 221.789 85.0859C223.383 84.6328 225.125 84.4062 227.016 84.4062C229.516 84.4062 231.719 84.8438 233.625 85.7188C235.547 86.5781 237.047 87.8047 238.125 89.3984C239.219 90.9766 239.766 92.8438 239.766 95H231.586C231.586 94.1406 231.406 93.3828 231.047 92.7266C230.703 92.0703 230.18 91.5547 229.477 91.1797C228.773 90.8047 227.891 90.6172 226.828 90.6172C225.797 90.6172 224.93 90.7734 224.227 91.0859C223.523 91.3984 222.992 91.8203 222.633 92.3516C222.273 92.8672 222.094 93.4375 222.094 94.0625C222.094 94.5781 222.234 95.0469 222.516 95.4688C222.812 95.875 223.227 96.2578 223.758 96.6172C224.305 96.9766 224.961 97.3203 225.727 97.6484C226.508 97.9766 227.383 98.2969 228.352 98.6094C230.164 99.1875 231.773 99.8359 233.18 100.555C234.602 101.258 235.797 102.062 236.766 102.969C237.75 103.859 238.492 104.875 238.992 106.016C239.508 107.156 239.766 108.445 239.766 109.883C239.766 111.414 239.469 112.773 238.875 113.961C238.281 115.148 237.43 116.156 236.32 116.984C235.211 117.797 233.883 118.414 232.336 118.836C230.789 119.258 229.062 119.469 227.156 119.469C225.406 119.469 223.68 119.25 221.977 118.812C220.289 118.359 218.758 117.672 217.383 116.75C216.008 115.812 214.906 114.617 214.078 113.164C213.266 111.695 212.859 109.953 212.859 107.938H221.109C221.109 108.938 221.242 109.781 221.508 110.469C221.773 111.156 222.164 111.711 222.68 112.133C223.195 112.539 223.828 112.836 224.578 113.023C225.328 113.195 226.188 113.281 227.156 113.281C228.203 113.281 229.047 113.133 229.688 112.836C230.328 112.523 230.797 112.117 231.094 111.617C231.391 111.102 231.539 110.539 231.539 109.93ZM256.992 93.6406V99.125H241.711V93.6406H256.992ZM244.922 87.3359H252.82V110.727C252.82 111.398 252.898 111.922 253.055 112.297C253.211 112.656 253.477 112.914 253.852 113.07C254.242 113.211 254.758 113.281 255.398 113.281C255.852 113.281 256.227 113.273 256.523 113.258C256.82 113.227 257.102 113.188 257.367 113.141V118.789C256.695 119.008 255.992 119.172 255.258 119.281C254.523 119.406 253.742 119.469 252.914 119.469C251.227 119.469 249.781 119.203 248.578 118.672C247.391 118.141 246.484 117.305 245.859 116.164C245.234 115.023 244.922 113.539 244.922 111.711V87.3359ZM273.305 112.625V102.172C273.305 101.453 273.203 100.836 273 100.32C272.797 99.8047 272.477 99.4062 272.039 99.125C271.602 98.8281 271.016 98.6797 270.281 98.6797C269.688 98.6797 269.18 98.7812 268.758 98.9844C268.336 99.1875 268.016 99.4922 267.797 99.8984C267.578 100.305 267.469 100.82 267.469 101.445H259.57C259.57 100.273 259.828 99.1875 260.344 98.1875C260.875 97.1719 261.625 96.2891 262.594 95.5391C263.578 94.7891 264.75 94.2109 266.109 93.8047C267.484 93.3828 269.016 93.1719 270.703 93.1719C272.719 93.1719 274.516 93.5078 276.094 94.1797C277.688 94.8516 278.945 95.8594 279.867 97.2031C280.789 98.5312 281.25 100.203 281.25 102.219V112.602C281.25 114.258 281.344 115.516 281.531 116.375C281.719 117.219 281.984 117.961 282.328 118.602V119H274.406C274.031 118.219 273.75 117.266 273.562 116.141C273.391 115 273.305 113.828 273.305 112.625ZM274.266 103.508L274.312 107.727H270.82C270.086 107.727 269.461 107.828 268.945 108.031C268.445 108.234 268.039 108.516 267.727 108.875C267.43 109.219 267.211 109.609 267.07 110.047C266.945 110.484 266.883 110.945 266.883 111.43C266.883 111.898 266.992 112.32 267.211 112.695C267.445 113.055 267.758 113.336 268.148 113.539C268.539 113.742 268.977 113.844 269.461 113.844C270.336 113.844 271.078 113.68 271.688 113.352C272.312 113.008 272.789 112.594 273.117 112.109C273.445 111.625 273.609 111.172 273.609 110.75L275.344 113.984C275.031 114.609 274.672 115.242 274.266 115.883C273.875 116.523 273.383 117.117 272.789 117.664C272.211 118.195 271.5 118.633 270.656 118.977C269.812 119.305 268.789 119.469 267.586 119.469C266.023 119.469 264.586 119.148 263.273 118.508C261.977 117.867 260.938 116.977 260.156 115.836C259.375 114.68 258.984 113.352 258.984 111.852C258.984 110.539 259.219 109.367 259.688 108.336C260.172 107.305 260.898 106.43 261.867 105.711C262.836 104.992 264.07 104.445 265.57 104.07C267.07 103.695 268.836 103.508 270.867 103.508H274.266ZM296.344 113.375C297.078 113.375 297.703 113.242 298.219 112.977C298.75 112.695 299.148 112.305 299.414 111.805C299.695 111.289 299.828 110.672 299.812 109.953H307.242C307.258 111.859 306.789 113.531 305.836 114.969C304.898 116.391 303.617 117.5 301.992 118.297C300.383 119.078 298.562 119.469 296.531 119.469C294.547 119.469 292.812 119.148 291.328 118.508C289.844 117.852 288.602 116.945 287.602 115.789C286.617 114.617 285.875 113.25 285.375 111.688C284.891 110.125 284.648 108.43 284.648 106.602V106.062C284.648 104.234 284.891 102.539 285.375 100.977C285.875 99.3984 286.617 98.0312 287.602 96.875C288.602 95.7031 289.836 94.7969 291.305 94.1562C292.789 93.5 294.516 93.1719 296.484 93.1719C298.594 93.1719 300.453 93.5703 302.062 94.3672C303.688 95.1641 304.961 96.3203 305.883 97.8359C306.805 99.3516 307.258 101.188 307.242 103.344H299.812C299.828 102.578 299.711 101.891 299.461 101.281C299.211 100.672 298.82 100.188 298.289 99.8281C297.773 99.4531 297.109 99.2656 296.297 99.2656C295.484 99.2656 294.828 99.4453 294.328 99.8047C293.828 100.164 293.445 100.664 293.18 101.305C292.93 101.93 292.758 102.648 292.664 103.461C292.586 104.273 292.547 105.141 292.547 106.062V106.602C292.547 107.539 292.586 108.422 292.664 109.25C292.758 110.062 292.938 110.781 293.203 111.406C293.469 112.016 293.852 112.5 294.352 112.859C294.852 113.203 295.516 113.375 296.344 113.375ZM318.586 82.9766V119H310.688V82.9766H318.586ZM334.805 93.6406L323.789 106.555L318.023 112.32L314.578 107.305L319.383 101.047L325.336 93.6406H334.805ZM326.344 119L319.57 107.445L325.406 103.297L335.391 119H326.344ZM350.156 111.875C350.156 111.438 350.008 111.062 349.711 110.75C349.43 110.422 348.93 110.125 348.211 109.859C347.492 109.578 346.484 109.297 345.188 109.016C343.953 108.75 342.789 108.398 341.695 107.961C340.617 107.523 339.672 106.992 338.859 106.367C338.047 105.742 337.406 105 336.938 104.141C336.484 103.281 336.258 102.297 336.258 101.188C336.258 100.109 336.484 99.0938 336.938 98.1406C337.406 97.1719 338.086 96.3203 338.977 95.5859C339.883 94.8359 340.984 94.25 342.281 93.8281C343.578 93.3906 345.055 93.1719 346.711 93.1719C348.992 93.1719 350.961 93.5234 352.617 94.2266C354.273 94.9141 355.547 95.8828 356.438 97.1328C357.344 98.3672 357.797 99.7969 357.797 101.422H349.898C349.898 100.781 349.789 100.234 349.57 99.7812C349.367 99.3281 349.031 98.9844 348.562 98.75C348.094 98.5 347.469 98.375 346.688 98.375C346.141 98.375 345.641 98.4766 345.188 98.6797C344.75 98.8828 344.398 99.1641 344.133 99.5234C343.867 99.8828 343.734 100.305 343.734 100.789C343.734 101.133 343.812 101.445 343.969 101.727C344.141 101.992 344.398 102.242 344.742 102.477C345.086 102.695 345.523 102.898 346.055 103.086C346.586 103.258 347.227 103.414 347.977 103.555C349.68 103.867 351.273 104.312 352.758 104.891C354.242 105.469 355.445 106.289 356.367 107.352C357.305 108.414 357.773 109.844 357.773 111.641C357.773 112.766 357.516 113.805 357 114.758C356.484 115.695 355.742 116.523 354.773 117.242C353.805 117.945 352.641 118.492 351.281 118.883C349.922 119.273 348.391 119.469 346.688 119.469C344.266 119.469 342.219 119.039 340.547 118.18C338.875 117.305 337.609 116.211 336.75 114.898C335.906 113.57 335.484 112.227 335.484 110.867H342.844C342.875 111.648 343.062 112.289 343.406 112.789C343.766 113.289 344.242 113.656 344.836 113.891C345.43 114.125 346.117 114.242 346.898 114.242C347.617 114.242 348.211 114.141 348.68 113.938C349.164 113.734 349.531 113.461 349.781 113.117C350.031 112.758 350.156 112.344 350.156 111.875Z" fill="black"/>
<path d="M1134 0H1348C1356.28 0 1363 6.71573 1363 15V148C1363 156.284 1356.28 163 1348 163H1134V0Z" fill="black"/>
<path fill-rule="evenodd" clip-rule="evenodd" d="M1219.98 53C1219.85 53 1219.73 53.0527 1219.64 53.1464C1219.55 53.2402 1219.5 53.3674 1219.5 53.5V109.5C1219.5 109.633 1219.55 109.76 1219.64 109.854C1219.73 109.947 1219.85 110 1219.98 110H1277.02C1277.15 110 1277.27 109.947 1277.36 109.854C1277.45 109.76 1277.5 109.633 1277.5 109.5V64C1277.5 63.8674 1277.45 63.7402 1277.36 63.6464C1277.27 63.5527 1277.15 63.5 1277.02 63.5H1248.5C1247.65 63.5 1246.84 63.1045 1246.29 62.4206L1238.77 53H1219.98ZM1215.58 48.9038C1216.74 47.6848 1218.33 47 1219.98 47H1240.11C1240.97 47 1241.77 47.3955 1242.32 48.0794L1249.85 57.5H1277.02C1278.67 57.5 1280.26 58.1848 1281.42 59.4038C1282.59 60.6228 1283.25 62.2761 1283.25 64V109.5C1283.25 111.224 1282.59 112.877 1281.42 114.096C1280.26 115.315 1278.67 116 1277.02 116H1219.98C1218.33 116 1216.74 115.315 1215.58 114.096C1214.41 112.877 1213.75 111.224 1213.75 109.5V53.5C1213.75 51.7761 1214.41 50.1228 1215.58 48.9038Z" fill="#0049B6"/>
<path fill-rule="evenodd" clip-rule="evenodd" d="M1244.16 75.5251C1245.47 76.892 1245.47 79.108 1244.16 80.4749L1238.15 86.75L1244.16 93.0251C1245.47 94.392 1245.47 96.608 1244.16 97.9749C1242.85 99.3417 1240.73 99.3417 1239.42 97.9749L1231.03 89.2249C1229.72 87.858 1229.72 85.642 1231.03 84.2751L1239.42 75.5251C1240.73 74.1583 1242.85 74.1583 1244.16 75.5251Z" fill="#0049B6"/>
<path fill-rule="evenodd" clip-rule="evenodd" d="M1252.12 97.9749C1250.81 96.608 1250.81 94.392 1252.12 93.0251L1258.13 86.75L1252.12 80.4749C1250.81 79.108 1250.81 76.892 1252.12 75.5251C1253.43 74.1583 1255.55 74.1583 1256.86 75.5251L1265.25 84.2751C1266.56 85.642 1266.56 87.858 1265.25 89.2249L1256.86 97.9749C1255.55 99.3417 1253.43 99.3417 1252.12 97.9749Z" fill="#0049B6"/>
</svg>
