<svg width="1363" height="163" viewBox="0 0 1363 163" fill="none" xmlns="http://www.w3.org/2000/svg">
<path d="M0 15C0 6.71573 6.71573 0 15 0H37V163H15C6.71573 163 0 156.284 0 148V15Z" fill="#61DBFB"/>
<rect width="1097" height="163" transform="translate(37)" fill="#F0F0F0"/>
<path d="M103.406 56.5352C103.406 56.2305 103.359 55.957 103.266 55.7148C103.18 55.4648 103.016 55.2383 102.773 55.0352C102.531 54.8242 102.191 54.6172 101.754 54.4141C101.316 54.2109 100.75 54 100.055 53.7812C99.2812 53.5312 98.5469 53.25 97.8516 52.9375C97.1641 52.625 96.5547 52.2617 96.0234 51.8477C95.5 51.4258 95.0859 50.9375 94.7812 50.3828C94.4844 49.8281 94.3359 49.1836 94.3359 48.4492C94.3359 47.7383 94.4922 47.0938 94.8047 46.5156C95.1172 45.9297 95.5547 45.4297 96.1172 45.0156C96.6797 44.5938 97.3438 44.2695 98.1094 44.043C98.8828 43.8164 99.7305 43.7031 100.652 43.7031C101.91 43.7031 103.008 43.9297 103.945 44.3828C104.883 44.8359 105.609 45.457 106.125 46.2461C106.648 47.0352 106.91 47.9375 106.91 48.9531H103.418C103.418 48.4531 103.312 48.0156 103.102 47.6406C102.898 47.2578 102.586 46.957 102.164 46.7383C101.75 46.5195 101.227 46.4102 100.594 46.4102C99.9844 46.4102 99.4766 46.5039 99.0703 46.6914C98.6641 46.8711 98.3594 47.1172 98.1562 47.4297C97.9531 47.7344 97.8516 48.0781 97.8516 48.4609C97.8516 48.75 97.9219 49.0117 98.0625 49.2461C98.2109 49.4805 98.4297 49.6992 98.7188 49.9023C99.0078 50.1055 99.3633 50.2969 99.7852 50.4766C100.207 50.6562 100.695 50.832 101.25 51.0039C102.18 51.2852 102.996 51.6016 103.699 51.9531C104.41 52.3047 105.004 52.6992 105.48 53.1367C105.957 53.5742 106.316 54.0703 106.559 54.625C106.801 55.1797 106.922 55.8086 106.922 56.5117C106.922 57.2539 106.777 57.918 106.488 58.5039C106.199 59.0898 105.781 59.5859 105.234 59.9922C104.688 60.3984 104.035 60.707 103.277 60.918C102.52 61.1289 101.672 61.2344 100.734 61.2344C99.8906 61.2344 99.0586 61.125 98.2383 60.9062C97.418 60.6797 96.6719 60.3398 96 59.8867C95.3359 59.4336 94.8047 58.8555 94.4062 58.1523C94.0078 57.4492 93.8086 56.6172 93.8086 55.6562H97.3359C97.3359 56.1875 97.418 56.6367 97.582 57.0039C97.7461 57.3711 97.9766 57.668 98.2734 57.8945C98.5781 58.1211 98.9375 58.2852 99.3516 58.3867C99.7734 58.4883 100.234 58.5391 100.734 58.5391C101.344 58.5391 101.844 58.4531 102.234 58.2812C102.633 58.1094 102.926 57.8711 103.113 57.5664C103.309 57.2617 103.406 56.918 103.406 56.5352ZM112.477 50.7578V65.875H109.102V48.3203H112.23L112.477 50.7578ZM120.504 54.5195V54.7656C120.504 55.6875 120.395 56.543 120.176 57.332C119.965 58.1211 119.652 58.8086 119.238 59.3945C118.824 59.9727 118.309 60.4258 117.691 60.7539C117.082 61.0742 116.379 61.2344 115.582 61.2344C114.809 61.2344 114.137 61.0781 113.566 60.7656C112.996 60.4531 112.516 60.0156 112.125 59.4531C111.742 58.8828 111.434 58.2227 111.199 57.4727C110.965 56.7227 110.785 55.918 110.66 55.0586V54.4141C110.785 53.4922 110.965 52.6484 111.199 51.8828C111.434 51.1094 111.742 50.4414 112.125 49.8789C112.516 49.3086 112.992 48.8672 113.555 48.5547C114.125 48.2422 114.793 48.0859 115.559 48.0859C116.363 48.0859 117.07 48.2383 117.68 48.543C118.297 48.8477 118.812 49.2852 119.227 49.8555C119.648 50.4258 119.965 51.1055 120.176 51.8945C120.395 52.6836 120.504 53.5586 120.504 54.5195ZM117.117 54.7656V54.5195C117.117 53.9805 117.07 53.4844 116.977 53.0312C116.891 52.5703 116.75 52.168 116.555 51.8242C116.367 51.4805 116.117 51.2148 115.805 51.0273C115.5 50.832 115.129 50.7344 114.691 50.7344C114.23 50.7344 113.836 50.8086 113.508 50.957C113.188 51.1055 112.926 51.3203 112.723 51.6016C112.52 51.8828 112.367 52.2188 112.266 52.6094C112.164 53 112.102 53.4414 112.078 53.9336V55.5625C112.117 56.1406 112.227 56.6602 112.406 57.1211C112.586 57.5742 112.863 57.9336 113.238 58.1992C113.613 58.4648 114.105 58.5977 114.715 58.5977C115.16 58.5977 115.535 58.5 115.84 58.3047C116.145 58.1016 116.391 57.8242 116.578 57.4727C116.773 57.1211 116.91 56.7148 116.988 56.2539C117.074 55.793 117.117 55.2969 117.117 54.7656ZM129.445 58.1406V52.4922C129.445 52.0859 129.379 51.7383 129.246 51.4492C129.113 51.1523 128.906 50.9219 128.625 50.7578C128.352 50.5938 127.996 50.5117 127.559 50.5117C127.184 50.5117 126.859 50.5781 126.586 50.7109C126.312 50.8359 126.102 51.0195 125.953 51.2617C125.805 51.4961 125.73 51.7734 125.73 52.0938H122.355C122.355 51.5547 122.48 51.043 122.73 50.5586C122.98 50.0742 123.344 49.6484 123.82 49.2812C124.297 48.9062 124.863 48.6133 125.52 48.4023C126.184 48.1914 126.926 48.0859 127.746 48.0859C128.73 48.0859 129.605 48.25 130.371 48.5781C131.137 48.9062 131.738 49.3984 132.176 50.0547C132.621 50.7109 132.844 51.5312 132.844 52.5156V57.9414C132.844 58.6367 132.887 59.207 132.973 59.6523C133.059 60.0898 133.184 60.4727 133.348 60.8008V61H129.938C129.773 60.6562 129.648 60.2266 129.562 59.7109C129.484 59.1875 129.445 58.6641 129.445 58.1406ZM129.891 53.2773L129.914 55.1875H128.027C127.582 55.1875 127.195 55.2383 126.867 55.3398C126.539 55.4414 126.27 55.5859 126.059 55.7734C125.848 55.9531 125.691 56.1641 125.59 56.4062C125.496 56.6484 125.449 56.9141 125.449 57.2031C125.449 57.4922 125.516 57.7539 125.648 57.9883C125.781 58.2148 125.973 58.3945 126.223 58.5273C126.473 58.6523 126.766 58.7148 127.102 58.7148C127.609 58.7148 128.051 58.6133 128.426 58.4102C128.801 58.207 129.09 57.957 129.293 57.6602C129.504 57.3633 129.613 57.082 129.621 56.8164L130.512 58.2461C130.387 58.5664 130.215 58.8984 129.996 59.2422C129.785 59.5859 129.516 59.9102 129.188 60.2148C128.859 60.5117 128.465 60.7578 128.004 60.9531C127.543 61.1406 126.996 61.2344 126.363 61.2344C125.559 61.2344 124.828 61.0742 124.172 60.7539C123.523 60.4258 123.008 59.9766 122.625 59.4062C122.25 58.8281 122.062 58.1719 122.062 57.4375C122.062 56.7734 122.188 56.1836 122.438 55.668C122.688 55.1523 123.055 54.7188 123.539 54.3672C124.031 54.0078 124.645 53.7383 125.379 53.5586C126.113 53.3711 126.965 53.2773 127.934 53.2773H129.891ZM140.684 58.5977C141.098 58.5977 141.465 58.5195 141.785 58.3633C142.105 58.1992 142.355 57.9727 142.535 57.6836C142.723 57.3867 142.82 57.0391 142.828 56.6406H146.004C145.996 57.5312 145.758 58.3242 145.289 59.0195C144.82 59.707 144.191 60.25 143.402 60.6484C142.613 61.0391 141.73 61.2344 140.754 61.2344C139.77 61.2344 138.91 61.0703 138.176 60.7422C137.449 60.4141 136.844 59.9609 136.359 59.3828C135.875 58.7969 135.512 58.1172 135.27 57.3438C135.027 56.5625 134.906 55.7266 134.906 54.8359V54.4961C134.906 53.5977 135.027 52.7617 135.27 51.9883C135.512 51.207 135.875 50.5273 136.359 49.9492C136.844 49.3633 137.449 48.9062 138.176 48.5781C138.902 48.25 139.754 48.0859 140.73 48.0859C141.77 48.0859 142.68 48.2852 143.461 48.6836C144.25 49.082 144.867 49.6523 145.312 50.3945C145.766 51.1289 145.996 52 146.004 53.0078H142.828C142.82 52.5859 142.73 52.2031 142.559 51.8594C142.395 51.5156 142.152 51.2422 141.832 51.0391C141.52 50.8281 141.133 50.7227 140.672 50.7227C140.18 50.7227 139.777 50.8281 139.465 51.0391C139.152 51.2422 138.91 51.5234 138.738 51.8828C138.566 52.2344 138.445 52.6367 138.375 53.0898C138.312 53.5352 138.281 54.0039 138.281 54.4961V54.8359C138.281 55.3281 138.312 55.8008 138.375 56.2539C138.438 56.707 138.555 57.1094 138.727 57.4609C138.906 57.8125 139.152 58.0898 139.465 58.293C139.777 58.4961 140.184 58.5977 140.684 58.5977ZM153.797 61.2344C152.812 61.2344 151.93 61.0781 151.148 60.7656C150.367 60.4453 149.703 60.0039 149.156 59.4414C148.617 58.8789 148.203 58.2266 147.914 57.4844C147.625 56.7344 147.48 55.9375 147.48 55.0938V54.625C147.48 53.6641 147.617 52.7852 147.891 51.9883C148.164 51.1914 148.555 50.5 149.062 49.9141C149.578 49.3281 150.203 48.8789 150.938 48.5664C151.672 48.2461 152.5 48.0859 153.422 48.0859C154.32 48.0859 155.117 48.2344 155.812 48.5312C156.508 48.8281 157.09 49.25 157.559 49.7969C158.035 50.3438 158.395 51 158.637 51.7656C158.879 52.5234 159 53.3672 159 54.2969V55.7031H148.922V53.4531H155.684V53.1953C155.684 52.7266 155.598 52.3086 155.426 51.9414C155.262 51.5664 155.012 51.2695 154.676 51.0508C154.34 50.832 153.91 50.7227 153.387 50.7227C152.941 50.7227 152.559 50.8203 152.238 51.0156C151.918 51.2109 151.656 51.4844 151.453 51.8359C151.258 52.1875 151.109 52.6016 151.008 53.0781C150.914 53.5469 150.867 54.0625 150.867 54.625V55.0938C150.867 55.6016 150.938 56.0703 151.078 56.5C151.227 56.9297 151.434 57.3008 151.699 57.6133C151.973 57.9258 152.301 58.168 152.684 58.3398C153.074 58.5117 153.516 58.5977 154.008 58.5977C154.617 58.5977 155.184 58.4805 155.707 58.2461C156.238 58.0039 156.695 57.6406 157.078 57.1562L158.719 58.9375C158.453 59.3203 158.09 59.6875 157.629 60.0391C157.176 60.3906 156.629 60.6797 155.988 60.9062C155.348 61.125 154.617 61.2344 153.797 61.2344ZM174.012 55.7617V43.9375H177.516V55.7617C177.516 56.9023 177.266 57.8828 176.766 58.7031C176.266 59.5156 175.582 60.1406 174.715 60.5781C173.855 61.0156 172.887 61.2344 171.809 61.2344C170.691 61.2344 169.703 61.0469 168.844 60.6719C167.984 60.2969 167.309 59.7227 166.816 58.9492C166.324 58.168 166.078 57.1797 166.078 55.9844H169.605C169.605 56.6094 169.691 57.1055 169.863 57.4727C170.043 57.8398 170.297 58.1016 170.625 58.2578C170.953 58.4141 171.348 58.4922 171.809 58.4922C172.254 58.4922 172.641 58.3867 172.969 58.1758C173.297 57.9648 173.551 57.6562 173.73 57.25C173.918 56.8438 174.012 56.3477 174.012 55.7617ZM179.766 54.7891V54.543C179.766 53.6133 179.898 52.7578 180.164 51.9766C180.43 51.1875 180.816 50.5039 181.324 49.9258C181.832 49.3477 182.457 48.8984 183.199 48.5781C183.941 48.25 184.793 48.0859 185.754 48.0859C186.715 48.0859 187.57 48.25 188.32 48.5781C189.07 48.8984 189.699 49.3477 190.207 49.9258C190.723 50.5039 191.113 51.1875 191.379 51.9766C191.645 52.7578 191.777 53.6133 191.777 54.543V54.7891C191.777 55.7109 191.645 56.5664 191.379 57.3555C191.113 58.1367 190.723 58.8203 190.207 59.4062C189.699 59.9844 189.074 60.4336 188.332 60.7539C187.59 61.0742 186.738 61.2344 185.777 61.2344C184.816 61.2344 183.961 61.0742 183.211 60.7539C182.469 60.4336 181.84 59.9844 181.324 59.4062C180.816 58.8203 180.43 58.1367 180.164 57.3555C179.898 56.5664 179.766 55.7109 179.766 54.7891ZM183.141 54.543V54.7891C183.141 55.3203 183.188 55.8164 183.281 56.2773C183.375 56.7383 183.523 57.1445 183.727 57.4961C183.938 57.8398 184.211 58.1094 184.547 58.3047C184.883 58.5 185.293 58.5977 185.777 58.5977C186.246 58.5977 186.648 58.5 186.984 58.3047C187.32 58.1094 187.59 57.8398 187.793 57.4961C187.996 57.1445 188.145 56.7383 188.238 56.2773C188.34 55.8164 188.391 55.3203 188.391 54.7891V54.543C188.391 54.0273 188.34 53.543 188.238 53.0898C188.145 52.6289 187.992 52.2227 187.781 51.8711C187.578 51.5117 187.309 51.2305 186.973 51.0273C186.637 50.8242 186.23 50.7227 185.754 50.7227C185.277 50.7227 184.871 50.8242 184.535 51.0273C184.207 51.2305 183.938 51.5117 183.727 51.8711C183.523 52.2227 183.375 52.6289 183.281 53.0898C183.188 53.543 183.141 54.0273 183.141 54.543ZM201.352 57.9648V48.3203H204.727V61H201.551L201.352 57.9648ZM201.727 55.3633L202.723 55.3398C202.723 56.1836 202.625 56.9688 202.43 57.6953C202.234 58.4141 201.941 59.0391 201.551 59.5703C201.16 60.0938 200.668 60.5039 200.074 60.8008C199.48 61.0898 198.781 61.2344 197.977 61.2344C197.359 61.2344 196.789 61.1484 196.266 60.9766C195.75 60.7969 195.305 60.5195 194.93 60.1445C194.562 59.7617 194.273 59.2734 194.062 58.6797C193.859 58.0781 193.758 57.3555 193.758 56.5117V48.3203H197.133V56.5352C197.133 56.9102 197.176 57.2266 197.262 57.4844C197.355 57.7422 197.484 57.9531 197.648 58.1172C197.812 58.2812 198.004 58.3984 198.223 58.4688C198.449 58.5391 198.699 58.5742 198.973 58.5742C199.668 58.5742 200.215 58.4336 200.613 58.1523C201.02 57.8711 201.305 57.4883 201.469 57.0039C201.641 56.5117 201.727 55.9648 201.727 55.3633ZM210.68 51.0859V61H207.305V48.3203H210.48L210.68 51.0859ZM214.5 48.2383L214.441 51.3672C214.277 51.3438 214.078 51.3242 213.844 51.3086C213.617 51.2852 213.41 51.2734 213.223 51.2734C212.746 51.2734 212.332 51.3359 211.98 51.4609C211.637 51.5781 211.348 51.7539 211.113 51.9883C210.887 52.2227 210.715 52.5078 210.598 52.8438C210.488 53.1797 210.426 53.5625 210.41 53.9922L209.73 53.7812C209.73 52.9609 209.812 52.207 209.977 51.5195C210.141 50.8242 210.379 50.2188 210.691 49.7031C211.012 49.1875 211.402 48.7891 211.863 48.5078C212.324 48.2266 212.852 48.0859 213.445 48.0859C213.633 48.0859 213.824 48.1016 214.02 48.1328C214.215 48.1562 214.375 48.1914 214.5 48.2383ZM219.398 51.0273V61H216.023V48.3203H219.188L219.398 51.0273ZM218.906 54.2148H217.992C217.992 53.2773 218.113 52.4336 218.355 51.6836C218.598 50.9258 218.938 50.2812 219.375 49.75C219.812 49.2109 220.332 48.8008 220.934 48.5195C221.543 48.2305 222.223 48.0859 222.973 48.0859C223.566 48.0859 224.109 48.1719 224.602 48.3438C225.094 48.5156 225.516 48.7891 225.867 49.1641C226.227 49.5391 226.5 50.0352 226.688 50.6523C226.883 51.2695 226.98 52.0234 226.98 52.9141V61H223.582V52.9023C223.582 52.3398 223.504 51.9023 223.348 51.5898C223.191 51.2773 222.961 51.0586 222.656 50.9336C222.359 50.8008 221.992 50.7344 221.555 50.7344C221.102 50.7344 220.707 50.8242 220.371 51.0039C220.043 51.1836 219.77 51.4336 219.551 51.7539C219.34 52.0664 219.18 52.4336 219.07 52.8555C218.961 53.2773 218.906 53.7305 218.906 54.2148ZM235.383 61.2344C234.398 61.2344 233.516 61.0781 232.734 60.7656C231.953 60.4453 231.289 60.0039 230.742 59.4414C230.203 58.8789 229.789 58.2266 229.5 57.4844C229.211 56.7344 229.066 55.9375 229.066 55.0938V54.625C229.066 53.6641 229.203 52.7852 229.477 51.9883C229.75 51.1914 230.141 50.5 230.648 49.9141C231.164 49.3281 231.789 48.8789 232.523 48.5664C233.258 48.2461 234.086 48.0859 235.008 48.0859C235.906 48.0859 236.703 48.2344 237.398 48.5312C238.094 48.8281 238.676 49.25 239.145 49.7969C239.621 50.3438 239.98 51 240.223 51.7656C240.465 52.5234 240.586 53.3672 240.586 54.2969V55.7031H230.508V53.4531H237.27V53.1953C237.27 52.7266 237.184 52.3086 237.012 51.9414C236.848 51.5664 236.598 51.2695 236.262 51.0508C235.926 50.832 235.496 50.7227 234.973 50.7227C234.527 50.7227 234.145 50.8203 233.824 51.0156C233.504 51.2109 233.242 51.4844 233.039 51.8359C232.844 52.1875 232.695 52.6016 232.594 53.0781C232.5 53.5469 232.453 54.0625 232.453 54.625V55.0938C232.453 55.6016 232.523 56.0703 232.664 56.5C232.812 56.9297 233.02 57.3008 233.285 57.6133C233.559 57.9258 233.887 58.168 234.27 58.3398C234.66 58.5117 235.102 58.5977 235.594 58.5977C236.203 58.5977 236.77 58.4805 237.293 58.2461C237.824 58.0039 238.281 57.6406 238.664 57.1562L240.305 58.9375C240.039 59.3203 239.676 59.6875 239.215 60.0391C238.762 60.3906 238.215 60.6797 237.574 60.9062C236.934 61.125 236.203 61.2344 235.383 61.2344ZM246.105 59.5703L249.469 48.3203H253.09L247.992 62.9102C247.883 63.2305 247.734 63.5742 247.547 63.9414C247.367 64.3086 247.121 64.6562 246.809 64.9844C246.504 65.3203 246.117 65.5938 245.648 65.8047C245.188 66.0156 244.621 66.1211 243.949 66.1211C243.629 66.1211 243.367 66.1016 243.164 66.0625C242.961 66.0234 242.719 65.9688 242.438 65.8984V63.4258C242.523 63.4258 242.613 63.4258 242.707 63.4258C242.801 63.4336 242.891 63.4375 242.977 63.4375C243.422 63.4375 243.785 63.3867 244.066 63.2852C244.348 63.1836 244.574 63.0273 244.746 62.8164C244.918 62.6133 245.055 62.3477 245.156 62.0195L246.105 59.5703ZM244.699 48.3203L247.453 57.5078L247.934 61.082L245.637 61.3281L241.078 48.3203H244.699Z" fill="#888888"/>
<path d="M109.219 107.422H100.734V101.07H109.219C110.375 101.07 111.312 100.875 112.031 100.484C112.75 100.094 113.273 99.5547 113.602 98.8672C113.945 98.1641 114.117 97.375 114.117 96.5C114.117 95.5625 113.945 94.6953 113.602 93.8984C113.273 93.1016 112.75 92.4609 112.031 91.9766C111.312 91.4766 110.375 91.2266 109.219 91.2266H103.828V119H95.6016V84.875H109.219C111.953 84.875 114.305 85.375 116.273 86.375C118.258 87.375 119.781 88.75 120.844 90.5C121.906 92.2344 122.438 94.2188 122.438 96.4531C122.438 98.6562 121.906 100.578 120.844 102.219C119.781 103.859 118.258 105.141 116.273 106.062C114.305 106.969 111.953 107.422 109.219 107.422ZM134.461 99.9219V119H126.562V93.6406H133.945L134.461 99.9219ZM141.961 93.4531L141.82 100.789C141.508 100.758 141.086 100.719 140.555 100.672C140.023 100.625 139.578 100.602 139.219 100.602C138.297 100.602 137.5 100.711 136.828 100.93C136.172 101.133 135.625 101.445 135.188 101.867C134.766 102.273 134.453 102.789 134.25 103.414C134.062 104.039 133.977 104.766 133.992 105.594L132.562 104.656C132.562 102.953 132.727 101.406 133.055 100.016C133.398 98.6094 133.883 97.3984 134.508 96.3828C135.133 95.3516 135.891 94.5625 136.781 94.0156C137.672 93.4531 138.672 93.1719 139.781 93.1719C140.172 93.1719 140.555 93.1953 140.93 93.2422C141.32 93.2891 141.664 93.3594 141.961 93.4531ZM142.852 106.578V106.086C142.852 104.227 143.117 102.516 143.648 100.953C144.18 99.375 144.961 98.0078 145.992 96.8516C147.023 95.6953 148.297 94.7969 149.812 94.1562C151.328 93.5 153.078 93.1719 155.062 93.1719C157.062 93.1719 158.82 93.5 160.336 94.1562C161.867 94.7969 163.148 95.6953 164.18 96.8516C165.211 98.0078 165.992 99.375 166.523 100.953C167.055 102.516 167.32 104.227 167.32 106.086V106.578C167.32 108.422 167.055 110.133 166.523 111.711C165.992 113.273 165.211 114.641 164.18 115.812C163.148 116.969 161.875 117.867 160.359 118.508C158.844 119.148 157.094 119.469 155.109 119.469C153.125 119.469 151.367 119.148 149.836 118.508C148.305 117.867 147.023 116.969 145.992 115.812C144.961 114.641 144.18 113.273 143.648 111.711C143.117 110.133 142.852 108.422 142.852 106.578ZM150.75 106.086V106.578C150.75 107.531 150.82 108.422 150.961 109.25C151.102 110.078 151.336 110.805 151.664 111.43C151.992 112.039 152.438 112.516 153 112.859C153.562 113.203 154.266 113.375 155.109 113.375C155.938 113.375 156.625 113.203 157.172 112.859C157.734 112.516 158.18 112.039 158.508 111.43C158.836 110.805 159.07 110.078 159.211 109.25C159.352 108.422 159.422 107.531 159.422 106.578V106.086C159.422 105.164 159.352 104.297 159.211 103.484C159.07 102.656 158.836 101.93 158.508 101.305C158.18 100.664 157.734 100.164 157.172 99.8047C156.609 99.4453 155.906 99.2656 155.062 99.2656C154.234 99.2656 153.539 99.4453 152.977 99.8047C152.43 100.164 151.992 100.664 151.664 101.305C151.336 101.93 151.102 102.656 150.961 103.484C150.82 104.297 150.75 105.164 150.75 106.086ZM171.422 93.6406H179.344V119.82C179.344 121.852 178.953 123.562 178.172 124.953C177.391 126.359 176.273 127.422 174.82 128.141C173.367 128.875 171.633 129.242 169.617 129.242C168.945 129.242 168.328 129.211 167.766 129.148C167.188 129.102 166.555 129 165.867 128.844V122.867C166.273 122.93 166.648 122.977 166.992 123.008C167.336 123.055 167.711 123.078 168.117 123.078C168.836 123.078 169.438 122.961 169.922 122.727C170.406 122.492 170.773 122.133 171.023 121.648C171.289 121.164 171.422 120.555 171.422 119.82V93.6406ZM170.836 87.1016C170.836 85.9766 171.242 85.0547 172.055 84.3359C172.867 83.6172 173.922 83.2578 175.219 83.2578C176.516 83.2578 177.57 83.6172 178.383 84.3359C179.195 85.0547 179.602 85.9766 179.602 87.1016C179.602 88.2266 179.195 89.1484 178.383 89.8672C177.57 90.5859 176.516 90.9453 175.219 90.9453C173.922 90.9453 172.867 90.5859 172.055 89.8672C171.242 89.1484 170.836 88.2266 170.836 87.1016ZM196.102 119.469C194.039 119.469 192.195 119.148 190.57 118.508C188.945 117.852 187.57 116.953 186.445 115.812C185.336 114.672 184.484 113.359 183.891 111.875C183.312 110.391 183.023 108.82 183.023 107.164V106.273C183.023 104.414 183.281 102.695 183.797 101.117C184.312 99.5234 185.078 98.1328 186.094 96.9453C187.109 95.7578 188.383 94.8359 189.914 94.1797C191.445 93.5078 193.227 93.1719 195.258 93.1719C197.055 93.1719 198.664 93.4609 200.086 94.0391C201.508 94.6172 202.711 95.4453 203.695 96.5234C204.695 97.6016 205.453 98.9062 205.969 100.438C206.5 101.969 206.766 103.688 206.766 105.594V108.805H186.047V103.859H199.055V103.25C199.07 102.406 198.922 101.688 198.609 101.094C198.312 100.5 197.875 100.047 197.297 99.7344C196.719 99.4219 196.016 99.2656 195.188 99.2656C194.328 99.2656 193.617 99.4531 193.055 99.8281C192.508 100.203 192.078 100.719 191.766 101.375C191.469 102.016 191.258 102.758 191.133 103.602C191.008 104.445 190.945 105.336 190.945 106.273V107.164C190.945 108.102 191.07 108.953 191.32 109.719C191.586 110.484 191.961 111.141 192.445 111.688C192.945 112.219 193.539 112.633 194.227 112.93C194.93 113.227 195.727 113.375 196.617 113.375C197.695 113.375 198.758 113.172 199.805 112.766C200.852 112.359 201.75 111.688 202.5 110.75L206.086 115.016C205.57 115.75 204.836 116.461 203.883 117.148C202.945 117.836 201.82 118.398 200.508 118.836C199.195 119.258 197.727 119.469 196.102 119.469ZM220.688 113.375C221.422 113.375 222.047 113.242 222.562 112.977C223.094 112.695 223.492 112.305 223.758 111.805C224.039 111.289 224.172 110.672 224.156 109.953H231.586C231.602 111.859 231.133 113.531 230.18 114.969C229.242 116.391 227.961 117.5 226.336 118.297C224.727 119.078 222.906 119.469 220.875 119.469C218.891 119.469 217.156 119.148 215.672 118.508C214.188 117.852 212.945 116.945 211.945 115.789C210.961 114.617 210.219 113.25 209.719 111.688C209.234 110.125 208.992 108.43 208.992 106.602V106.062C208.992 104.234 209.234 102.539 209.719 100.977C210.219 99.3984 210.961 98.0312 211.945 96.875C212.945 95.7031 214.18 94.7969 215.648 94.1562C217.133 93.5 218.859 93.1719 220.828 93.1719C222.938 93.1719 224.797 93.5703 226.406 94.3672C228.031 95.1641 229.305 96.3203 230.227 97.8359C231.148 99.3516 231.602 101.188 231.586 103.344H224.156C224.172 102.578 224.055 101.891 223.805 101.281C223.555 100.672 223.164 100.188 222.633 99.8281C222.117 99.4531 221.453 99.2656 220.641 99.2656C219.828 99.2656 219.172 99.4453 218.672 99.8047C218.172 100.164 217.789 100.664 217.523 101.305C217.273 101.93 217.102 102.648 217.008 103.461C216.93 104.273 216.891 105.141 216.891 106.062V106.602C216.891 107.539 216.93 108.422 217.008 109.25C217.102 110.062 217.281 110.781 217.547 111.406C217.812 112.016 218.195 112.5 218.695 112.859C219.195 113.203 219.859 113.375 220.688 113.375ZM248.32 93.6406V99.125H233.039V93.6406H248.32ZM236.25 87.3359H244.148V110.727C244.148 111.398 244.227 111.922 244.383 112.297C244.539 112.656 244.805 112.914 245.18 113.07C245.57 113.211 246.086 113.281 246.727 113.281C247.18 113.281 247.555 113.273 247.852 113.258C248.148 113.227 248.43 113.188 248.695 113.141V118.789C248.023 119.008 247.32 119.172 246.586 119.281C245.852 119.406 245.07 119.469 244.242 119.469C242.555 119.469 241.109 119.203 239.906 118.672C238.719 118.141 237.812 117.305 237.188 116.164C236.562 115.023 236.25 113.539 236.25 111.711V87.3359ZM277.406 107.422H268.922V101.07H277.406C278.562 101.07 279.5 100.875 280.219 100.484C280.938 100.094 281.461 99.5547 281.789 98.8672C282.133 98.1641 282.305 97.375 282.305 96.5C282.305 95.5625 282.133 94.6953 281.789 93.8984C281.461 93.1016 280.938 92.4609 280.219 91.9766C279.5 91.4766 278.562 91.2266 277.406 91.2266H272.016V119H263.789V84.875H277.406C280.141 84.875 282.492 85.375 284.461 86.375C286.445 87.375 287.969 88.75 289.031 90.5C290.094 92.2344 290.625 94.2188 290.625 96.4531C290.625 98.6562 290.094 100.578 289.031 102.219C287.969 103.859 286.445 105.141 284.461 106.062C282.492 106.969 280.141 107.422 277.406 107.422ZM302.414 83V119H294.516V83H302.414ZM301.477 105.453L299.625 105.5C299.625 103.719 299.844 102.078 300.281 100.578C300.719 99.0781 301.344 97.7734 302.156 96.6641C302.969 95.5547 303.945 94.6953 305.086 94.0859C306.227 93.4766 307.492 93.1719 308.883 93.1719C310.133 93.1719 311.273 93.3516 312.305 93.7109C313.352 94.0703 314.25 94.6484 315 95.4453C315.766 96.2422 316.352 97.2812 316.758 98.5625C317.18 99.8438 317.391 101.406 317.391 103.25V119H309.445V103.203C309.445 102.172 309.297 101.375 309 100.812C308.719 100.234 308.312 99.8359 307.781 99.6172C307.25 99.3828 306.602 99.2656 305.836 99.2656C304.914 99.2656 304.164 99.4219 303.586 99.7344C303.008 100.047 302.562 100.484 302.25 101.047C301.953 101.594 301.75 102.242 301.641 102.992C301.531 103.742 301.477 104.562 301.477 105.453ZM330.117 93.6406V119H322.195V93.6406H330.117ZM321.727 87.1016C321.727 85.9766 322.133 85.0547 322.945 84.3359C323.758 83.6172 324.812 83.2578 326.109 83.2578C327.406 83.2578 328.461 83.6172 329.273 84.3359C330.086 85.0547 330.492 85.9766 330.492 87.1016C330.492 88.2266 330.086 89.1484 329.273 89.8672C328.461 90.5859 327.406 90.9453 326.109 90.9453C324.812 90.9453 323.758 90.5859 322.945 89.8672C322.133 89.1484 321.727 88.2266 321.727 87.1016ZM343.336 83V119H335.414V83H343.336ZM347.227 106.578V106.086C347.227 104.227 347.492 102.516 348.023 100.953C348.555 99.375 349.336 98.0078 350.367 96.8516C351.398 95.6953 352.672 94.7969 354.188 94.1562C355.703 93.5 357.453 93.1719 359.438 93.1719C361.438 93.1719 363.195 93.5 364.711 94.1562C366.242 94.7969 367.523 95.6953 368.555 96.8516C369.586 98.0078 370.367 99.375 370.898 100.953C371.43 102.516 371.695 104.227 371.695 106.086V106.578C371.695 108.422 371.43 110.133 370.898 111.711C370.367 113.273 369.586 114.641 368.555 115.812C367.523 116.969 366.25 117.867 364.734 118.508C363.219 119.148 361.469 119.469 359.484 119.469C357.5 119.469 355.742 119.148 354.211 118.508C352.68 117.867 351.398 116.969 350.367 115.812C349.336 114.641 348.555 113.273 348.023 111.711C347.492 110.133 347.227 108.422 347.227 106.578ZM355.125 106.086V106.578C355.125 107.531 355.195 108.422 355.336 109.25C355.477 110.078 355.711 110.805 356.039 111.43C356.367 112.039 356.812 112.516 357.375 112.859C357.938 113.203 358.641 113.375 359.484 113.375C360.312 113.375 361 113.203 361.547 112.859C362.109 112.516 362.555 112.039 362.883 111.43C363.211 110.805 363.445 110.078 363.586 109.25C363.727 108.422 363.797 107.531 363.797 106.578V106.086C363.797 105.164 363.727 104.297 363.586 103.484C363.445 102.656 363.211 101.93 362.883 101.305C362.555 100.664 362.109 100.164 361.547 99.8047C360.984 99.4453 360.281 99.2656 359.438 99.2656C358.609 99.2656 357.914 99.4453 357.352 99.8047C356.805 100.164 356.367 100.664 356.039 101.305C355.711 101.93 355.477 102.656 355.336 103.484C355.195 104.297 355.125 105.164 355.125 106.086ZM388.5 111.875C388.5 111.438 388.352 111.062 388.055 110.75C387.773 110.422 387.273 110.125 386.555 109.859C385.836 109.578 384.828 109.297 383.531 109.016C382.297 108.75 381.133 108.398 380.039 107.961C378.961 107.523 378.016 106.992 377.203 106.367C376.391 105.742 375.75 105 375.281 104.141C374.828 103.281 374.602 102.297 374.602 101.188C374.602 100.109 374.828 99.0938 375.281 98.1406C375.75 97.1719 376.43 96.3203 377.32 95.5859C378.227 94.8359 379.328 94.25 380.625 93.8281C381.922 93.3906 383.398 93.1719 385.055 93.1719C387.336 93.1719 389.305 93.5234 390.961 94.2266C392.617 94.9141 393.891 95.8828 394.781 97.1328C395.688 98.3672 396.141 99.7969 396.141 101.422H388.242C388.242 100.781 388.133 100.234 387.914 99.7812C387.711 99.3281 387.375 98.9844 386.906 98.75C386.438 98.5 385.812 98.375 385.031 98.375C384.484 98.375 383.984 98.4766 383.531 98.6797C383.094 98.8828 382.742 99.1641 382.477 99.5234C382.211 99.8828 382.078 100.305 382.078 100.789C382.078 101.133 382.156 101.445 382.312 101.727C382.484 101.992 382.742 102.242 383.086 102.477C383.43 102.695 383.867 102.898 384.398 103.086C384.93 103.258 385.57 103.414 386.32 103.555C388.023 103.867 389.617 104.312 391.102 104.891C392.586 105.469 393.789 106.289 394.711 107.352C395.648 108.414 396.117 109.844 396.117 111.641C396.117 112.766 395.859 113.805 395.344 114.758C394.828 115.695 394.086 116.523 393.117 117.242C392.148 117.945 390.984 118.492 389.625 118.883C388.266 119.273 386.734 119.469 385.031 119.469C382.609 119.469 380.562 119.039 378.891 118.18C377.219 117.305 375.953 116.211 375.094 114.898C374.25 113.57 373.828 112.227 373.828 110.867H381.188C381.219 111.648 381.406 112.289 381.75 112.789C382.109 113.289 382.586 113.656 383.18 113.891C383.773 114.125 384.461 114.242 385.242 114.242C385.961 114.242 386.555 114.141 387.023 113.938C387.508 113.734 387.875 113.461 388.125 113.117C388.375 112.758 388.5 112.344 388.5 111.875ZM398.836 106.578V106.086C398.836 104.227 399.102 102.516 399.633 100.953C400.164 99.375 400.945 98.0078 401.977 96.8516C403.008 95.6953 404.281 94.7969 405.797 94.1562C407.312 93.5 409.062 93.1719 411.047 93.1719C413.047 93.1719 414.805 93.5 416.32 94.1562C417.852 94.7969 419.133 95.6953 420.164 96.8516C421.195 98.0078 421.977 99.375 422.508 100.953C423.039 102.516 423.305 104.227 423.305 106.086V106.578C423.305 108.422 423.039 110.133 422.508 111.711C421.977 113.273 421.195 114.641 420.164 115.812C419.133 116.969 417.859 117.867 416.344 118.508C414.828 119.148 413.078 119.469 411.094 119.469C409.109 119.469 407.352 119.148 405.82 118.508C404.289 117.867 403.008 116.969 401.977 115.812C400.945 114.641 400.164 113.273 399.633 111.711C399.102 110.133 398.836 108.422 398.836 106.578ZM406.734 106.086V106.578C406.734 107.531 406.805 108.422 406.945 109.25C407.086 110.078 407.32 110.805 407.648 111.43C407.977 112.039 408.422 112.516 408.984 112.859C409.547 113.203 410.25 113.375 411.094 113.375C411.922 113.375 412.609 113.203 413.156 112.859C413.719 112.516 414.164 112.039 414.492 111.43C414.82 110.805 415.055 110.078 415.195 109.25C415.336 108.422 415.406 107.531 415.406 106.578V106.086C415.406 105.164 415.336 104.297 415.195 103.484C415.055 102.656 414.82 101.93 414.492 101.305C414.164 100.664 413.719 100.164 413.156 99.8047C412.594 99.4453 411.891 99.2656 411.047 99.2656C410.219 99.2656 409.523 99.4453 408.961 99.8047C408.414 100.164 407.977 100.664 407.648 101.305C407.32 101.93 407.086 102.656 406.945 103.484C406.805 104.297 406.734 105.164 406.734 106.086ZM434.789 98.5156V128.75H426.891V93.6406H434.25L434.789 98.5156ZM450.352 106.016V106.508C450.352 108.352 450.141 110.062 449.719 111.641C449.297 113.219 448.672 114.594 447.844 115.766C447.016 116.938 445.984 117.852 444.75 118.508C443.531 119.148 442.117 119.469 440.508 119.469C438.992 119.469 437.688 119.133 436.594 118.461C435.5 117.789 434.586 116.859 433.852 115.672C433.117 114.484 432.523 113.125 432.07 111.594C431.617 110.062 431.258 108.445 430.992 106.742V106.109C431.258 104.281 431.617 102.586 432.07 101.023C432.523 99.4453 433.117 98.0703 433.852 96.8984C434.586 95.7266 435.492 94.8125 436.57 94.1562C437.664 93.5 438.969 93.1719 440.484 93.1719C442.094 93.1719 443.508 93.4766 444.727 94.0859C445.961 94.6953 446.992 95.5703 447.82 96.7109C448.664 97.8359 449.297 99.1875 449.719 100.766C450.141 102.344 450.352 104.094 450.352 106.016ZM442.453 106.508V106.016C442.453 105.031 442.383 104.133 442.242 103.32C442.102 102.492 441.875 101.773 441.562 101.164C441.266 100.555 440.867 100.086 440.367 99.7578C439.867 99.4297 439.25 99.2656 438.516 99.2656C437.672 99.2656 436.961 99.3984 436.383 99.6641C435.82 99.9141 435.367 100.305 435.023 100.836C434.695 101.352 434.461 102 434.32 102.781C434.195 103.547 434.141 104.445 434.156 105.477V107.398C434.125 108.586 434.242 109.633 434.508 110.539C434.773 111.43 435.234 112.125 435.891 112.625C436.547 113.125 437.438 113.375 438.562 113.375C439.312 113.375 439.938 113.203 440.438 112.859C440.938 112.5 441.336 112.008 441.633 111.383C441.93 110.742 442.141 110.008 442.266 109.18C442.391 108.352 442.453 107.461 442.453 106.508ZM461.602 83V119H453.703V83H461.602ZM460.664 105.453L458.812 105.5C458.812 103.719 459.031 102.078 459.469 100.578C459.906 99.0781 460.531 97.7734 461.344 96.6641C462.156 95.5547 463.133 94.6953 464.273 94.0859C465.414 93.4766 466.68 93.1719 468.07 93.1719C469.32 93.1719 470.461 93.3516 471.492 93.7109C472.539 94.0703 473.438 94.6484 474.188 95.4453C474.953 96.2422 475.539 97.2812 475.945 98.5625C476.367 99.8438 476.578 101.406 476.578 103.25V119H468.633V103.203C468.633 102.172 468.484 101.375 468.188 100.812C467.906 100.234 467.5 99.8359 466.969 99.6172C466.438 99.3828 465.789 99.2656 465.023 99.2656C464.102 99.2656 463.352 99.4219 462.773 99.7344C462.195 100.047 461.75 100.484 461.438 101.047C461.141 101.594 460.938 102.242 460.828 102.992C460.719 103.742 460.664 104.562 460.664 105.453ZM488.742 116.023L495.305 93.6406H503.789L493.594 122.773C493.375 123.414 493.086 124.102 492.727 124.836C492.367 125.586 491.875 126.297 491.25 126.969C490.625 127.641 489.82 128.188 488.836 128.609C487.867 129.031 486.664 129.242 485.227 129.242C484.461 129.242 483.898 129.203 483.539 129.125C483.195 129.062 482.664 128.945 481.945 128.773V123.125C482.148 123.125 482.32 123.125 482.461 123.125C482.617 123.125 482.789 123.125 482.977 123.125C483.82 123.125 484.492 123.039 484.992 122.867C485.508 122.695 485.898 122.445 486.164 122.117C486.445 121.789 486.664 121.391 486.82 120.922L488.742 116.023ZM487.078 93.6406L492.07 111.383L492.938 119.75H487.641L478.617 93.6406H487.078Z" fill="black"/>
<path d="M1134 0H1348C1356.28 0 1363 6.71573 1363 15V148C1363 156.284 1356.28 163 1348 163H1134V0Z" fill="black"/>
<path d="M1234.26 103.786H1262.74V109.357H1234.26V103.786ZM1239.96 114.929H1257.04V120.5H1239.96V114.929ZM1248.5 42.5C1240.95 42.5 1233.71 45.4349 1228.37 50.6592C1223.03 55.8834 1220.03 62.969 1220.03 70.3571C1219.84 74.4057 1220.63 78.4412 1222.34 82.1315C1224.05 85.8219 1226.64 89.0616 1229.88 91.5843C1232.73 94.175 1234.26 95.6514 1234.26 98.2143H1239.96C1239.96 93.0886 1236.8 90.2193 1233.72 87.4614C1231.06 85.4676 1228.94 82.8658 1227.55 79.8838C1226.15 76.9019 1225.53 73.6308 1225.72 70.3571C1225.72 64.4466 1228.12 58.7781 1232.39 54.5988C1236.67 50.4194 1242.46 48.0714 1248.5 48.0714C1254.54 48.0714 1260.33 50.4194 1264.61 54.5988C1268.88 58.7781 1271.28 64.4466 1271.28 70.3571C1271.47 73.6333 1270.84 76.9059 1269.44 79.888C1268.04 82.8701 1265.92 85.4706 1263.25 87.4614C1260.2 90.2471 1257.04 93.0329 1257.04 98.2143H1262.74C1262.74 95.6514 1264.25 94.175 1267.12 91.5564C1270.36 89.0381 1272.94 85.8031 1274.66 82.1176C1276.37 78.4321 1277.16 74.4014 1276.97 70.3571C1276.97 66.6989 1276.24 63.0765 1274.81 59.6967C1273.37 56.3169 1271.28 53.2459 1268.63 50.6592C1265.99 48.0724 1262.85 46.0205 1259.4 44.6205C1255.94 43.2205 1252.24 42.5 1248.5 42.5Z" fill="#F0F0F0"/>
</svg>
