<svg width="1363" height="163" viewBox="0 0 1363 163" fill="none" xmlns="http://www.w3.org/2000/svg">
<path d="M0 15C0 6.71573 6.71573 0 15 0H37V163H15C6.71573 163 0 156.284 0 148V15Z" fill="#0049B6"/>
<rect width="1097" height="163" transform="translate(37)" fill="#F0F0F0"/>
<path d="M104.414 55.3398H107.918C107.848 56.4883 107.531 57.5078 106.969 58.3984C106.414 59.2891 105.637 59.9844 104.637 60.4844C103.645 60.9844 102.449 61.2344 101.051 61.2344C99.957 61.2344 98.9766 61.0469 98.1094 60.6719C97.2422 60.2891 96.5 59.7422 95.8828 59.0312C95.2734 58.3203 94.8086 57.4609 94.4883 56.4531C94.168 55.4453 94.0078 54.3164 94.0078 53.0664V51.8828C94.0078 50.6328 94.1719 49.5039 94.5 48.4961C94.8359 47.4805 95.3125 46.6172 95.9297 45.9062C96.5547 45.1953 97.3008 44.6484 98.168 44.2656C99.0352 43.8828 100.004 43.6914 101.074 43.6914C102.496 43.6914 103.695 43.9492 104.672 44.4648C105.656 44.9805 106.418 45.6914 106.957 46.5977C107.504 47.5039 107.832 48.5352 107.941 49.6914H104.426C104.387 49.0039 104.25 48.4219 104.016 47.9453C103.781 47.4609 103.426 47.0977 102.949 46.8555C102.48 46.6055 101.855 46.4805 101.074 46.4805C100.488 46.4805 99.9766 46.5898 99.5391 46.8086C99.1016 47.0273 98.7344 47.3594 98.4375 47.8047C98.1406 48.25 97.918 48.8125 97.7695 49.4922C97.6289 50.1641 97.5586 50.9531 97.5586 51.8594V53.0664C97.5586 53.9492 97.625 54.7266 97.7578 55.3984C97.8906 56.0625 98.0938 56.625 98.3672 57.0859C98.6484 57.5391 99.0078 57.8828 99.4453 58.1172C99.8906 58.3438 100.426 58.457 101.051 58.457C101.785 58.457 102.391 58.3398 102.867 58.1055C103.344 57.8711 103.707 57.5234 103.957 57.0625C104.215 56.6016 104.367 56.0273 104.414 55.3398ZM115.852 61.2344C114.867 61.2344 113.984 61.0781 113.203 60.7656C112.422 60.4453 111.758 60.0039 111.211 59.4414C110.672 58.8789 110.258 58.2266 109.969 57.4844C109.68 56.7344 109.535 55.9375 109.535 55.0938V54.625C109.535 53.6641 109.672 52.7852 109.945 51.9883C110.219 51.1914 110.609 50.5 111.117 49.9141C111.633 49.3281 112.258 48.8789 112.992 48.5664C113.727 48.2461 114.555 48.0859 115.477 48.0859C116.375 48.0859 117.172 48.2344 117.867 48.5312C118.562 48.8281 119.145 49.25 119.613 49.7969C120.09 50.3438 120.449 51 120.691 51.7656C120.934 52.5234 121.055 53.3672 121.055 54.2969V55.7031H110.977V53.4531H117.738V53.1953C117.738 52.7266 117.652 52.3086 117.48 51.9414C117.316 51.5664 117.066 51.2695 116.73 51.0508C116.395 50.832 115.965 50.7227 115.441 50.7227C114.996 50.7227 114.613 50.8203 114.293 51.0156C113.973 51.2109 113.711 51.4844 113.508 51.8359C113.312 52.1875 113.164 52.6016 113.062 53.0781C112.969 53.5469 112.922 54.0625 112.922 54.625V55.0938C112.922 55.6016 112.992 56.0703 113.133 56.5C113.281 56.9297 113.488 57.3008 113.754 57.6133C114.027 57.9258 114.355 58.168 114.738 58.3398C115.129 58.5117 115.57 58.5977 116.062 58.5977C116.672 58.5977 117.238 58.4805 117.762 58.2461C118.293 58.0039 118.75 57.6406 119.133 57.1562L120.773 58.9375C120.508 59.3203 120.145 59.6875 119.684 60.0391C119.23 60.3906 118.684 60.6797 118.043 60.9062C117.402 61.125 116.672 61.2344 115.852 61.2344ZM126.539 43V61H123.152V43H126.539ZM135.164 61.2344C134.18 61.2344 133.297 61.0781 132.516 60.7656C131.734 60.4453 131.07 60.0039 130.523 59.4414C129.984 58.8789 129.57 58.2266 129.281 57.4844C128.992 56.7344 128.848 55.9375 128.848 55.0938V54.625C128.848 53.6641 128.984 52.7852 129.258 51.9883C129.531 51.1914 129.922 50.5 130.43 49.9141C130.945 49.3281 131.57 48.8789 132.305 48.5664C133.039 48.2461 133.867 48.0859 134.789 48.0859C135.688 48.0859 136.484 48.2344 137.18 48.5312C137.875 48.8281 138.457 49.25 138.926 49.7969C139.402 50.3438 139.762 51 140.004 51.7656C140.246 52.5234 140.367 53.3672 140.367 54.2969V55.7031H130.289V53.4531H137.051V53.1953C137.051 52.7266 136.965 52.3086 136.793 51.9414C136.629 51.5664 136.379 51.2695 136.043 51.0508C135.707 50.832 135.277 50.7227 134.754 50.7227C134.309 50.7227 133.926 50.8203 133.605 51.0156C133.285 51.2109 133.023 51.4844 132.82 51.8359C132.625 52.1875 132.477 52.6016 132.375 53.0781C132.281 53.5469 132.234 54.0625 132.234 54.625V55.0938C132.234 55.6016 132.305 56.0703 132.445 56.5C132.594 56.9297 132.801 57.3008 133.066 57.6133C133.34 57.9258 133.668 58.168 134.051 58.3398C134.441 58.5117 134.883 58.5977 135.375 58.5977C135.984 58.5977 136.551 58.4805 137.074 58.2461C137.605 58.0039 138.062 57.6406 138.445 57.1562L140.086 58.9375C139.82 59.3203 139.457 59.6875 138.996 60.0391C138.543 60.3906 137.996 60.6797 137.355 60.9062C136.715 61.125 135.984 61.2344 135.164 61.2344ZM149.145 57.4961C149.145 57.2539 149.074 57.0352 148.934 56.8398C148.793 56.6445 148.531 56.4648 148.148 56.3008C147.773 56.1289 147.23 55.9727 146.52 55.832C145.879 55.6914 145.281 55.5156 144.727 55.3047C144.18 55.0859 143.703 54.8242 143.297 54.5195C142.898 54.2148 142.586 53.8555 142.359 53.4414C142.133 53.0195 142.02 52.5391 142.02 52C142.02 51.4688 142.133 50.9688 142.359 50.5C142.594 50.0312 142.926 49.6172 143.355 49.2578C143.793 48.8906 144.324 48.6055 144.949 48.4023C145.582 48.1914 146.293 48.0859 147.082 48.0859C148.184 48.0859 149.129 48.2617 149.918 48.6133C150.715 48.9648 151.324 49.4492 151.746 50.0664C152.176 50.6758 152.391 51.3711 152.391 52.1523H149.016C149.016 51.8242 148.945 51.5312 148.805 51.2734C148.672 51.0078 148.461 50.8008 148.172 50.6523C147.891 50.4961 147.523 50.418 147.07 50.418C146.695 50.418 146.371 50.4844 146.098 50.6172C145.824 50.7422 145.613 50.9141 145.465 51.1328C145.324 51.3438 145.254 51.5781 145.254 51.8359C145.254 52.0312 145.293 52.207 145.371 52.3633C145.457 52.5117 145.594 52.6484 145.781 52.7734C145.969 52.8984 146.211 53.0156 146.508 53.125C146.812 53.2266 147.188 53.3203 147.633 53.4062C148.547 53.5938 149.363 53.8398 150.082 54.1445C150.801 54.4414 151.371 54.8477 151.793 55.3633C152.215 55.8711 152.426 56.5391 152.426 57.3672C152.426 57.9297 152.301 58.4453 152.051 58.9141C151.801 59.3828 151.441 59.793 150.973 60.1445C150.504 60.4883 149.941 60.7578 149.285 60.9531C148.637 61.1406 147.906 61.2344 147.094 61.2344C145.914 61.2344 144.914 61.0234 144.094 60.6016C143.281 60.1797 142.664 59.6445 142.242 58.9961C141.828 58.3398 141.621 57.668 141.621 56.9805H144.82C144.836 57.4414 144.953 57.8125 145.172 58.0938C145.398 58.375 145.684 58.5781 146.027 58.7031C146.379 58.8281 146.758 58.8906 147.164 58.8906C147.602 58.8906 147.965 58.832 148.254 58.7148C148.543 58.5898 148.762 58.4258 148.91 58.2227C149.066 58.0117 149.145 57.7695 149.145 57.4961ZM160.828 48.3203V50.7109H153.445V48.3203H160.828ZM155.273 45.1914H158.648V57.1797C158.648 57.5469 158.695 57.8281 158.789 58.0234C158.891 58.2188 159.039 58.3555 159.234 58.4336C159.43 58.5039 159.676 58.5391 159.973 58.5391C160.184 58.5391 160.371 58.5312 160.535 58.5156C160.707 58.4922 160.852 58.4688 160.969 58.4453L160.98 60.9297C160.691 61.0234 160.379 61.0977 160.043 61.1523C159.707 61.207 159.336 61.2344 158.93 61.2344C158.188 61.2344 157.539 61.1133 156.984 60.8711C156.438 60.6211 156.016 60.2227 155.719 59.6758C155.422 59.1289 155.273 58.4102 155.273 57.5195V45.1914ZM166.312 48.3203V61H162.926V48.3203H166.312ZM162.715 45.0156C162.715 44.5234 162.887 44.1172 163.23 43.7969C163.574 43.4766 164.035 43.3164 164.613 43.3164C165.184 43.3164 165.641 43.4766 165.984 43.7969C166.336 44.1172 166.512 44.5234 166.512 45.0156C166.512 45.5078 166.336 45.9141 165.984 46.2344C165.641 46.5547 165.184 46.7148 164.613 46.7148C164.035 46.7148 163.574 46.5547 163.23 46.2344C162.887 45.9141 162.715 45.5078 162.715 45.0156ZM175.945 58.1406V52.4922C175.945 52.0859 175.879 51.7383 175.746 51.4492C175.613 51.1523 175.406 50.9219 175.125 50.7578C174.852 50.5938 174.496 50.5117 174.059 50.5117C173.684 50.5117 173.359 50.5781 173.086 50.7109C172.812 50.8359 172.602 51.0195 172.453 51.2617C172.305 51.4961 172.23 51.7734 172.23 52.0938H168.855C168.855 51.5547 168.98 51.043 169.23 50.5586C169.48 50.0742 169.844 49.6484 170.32 49.2812C170.797 48.9062 171.363 48.6133 172.02 48.4023C172.684 48.1914 173.426 48.0859 174.246 48.0859C175.23 48.0859 176.105 48.25 176.871 48.5781C177.637 48.9062 178.238 49.3984 178.676 50.0547C179.121 50.7109 179.344 51.5312 179.344 52.5156V57.9414C179.344 58.6367 179.387 59.207 179.473 59.6523C179.559 60.0898 179.684 60.4727 179.848 60.8008V61H176.438C176.273 60.6562 176.148 60.2266 176.062 59.7109C175.984 59.1875 175.945 58.6641 175.945 58.1406ZM176.391 53.2773L176.414 55.1875H174.527C174.082 55.1875 173.695 55.2383 173.367 55.3398C173.039 55.4414 172.77 55.5859 172.559 55.7734C172.348 55.9531 172.191 56.1641 172.09 56.4062C171.996 56.6484 171.949 56.9141 171.949 57.2031C171.949 57.4922 172.016 57.7539 172.148 57.9883C172.281 58.2148 172.473 58.3945 172.723 58.5273C172.973 58.6523 173.266 58.7148 173.602 58.7148C174.109 58.7148 174.551 58.6133 174.926 58.4102C175.301 58.207 175.59 57.957 175.793 57.6602C176.004 57.3633 176.113 57.082 176.121 56.8164L177.012 58.2461C176.887 58.5664 176.715 58.8984 176.496 59.2422C176.285 59.5859 176.016 59.9102 175.688 60.2148C175.359 60.5117 174.965 60.7578 174.504 60.9531C174.043 61.1406 173.496 61.2344 172.863 61.2344C172.059 61.2344 171.328 61.0742 170.672 60.7539C170.023 60.4258 169.508 59.9766 169.125 59.4062C168.75 58.8281 168.562 58.1719 168.562 57.4375C168.562 56.7734 168.688 56.1836 168.938 55.668C169.188 55.1523 169.555 54.7188 170.039 54.3672C170.531 54.0078 171.145 53.7383 171.879 53.5586C172.613 53.3711 173.465 53.2773 174.434 53.2773H176.391ZM185.508 43V61H182.121V43H185.508ZM195.152 54.918H190.805V52.1758H195.152C195.824 52.1758 196.371 52.0664 196.793 51.8477C197.215 51.6211 197.523 51.3086 197.719 50.9102C197.914 50.5117 198.012 50.0625 198.012 49.5625C198.012 49.0547 197.914 48.582 197.719 48.1445C197.523 47.707 197.215 47.3555 196.793 47.0898C196.371 46.8242 195.824 46.6914 195.152 46.6914H192.023V61H188.508V43.9375H195.152C196.488 43.9375 197.633 44.1797 198.586 44.6641C199.547 45.1406 200.281 45.8008 200.789 46.6445C201.297 47.4883 201.551 48.4531 201.551 49.5391C201.551 50.6406 201.297 51.5938 200.789 52.3984C200.281 53.2031 199.547 53.8242 198.586 54.2617C197.633 54.6992 196.488 54.918 195.152 54.918ZM210.469 58.1406V52.4922C210.469 52.0859 210.402 51.7383 210.27 51.4492C210.137 51.1523 209.93 50.9219 209.648 50.7578C209.375 50.5938 209.02 50.5117 208.582 50.5117C208.207 50.5117 207.883 50.5781 207.609 50.7109C207.336 50.8359 207.125 51.0195 206.977 51.2617C206.828 51.4961 206.754 51.7734 206.754 52.0938H203.379C203.379 51.5547 203.504 51.043 203.754 50.5586C204.004 50.0742 204.367 49.6484 204.844 49.2812C205.32 48.9062 205.887 48.6133 206.543 48.4023C207.207 48.1914 207.949 48.0859 208.77 48.0859C209.754 48.0859 210.629 48.25 211.395 48.5781C212.16 48.9062 212.762 49.3984 213.199 50.0547C213.645 50.7109 213.867 51.5312 213.867 52.5156V57.9414C213.867 58.6367 213.91 59.207 213.996 59.6523C214.082 60.0898 214.207 60.4727 214.371 60.8008V61H210.961C210.797 60.6562 210.672 60.2266 210.586 59.7109C210.508 59.1875 210.469 58.6641 210.469 58.1406ZM210.914 53.2773L210.938 55.1875H209.051C208.605 55.1875 208.219 55.2383 207.891 55.3398C207.562 55.4414 207.293 55.5859 207.082 55.7734C206.871 55.9531 206.715 56.1641 206.613 56.4062C206.52 56.6484 206.473 56.9141 206.473 57.2031C206.473 57.4922 206.539 57.7539 206.672 57.9883C206.805 58.2148 206.996 58.3945 207.246 58.5273C207.496 58.6523 207.789 58.7148 208.125 58.7148C208.633 58.7148 209.074 58.6133 209.449 58.4102C209.824 58.207 210.113 57.957 210.316 57.6602C210.527 57.3633 210.637 57.082 210.645 56.8164L211.535 58.2461C211.41 58.5664 211.238 58.8984 211.02 59.2422C210.809 59.5859 210.539 59.9102 210.211 60.2148C209.883 60.5117 209.488 60.7578 209.027 60.9531C208.566 61.1406 208.02 61.2344 207.387 61.2344C206.582 61.2344 205.852 61.0742 205.195 60.7539C204.547 60.4258 204.031 59.9766 203.648 59.4062C203.273 58.8281 203.086 58.1719 203.086 57.4375C203.086 56.7734 203.211 56.1836 203.461 55.668C203.711 55.1523 204.078 54.7188 204.562 54.3672C205.055 54.0078 205.668 53.7383 206.402 53.5586C207.137 53.3711 207.988 53.2773 208.957 53.2773H210.914ZM222.68 48.3203V50.7109H215.297V48.3203H222.68ZM217.125 45.1914H220.5V57.1797C220.5 57.5469 220.547 57.8281 220.641 58.0234C220.742 58.2188 220.891 58.3555 221.086 58.4336C221.281 58.5039 221.527 58.5391 221.824 58.5391C222.035 58.5391 222.223 58.5312 222.387 58.5156C222.559 58.4922 222.703 58.4688 222.82 58.4453L222.832 60.9297C222.543 61.0234 222.23 61.0977 221.895 61.1523C221.559 61.207 221.188 61.2344 220.781 61.2344C220.039 61.2344 219.391 61.1133 218.836 60.8711C218.289 60.6211 217.867 60.2227 217.57 59.6758C217.273 59.1289 217.125 58.4102 217.125 57.5195V45.1914ZM227.895 43V61H224.52V43H227.895ZM227.414 54.2148H226.488C226.496 53.332 226.613 52.5195 226.84 51.7773C227.066 51.0273 227.391 50.3789 227.812 49.832C228.234 49.2773 228.738 48.8477 229.324 48.543C229.918 48.2383 230.574 48.0859 231.293 48.0859C231.918 48.0859 232.484 48.1758 232.992 48.3555C233.508 48.5273 233.949 48.8086 234.316 49.1992C234.691 49.582 234.98 50.0859 235.184 50.7109C235.387 51.3359 235.488 52.0938 235.488 52.9844V61H232.09V52.9609C232.09 52.3984 232.008 51.957 231.844 51.6367C231.688 51.3086 231.457 51.0781 231.152 50.9453C230.855 50.8047 230.488 50.7344 230.051 50.7344C229.566 50.7344 229.152 50.8242 228.809 51.0039C228.473 51.1836 228.203 51.4336 228 51.7539C227.797 52.0664 227.648 52.4336 227.555 52.8555C227.461 53.2773 227.414 53.7305 227.414 54.2148ZM241.676 57.7188L244.312 48.3203H246.457L245.766 52.0117L243.129 61H241.336L241.676 57.7188ZM240.34 48.3203L242.227 57.707L242.402 61H240.293L237.082 48.3203H240.34ZM248.871 57.5547L250.711 48.3203H253.98L250.77 61H248.672L248.871 57.5547ZM246.75 48.3203L249.375 57.6484L249.738 61H247.934L245.297 52.0234L244.629 48.3203H246.75ZM262.523 58.1406V52.4922C262.523 52.0859 262.457 51.7383 262.324 51.4492C262.191 51.1523 261.984 50.9219 261.703 50.7578C261.43 50.5938 261.074 50.5117 260.637 50.5117C260.262 50.5117 259.938 50.5781 259.664 50.7109C259.391 50.8359 259.18 51.0195 259.031 51.2617C258.883 51.4961 258.809 51.7734 258.809 52.0938H255.434C255.434 51.5547 255.559 51.043 255.809 50.5586C256.059 50.0742 256.422 49.6484 256.898 49.2812C257.375 48.9062 257.941 48.6133 258.598 48.4023C259.262 48.1914 260.004 48.0859 260.824 48.0859C261.809 48.0859 262.684 48.25 263.449 48.5781C264.215 48.9062 264.816 49.3984 265.254 50.0547C265.699 50.7109 265.922 51.5312 265.922 52.5156V57.9414C265.922 58.6367 265.965 59.207 266.051 59.6523C266.137 60.0898 266.262 60.4727 266.426 60.8008V61H263.016C262.852 60.6562 262.727 60.2266 262.641 59.7109C262.562 59.1875 262.523 58.6641 262.523 58.1406ZM262.969 53.2773L262.992 55.1875H261.105C260.66 55.1875 260.273 55.2383 259.945 55.3398C259.617 55.4414 259.348 55.5859 259.137 55.7734C258.926 55.9531 258.77 56.1641 258.668 56.4062C258.574 56.6484 258.527 56.9141 258.527 57.2031C258.527 57.4922 258.594 57.7539 258.727 57.9883C258.859 58.2148 259.051 58.3945 259.301 58.5273C259.551 58.6523 259.844 58.7148 260.18 58.7148C260.688 58.7148 261.129 58.6133 261.504 58.4102C261.879 58.207 262.168 57.957 262.371 57.6602C262.582 57.3633 262.691 57.082 262.699 56.8164L263.59 58.2461C263.465 58.5664 263.293 58.8984 263.074 59.2422C262.863 59.5859 262.594 59.9102 262.266 60.2148C261.938 60.5117 261.543 60.7578 261.082 60.9531C260.621 61.1406 260.074 61.2344 259.441 61.2344C258.637 61.2344 257.906 61.0742 257.25 60.7539C256.602 60.4258 256.086 59.9766 255.703 59.4062C255.328 58.8281 255.141 58.1719 255.141 57.4375C255.141 56.7734 255.266 56.1836 255.516 55.668C255.766 55.1523 256.133 54.7188 256.617 54.3672C257.109 54.0078 257.723 53.7383 258.457 53.5586C259.191 53.3711 260.043 53.2773 261.012 53.2773H262.969ZM272.098 59.5703L275.461 48.3203H279.082L273.984 62.9102C273.875 63.2305 273.727 63.5742 273.539 63.9414C273.359 64.3086 273.113 64.6562 272.801 64.9844C272.496 65.3203 272.109 65.5938 271.641 65.8047C271.18 66.0156 270.613 66.1211 269.941 66.1211C269.621 66.1211 269.359 66.1016 269.156 66.0625C268.953 66.0234 268.711 65.9688 268.43 65.8984V63.4258C268.516 63.4258 268.605 63.4258 268.699 63.4258C268.793 63.4336 268.883 63.4375 268.969 63.4375C269.414 63.4375 269.777 63.3867 270.059 63.2852C270.34 63.1836 270.566 63.0273 270.738 62.8164C270.91 62.6133 271.047 62.3477 271.148 62.0195L272.098 59.5703ZM270.691 48.3203L273.445 57.5078L273.926 61.082L271.629 61.3281L267.07 48.3203H270.691Z" fill="#888888"/>
<path d="M114.117 84.875H122.344V107.164C122.344 109.82 121.789 112.07 120.68 113.914C119.57 115.742 118.016 117.125 116.016 118.062C114.016 119 111.664 119.469 108.961 119.469C106.289 119.469 103.938 119 101.906 118.062C99.8906 117.125 98.3125 115.742 97.1719 113.914C96.0469 112.07 95.4844 109.82 95.4844 107.164V84.875H103.734V107.164C103.734 108.57 103.938 109.719 104.344 110.609C104.75 111.484 105.344 112.125 106.125 112.531C106.906 112.938 107.852 113.141 108.961 113.141C110.086 113.141 111.031 112.938 111.797 112.531C112.562 112.125 113.141 111.484 113.531 110.609C113.922 109.719 114.117 108.57 114.117 107.164V84.875ZM134.906 99.0547V119H127.008V93.6406H134.414L134.906 99.0547ZM133.969 105.453L132.117 105.5C132.117 103.562 132.352 101.836 132.82 100.32C133.289 98.7891 133.953 97.4922 134.812 96.4297C135.672 95.3672 136.695 94.5625 137.883 94.0156C139.086 93.4531 140.422 93.1719 141.891 93.1719C143.062 93.1719 144.133 93.3438 145.102 93.6875C146.086 94.0312 146.93 94.5859 147.633 95.3516C148.352 96.1172 148.898 97.1328 149.273 98.3984C149.664 99.6484 149.859 101.195 149.859 103.039V119H141.914V103.016C141.914 102 141.773 101.227 141.492 100.695C141.211 100.148 140.805 99.7734 140.273 99.5703C139.742 99.3672 139.094 99.2656 138.328 99.2656C137.516 99.2656 136.828 99.4219 136.266 99.7344C135.703 100.047 135.25 100.484 134.906 101.047C134.578 101.594 134.336 102.242 134.18 102.992C134.039 103.742 133.969 104.562 133.969 105.453ZM162.586 93.6406V119H154.664V93.6406H162.586ZM154.195 87.1016C154.195 85.9766 154.602 85.0547 155.414 84.3359C156.227 83.6172 157.281 83.2578 158.578 83.2578C159.875 83.2578 160.93 83.6172 161.742 84.3359C162.555 85.0547 162.961 85.9766 162.961 87.1016C162.961 88.2266 162.555 89.1484 161.742 89.8672C160.93 90.5859 159.875 90.9453 158.578 90.9453C157.281 90.9453 156.227 90.5859 155.414 89.8672C154.602 89.1484 154.195 88.2266 154.195 87.1016ZM180.82 93.6406V99.125H165.539V93.6406H180.82ZM168.75 87.3359H176.648V110.727C176.648 111.398 176.727 111.922 176.883 112.297C177.039 112.656 177.305 112.914 177.68 113.07C178.07 113.211 178.586 113.281 179.227 113.281C179.68 113.281 180.055 113.273 180.352 113.258C180.648 113.227 180.93 113.188 181.195 113.141V118.789C180.523 119.008 179.82 119.172 179.086 119.281C178.352 119.406 177.57 119.469 176.742 119.469C175.055 119.469 173.609 119.203 172.406 118.672C171.219 118.141 170.312 117.305 169.688 116.164C169.062 115.023 168.75 113.539 168.75 111.711V87.3359ZM211.406 84.875V119H203.18V84.875H211.406ZM221.672 84.875V91.2266H193.148V84.875H221.672ZM234.961 119.469C232.898 119.469 231.055 119.148 229.43 118.508C227.805 117.852 226.43 116.953 225.305 115.812C224.195 114.672 223.344 113.359 222.75 111.875C222.172 110.391 221.883 108.82 221.883 107.164V106.273C221.883 104.414 222.141 102.695 222.656 101.117C223.172 99.5234 223.938 98.1328 224.953 96.9453C225.969 95.7578 227.242 94.8359 228.773 94.1797C230.305 93.5078 232.086 93.1719 234.117 93.1719C235.914 93.1719 237.523 93.4609 238.945 94.0391C240.367 94.6172 241.57 95.4453 242.555 96.5234C243.555 97.6016 244.312 98.9062 244.828 100.438C245.359 101.969 245.625 103.688 245.625 105.594V108.805H224.906V103.859H237.914V103.25C237.93 102.406 237.781 101.688 237.469 101.094C237.172 100.5 236.734 100.047 236.156 99.7344C235.578 99.4219 234.875 99.2656 234.047 99.2656C233.188 99.2656 232.477 99.4531 231.914 99.8281C231.367 100.203 230.938 100.719 230.625 101.375C230.328 102.016 230.117 102.758 229.992 103.602C229.867 104.445 229.805 105.336 229.805 106.273V107.164C229.805 108.102 229.93 108.953 230.18 109.719C230.445 110.484 230.82 111.141 231.305 111.688C231.805 112.219 232.398 112.633 233.086 112.93C233.789 113.227 234.586 113.375 235.477 113.375C236.555 113.375 237.617 113.172 238.664 112.766C239.711 112.359 240.609 111.688 241.359 110.75L244.945 115.016C244.43 115.75 243.695 116.461 242.742 117.148C241.805 117.836 240.68 118.398 239.367 118.836C238.055 119.258 236.586 119.469 234.961 119.469ZM262.125 111.875C262.125 111.438 261.977 111.062 261.68 110.75C261.398 110.422 260.898 110.125 260.18 109.859C259.461 109.578 258.453 109.297 257.156 109.016C255.922 108.75 254.758 108.398 253.664 107.961C252.586 107.523 251.641 106.992 250.828 106.367C250.016 105.742 249.375 105 248.906 104.141C248.453 103.281 248.227 102.297 248.227 101.188C248.227 100.109 248.453 99.0938 248.906 98.1406C249.375 97.1719 250.055 96.3203 250.945 95.5859C251.852 94.8359 252.953 94.25 254.25 93.8281C255.547 93.3906 257.023 93.1719 258.68 93.1719C260.961 93.1719 262.93 93.5234 264.586 94.2266C266.242 94.9141 267.516 95.8828 268.406 97.1328C269.312 98.3672 269.766 99.7969 269.766 101.422H261.867C261.867 100.781 261.758 100.234 261.539 99.7812C261.336 99.3281 261 98.9844 260.531 98.75C260.062 98.5 259.438 98.375 258.656 98.375C258.109 98.375 257.609 98.4766 257.156 98.6797C256.719 98.8828 256.367 99.1641 256.102 99.5234C255.836 99.8828 255.703 100.305 255.703 100.789C255.703 101.133 255.781 101.445 255.938 101.727C256.109 101.992 256.367 102.242 256.711 102.477C257.055 102.695 257.492 102.898 258.023 103.086C258.555 103.258 259.195 103.414 259.945 103.555C261.648 103.867 263.242 104.312 264.727 104.891C266.211 105.469 267.414 106.289 268.336 107.352C269.273 108.414 269.742 109.844 269.742 111.641C269.742 112.766 269.484 113.805 268.969 114.758C268.453 115.695 267.711 116.523 266.742 117.242C265.773 117.945 264.609 118.492 263.25 118.883C261.891 119.273 260.359 119.469 258.656 119.469C256.234 119.469 254.188 119.039 252.516 118.18C250.844 117.305 249.578 116.211 248.719 114.898C247.875 113.57 247.453 112.227 247.453 110.867H254.812C254.844 111.648 255.031 112.289 255.375 112.789C255.734 113.289 256.211 113.656 256.805 113.891C257.398 114.125 258.086 114.242 258.867 114.242C259.586 114.242 260.18 114.141 260.648 113.938C261.133 113.734 261.5 113.461 261.75 113.117C262 112.758 262.125 112.344 262.125 111.875ZM286.805 93.6406V99.125H271.523V93.6406H286.805ZM274.734 87.3359H282.633V110.727C282.633 111.398 282.711 111.922 282.867 112.297C283.023 112.656 283.289 112.914 283.664 113.07C284.055 113.211 284.57 113.281 285.211 113.281C285.664 113.281 286.039 113.273 286.336 113.258C286.633 113.227 286.914 113.188 287.18 113.141V118.789C286.508 119.008 285.805 119.172 285.07 119.281C284.336 119.406 283.555 119.469 282.727 119.469C281.039 119.469 279.594 119.203 278.391 118.672C277.203 118.141 276.297 117.305 275.672 116.164C275.047 115.023 274.734 113.539 274.734 111.711V87.3359ZM298.289 93.6406V119H290.367V93.6406H298.289ZM289.898 87.1016C289.898 85.9766 290.305 85.0547 291.117 84.3359C291.93 83.6172 292.984 83.2578 294.281 83.2578C295.578 83.2578 296.633 83.6172 297.445 84.3359C298.258 85.0547 298.664 85.9766 298.664 87.1016C298.664 88.2266 298.258 89.1484 297.445 89.8672C296.633 90.5859 295.578 90.9453 294.281 90.9453C292.984 90.9453 291.93 90.5859 291.117 89.8672C290.305 89.1484 289.898 88.2266 289.898 87.1016ZM310.922 99.0547V119H303.023V93.6406H310.43L310.922 99.0547ZM309.984 105.453L308.133 105.5C308.133 103.562 308.367 101.836 308.836 100.32C309.305 98.7891 309.969 97.4922 310.828 96.4297C311.688 95.3672 312.711 94.5625 313.898 94.0156C315.102 93.4531 316.438 93.1719 317.906 93.1719C319.078 93.1719 320.148 93.3438 321.117 93.6875C322.102 94.0312 322.945 94.5859 323.648 95.3516C324.367 96.1172 324.914 97.1328 325.289 98.3984C325.68 99.6484 325.875 101.195 325.875 103.039V119H317.93V103.016C317.93 102 317.789 101.227 317.508 100.695C317.227 100.148 316.82 99.7734 316.289 99.5703C315.758 99.3672 315.109 99.2656 314.344 99.2656C313.531 99.2656 312.844 99.4219 312.281 99.7344C311.719 100.047 311.266 100.484 310.922 101.047C310.594 101.594 310.352 102.242 310.195 102.992C310.055 103.742 309.984 104.562 309.984 105.453ZM346.195 93.6406H353.367V118.016C353.367 120.359 352.828 122.344 351.75 123.969C350.672 125.609 349.164 126.852 347.227 127.695C345.305 128.555 343.055 128.984 340.477 128.984C339.336 128.984 338.172 128.836 336.984 128.539C335.797 128.258 334.688 127.836 333.656 127.273C332.625 126.711 331.758 126.016 331.055 125.188L334.359 120.547C335 121.266 335.805 121.875 336.773 122.375C337.742 122.891 338.883 123.148 340.195 123.148C341.336 123.148 342.289 122.945 343.055 122.539C343.836 122.133 344.43 121.539 344.836 120.758C345.242 119.992 345.445 119.062 345.445 117.969V99.6406L346.195 93.6406ZM329.344 106.625V106.133C329.344 104.211 329.578 102.461 330.047 100.883C330.531 99.2891 331.219 97.9219 332.109 96.7812C333.016 95.625 334.109 94.7344 335.391 94.1094C336.672 93.4844 338.117 93.1719 339.727 93.1719C341.461 93.1719 342.883 93.5078 343.992 94.1797C345.117 94.8359 346.016 95.7578 346.688 96.9453C347.375 98.1328 347.906 99.5234 348.281 101.117C348.672 102.695 349 104.398 349.266 106.227V106.812C349 108.531 348.633 110.156 348.164 111.688C347.711 113.203 347.117 114.547 346.383 115.719C345.648 116.891 344.727 117.812 343.617 118.484C342.523 119.141 341.211 119.469 339.68 119.469C338.086 119.469 336.648 119.148 335.367 118.508C334.102 117.867 333.016 116.969 332.109 115.812C331.219 114.656 330.531 113.297 330.047 111.734C329.578 110.172 329.344 108.469 329.344 106.625ZM337.242 106.133V106.625C337.242 107.578 337.328 108.461 337.5 109.273C337.688 110.086 337.969 110.805 338.344 111.43C338.719 112.039 339.18 112.516 339.727 112.859C340.289 113.203 340.945 113.375 341.695 113.375C342.836 113.375 343.758 113.133 344.461 112.648C345.164 112.164 345.672 111.477 345.984 110.586C346.297 109.695 346.43 108.648 346.383 107.445V105.594C346.414 104.562 346.344 103.656 346.172 102.875C346 102.078 345.727 101.414 345.352 100.883C344.992 100.352 344.508 99.9531 343.898 99.6875C343.305 99.4062 342.586 99.2656 341.742 99.2656C341.008 99.2656 340.359 99.4375 339.797 99.7812C339.234 100.125 338.766 100.609 338.391 101.234C338.016 101.844 337.727 102.57 337.523 103.414C337.336 104.242 337.242 105.148 337.242 106.133Z" fill="black"/>
<path d="M1134 0H1348C1356.28 0 1363 6.71573 1363 15V148C1363 156.284 1356.28 163 1348 163H1134V0Z" fill="black"/>
<path d="M1210.62 43.625H1286.38V119.375H1210.62V43.625Z" fill="white" fill-opacity="0.01"/>
<path d="M1276.91 72.0312V105.172C1276.91 107.787 1274.79 109.906 1272.17 109.906H1224.83C1222.21 109.906 1220.09 107.787 1220.09 105.172V57.8281C1220.09 55.2134 1222.21 53.0938 1224.83 53.0938H1261.12" stroke="#0049B6" stroke-width="7.24" stroke-linecap="round" stroke-linejoin="round"/>
<path d="M1232.72 75.1875L1248.5 87.8125L1276.91 53.0938" stroke="#0049B6" stroke-width="7.24" stroke-linecap="round" stroke-linejoin="round"/>
</svg>
