<svg width="1363" height="163" viewBox="0 0 1363 163" fill="none" xmlns="http://www.w3.org/2000/svg">
<path d="M0 15C0 6.71573 6.71573 0 15 0H37V163H15C6.71573 163 0 156.284 0 148V15Z" fill="#61DBFB"/>
<rect width="1097" height="163" transform="translate(37)" fill="#F0F0F0"/>
<path d="M103.406 56.5352C103.406 56.2305 103.359 55.957 103.266 55.7148C103.18 55.4648 103.016 55.2383 102.773 55.0352C102.531 54.8242 102.191 54.6172 101.754 54.4141C101.316 54.2109 100.75 54 100.055 53.7812C99.2812 53.5312 98.5469 53.25 97.8516 52.9375C97.1641 52.625 96.5547 52.2617 96.0234 51.8477C95.5 51.4258 95.0859 50.9375 94.7812 50.3828C94.4844 49.8281 94.3359 49.1836 94.3359 48.4492C94.3359 47.7383 94.4922 47.0938 94.8047 46.5156C95.1172 45.9297 95.5547 45.4297 96.1172 45.0156C96.6797 44.5938 97.3438 44.2695 98.1094 44.043C98.8828 43.8164 99.7305 43.7031 100.652 43.7031C101.91 43.7031 103.008 43.9297 103.945 44.3828C104.883 44.8359 105.609 45.457 106.125 46.2461C106.648 47.0352 106.91 47.9375 106.91 48.9531H103.418C103.418 48.4531 103.312 48.0156 103.102 47.6406C102.898 47.2578 102.586 46.957 102.164 46.7383C101.75 46.5195 101.227 46.4102 100.594 46.4102C99.9844 46.4102 99.4766 46.5039 99.0703 46.6914C98.6641 46.8711 98.3594 47.1172 98.1562 47.4297C97.9531 47.7344 97.8516 48.0781 97.8516 48.4609C97.8516 48.75 97.9219 49.0117 98.0625 49.2461C98.2109 49.4805 98.4297 49.6992 98.7188 49.9023C99.0078 50.1055 99.3633 50.2969 99.7852 50.4766C100.207 50.6562 100.695 50.832 101.25 51.0039C102.18 51.2852 102.996 51.6016 103.699 51.9531C104.41 52.3047 105.004 52.6992 105.48 53.1367C105.957 53.5742 106.316 54.0703 106.559 54.625C106.801 55.1797 106.922 55.8086 106.922 56.5117C106.922 57.2539 106.777 57.918 106.488 58.5039C106.199 59.0898 105.781 59.5859 105.234 59.9922C104.688 60.3984 104.035 60.707 103.277 60.918C102.52 61.1289 101.672 61.2344 100.734 61.2344C99.8906 61.2344 99.0586 61.125 98.2383 60.9062C97.418 60.6797 96.6719 60.3398 96 59.8867C95.3359 59.4336 94.8047 58.8555 94.4062 58.1523C94.0078 57.4492 93.8086 56.6172 93.8086 55.6562H97.3359C97.3359 56.1875 97.418 56.6367 97.582 57.0039C97.7461 57.3711 97.9766 57.668 98.2734 57.8945C98.5781 58.1211 98.9375 58.2852 99.3516 58.3867C99.7734 58.4883 100.234 58.5391 100.734 58.5391C101.344 58.5391 101.844 58.4531 102.234 58.2812C102.633 58.1094 102.926 57.8711 103.113 57.5664C103.309 57.2617 103.406 56.918 103.406 56.5352ZM112.477 50.7578V65.875H109.102V48.3203H112.23L112.477 50.7578ZM120.504 54.5195V54.7656C120.504 55.6875 120.395 56.543 120.176 57.332C119.965 58.1211 119.652 58.8086 119.238 59.3945C118.824 59.9727 118.309 60.4258 117.691 60.7539C117.082 61.0742 116.379 61.2344 115.582 61.2344C114.809 61.2344 114.137 61.0781 113.566 60.7656C112.996 60.4531 112.516 60.0156 112.125 59.4531C111.742 58.8828 111.434 58.2227 111.199 57.4727C110.965 56.7227 110.785 55.918 110.66 55.0586V54.4141C110.785 53.4922 110.965 52.6484 111.199 51.8828C111.434 51.1094 111.742 50.4414 112.125 49.8789C112.516 49.3086 112.992 48.8672 113.555 48.5547C114.125 48.2422 114.793 48.0859 115.559 48.0859C116.363 48.0859 117.07 48.2383 117.68 48.543C118.297 48.8477 118.812 49.2852 119.227 49.8555C119.648 50.4258 119.965 51.1055 120.176 51.8945C120.395 52.6836 120.504 53.5586 120.504 54.5195ZM117.117 54.7656V54.5195C117.117 53.9805 117.07 53.4844 116.977 53.0312C116.891 52.5703 116.75 52.168 116.555 51.8242C116.367 51.4805 116.117 51.2148 115.805 51.0273C115.5 50.832 115.129 50.7344 114.691 50.7344C114.23 50.7344 113.836 50.8086 113.508 50.957C113.188 51.1055 112.926 51.3203 112.723 51.6016C112.52 51.8828 112.367 52.2188 112.266 52.6094C112.164 53 112.102 53.4414 112.078 53.9336V55.5625C112.117 56.1406 112.227 56.6602 112.406 57.1211C112.586 57.5742 112.863 57.9336 113.238 58.1992C113.613 58.4648 114.105 58.5977 114.715 58.5977C115.16 58.5977 115.535 58.5 115.84 58.3047C116.145 58.1016 116.391 57.8242 116.578 57.4727C116.773 57.1211 116.91 56.7148 116.988 56.2539C117.074 55.793 117.117 55.2969 117.117 54.7656ZM129.445 58.1406V52.4922C129.445 52.0859 129.379 51.7383 129.246 51.4492C129.113 51.1523 128.906 50.9219 128.625 50.7578C128.352 50.5938 127.996 50.5117 127.559 50.5117C127.184 50.5117 126.859 50.5781 126.586 50.7109C126.312 50.8359 126.102 51.0195 125.953 51.2617C125.805 51.4961 125.73 51.7734 125.73 52.0938H122.355C122.355 51.5547 122.48 51.043 122.73 50.5586C122.98 50.0742 123.344 49.6484 123.82 49.2812C124.297 48.9062 124.863 48.6133 125.52 48.4023C126.184 48.1914 126.926 48.0859 127.746 48.0859C128.73 48.0859 129.605 48.25 130.371 48.5781C131.137 48.9062 131.738 49.3984 132.176 50.0547C132.621 50.7109 132.844 51.5312 132.844 52.5156V57.9414C132.844 58.6367 132.887 59.207 132.973 59.6523C133.059 60.0898 133.184 60.4727 133.348 60.8008V61H129.938C129.773 60.6562 129.648 60.2266 129.562 59.7109C129.484 59.1875 129.445 58.6641 129.445 58.1406ZM129.891 53.2773L129.914 55.1875H128.027C127.582 55.1875 127.195 55.2383 126.867 55.3398C126.539 55.4414 126.27 55.5859 126.059 55.7734C125.848 55.9531 125.691 56.1641 125.59 56.4062C125.496 56.6484 125.449 56.9141 125.449 57.2031C125.449 57.4922 125.516 57.7539 125.648 57.9883C125.781 58.2148 125.973 58.3945 126.223 58.5273C126.473 58.6523 126.766 58.7148 127.102 58.7148C127.609 58.7148 128.051 58.6133 128.426 58.4102C128.801 58.207 129.09 57.957 129.293 57.6602C129.504 57.3633 129.613 57.082 129.621 56.8164L130.512 58.2461C130.387 58.5664 130.215 58.8984 129.996 59.2422C129.785 59.5859 129.516 59.9102 129.188 60.2148C128.859 60.5117 128.465 60.7578 128.004 60.9531C127.543 61.1406 126.996 61.2344 126.363 61.2344C125.559 61.2344 124.828 61.0742 124.172 60.7539C123.523 60.4258 123.008 59.9766 122.625 59.4062C122.25 58.8281 122.062 58.1719 122.062 57.4375C122.062 56.7734 122.188 56.1836 122.438 55.668C122.688 55.1523 123.055 54.7188 123.539 54.3672C124.031 54.0078 124.645 53.7383 125.379 53.5586C126.113 53.3711 126.965 53.2773 127.934 53.2773H129.891ZM140.684 58.5977C141.098 58.5977 141.465 58.5195 141.785 58.3633C142.105 58.1992 142.355 57.9727 142.535 57.6836C142.723 57.3867 142.82 57.0391 142.828 56.6406H146.004C145.996 57.5312 145.758 58.3242 145.289 59.0195C144.82 59.707 144.191 60.25 143.402 60.6484C142.613 61.0391 141.73 61.2344 140.754 61.2344C139.77 61.2344 138.91 61.0703 138.176 60.7422C137.449 60.4141 136.844 59.9609 136.359 59.3828C135.875 58.7969 135.512 58.1172 135.27 57.3438C135.027 56.5625 134.906 55.7266 134.906 54.8359V54.4961C134.906 53.5977 135.027 52.7617 135.27 51.9883C135.512 51.207 135.875 50.5273 136.359 49.9492C136.844 49.3633 137.449 48.9062 138.176 48.5781C138.902 48.25 139.754 48.0859 140.73 48.0859C141.77 48.0859 142.68 48.2852 143.461 48.6836C144.25 49.082 144.867 49.6523 145.312 50.3945C145.766 51.1289 145.996 52 146.004 53.0078H142.828C142.82 52.5859 142.73 52.2031 142.559 51.8594C142.395 51.5156 142.152 51.2422 141.832 51.0391C141.52 50.8281 141.133 50.7227 140.672 50.7227C140.18 50.7227 139.777 50.8281 139.465 51.0391C139.152 51.2422 138.91 51.5234 138.738 51.8828C138.566 52.2344 138.445 52.6367 138.375 53.0898C138.312 53.5352 138.281 54.0039 138.281 54.4961V54.8359C138.281 55.3281 138.312 55.8008 138.375 56.2539C138.438 56.707 138.555 57.1094 138.727 57.4609C138.906 57.8125 139.152 58.0898 139.465 58.293C139.777 58.4961 140.184 58.5977 140.684 58.5977ZM153.797 61.2344C152.812 61.2344 151.93 61.0781 151.148 60.7656C150.367 60.4453 149.703 60.0039 149.156 59.4414C148.617 58.8789 148.203 58.2266 147.914 57.4844C147.625 56.7344 147.48 55.9375 147.48 55.0938V54.625C147.48 53.6641 147.617 52.7852 147.891 51.9883C148.164 51.1914 148.555 50.5 149.062 49.9141C149.578 49.3281 150.203 48.8789 150.938 48.5664C151.672 48.2461 152.5 48.0859 153.422 48.0859C154.32 48.0859 155.117 48.2344 155.812 48.5312C156.508 48.8281 157.09 49.25 157.559 49.7969C158.035 50.3438 158.395 51 158.637 51.7656C158.879 52.5234 159 53.3672 159 54.2969V55.7031H148.922V53.4531H155.684V53.1953C155.684 52.7266 155.598 52.3086 155.426 51.9414C155.262 51.5664 155.012 51.2695 154.676 51.0508C154.34 50.832 153.91 50.7227 153.387 50.7227C152.941 50.7227 152.559 50.8203 152.238 51.0156C151.918 51.2109 151.656 51.4844 151.453 51.8359C151.258 52.1875 151.109 52.6016 151.008 53.0781C150.914 53.5469 150.867 54.0625 150.867 54.625V55.0938C150.867 55.6016 150.938 56.0703 151.078 56.5C151.227 56.9297 151.434 57.3008 151.699 57.6133C151.973 57.9258 152.301 58.168 152.684 58.3398C153.074 58.5117 153.516 58.5977 154.008 58.5977C154.617 58.5977 155.184 58.4805 155.707 58.2461C156.238 58.0039 156.695 57.6406 157.078 57.1562L158.719 58.9375C158.453 59.3203 158.09 59.6875 157.629 60.0391C157.176 60.3906 156.629 60.6797 155.988 60.9062C155.348 61.125 154.617 61.2344 153.797 61.2344ZM174.012 55.7617V43.9375H177.516V55.7617C177.516 56.9023 177.266 57.8828 176.766 58.7031C176.266 59.5156 175.582 60.1406 174.715 60.5781C173.855 61.0156 172.887 61.2344 171.809 61.2344C170.691 61.2344 169.703 61.0469 168.844 60.6719C167.984 60.2969 167.309 59.7227 166.816 58.9492C166.324 58.168 166.078 57.1797 166.078 55.9844H169.605C169.605 56.6094 169.691 57.1055 169.863 57.4727C170.043 57.8398 170.297 58.1016 170.625 58.2578C170.953 58.4141 171.348 58.4922 171.809 58.4922C172.254 58.4922 172.641 58.3867 172.969 58.1758C173.297 57.9648 173.551 57.6562 173.73 57.25C173.918 56.8438 174.012 56.3477 174.012 55.7617ZM179.766 54.7891V54.543C179.766 53.6133 179.898 52.7578 180.164 51.9766C180.43 51.1875 180.816 50.5039 181.324 49.9258C181.832 49.3477 182.457 48.8984 183.199 48.5781C183.941 48.25 184.793 48.0859 185.754 48.0859C186.715 48.0859 187.57 48.25 188.32 48.5781C189.07 48.8984 189.699 49.3477 190.207 49.9258C190.723 50.5039 191.113 51.1875 191.379 51.9766C191.645 52.7578 191.777 53.6133 191.777 54.543V54.7891C191.777 55.7109 191.645 56.5664 191.379 57.3555C191.113 58.1367 190.723 58.8203 190.207 59.4062C189.699 59.9844 189.074 60.4336 188.332 60.7539C187.59 61.0742 186.738 61.2344 185.777 61.2344C184.816 61.2344 183.961 61.0742 183.211 60.7539C182.469 60.4336 181.84 59.9844 181.324 59.4062C180.816 58.8203 180.43 58.1367 180.164 57.3555C179.898 56.5664 179.766 55.7109 179.766 54.7891ZM183.141 54.543V54.7891C183.141 55.3203 183.188 55.8164 183.281 56.2773C183.375 56.7383 183.523 57.1445 183.727 57.4961C183.938 57.8398 184.211 58.1094 184.547 58.3047C184.883 58.5 185.293 58.5977 185.777 58.5977C186.246 58.5977 186.648 58.5 186.984 58.3047C187.32 58.1094 187.59 57.8398 187.793 57.4961C187.996 57.1445 188.145 56.7383 188.238 56.2773C188.34 55.8164 188.391 55.3203 188.391 54.7891V54.543C188.391 54.0273 188.34 53.543 188.238 53.0898C188.145 52.6289 187.992 52.2227 187.781 51.8711C187.578 51.5117 187.309 51.2305 186.973 51.0273C186.637 50.8242 186.23 50.7227 185.754 50.7227C185.277 50.7227 184.871 50.8242 184.535 51.0273C184.207 51.2305 183.938 51.5117 183.727 51.8711C183.523 52.2227 183.375 52.6289 183.281 53.0898C183.188 53.543 183.141 54.0273 183.141 54.543ZM201.352 57.9648V48.3203H204.727V61H201.551L201.352 57.9648ZM201.727 55.3633L202.723 55.3398C202.723 56.1836 202.625 56.9688 202.43 57.6953C202.234 58.4141 201.941 59.0391 201.551 59.5703C201.16 60.0938 200.668 60.5039 200.074 60.8008C199.48 61.0898 198.781 61.2344 197.977 61.2344C197.359 61.2344 196.789 61.1484 196.266 60.9766C195.75 60.7969 195.305 60.5195 194.93 60.1445C194.562 59.7617 194.273 59.2734 194.062 58.6797C193.859 58.0781 193.758 57.3555 193.758 56.5117V48.3203H197.133V56.5352C197.133 56.9102 197.176 57.2266 197.262 57.4844C197.355 57.7422 197.484 57.9531 197.648 58.1172C197.812 58.2812 198.004 58.3984 198.223 58.4688C198.449 58.5391 198.699 58.5742 198.973 58.5742C199.668 58.5742 200.215 58.4336 200.613 58.1523C201.02 57.8711 201.305 57.4883 201.469 57.0039C201.641 56.5117 201.727 55.9648 201.727 55.3633ZM210.68 51.0859V61H207.305V48.3203H210.48L210.68 51.0859ZM214.5 48.2383L214.441 51.3672C214.277 51.3438 214.078 51.3242 213.844 51.3086C213.617 51.2852 213.41 51.2734 213.223 51.2734C212.746 51.2734 212.332 51.3359 211.98 51.4609C211.637 51.5781 211.348 51.7539 211.113 51.9883C210.887 52.2227 210.715 52.5078 210.598 52.8438C210.488 53.1797 210.426 53.5625 210.41 53.9922L209.73 53.7812C209.73 52.9609 209.812 52.207 209.977 51.5195C210.141 50.8242 210.379 50.2188 210.691 49.7031C211.012 49.1875 211.402 48.7891 211.863 48.5078C212.324 48.2266 212.852 48.0859 213.445 48.0859C213.633 48.0859 213.824 48.1016 214.02 48.1328C214.215 48.1562 214.375 48.1914 214.5 48.2383ZM219.398 51.0273V61H216.023V48.3203H219.188L219.398 51.0273ZM218.906 54.2148H217.992C217.992 53.2773 218.113 52.4336 218.355 51.6836C218.598 50.9258 218.938 50.2812 219.375 49.75C219.812 49.2109 220.332 48.8008 220.934 48.5195C221.543 48.2305 222.223 48.0859 222.973 48.0859C223.566 48.0859 224.109 48.1719 224.602 48.3438C225.094 48.5156 225.516 48.7891 225.867 49.1641C226.227 49.5391 226.5 50.0352 226.688 50.6523C226.883 51.2695 226.98 52.0234 226.98 52.9141V61H223.582V52.9023C223.582 52.3398 223.504 51.9023 223.348 51.5898C223.191 51.2773 222.961 51.0586 222.656 50.9336C222.359 50.8008 221.992 50.7344 221.555 50.7344C221.102 50.7344 220.707 50.8242 220.371 51.0039C220.043 51.1836 219.77 51.4336 219.551 51.7539C219.34 52.0664 219.18 52.4336 219.07 52.8555C218.961 53.2773 218.906 53.7305 218.906 54.2148ZM235.383 61.2344C234.398 61.2344 233.516 61.0781 232.734 60.7656C231.953 60.4453 231.289 60.0039 230.742 59.4414C230.203 58.8789 229.789 58.2266 229.5 57.4844C229.211 56.7344 229.066 55.9375 229.066 55.0938V54.625C229.066 53.6641 229.203 52.7852 229.477 51.9883C229.75 51.1914 230.141 50.5 230.648 49.9141C231.164 49.3281 231.789 48.8789 232.523 48.5664C233.258 48.2461 234.086 48.0859 235.008 48.0859C235.906 48.0859 236.703 48.2344 237.398 48.5312C238.094 48.8281 238.676 49.25 239.145 49.7969C239.621 50.3438 239.98 51 240.223 51.7656C240.465 52.5234 240.586 53.3672 240.586 54.2969V55.7031H230.508V53.4531H237.27V53.1953C237.27 52.7266 237.184 52.3086 237.012 51.9414C236.848 51.5664 236.598 51.2695 236.262 51.0508C235.926 50.832 235.496 50.7227 234.973 50.7227C234.527 50.7227 234.145 50.8203 233.824 51.0156C233.504 51.2109 233.242 51.4844 233.039 51.8359C232.844 52.1875 232.695 52.6016 232.594 53.0781C232.5 53.5469 232.453 54.0625 232.453 54.625V55.0938C232.453 55.6016 232.523 56.0703 232.664 56.5C232.812 56.9297 233.02 57.3008 233.285 57.6133C233.559 57.9258 233.887 58.168 234.27 58.3398C234.66 58.5117 235.102 58.5977 235.594 58.5977C236.203 58.5977 236.77 58.4805 237.293 58.2461C237.824 58.0039 238.281 57.6406 238.664 57.1562L240.305 58.9375C240.039 59.3203 239.676 59.6875 239.215 60.0391C238.762 60.3906 238.215 60.6797 237.574 60.9062C236.934 61.125 236.203 61.2344 235.383 61.2344ZM246.105 59.5703L249.469 48.3203H253.09L247.992 62.9102C247.883 63.2305 247.734 63.5742 247.547 63.9414C247.367 64.3086 247.121 64.6562 246.809 64.9844C246.504 65.3203 246.117 65.5938 245.648 65.8047C245.188 66.0156 244.621 66.1211 243.949 66.1211C243.629 66.1211 243.367 66.1016 243.164 66.0625C242.961 66.0234 242.719 65.9688 242.438 65.8984V63.4258C242.523 63.4258 242.613 63.4258 242.707 63.4258C242.801 63.4336 242.891 63.4375 242.977 63.4375C243.422 63.4375 243.785 63.3867 244.066 63.2852C244.348 63.1836 244.574 63.0273 244.746 62.8164C244.918 62.6133 245.055 62.3477 245.156 62.0195L246.105 59.5703ZM244.699 48.3203L247.453 57.5078L247.934 61.082L245.637 61.3281L241.078 48.3203H244.699Z" fill="#888888"/>
<path d="M112.125 84.875V119H103.898V84.875H112.125ZM122.391 84.875V91.2266H93.8672V84.875H122.391ZM135.68 119.469C133.617 119.469 131.773 119.148 130.148 118.508C128.523 117.852 127.148 116.953 126.023 115.812C124.914 114.672 124.062 113.359 123.469 111.875C122.891 110.391 122.602 108.82 122.602 107.164V106.273C122.602 104.414 122.859 102.695 123.375 101.117C123.891 99.5234 124.656 98.1328 125.672 96.9453C126.688 95.7578 127.961 94.8359 129.492 94.1797C131.023 93.5078 132.805 93.1719 134.836 93.1719C136.633 93.1719 138.242 93.4609 139.664 94.0391C141.086 94.6172 142.289 95.4453 143.273 96.5234C144.273 97.6016 145.031 98.9062 145.547 100.438C146.078 101.969 146.344 103.688 146.344 105.594V108.805H125.625V103.859H138.633V103.25C138.648 102.406 138.5 101.688 138.188 101.094C137.891 100.5 137.453 100.047 136.875 99.7344C136.297 99.4219 135.594 99.2656 134.766 99.2656C133.906 99.2656 133.195 99.4531 132.633 99.8281C132.086 100.203 131.656 100.719 131.344 101.375C131.047 102.016 130.836 102.758 130.711 103.602C130.586 104.445 130.523 105.336 130.523 106.273V107.164C130.523 108.102 130.648 108.953 130.898 109.719C131.164 110.484 131.539 111.141 132.023 111.688C132.523 112.219 133.117 112.633 133.805 112.93C134.508 113.227 135.305 113.375 136.195 113.375C137.273 113.375 138.336 113.172 139.383 112.766C140.43 112.359 141.328 111.688 142.078 110.75L145.664 115.016C145.148 115.75 144.414 116.461 143.461 117.148C142.523 117.836 141.398 118.398 140.086 118.836C138.773 119.258 137.305 119.469 135.68 119.469ZM160.266 113.375C161 113.375 161.625 113.242 162.141 112.977C162.672 112.695 163.07 112.305 163.336 111.805C163.617 111.289 163.75 110.672 163.734 109.953H171.164C171.18 111.859 170.711 113.531 169.758 114.969C168.82 116.391 167.539 117.5 165.914 118.297C164.305 119.078 162.484 119.469 160.453 119.469C158.469 119.469 156.734 119.148 155.25 118.508C153.766 117.852 152.523 116.945 151.523 115.789C150.539 114.617 149.797 113.25 149.297 111.688C148.812 110.125 148.57 108.43 148.57 106.602V106.062C148.57 104.234 148.812 102.539 149.297 100.977C149.797 99.3984 150.539 98.0312 151.523 96.875C152.523 95.7031 153.758 94.7969 155.227 94.1562C156.711 93.5 158.438 93.1719 160.406 93.1719C162.516 93.1719 164.375 93.5703 165.984 94.3672C167.609 95.1641 168.883 96.3203 169.805 97.8359C170.727 99.3516 171.18 101.188 171.164 103.344H163.734C163.75 102.578 163.633 101.891 163.383 101.281C163.133 100.672 162.742 100.188 162.211 99.8281C161.695 99.4531 161.031 99.2656 160.219 99.2656C159.406 99.2656 158.75 99.4453 158.25 99.8047C157.75 100.164 157.367 100.664 157.102 101.305C156.852 101.93 156.68 102.648 156.586 103.461C156.508 104.273 156.469 105.141 156.469 106.062V106.602C156.469 107.539 156.508 108.422 156.586 109.25C156.68 110.062 156.859 110.781 157.125 111.406C157.391 112.016 157.773 112.5 158.273 112.859C158.773 113.203 159.438 113.375 160.266 113.375ZM182.273 83V119H174.375V83H182.273ZM181.336 105.453L179.484 105.5C179.484 103.719 179.703 102.078 180.141 100.578C180.578 99.0781 181.203 97.7734 182.016 96.6641C182.828 95.5547 183.805 94.6953 184.945 94.0859C186.086 93.4766 187.352 93.1719 188.742 93.1719C189.992 93.1719 191.133 93.3516 192.164 93.7109C193.211 94.0703 194.109 94.6484 194.859 95.4453C195.625 96.2422 196.211 97.2812 196.617 98.5625C197.039 99.8438 197.25 101.406 197.25 103.25V119H189.305V103.203C189.305 102.172 189.156 101.375 188.859 100.812C188.578 100.234 188.172 99.8359 187.641 99.6172C187.109 99.3828 186.461 99.2656 185.695 99.2656C184.773 99.2656 184.023 99.4219 183.445 99.7344C182.867 100.047 182.422 100.484 182.109 101.047C181.812 101.594 181.609 102.242 181.5 102.992C181.391 103.742 181.336 104.562 181.336 105.453ZM231.539 109.93C231.539 109.398 231.461 108.922 231.305 108.5C231.148 108.062 230.859 107.656 230.438 107.281C230.016 106.906 229.406 106.531 228.609 106.156C227.828 105.766 226.797 105.359 225.516 104.938C224.016 104.438 222.57 103.875 221.18 103.25C219.789 102.609 218.547 101.867 217.453 101.023C216.359 100.164 215.492 99.1641 214.852 98.0234C214.211 96.8672 213.891 95.5234 213.891 93.9922C213.891 92.5234 214.219 91.2031 214.875 90.0312C215.531 88.8438 216.445 87.8359 217.617 87.0078C218.805 86.1641 220.195 85.5234 221.789 85.0859C223.383 84.6328 225.125 84.4062 227.016 84.4062C229.516 84.4062 231.719 84.8438 233.625 85.7188C235.547 86.5781 237.047 87.8047 238.125 89.3984C239.219 90.9766 239.766 92.8438 239.766 95H231.586C231.586 94.1406 231.406 93.3828 231.047 92.7266C230.703 92.0703 230.18 91.5547 229.477 91.1797C228.773 90.8047 227.891 90.6172 226.828 90.6172C225.797 90.6172 224.93 90.7734 224.227 91.0859C223.523 91.3984 222.992 91.8203 222.633 92.3516C222.273 92.8672 222.094 93.4375 222.094 94.0625C222.094 94.5781 222.234 95.0469 222.516 95.4688C222.812 95.875 223.227 96.2578 223.758 96.6172C224.305 96.9766 224.961 97.3203 225.727 97.6484C226.508 97.9766 227.383 98.2969 228.352 98.6094C230.164 99.1875 231.773 99.8359 233.18 100.555C234.602 101.258 235.797 102.062 236.766 102.969C237.75 103.859 238.492 104.875 238.992 106.016C239.508 107.156 239.766 108.445 239.766 109.883C239.766 111.414 239.469 112.773 238.875 113.961C238.281 115.148 237.43 116.156 236.32 116.984C235.211 117.797 233.883 118.414 232.336 118.836C230.789 119.258 229.062 119.469 227.156 119.469C225.406 119.469 223.68 119.25 221.977 118.812C220.289 118.359 218.758 117.672 217.383 116.75C216.008 115.812 214.906 114.617 214.078 113.164C213.266 111.695 212.859 109.953 212.859 107.938H221.109C221.109 108.938 221.242 109.781 221.508 110.469C221.773 111.156 222.164 111.711 222.68 112.133C223.195 112.539 223.828 112.836 224.578 113.023C225.328 113.195 226.188 113.281 227.156 113.281C228.203 113.281 229.047 113.133 229.688 112.836C230.328 112.523 230.797 112.117 231.094 111.617C231.391 111.102 231.539 110.539 231.539 109.93ZM256.992 93.6406V99.125H241.711V93.6406H256.992ZM244.922 87.3359H252.82V110.727C252.82 111.398 252.898 111.922 253.055 112.297C253.211 112.656 253.477 112.914 253.852 113.07C254.242 113.211 254.758 113.281 255.398 113.281C255.852 113.281 256.227 113.273 256.523 113.258C256.82 113.227 257.102 113.188 257.367 113.141V118.789C256.695 119.008 255.992 119.172 255.258 119.281C254.523 119.406 253.742 119.469 252.914 119.469C251.227 119.469 249.781 119.203 248.578 118.672C247.391 118.141 246.484 117.305 245.859 116.164C245.234 115.023 244.922 113.539 244.922 111.711V87.3359ZM273.305 112.625V102.172C273.305 101.453 273.203 100.836 273 100.32C272.797 99.8047 272.477 99.4062 272.039 99.125C271.602 98.8281 271.016 98.6797 270.281 98.6797C269.688 98.6797 269.18 98.7812 268.758 98.9844C268.336 99.1875 268.016 99.4922 267.797 99.8984C267.578 100.305 267.469 100.82 267.469 101.445H259.57C259.57 100.273 259.828 99.1875 260.344 98.1875C260.875 97.1719 261.625 96.2891 262.594 95.5391C263.578 94.7891 264.75 94.2109 266.109 93.8047C267.484 93.3828 269.016 93.1719 270.703 93.1719C272.719 93.1719 274.516 93.5078 276.094 94.1797C277.688 94.8516 278.945 95.8594 279.867 97.2031C280.789 98.5312 281.25 100.203 281.25 102.219V112.602C281.25 114.258 281.344 115.516 281.531 116.375C281.719 117.219 281.984 117.961 282.328 118.602V119H274.406C274.031 118.219 273.75 117.266 273.562 116.141C273.391 115 273.305 113.828 273.305 112.625ZM274.266 103.508L274.312 107.727H270.82C270.086 107.727 269.461 107.828 268.945 108.031C268.445 108.234 268.039 108.516 267.727 108.875C267.43 109.219 267.211 109.609 267.07 110.047C266.945 110.484 266.883 110.945 266.883 111.43C266.883 111.898 266.992 112.32 267.211 112.695C267.445 113.055 267.758 113.336 268.148 113.539C268.539 113.742 268.977 113.844 269.461 113.844C270.336 113.844 271.078 113.68 271.688 113.352C272.312 113.008 272.789 112.594 273.117 112.109C273.445 111.625 273.609 111.172 273.609 110.75L275.344 113.984C275.031 114.609 274.672 115.242 274.266 115.883C273.875 116.523 273.383 117.117 272.789 117.664C272.211 118.195 271.5 118.633 270.656 118.977C269.812 119.305 268.789 119.469 267.586 119.469C266.023 119.469 264.586 119.148 263.273 118.508C261.977 117.867 260.938 116.977 260.156 115.836C259.375 114.68 258.984 113.352 258.984 111.852C258.984 110.539 259.219 109.367 259.688 108.336C260.172 107.305 260.898 106.43 261.867 105.711C262.836 104.992 264.07 104.445 265.57 104.07C267.07 103.695 268.836 103.508 270.867 103.508H274.266ZM296.344 113.375C297.078 113.375 297.703 113.242 298.219 112.977C298.75 112.695 299.148 112.305 299.414 111.805C299.695 111.289 299.828 110.672 299.812 109.953H307.242C307.258 111.859 306.789 113.531 305.836 114.969C304.898 116.391 303.617 117.5 301.992 118.297C300.383 119.078 298.562 119.469 296.531 119.469C294.547 119.469 292.812 119.148 291.328 118.508C289.844 117.852 288.602 116.945 287.602 115.789C286.617 114.617 285.875 113.25 285.375 111.688C284.891 110.125 284.648 108.43 284.648 106.602V106.062C284.648 104.234 284.891 102.539 285.375 100.977C285.875 99.3984 286.617 98.0312 287.602 96.875C288.602 95.7031 289.836 94.7969 291.305 94.1562C292.789 93.5 294.516 93.1719 296.484 93.1719C298.594 93.1719 300.453 93.5703 302.062 94.3672C303.688 95.1641 304.961 96.3203 305.883 97.8359C306.805 99.3516 307.258 101.188 307.242 103.344H299.812C299.828 102.578 299.711 101.891 299.461 101.281C299.211 100.672 298.82 100.188 298.289 99.8281C297.773 99.4531 297.109 99.2656 296.297 99.2656C295.484 99.2656 294.828 99.4453 294.328 99.8047C293.828 100.164 293.445 100.664 293.18 101.305C292.93 101.93 292.758 102.648 292.664 103.461C292.586 104.273 292.547 105.141 292.547 106.062V106.602C292.547 107.539 292.586 108.422 292.664 109.25C292.758 110.062 292.938 110.781 293.203 111.406C293.469 112.016 293.852 112.5 294.352 112.859C294.852 113.203 295.516 113.375 296.344 113.375ZM318.586 82.9766V119H310.688V82.9766H318.586ZM334.805 93.6406L323.789 106.555L318.023 112.32L314.578 107.305L319.383 101.047L325.336 93.6406H334.805ZM326.344 119L319.57 107.445L325.406 103.297L335.391 119H326.344ZM350.156 111.875C350.156 111.438 350.008 111.062 349.711 110.75C349.43 110.422 348.93 110.125 348.211 109.859C347.492 109.578 346.484 109.297 345.188 109.016C343.953 108.75 342.789 108.398 341.695 107.961C340.617 107.523 339.672 106.992 338.859 106.367C338.047 105.742 337.406 105 336.938 104.141C336.484 103.281 336.258 102.297 336.258 101.188C336.258 100.109 336.484 99.0938 336.938 98.1406C337.406 97.1719 338.086 96.3203 338.977 95.5859C339.883 94.8359 340.984 94.25 342.281 93.8281C343.578 93.3906 345.055 93.1719 346.711 93.1719C348.992 93.1719 350.961 93.5234 352.617 94.2266C354.273 94.9141 355.547 95.8828 356.438 97.1328C357.344 98.3672 357.797 99.7969 357.797 101.422H349.898C349.898 100.781 349.789 100.234 349.57 99.7812C349.367 99.3281 349.031 98.9844 348.562 98.75C348.094 98.5 347.469 98.375 346.688 98.375C346.141 98.375 345.641 98.4766 345.188 98.6797C344.75 98.8828 344.398 99.1641 344.133 99.5234C343.867 99.8828 343.734 100.305 343.734 100.789C343.734 101.133 343.812 101.445 343.969 101.727C344.141 101.992 344.398 102.242 344.742 102.477C345.086 102.695 345.523 102.898 346.055 103.086C346.586 103.258 347.227 103.414 347.977 103.555C349.68 103.867 351.273 104.312 352.758 104.891C354.242 105.469 355.445 106.289 356.367 107.352C357.305 108.414 357.773 109.844 357.773 111.641C357.773 112.766 357.516 113.805 357 114.758C356.484 115.695 355.742 116.523 354.773 117.242C353.805 117.945 352.641 118.492 351.281 118.883C349.922 119.273 348.391 119.469 346.688 119.469C344.266 119.469 342.219 119.039 340.547 118.18C338.875 117.305 337.609 116.211 336.75 114.898C335.906 113.57 335.484 112.227 335.484 110.867H342.844C342.875 111.648 343.062 112.289 343.406 112.789C343.766 113.289 344.242 113.656 344.836 113.891C345.43 114.125 346.117 114.242 346.898 114.242C347.617 114.242 348.211 114.141 348.68 113.938C349.164 113.734 349.531 113.461 349.781 113.117C350.031 112.758 350.156 112.344 350.156 111.875Z" fill="black"/>
<path d="M1134 0H1348C1356.28 0 1363 6.71573 1363 15V148C1363 156.284 1356.28 163 1348 163H1134V0Z" fill="black"/>
<path fill-rule="evenodd" clip-rule="evenodd" d="M1219.98 53C1219.85 53 1219.73 53.0527 1219.64 53.1464C1219.55 53.2402 1219.5 53.3674 1219.5 53.5V109.5C1219.5 109.633 1219.55 109.76 1219.64 109.854C1219.73 109.947 1219.85 110 1219.98 110H1277.02C1277.15 110 1277.27 109.947 1277.36 109.854C1277.45 109.76 1277.5 109.633 1277.5 109.5V64C1277.5 63.8674 1277.45 63.7402 1277.36 63.6464C1277.27 63.5527 1277.15 63.5 1277.02 63.5H1248.5C1247.65 63.5 1246.84 63.1045 1246.29 62.4206L1238.77 53H1219.98ZM1215.58 48.9038C1216.74 47.6848 1218.33 47 1219.98 47H1240.11C1240.97 47 1241.77 47.3955 1242.32 48.0794L1249.85 57.5H1277.02C1278.67 57.5 1280.26 58.1848 1281.42 59.4038C1282.59 60.6228 1283.25 62.2761 1283.25 64V109.5C1283.25 111.224 1282.59 112.877 1281.42 114.096C1280.26 115.315 1278.67 116 1277.02 116H1219.98C1218.33 116 1216.74 115.315 1215.58 114.096C1214.41 112.877 1213.75 111.224 1213.75 109.5V53.5C1213.75 51.7761 1214.41 50.1228 1215.58 48.9038Z" fill="#F0F0F0"/>
<path fill-rule="evenodd" clip-rule="evenodd" d="M1244.16 75.5251C1245.47 76.892 1245.47 79.108 1244.16 80.4749L1238.15 86.75L1244.16 93.0251C1245.47 94.392 1245.47 96.608 1244.16 97.9749C1242.85 99.3417 1240.73 99.3417 1239.42 97.9749L1231.03 89.2249C1229.72 87.858 1229.72 85.642 1231.03 84.2751L1239.42 75.5251C1240.73 74.1583 1242.85 74.1583 1244.16 75.5251Z" fill="#F0F0F0"/>
<path fill-rule="evenodd" clip-rule="evenodd" d="M1252.12 97.9749C1250.81 96.608 1250.81 94.392 1252.12 93.0251L1258.13 86.75L1252.12 80.4749C1250.81 79.108 1250.81 76.892 1252.12 75.5251C1253.43 74.1583 1255.55 74.1583 1256.86 75.5251L1265.25 84.2751C1266.56 85.642 1266.56 87.858 1265.25 89.2249L1256.86 97.9749C1255.55 99.3417 1253.43 99.3417 1252.12 97.9749Z" fill="#F0F0F0"/>
</svg>
