<svg width="1363" height="163" viewBox="0 0 1363 163" fill="none" xmlns="http://www.w3.org/2000/svg">
<path d="M0 15C0 6.71573 6.71573 0 15 0H37V163H15C6.71573 163 0 156.284 0 148V15Z" fill="#0049B6"/>
<rect width="1097" height="163" transform="translate(37)" fill="#F0F0F0"/>
<path d="M104.414 55.3398H107.918C107.848 56.4883 107.531 57.5078 106.969 58.3984C106.414 59.2891 105.637 59.9844 104.637 60.4844C103.645 60.9844 102.449 61.2344 101.051 61.2344C99.957 61.2344 98.9766 61.0469 98.1094 60.6719C97.2422 60.2891 96.5 59.7422 95.8828 59.0312C95.2734 58.3203 94.8086 57.4609 94.4883 56.4531C94.168 55.4453 94.0078 54.3164 94.0078 53.0664V51.8828C94.0078 50.6328 94.1719 49.5039 94.5 48.4961C94.8359 47.4805 95.3125 46.6172 95.9297 45.9062C96.5547 45.1953 97.3008 44.6484 98.168 44.2656C99.0352 43.8828 100.004 43.6914 101.074 43.6914C102.496 43.6914 103.695 43.9492 104.672 44.4648C105.656 44.9805 106.418 45.6914 106.957 46.5977C107.504 47.5039 107.832 48.5352 107.941 49.6914H104.426C104.387 49.0039 104.25 48.4219 104.016 47.9453C103.781 47.4609 103.426 47.0977 102.949 46.8555C102.48 46.6055 101.855 46.4805 101.074 46.4805C100.488 46.4805 99.9766 46.5898 99.5391 46.8086C99.1016 47.0273 98.7344 47.3594 98.4375 47.8047C98.1406 48.25 97.918 48.8125 97.7695 49.4922C97.6289 50.1641 97.5586 50.9531 97.5586 51.8594V53.0664C97.5586 53.9492 97.625 54.7266 97.7578 55.3984C97.8906 56.0625 98.0938 56.625 98.3672 57.0859C98.6484 57.5391 99.0078 57.8828 99.4453 58.1172C99.8906 58.3438 100.426 58.457 101.051 58.457C101.785 58.457 102.391 58.3398 102.867 58.1055C103.344 57.8711 103.707 57.5234 103.957 57.0625C104.215 56.6016 104.367 56.0273 104.414 55.3398ZM115.852 61.2344C114.867 61.2344 113.984 61.0781 113.203 60.7656C112.422 60.4453 111.758 60.0039 111.211 59.4414C110.672 58.8789 110.258 58.2266 109.969 57.4844C109.68 56.7344 109.535 55.9375 109.535 55.0938V54.625C109.535 53.6641 109.672 52.7852 109.945 51.9883C110.219 51.1914 110.609 50.5 111.117 49.9141C111.633 49.3281 112.258 48.8789 112.992 48.5664C113.727 48.2461 114.555 48.0859 115.477 48.0859C116.375 48.0859 117.172 48.2344 117.867 48.5312C118.562 48.8281 119.145 49.25 119.613 49.7969C120.09 50.3438 120.449 51 120.691 51.7656C120.934 52.5234 121.055 53.3672 121.055 54.2969V55.7031H110.977V53.4531H117.738V53.1953C117.738 52.7266 117.652 52.3086 117.48 51.9414C117.316 51.5664 117.066 51.2695 116.73 51.0508C116.395 50.832 115.965 50.7227 115.441 50.7227C114.996 50.7227 114.613 50.8203 114.293 51.0156C113.973 51.2109 113.711 51.4844 113.508 51.8359C113.312 52.1875 113.164 52.6016 113.062 53.0781C112.969 53.5469 112.922 54.0625 112.922 54.625V55.0938C112.922 55.6016 112.992 56.0703 113.133 56.5C113.281 56.9297 113.488 57.3008 113.754 57.6133C114.027 57.9258 114.355 58.168 114.738 58.3398C115.129 58.5117 115.57 58.5977 116.062 58.5977C116.672 58.5977 117.238 58.4805 117.762 58.2461C118.293 58.0039 118.75 57.6406 119.133 57.1562L120.773 58.9375C120.508 59.3203 120.145 59.6875 119.684 60.0391C119.23 60.3906 118.684 60.6797 118.043 60.9062C117.402 61.125 116.672 61.2344 115.852 61.2344ZM126.539 43V61H123.152V43H126.539ZM135.164 61.2344C134.18 61.2344 133.297 61.0781 132.516 60.7656C131.734 60.4453 131.07 60.0039 130.523 59.4414C129.984 58.8789 129.57 58.2266 129.281 57.4844C128.992 56.7344 128.848 55.9375 128.848 55.0938V54.625C128.848 53.6641 128.984 52.7852 129.258 51.9883C129.531 51.1914 129.922 50.5 130.43 49.9141C130.945 49.3281 131.57 48.8789 132.305 48.5664C133.039 48.2461 133.867 48.0859 134.789 48.0859C135.688 48.0859 136.484 48.2344 137.18 48.5312C137.875 48.8281 138.457 49.25 138.926 49.7969C139.402 50.3438 139.762 51 140.004 51.7656C140.246 52.5234 140.367 53.3672 140.367 54.2969V55.7031H130.289V53.4531H137.051V53.1953C137.051 52.7266 136.965 52.3086 136.793 51.9414C136.629 51.5664 136.379 51.2695 136.043 51.0508C135.707 50.832 135.277 50.7227 134.754 50.7227C134.309 50.7227 133.926 50.8203 133.605 51.0156C133.285 51.2109 133.023 51.4844 132.82 51.8359C132.625 52.1875 132.477 52.6016 132.375 53.0781C132.281 53.5469 132.234 54.0625 132.234 54.625V55.0938C132.234 55.6016 132.305 56.0703 132.445 56.5C132.594 56.9297 132.801 57.3008 133.066 57.6133C133.34 57.9258 133.668 58.168 134.051 58.3398C134.441 58.5117 134.883 58.5977 135.375 58.5977C135.984 58.5977 136.551 58.4805 137.074 58.2461C137.605 58.0039 138.062 57.6406 138.445 57.1562L140.086 58.9375C139.82 59.3203 139.457 59.6875 138.996 60.0391C138.543 60.3906 137.996 60.6797 137.355 60.9062C136.715 61.125 135.984 61.2344 135.164 61.2344ZM149.145 57.4961C149.145 57.2539 149.074 57.0352 148.934 56.8398C148.793 56.6445 148.531 56.4648 148.148 56.3008C147.773 56.1289 147.23 55.9727 146.52 55.832C145.879 55.6914 145.281 55.5156 144.727 55.3047C144.18 55.0859 143.703 54.8242 143.297 54.5195C142.898 54.2148 142.586 53.8555 142.359 53.4414C142.133 53.0195 142.02 52.5391 142.02 52C142.02 51.4688 142.133 50.9688 142.359 50.5C142.594 50.0312 142.926 49.6172 143.355 49.2578C143.793 48.8906 144.324 48.6055 144.949 48.4023C145.582 48.1914 146.293 48.0859 147.082 48.0859C148.184 48.0859 149.129 48.2617 149.918 48.6133C150.715 48.9648 151.324 49.4492 151.746 50.0664C152.176 50.6758 152.391 51.3711 152.391 52.1523H149.016C149.016 51.8242 148.945 51.5312 148.805 51.2734C148.672 51.0078 148.461 50.8008 148.172 50.6523C147.891 50.4961 147.523 50.418 147.07 50.418C146.695 50.418 146.371 50.4844 146.098 50.6172C145.824 50.7422 145.613 50.9141 145.465 51.1328C145.324 51.3438 145.254 51.5781 145.254 51.8359C145.254 52.0312 145.293 52.207 145.371 52.3633C145.457 52.5117 145.594 52.6484 145.781 52.7734C145.969 52.8984 146.211 53.0156 146.508 53.125C146.812 53.2266 147.188 53.3203 147.633 53.4062C148.547 53.5938 149.363 53.8398 150.082 54.1445C150.801 54.4414 151.371 54.8477 151.793 55.3633C152.215 55.8711 152.426 56.5391 152.426 57.3672C152.426 57.9297 152.301 58.4453 152.051 58.9141C151.801 59.3828 151.441 59.793 150.973 60.1445C150.504 60.4883 149.941 60.7578 149.285 60.9531C148.637 61.1406 147.906 61.2344 147.094 61.2344C145.914 61.2344 144.914 61.0234 144.094 60.6016C143.281 60.1797 142.664 59.6445 142.242 58.9961C141.828 58.3398 141.621 57.668 141.621 56.9805H144.82C144.836 57.4414 144.953 57.8125 145.172 58.0938C145.398 58.375 145.684 58.5781 146.027 58.7031C146.379 58.8281 146.758 58.8906 147.164 58.8906C147.602 58.8906 147.965 58.832 148.254 58.7148C148.543 58.5898 148.762 58.4258 148.91 58.2227C149.066 58.0117 149.145 57.7695 149.145 57.4961ZM160.828 48.3203V50.7109H153.445V48.3203H160.828ZM155.273 45.1914H158.648V57.1797C158.648 57.5469 158.695 57.8281 158.789 58.0234C158.891 58.2188 159.039 58.3555 159.234 58.4336C159.43 58.5039 159.676 58.5391 159.973 58.5391C160.184 58.5391 160.371 58.5312 160.535 58.5156C160.707 58.4922 160.852 58.4688 160.969 58.4453L160.98 60.9297C160.691 61.0234 160.379 61.0977 160.043 61.1523C159.707 61.207 159.336 61.2344 158.93 61.2344C158.188 61.2344 157.539 61.1133 156.984 60.8711C156.438 60.6211 156.016 60.2227 155.719 59.6758C155.422 59.1289 155.273 58.4102 155.273 57.5195V45.1914ZM166.312 48.3203V61H162.926V48.3203H166.312ZM162.715 45.0156C162.715 44.5234 162.887 44.1172 163.23 43.7969C163.574 43.4766 164.035 43.3164 164.613 43.3164C165.184 43.3164 165.641 43.4766 165.984 43.7969C166.336 44.1172 166.512 44.5234 166.512 45.0156C166.512 45.5078 166.336 45.9141 165.984 46.2344C165.641 46.5547 165.184 46.7148 164.613 46.7148C164.035 46.7148 163.574 46.5547 163.23 46.2344C162.887 45.9141 162.715 45.5078 162.715 45.0156ZM175.945 58.1406V52.4922C175.945 52.0859 175.879 51.7383 175.746 51.4492C175.613 51.1523 175.406 50.9219 175.125 50.7578C174.852 50.5938 174.496 50.5117 174.059 50.5117C173.684 50.5117 173.359 50.5781 173.086 50.7109C172.812 50.8359 172.602 51.0195 172.453 51.2617C172.305 51.4961 172.23 51.7734 172.23 52.0938H168.855C168.855 51.5547 168.98 51.043 169.23 50.5586C169.48 50.0742 169.844 49.6484 170.32 49.2812C170.797 48.9062 171.363 48.6133 172.02 48.4023C172.684 48.1914 173.426 48.0859 174.246 48.0859C175.23 48.0859 176.105 48.25 176.871 48.5781C177.637 48.9062 178.238 49.3984 178.676 50.0547C179.121 50.7109 179.344 51.5312 179.344 52.5156V57.9414C179.344 58.6367 179.387 59.207 179.473 59.6523C179.559 60.0898 179.684 60.4727 179.848 60.8008V61H176.438C176.273 60.6562 176.148 60.2266 176.062 59.7109C175.984 59.1875 175.945 58.6641 175.945 58.1406ZM176.391 53.2773L176.414 55.1875H174.527C174.082 55.1875 173.695 55.2383 173.367 55.3398C173.039 55.4414 172.77 55.5859 172.559 55.7734C172.348 55.9531 172.191 56.1641 172.09 56.4062C171.996 56.6484 171.949 56.9141 171.949 57.2031C171.949 57.4922 172.016 57.7539 172.148 57.9883C172.281 58.2148 172.473 58.3945 172.723 58.5273C172.973 58.6523 173.266 58.7148 173.602 58.7148C174.109 58.7148 174.551 58.6133 174.926 58.4102C175.301 58.207 175.59 57.957 175.793 57.6602C176.004 57.3633 176.113 57.082 176.121 56.8164L177.012 58.2461C176.887 58.5664 176.715 58.8984 176.496 59.2422C176.285 59.5859 176.016 59.9102 175.688 60.2148C175.359 60.5117 174.965 60.7578 174.504 60.9531C174.043 61.1406 173.496 61.2344 172.863 61.2344C172.059 61.2344 171.328 61.0742 170.672 60.7539C170.023 60.4258 169.508 59.9766 169.125 59.4062C168.75 58.8281 168.562 58.1719 168.562 57.4375C168.562 56.7734 168.688 56.1836 168.938 55.668C169.188 55.1523 169.555 54.7188 170.039 54.3672C170.531 54.0078 171.145 53.7383 171.879 53.5586C172.613 53.3711 173.465 53.2773 174.434 53.2773H176.391ZM185.508 43V61H182.121V43H185.508ZM195.152 54.918H190.805V52.1758H195.152C195.824 52.1758 196.371 52.0664 196.793 51.8477C197.215 51.6211 197.523 51.3086 197.719 50.9102C197.914 50.5117 198.012 50.0625 198.012 49.5625C198.012 49.0547 197.914 48.582 197.719 48.1445C197.523 47.707 197.215 47.3555 196.793 47.0898C196.371 46.8242 195.824 46.6914 195.152 46.6914H192.023V61H188.508V43.9375H195.152C196.488 43.9375 197.633 44.1797 198.586 44.6641C199.547 45.1406 200.281 45.8008 200.789 46.6445C201.297 47.4883 201.551 48.4531 201.551 49.5391C201.551 50.6406 201.297 51.5938 200.789 52.3984C200.281 53.2031 199.547 53.8242 198.586 54.2617C197.633 54.6992 196.488 54.918 195.152 54.918ZM210.469 58.1406V52.4922C210.469 52.0859 210.402 51.7383 210.27 51.4492C210.137 51.1523 209.93 50.9219 209.648 50.7578C209.375 50.5938 209.02 50.5117 208.582 50.5117C208.207 50.5117 207.883 50.5781 207.609 50.7109C207.336 50.8359 207.125 51.0195 206.977 51.2617C206.828 51.4961 206.754 51.7734 206.754 52.0938H203.379C203.379 51.5547 203.504 51.043 203.754 50.5586C204.004 50.0742 204.367 49.6484 204.844 49.2812C205.32 48.9062 205.887 48.6133 206.543 48.4023C207.207 48.1914 207.949 48.0859 208.77 48.0859C209.754 48.0859 210.629 48.25 211.395 48.5781C212.16 48.9062 212.762 49.3984 213.199 50.0547C213.645 50.7109 213.867 51.5312 213.867 52.5156V57.9414C213.867 58.6367 213.91 59.207 213.996 59.6523C214.082 60.0898 214.207 60.4727 214.371 60.8008V61H210.961C210.797 60.6562 210.672 60.2266 210.586 59.7109C210.508 59.1875 210.469 58.6641 210.469 58.1406ZM210.914 53.2773L210.938 55.1875H209.051C208.605 55.1875 208.219 55.2383 207.891 55.3398C207.562 55.4414 207.293 55.5859 207.082 55.7734C206.871 55.9531 206.715 56.1641 206.613 56.4062C206.52 56.6484 206.473 56.9141 206.473 57.2031C206.473 57.4922 206.539 57.7539 206.672 57.9883C206.805 58.2148 206.996 58.3945 207.246 58.5273C207.496 58.6523 207.789 58.7148 208.125 58.7148C208.633 58.7148 209.074 58.6133 209.449 58.4102C209.824 58.207 210.113 57.957 210.316 57.6602C210.527 57.3633 210.637 57.082 210.645 56.8164L211.535 58.2461C211.41 58.5664 211.238 58.8984 211.02 59.2422C210.809 59.5859 210.539 59.9102 210.211 60.2148C209.883 60.5117 209.488 60.7578 209.027 60.9531C208.566 61.1406 208.02 61.2344 207.387 61.2344C206.582 61.2344 205.852 61.0742 205.195 60.7539C204.547 60.4258 204.031 59.9766 203.648 59.4062C203.273 58.8281 203.086 58.1719 203.086 57.4375C203.086 56.7734 203.211 56.1836 203.461 55.668C203.711 55.1523 204.078 54.7188 204.562 54.3672C205.055 54.0078 205.668 53.7383 206.402 53.5586C207.137 53.3711 207.988 53.2773 208.957 53.2773H210.914ZM222.68 48.3203V50.7109H215.297V48.3203H222.68ZM217.125 45.1914H220.5V57.1797C220.5 57.5469 220.547 57.8281 220.641 58.0234C220.742 58.2188 220.891 58.3555 221.086 58.4336C221.281 58.5039 221.527 58.5391 221.824 58.5391C222.035 58.5391 222.223 58.5312 222.387 58.5156C222.559 58.4922 222.703 58.4688 222.82 58.4453L222.832 60.9297C222.543 61.0234 222.23 61.0977 221.895 61.1523C221.559 61.207 221.188 61.2344 220.781 61.2344C220.039 61.2344 219.391 61.1133 218.836 60.8711C218.289 60.6211 217.867 60.2227 217.57 59.6758C217.273 59.1289 217.125 58.4102 217.125 57.5195V45.1914ZM227.895 43V61H224.52V43H227.895ZM227.414 54.2148H226.488C226.496 53.332 226.613 52.5195 226.84 51.7773C227.066 51.0273 227.391 50.3789 227.812 49.832C228.234 49.2773 228.738 48.8477 229.324 48.543C229.918 48.2383 230.574 48.0859 231.293 48.0859C231.918 48.0859 232.484 48.1758 232.992 48.3555C233.508 48.5273 233.949 48.8086 234.316 49.1992C234.691 49.582 234.98 50.0859 235.184 50.7109C235.387 51.3359 235.488 52.0938 235.488 52.9844V61H232.09V52.9609C232.09 52.3984 232.008 51.957 231.844 51.6367C231.688 51.3086 231.457 51.0781 231.152 50.9453C230.855 50.8047 230.488 50.7344 230.051 50.7344C229.566 50.7344 229.152 50.8242 228.809 51.0039C228.473 51.1836 228.203 51.4336 228 51.7539C227.797 52.0664 227.648 52.4336 227.555 52.8555C227.461 53.2773 227.414 53.7305 227.414 54.2148ZM241.676 57.7188L244.312 48.3203H246.457L245.766 52.0117L243.129 61H241.336L241.676 57.7188ZM240.34 48.3203L242.227 57.707L242.402 61H240.293L237.082 48.3203H240.34ZM248.871 57.5547L250.711 48.3203H253.98L250.77 61H248.672L248.871 57.5547ZM246.75 48.3203L249.375 57.6484L249.738 61H247.934L245.297 52.0234L244.629 48.3203H246.75ZM262.523 58.1406V52.4922C262.523 52.0859 262.457 51.7383 262.324 51.4492C262.191 51.1523 261.984 50.9219 261.703 50.7578C261.43 50.5938 261.074 50.5117 260.637 50.5117C260.262 50.5117 259.938 50.5781 259.664 50.7109C259.391 50.8359 259.18 51.0195 259.031 51.2617C258.883 51.4961 258.809 51.7734 258.809 52.0938H255.434C255.434 51.5547 255.559 51.043 255.809 50.5586C256.059 50.0742 256.422 49.6484 256.898 49.2812C257.375 48.9062 257.941 48.6133 258.598 48.4023C259.262 48.1914 260.004 48.0859 260.824 48.0859C261.809 48.0859 262.684 48.25 263.449 48.5781C264.215 48.9062 264.816 49.3984 265.254 50.0547C265.699 50.7109 265.922 51.5312 265.922 52.5156V57.9414C265.922 58.6367 265.965 59.207 266.051 59.6523C266.137 60.0898 266.262 60.4727 266.426 60.8008V61H263.016C262.852 60.6562 262.727 60.2266 262.641 59.7109C262.562 59.1875 262.523 58.6641 262.523 58.1406ZM262.969 53.2773L262.992 55.1875H261.105C260.66 55.1875 260.273 55.2383 259.945 55.3398C259.617 55.4414 259.348 55.5859 259.137 55.7734C258.926 55.9531 258.77 56.1641 258.668 56.4062C258.574 56.6484 258.527 56.9141 258.527 57.2031C258.527 57.4922 258.594 57.7539 258.727 57.9883C258.859 58.2148 259.051 58.3945 259.301 58.5273C259.551 58.6523 259.844 58.7148 260.18 58.7148C260.688 58.7148 261.129 58.6133 261.504 58.4102C261.879 58.207 262.168 57.957 262.371 57.6602C262.582 57.3633 262.691 57.082 262.699 56.8164L263.59 58.2461C263.465 58.5664 263.293 58.8984 263.074 59.2422C262.863 59.5859 262.594 59.9102 262.266 60.2148C261.938 60.5117 261.543 60.7578 261.082 60.9531C260.621 61.1406 260.074 61.2344 259.441 61.2344C258.637 61.2344 257.906 61.0742 257.25 60.7539C256.602 60.4258 256.086 59.9766 255.703 59.4062C255.328 58.8281 255.141 58.1719 255.141 57.4375C255.141 56.7734 255.266 56.1836 255.516 55.668C255.766 55.1523 256.133 54.7188 256.617 54.3672C257.109 54.0078 257.723 53.7383 258.457 53.5586C259.191 53.3711 260.043 53.2773 261.012 53.2773H262.969ZM272.098 59.5703L275.461 48.3203H279.082L273.984 62.9102C273.875 63.2305 273.727 63.5742 273.539 63.9414C273.359 64.3086 273.113 64.6562 272.801 64.9844C272.496 65.3203 272.109 65.5938 271.641 65.8047C271.18 66.0156 270.613 66.1211 269.941 66.1211C269.621 66.1211 269.359 66.1016 269.156 66.0625C268.953 66.0234 268.711 65.9688 268.43 65.8984V63.4258C268.516 63.4258 268.605 63.4258 268.699 63.4258C268.793 63.4336 268.883 63.4375 268.969 63.4375C269.414 63.4375 269.777 63.3867 270.059 63.2852C270.34 63.1836 270.566 63.0273 270.738 62.8164C270.91 62.6133 271.047 62.3477 271.148 62.0195L272.098 59.5703ZM270.691 48.3203L273.445 57.5078L273.926 61.082L271.629 61.3281L267.07 48.3203H270.691Z" fill="#888888"/>
<path d="M104.344 84.875V119H96.1406V84.875H104.344ZM117.727 99.0078V119H109.828V93.6406H117.234L117.727 99.0078ZM116.766 105.453L114.961 105.5C114.961 103.719 115.172 102.078 115.594 100.578C116.016 99.0781 116.641 97.7734 117.469 96.6641C118.297 95.5547 119.312 94.6953 120.516 94.0859C121.734 93.4766 123.141 93.1719 124.734 93.1719C125.844 93.1719 126.852 93.3438 127.758 93.6875C128.664 94.0156 129.445 94.5391 130.102 95.2578C130.758 95.9609 131.258 96.8828 131.602 98.0234C131.961 99.1484 132.141 100.5 132.141 102.078V119H124.242V103.086C124.242 102.008 124.117 101.195 123.867 100.648C123.633 100.102 123.289 99.7344 122.836 99.5469C122.383 99.3594 121.828 99.2656 121.172 99.2656C120.484 99.2656 119.867 99.4219 119.32 99.7344C118.773 100.047 118.305 100.484 117.914 101.047C117.539 101.594 117.25 102.242 117.047 102.992C116.859 103.742 116.766 104.562 116.766 105.453ZM131.25 105.453L129.047 105.5C129.047 103.719 129.242 102.078 129.633 100.578C130.039 99.0781 130.641 97.7734 131.438 96.6641C132.25 95.5547 133.258 94.6953 134.461 94.0859C135.664 93.4766 137.062 93.1719 138.656 93.1719C139.812 93.1719 140.875 93.3438 141.844 93.6875C142.812 94.0312 143.648 94.5859 144.352 95.3516C145.055 96.1172 145.602 97.1328 145.992 98.3984C146.383 99.6484 146.578 101.195 146.578 103.039V119H138.656V103.039C138.656 101.992 138.531 101.203 138.281 100.672C138.047 100.125 137.703 99.7578 137.25 99.5703C136.797 99.3672 136.258 99.2656 135.633 99.2656C134.883 99.2656 134.234 99.4219 133.688 99.7344C133.141 100.047 132.68 100.484 132.305 101.047C131.945 101.594 131.68 102.242 131.508 102.992C131.336 103.742 131.25 104.562 131.25 105.453ZM159.07 98.5156V128.75H151.172V93.6406H158.531L159.07 98.5156ZM174.633 106.016V106.508C174.633 108.352 174.422 110.062 174 111.641C173.578 113.219 172.953 114.594 172.125 115.766C171.297 116.938 170.266 117.852 169.031 118.508C167.812 119.148 166.398 119.469 164.789 119.469C163.273 119.469 161.969 119.133 160.875 118.461C159.781 117.789 158.867 116.859 158.133 115.672C157.398 114.484 156.805 113.125 156.352 111.594C155.898 110.062 155.539 108.445 155.273 106.742V106.109C155.539 104.281 155.898 102.586 156.352 101.023C156.805 99.4453 157.398 98.0703 158.133 96.8984C158.867 95.7266 159.773 94.8125 160.852 94.1562C161.945 93.5 163.25 93.1719 164.766 93.1719C166.375 93.1719 167.789 93.4766 169.008 94.0859C170.242 94.6953 171.273 95.5703 172.102 96.7109C172.945 97.8359 173.578 99.1875 174 100.766C174.422 102.344 174.633 104.094 174.633 106.016ZM166.734 106.508V106.016C166.734 105.031 166.664 104.133 166.523 103.32C166.383 102.492 166.156 101.773 165.844 101.164C165.547 100.555 165.148 100.086 164.648 99.7578C164.148 99.4297 163.531 99.2656 162.797 99.2656C161.953 99.2656 161.242 99.3984 160.664 99.6641C160.102 99.9141 159.648 100.305 159.305 100.836C158.977 101.352 158.742 102 158.602 102.781C158.477 103.547 158.422 104.445 158.438 105.477V107.398C158.406 108.586 158.523 109.633 158.789 110.539C159.055 111.43 159.516 112.125 160.172 112.625C160.828 113.125 161.719 113.375 162.844 113.375C163.594 113.375 164.219 113.203 164.719 112.859C165.219 112.5 165.617 112.008 165.914 111.383C166.211 110.742 166.422 110.008 166.547 109.18C166.672 108.352 166.734 107.461 166.734 106.508ZM186.492 83V119H178.57V83H186.492ZM203.648 119.469C201.586 119.469 199.742 119.148 198.117 118.508C196.492 117.852 195.117 116.953 193.992 115.812C192.883 114.672 192.031 113.359 191.438 111.875C190.859 110.391 190.57 108.82 190.57 107.164V106.273C190.57 104.414 190.828 102.695 191.344 101.117C191.859 99.5234 192.625 98.1328 193.641 96.9453C194.656 95.7578 195.93 94.8359 197.461 94.1797C198.992 93.5078 200.773 93.1719 202.805 93.1719C204.602 93.1719 206.211 93.4609 207.633 94.0391C209.055 94.6172 210.258 95.4453 211.242 96.5234C212.242 97.6016 213 98.9062 213.516 100.438C214.047 101.969 214.312 103.688 214.312 105.594V108.805H193.594V103.859H206.602V103.25C206.617 102.406 206.469 101.688 206.156 101.094C205.859 100.5 205.422 100.047 204.844 99.7344C204.266 99.4219 203.562 99.2656 202.734 99.2656C201.875 99.2656 201.164 99.4531 200.602 99.8281C200.055 100.203 199.625 100.719 199.312 101.375C199.016 102.016 198.805 102.758 198.68 103.602C198.555 104.445 198.492 105.336 198.492 106.273V107.164C198.492 108.102 198.617 108.953 198.867 109.719C199.133 110.484 199.508 111.141 199.992 111.688C200.492 112.219 201.086 112.633 201.773 112.93C202.477 113.227 203.273 113.375 204.164 113.375C205.242 113.375 206.305 113.172 207.352 112.766C208.398 112.359 209.297 111.688 210.047 110.75L213.633 115.016C213.117 115.75 212.383 116.461 211.43 117.148C210.492 117.836 209.367 118.398 208.055 118.836C206.742 119.258 205.273 119.469 203.648 119.469ZM225.492 99.0078V119H217.594V93.6406H225L225.492 99.0078ZM224.531 105.453L222.727 105.5C222.727 103.719 222.938 102.078 223.359 100.578C223.781 99.0781 224.406 97.7734 225.234 96.6641C226.062 95.5547 227.078 94.6953 228.281 94.0859C229.5 93.4766 230.906 93.1719 232.5 93.1719C233.609 93.1719 234.617 93.3438 235.523 93.6875C236.43 94.0156 237.211 94.5391 237.867 95.2578C238.523 95.9609 239.023 96.8828 239.367 98.0234C239.727 99.1484 239.906 100.5 239.906 102.078V119H232.008V103.086C232.008 102.008 231.883 101.195 231.633 100.648C231.398 100.102 231.055 99.7344 230.602 99.5469C230.148 99.3594 229.594 99.2656 228.938 99.2656C228.25 99.2656 227.633 99.4219 227.086 99.7344C226.539 100.047 226.07 100.484 225.68 101.047C225.305 101.594 225.016 102.242 224.812 102.992C224.625 103.742 224.531 104.562 224.531 105.453ZM239.016 105.453L236.812 105.5C236.812 103.719 237.008 102.078 237.398 100.578C237.805 99.0781 238.406 97.7734 239.203 96.6641C240.016 95.5547 241.023 94.6953 242.227 94.0859C243.43 93.4766 244.828 93.1719 246.422 93.1719C247.578 93.1719 248.641 93.3438 249.609 93.6875C250.578 94.0312 251.414 94.5859 252.117 95.3516C252.82 96.1172 253.367 97.1328 253.758 98.3984C254.148 99.6484 254.344 101.195 254.344 103.039V119H246.422V103.039C246.422 101.992 246.297 101.203 246.047 100.672C245.812 100.125 245.469 99.7578 245.016 99.5703C244.562 99.3672 244.023 99.2656 243.398 99.2656C242.648 99.2656 242 99.4219 241.453 99.7344C240.906 100.047 240.445 100.484 240.07 101.047C239.711 101.594 239.445 102.242 239.273 102.992C239.102 103.742 239.016 104.562 239.016 105.453ZM271.148 119.469C269.086 119.469 267.242 119.148 265.617 118.508C263.992 117.852 262.617 116.953 261.492 115.812C260.383 114.672 259.531 113.359 258.938 111.875C258.359 110.391 258.07 108.82 258.07 107.164V106.273C258.07 104.414 258.328 102.695 258.844 101.117C259.359 99.5234 260.125 98.1328 261.141 96.9453C262.156 95.7578 263.43 94.8359 264.961 94.1797C266.492 93.5078 268.273 93.1719 270.305 93.1719C272.102 93.1719 273.711 93.4609 275.133 94.0391C276.555 94.6172 277.758 95.4453 278.742 96.5234C279.742 97.6016 280.5 98.9062 281.016 100.438C281.547 101.969 281.812 103.688 281.812 105.594V108.805H261.094V103.859H274.102V103.25C274.117 102.406 273.969 101.688 273.656 101.094C273.359 100.5 272.922 100.047 272.344 99.7344C271.766 99.4219 271.062 99.2656 270.234 99.2656C269.375 99.2656 268.664 99.4531 268.102 99.8281C267.555 100.203 267.125 100.719 266.812 101.375C266.516 102.016 266.305 102.758 266.18 103.602C266.055 104.445 265.992 105.336 265.992 106.273V107.164C265.992 108.102 266.117 108.953 266.367 109.719C266.633 110.484 267.008 111.141 267.492 111.688C267.992 112.219 268.586 112.633 269.273 112.93C269.977 113.227 270.773 113.375 271.664 113.375C272.742 113.375 273.805 113.172 274.852 112.766C275.898 112.359 276.797 111.688 277.547 110.75L281.133 115.016C280.617 115.75 279.883 116.461 278.93 117.148C277.992 117.836 276.867 118.398 275.555 118.836C274.242 119.258 272.773 119.469 271.148 119.469ZM292.781 99.0547V119H284.883V93.6406H292.289L292.781 99.0547ZM291.844 105.453L289.992 105.5C289.992 103.562 290.227 101.836 290.695 100.32C291.164 98.7891 291.828 97.4922 292.688 96.4297C293.547 95.3672 294.57 94.5625 295.758 94.0156C296.961 93.4531 298.297 93.1719 299.766 93.1719C300.938 93.1719 302.008 93.3438 302.977 93.6875C303.961 94.0312 304.805 94.5859 305.508 95.3516C306.227 96.1172 306.773 97.1328 307.148 98.3984C307.539 99.6484 307.734 101.195 307.734 103.039V119H299.789V103.016C299.789 102 299.648 101.227 299.367 100.695C299.086 100.148 298.68 99.7734 298.148 99.5703C297.617 99.3672 296.969 99.2656 296.203 99.2656C295.391 99.2656 294.703 99.4219 294.141 99.7344C293.578 100.047 293.125 100.484 292.781 101.047C292.453 101.594 292.211 102.242 292.055 102.992C291.914 103.742 291.844 104.562 291.844 105.453ZM325.477 93.6406V99.125H310.195V93.6406H325.477ZM313.406 87.3359H321.305V110.727C321.305 111.398 321.383 111.922 321.539 112.297C321.695 112.656 321.961 112.914 322.336 113.07C322.727 113.211 323.242 113.281 323.883 113.281C324.336 113.281 324.711 113.273 325.008 113.258C325.305 113.227 325.586 113.188 325.852 113.141V118.789C325.18 119.008 324.477 119.172 323.742 119.281C323.008 119.406 322.227 119.469 321.398 119.469C319.711 119.469 318.266 119.203 317.062 118.672C315.875 118.141 314.969 117.305 314.344 116.164C313.719 115.023 313.406 113.539 313.406 111.711V87.3359ZM341.789 112.625V102.172C341.789 101.453 341.688 100.836 341.484 100.32C341.281 99.8047 340.961 99.4062 340.523 99.125C340.086 98.8281 339.5 98.6797 338.766 98.6797C338.172 98.6797 337.664 98.7812 337.242 98.9844C336.82 99.1875 336.5 99.4922 336.281 99.8984C336.062 100.305 335.953 100.82 335.953 101.445H328.055C328.055 100.273 328.312 99.1875 328.828 98.1875C329.359 97.1719 330.109 96.2891 331.078 95.5391C332.062 94.7891 333.234 94.2109 334.594 93.8047C335.969 93.3828 337.5 93.1719 339.188 93.1719C341.203 93.1719 343 93.5078 344.578 94.1797C346.172 94.8516 347.43 95.8594 348.352 97.2031C349.273 98.5312 349.734 100.203 349.734 102.219V112.602C349.734 114.258 349.828 115.516 350.016 116.375C350.203 117.219 350.469 117.961 350.812 118.602V119H342.891C342.516 118.219 342.234 117.266 342.047 116.141C341.875 115 341.789 113.828 341.789 112.625ZM342.75 103.508L342.797 107.727H339.305C338.57 107.727 337.945 107.828 337.43 108.031C336.93 108.234 336.523 108.516 336.211 108.875C335.914 109.219 335.695 109.609 335.555 110.047C335.43 110.484 335.367 110.945 335.367 111.43C335.367 111.898 335.477 112.32 335.695 112.695C335.93 113.055 336.242 113.336 336.633 113.539C337.023 113.742 337.461 113.844 337.945 113.844C338.82 113.844 339.562 113.68 340.172 113.352C340.797 113.008 341.273 112.594 341.602 112.109C341.93 111.625 342.094 111.172 342.094 110.75L343.828 113.984C343.516 114.609 343.156 115.242 342.75 115.883C342.359 116.523 341.867 117.117 341.273 117.664C340.695 118.195 339.984 118.633 339.141 118.977C338.297 119.305 337.273 119.469 336.07 119.469C334.508 119.469 333.07 119.148 331.758 118.508C330.461 117.867 329.422 116.977 328.641 115.836C327.859 114.68 327.469 113.352 327.469 111.852C327.469 110.539 327.703 109.367 328.172 108.336C328.656 107.305 329.383 106.43 330.352 105.711C331.32 104.992 332.555 104.445 334.055 104.07C335.555 103.695 337.32 103.508 339.352 103.508H342.75ZM367.477 93.6406V99.125H352.195V93.6406H367.477ZM355.406 87.3359H363.305V110.727C363.305 111.398 363.383 111.922 363.539 112.297C363.695 112.656 363.961 112.914 364.336 113.07C364.727 113.211 365.242 113.281 365.883 113.281C366.336 113.281 366.711 113.273 367.008 113.258C367.305 113.227 367.586 113.188 367.852 113.141V118.789C367.18 119.008 366.477 119.172 365.742 119.281C365.008 119.406 364.227 119.469 363.398 119.469C361.711 119.469 360.266 119.203 359.062 118.672C357.875 118.141 356.969 117.305 356.344 116.164C355.719 115.023 355.406 113.539 355.406 111.711V87.3359ZM378.961 93.6406V119H371.039V93.6406H378.961ZM370.57 87.1016C370.57 85.9766 370.977 85.0547 371.789 84.3359C372.602 83.6172 373.656 83.2578 374.953 83.2578C376.25 83.2578 377.305 83.6172 378.117 84.3359C378.93 85.0547 379.336 85.9766 379.336 87.1016C379.336 88.2266 378.93 89.1484 378.117 89.8672C377.305 90.5859 376.25 90.9453 374.953 90.9453C373.656 90.9453 372.602 90.5859 371.789 89.8672C370.977 89.1484 370.57 88.2266 370.57 87.1016ZM382.852 106.578V106.086C382.852 104.227 383.117 102.516 383.648 100.953C384.18 99.375 384.961 98.0078 385.992 96.8516C387.023 95.6953 388.297 94.7969 389.812 94.1562C391.328 93.5 393.078 93.1719 395.062 93.1719C397.062 93.1719 398.82 93.5 400.336 94.1562C401.867 94.7969 403.148 95.6953 404.18 96.8516C405.211 98.0078 405.992 99.375 406.523 100.953C407.055 102.516 407.32 104.227 407.32 106.086V106.578C407.32 108.422 407.055 110.133 406.523 111.711C405.992 113.273 405.211 114.641 404.18 115.812C403.148 116.969 401.875 117.867 400.359 118.508C398.844 119.148 397.094 119.469 395.109 119.469C393.125 119.469 391.367 119.148 389.836 118.508C388.305 117.867 387.023 116.969 385.992 115.812C384.961 114.641 384.18 113.273 383.648 111.711C383.117 110.133 382.852 108.422 382.852 106.578ZM390.75 106.086V106.578C390.75 107.531 390.82 108.422 390.961 109.25C391.102 110.078 391.336 110.805 391.664 111.43C391.992 112.039 392.438 112.516 393 112.859C393.562 113.203 394.266 113.375 395.109 113.375C395.938 113.375 396.625 113.203 397.172 112.859C397.734 112.516 398.18 112.039 398.508 111.43C398.836 110.805 399.07 110.078 399.211 109.25C399.352 108.422 399.422 107.531 399.422 106.578V106.086C399.422 105.164 399.352 104.297 399.211 103.484C399.07 102.656 398.836 101.93 398.508 101.305C398.18 100.664 397.734 100.164 397.172 99.8047C396.609 99.4453 395.906 99.2656 395.062 99.2656C394.234 99.2656 393.539 99.4453 392.977 99.8047C392.43 100.164 391.992 100.664 391.664 101.305C391.336 101.93 391.102 102.656 390.961 103.484C390.82 104.297 390.75 105.164 390.75 106.086ZM418.594 99.0547V119H410.695V93.6406H418.102L418.594 99.0547ZM417.656 105.453L415.805 105.5C415.805 103.562 416.039 101.836 416.508 100.32C416.977 98.7891 417.641 97.4922 418.5 96.4297C419.359 95.3672 420.383 94.5625 421.57 94.0156C422.773 93.4531 424.109 93.1719 425.578 93.1719C426.75 93.1719 427.82 93.3438 428.789 93.6875C429.773 94.0312 430.617 94.5859 431.32 95.3516C432.039 96.1172 432.586 97.1328 432.961 98.3984C433.352 99.6484 433.547 101.195 433.547 103.039V119H425.602V103.016C425.602 102 425.461 101.227 425.18 100.695C424.898 100.148 424.492 99.7734 423.961 99.5703C423.43 99.3672 422.781 99.2656 422.016 99.2656C421.203 99.2656 420.516 99.4219 419.953 99.7344C419.391 100.047 418.938 100.484 418.594 101.047C418.266 101.594 418.023 102.242 417.867 102.992C417.727 103.742 417.656 104.562 417.656 105.453Z" fill="black"/>
<path d="M1134 0H1348C1356.28 0 1363 6.71573 1363 15V148C1363 156.284 1356.28 163 1348 163H1134V0Z" fill="black"/>
<path d="M1280.07 47.5H1216.93L1214.5 49.9286V113.071L1216.93 115.5H1280.07L1282.5 113.071V49.9286L1280.07 47.5ZM1277.64 110.643H1233.93V100.929H1245.1C1246.56 103.843 1249.96 105.786 1253.36 105.786C1258.7 105.786 1263.07 101.414 1263.07 96.0714C1263.07 90.7286 1258.7 86.3571 1253.36 86.3571C1248.01 86.3571 1243.64 90.7286 1243.64 96.0714H1229.07V110.643H1219.36V52.3571H1229.07V63.5286C1226.16 64.9857 1224.21 68.3857 1224.21 71.7857C1224.21 77.1286 1228.59 81.5 1233.93 81.5C1239.27 81.5 1243.64 77.1286 1243.64 71.7857H1253.36C1253.36 77.1286 1257.73 81.5 1263.07 81.5C1268.41 81.5 1272.79 77.1286 1272.79 71.7857C1272.79 66.4429 1268.41 62.0714 1263.07 62.0714C1259.67 62.0714 1256.27 64.0143 1254.81 66.9286H1242.19C1240.73 64.0143 1237.33 62.0714 1233.93 62.0714V52.3571H1277.64V110.643ZM1248.5 96.0714C1248.5 93.1571 1250.44 91.2143 1253.36 91.2143C1256.27 91.2143 1258.21 93.1571 1258.21 96.0714C1258.21 98.9857 1256.27 100.929 1253.36 100.929C1250.44 100.929 1248.5 98.9857 1248.5 96.0714ZM1233.93 66.9286C1236.84 66.9286 1238.79 68.8714 1238.79 71.7857C1238.79 74.7 1236.84 76.6429 1233.93 76.6429C1231.01 76.6429 1229.07 74.7 1229.07 71.7857C1229.07 68.8714 1231.01 66.9286 1233.93 66.9286ZM1263.07 66.9286C1265.99 66.9286 1267.93 68.8714 1267.93 71.7857C1267.93 74.7 1265.99 76.6429 1263.07 76.6429C1260.16 76.6429 1258.21 74.7 1258.21 71.7857C1258.21 68.8714 1260.16 66.9286 1263.07 66.9286Z" fill="#0049B6"/>
</svg>
