<svg width="1363" height="163" viewBox="0 0 1363 163" fill="none" xmlns="http://www.w3.org/2000/svg">
<path d="M0 15C0 6.71573 6.71573 0 15 0H37V163H15C6.71573 163 0 156.284 0 148V15Z" fill="#61DBFB"/>
<rect width="1097" height="163" transform="translate(37)" fill="#F0F0F0"/>
<path d="M103.406 56.5352C103.406 56.2305 103.359 55.957 103.266 55.7148C103.18 55.4648 103.016 55.2383 102.773 55.0352C102.531 54.8242 102.191 54.6172 101.754 54.4141C101.316 54.2109 100.75 54 100.055 53.7812C99.2812 53.5312 98.5469 53.25 97.8516 52.9375C97.1641 52.625 96.5547 52.2617 96.0234 51.8477C95.5 51.4258 95.0859 50.9375 94.7812 50.3828C94.4844 49.8281 94.3359 49.1836 94.3359 48.4492C94.3359 47.7383 94.4922 47.0938 94.8047 46.5156C95.1172 45.9297 95.5547 45.4297 96.1172 45.0156C96.6797 44.5938 97.3438 44.2695 98.1094 44.043C98.8828 43.8164 99.7305 43.7031 100.652 43.7031C101.91 43.7031 103.008 43.9297 103.945 44.3828C104.883 44.8359 105.609 45.457 106.125 46.2461C106.648 47.0352 106.91 47.9375 106.91 48.9531H103.418C103.418 48.4531 103.312 48.0156 103.102 47.6406C102.898 47.2578 102.586 46.957 102.164 46.7383C101.75 46.5195 101.227 46.4102 100.594 46.4102C99.9844 46.4102 99.4766 46.5039 99.0703 46.6914C98.6641 46.8711 98.3594 47.1172 98.1562 47.4297C97.9531 47.7344 97.8516 48.0781 97.8516 48.4609C97.8516 48.75 97.9219 49.0117 98.0625 49.2461C98.2109 49.4805 98.4297 49.6992 98.7188 49.9023C99.0078 50.1055 99.3633 50.2969 99.7852 50.4766C100.207 50.6562 100.695 50.832 101.25 51.0039C102.18 51.2852 102.996 51.6016 103.699 51.9531C104.41 52.3047 105.004 52.6992 105.48 53.1367C105.957 53.5742 106.316 54.0703 106.559 54.625C106.801 55.1797 106.922 55.8086 106.922 56.5117C106.922 57.2539 106.777 57.918 106.488 58.5039C106.199 59.0898 105.781 59.5859 105.234 59.9922C104.688 60.3984 104.035 60.707 103.277 60.918C102.52 61.1289 101.672 61.2344 100.734 61.2344C99.8906 61.2344 99.0586 61.125 98.2383 60.9062C97.418 60.6797 96.6719 60.3398 96 59.8867C95.3359 59.4336 94.8047 58.8555 94.4062 58.1523C94.0078 57.4492 93.8086 56.6172 93.8086 55.6562H97.3359C97.3359 56.1875 97.418 56.6367 97.582 57.0039C97.7461 57.3711 97.9766 57.668 98.2734 57.8945C98.5781 58.1211 98.9375 58.2852 99.3516 58.3867C99.7734 58.4883 100.234 58.5391 100.734 58.5391C101.344 58.5391 101.844 58.4531 102.234 58.2812C102.633 58.1094 102.926 57.8711 103.113 57.5664C103.309 57.2617 103.406 56.918 103.406 56.5352ZM112.477 50.7578V65.875H109.102V48.3203H112.23L112.477 50.7578ZM120.504 54.5195V54.7656C120.504 55.6875 120.395 56.543 120.176 57.332C119.965 58.1211 119.652 58.8086 119.238 59.3945C118.824 59.9727 118.309 60.4258 117.691 60.7539C117.082 61.0742 116.379 61.2344 115.582 61.2344C114.809 61.2344 114.137 61.0781 113.566 60.7656C112.996 60.4531 112.516 60.0156 112.125 59.4531C111.742 58.8828 111.434 58.2227 111.199 57.4727C110.965 56.7227 110.785 55.918 110.66 55.0586V54.4141C110.785 53.4922 110.965 52.6484 111.199 51.8828C111.434 51.1094 111.742 50.4414 112.125 49.8789C112.516 49.3086 112.992 48.8672 113.555 48.5547C114.125 48.2422 114.793 48.0859 115.559 48.0859C116.363 48.0859 117.07 48.2383 117.68 48.543C118.297 48.8477 118.812 49.2852 119.227 49.8555C119.648 50.4258 119.965 51.1055 120.176 51.8945C120.395 52.6836 120.504 53.5586 120.504 54.5195ZM117.117 54.7656V54.5195C117.117 53.9805 117.07 53.4844 116.977 53.0312C116.891 52.5703 116.75 52.168 116.555 51.8242C116.367 51.4805 116.117 51.2148 115.805 51.0273C115.5 50.832 115.129 50.7344 114.691 50.7344C114.23 50.7344 113.836 50.8086 113.508 50.957C113.188 51.1055 112.926 51.3203 112.723 51.6016C112.52 51.8828 112.367 52.2188 112.266 52.6094C112.164 53 112.102 53.4414 112.078 53.9336V55.5625C112.117 56.1406 112.227 56.6602 112.406 57.1211C112.586 57.5742 112.863 57.9336 113.238 58.1992C113.613 58.4648 114.105 58.5977 114.715 58.5977C115.16 58.5977 115.535 58.5 115.84 58.3047C116.145 58.1016 116.391 57.8242 116.578 57.4727C116.773 57.1211 116.91 56.7148 116.988 56.2539C117.074 55.793 117.117 55.2969 117.117 54.7656ZM129.445 58.1406V52.4922C129.445 52.0859 129.379 51.7383 129.246 51.4492C129.113 51.1523 128.906 50.9219 128.625 50.7578C128.352 50.5938 127.996 50.5117 127.559 50.5117C127.184 50.5117 126.859 50.5781 126.586 50.7109C126.312 50.8359 126.102 51.0195 125.953 51.2617C125.805 51.4961 125.73 51.7734 125.73 52.0938H122.355C122.355 51.5547 122.48 51.043 122.73 50.5586C122.98 50.0742 123.344 49.6484 123.82 49.2812C124.297 48.9062 124.863 48.6133 125.52 48.4023C126.184 48.1914 126.926 48.0859 127.746 48.0859C128.73 48.0859 129.605 48.25 130.371 48.5781C131.137 48.9062 131.738 49.3984 132.176 50.0547C132.621 50.7109 132.844 51.5312 132.844 52.5156V57.9414C132.844 58.6367 132.887 59.207 132.973 59.6523C133.059 60.0898 133.184 60.4727 133.348 60.8008V61H129.938C129.773 60.6562 129.648 60.2266 129.562 59.7109C129.484 59.1875 129.445 58.6641 129.445 58.1406ZM129.891 53.2773L129.914 55.1875H128.027C127.582 55.1875 127.195 55.2383 126.867 55.3398C126.539 55.4414 126.27 55.5859 126.059 55.7734C125.848 55.9531 125.691 56.1641 125.59 56.4062C125.496 56.6484 125.449 56.9141 125.449 57.2031C125.449 57.4922 125.516 57.7539 125.648 57.9883C125.781 58.2148 125.973 58.3945 126.223 58.5273C126.473 58.6523 126.766 58.7148 127.102 58.7148C127.609 58.7148 128.051 58.6133 128.426 58.4102C128.801 58.207 129.09 57.957 129.293 57.6602C129.504 57.3633 129.613 57.082 129.621 56.8164L130.512 58.2461C130.387 58.5664 130.215 58.8984 129.996 59.2422C129.785 59.5859 129.516 59.9102 129.188 60.2148C128.859 60.5117 128.465 60.7578 128.004 60.9531C127.543 61.1406 126.996 61.2344 126.363 61.2344C125.559 61.2344 124.828 61.0742 124.172 60.7539C123.523 60.4258 123.008 59.9766 122.625 59.4062C122.25 58.8281 122.062 58.1719 122.062 57.4375C122.062 56.7734 122.188 56.1836 122.438 55.668C122.688 55.1523 123.055 54.7188 123.539 54.3672C124.031 54.0078 124.645 53.7383 125.379 53.5586C126.113 53.3711 126.965 53.2773 127.934 53.2773H129.891ZM140.684 58.5977C141.098 58.5977 141.465 58.5195 141.785 58.3633C142.105 58.1992 142.355 57.9727 142.535 57.6836C142.723 57.3867 142.82 57.0391 142.828 56.6406H146.004C145.996 57.5312 145.758 58.3242 145.289 59.0195C144.82 59.707 144.191 60.25 143.402 60.6484C142.613 61.0391 141.73 61.2344 140.754 61.2344C139.77 61.2344 138.91 61.0703 138.176 60.7422C137.449 60.4141 136.844 59.9609 136.359 59.3828C135.875 58.7969 135.512 58.1172 135.27 57.3438C135.027 56.5625 134.906 55.7266 134.906 54.8359V54.4961C134.906 53.5977 135.027 52.7617 135.27 51.9883C135.512 51.207 135.875 50.5273 136.359 49.9492C136.844 49.3633 137.449 48.9062 138.176 48.5781C138.902 48.25 139.754 48.0859 140.73 48.0859C141.77 48.0859 142.68 48.2852 143.461 48.6836C144.25 49.082 144.867 49.6523 145.312 50.3945C145.766 51.1289 145.996 52 146.004 53.0078H142.828C142.82 52.5859 142.73 52.2031 142.559 51.8594C142.395 51.5156 142.152 51.2422 141.832 51.0391C141.52 50.8281 141.133 50.7227 140.672 50.7227C140.18 50.7227 139.777 50.8281 139.465 51.0391C139.152 51.2422 138.91 51.5234 138.738 51.8828C138.566 52.2344 138.445 52.6367 138.375 53.0898C138.312 53.5352 138.281 54.0039 138.281 54.4961V54.8359C138.281 55.3281 138.312 55.8008 138.375 56.2539C138.438 56.707 138.555 57.1094 138.727 57.4609C138.906 57.8125 139.152 58.0898 139.465 58.293C139.777 58.4961 140.184 58.5977 140.684 58.5977ZM153.797 61.2344C152.812 61.2344 151.93 61.0781 151.148 60.7656C150.367 60.4453 149.703 60.0039 149.156 59.4414C148.617 58.8789 148.203 58.2266 147.914 57.4844C147.625 56.7344 147.48 55.9375 147.48 55.0938V54.625C147.48 53.6641 147.617 52.7852 147.891 51.9883C148.164 51.1914 148.555 50.5 149.062 49.9141C149.578 49.3281 150.203 48.8789 150.938 48.5664C151.672 48.2461 152.5 48.0859 153.422 48.0859C154.32 48.0859 155.117 48.2344 155.812 48.5312C156.508 48.8281 157.09 49.25 157.559 49.7969C158.035 50.3438 158.395 51 158.637 51.7656C158.879 52.5234 159 53.3672 159 54.2969V55.7031H148.922V53.4531H155.684V53.1953C155.684 52.7266 155.598 52.3086 155.426 51.9414C155.262 51.5664 155.012 51.2695 154.676 51.0508C154.34 50.832 153.91 50.7227 153.387 50.7227C152.941 50.7227 152.559 50.8203 152.238 51.0156C151.918 51.2109 151.656 51.4844 151.453 51.8359C151.258 52.1875 151.109 52.6016 151.008 53.0781C150.914 53.5469 150.867 54.0625 150.867 54.625V55.0938C150.867 55.6016 150.938 56.0703 151.078 56.5C151.227 56.9297 151.434 57.3008 151.699 57.6133C151.973 57.9258 152.301 58.168 152.684 58.3398C153.074 58.5117 153.516 58.5977 154.008 58.5977C154.617 58.5977 155.184 58.4805 155.707 58.2461C156.238 58.0039 156.695 57.6406 157.078 57.1562L158.719 58.9375C158.453 59.3203 158.09 59.6875 157.629 60.0391C157.176 60.3906 156.629 60.6797 155.988 60.9062C155.348 61.125 154.617 61.2344 153.797 61.2344ZM174.012 55.7617V43.9375H177.516V55.7617C177.516 56.9023 177.266 57.8828 176.766 58.7031C176.266 59.5156 175.582 60.1406 174.715 60.5781C173.855 61.0156 172.887 61.2344 171.809 61.2344C170.691 61.2344 169.703 61.0469 168.844 60.6719C167.984 60.2969 167.309 59.7227 166.816 58.9492C166.324 58.168 166.078 57.1797 166.078 55.9844H169.605C169.605 56.6094 169.691 57.1055 169.863 57.4727C170.043 57.8398 170.297 58.1016 170.625 58.2578C170.953 58.4141 171.348 58.4922 171.809 58.4922C172.254 58.4922 172.641 58.3867 172.969 58.1758C173.297 57.9648 173.551 57.6562 173.73 57.25C173.918 56.8438 174.012 56.3477 174.012 55.7617ZM179.766 54.7891V54.543C179.766 53.6133 179.898 52.7578 180.164 51.9766C180.43 51.1875 180.816 50.5039 181.324 49.9258C181.832 49.3477 182.457 48.8984 183.199 48.5781C183.941 48.25 184.793 48.0859 185.754 48.0859C186.715 48.0859 187.57 48.25 188.32 48.5781C189.07 48.8984 189.699 49.3477 190.207 49.9258C190.723 50.5039 191.113 51.1875 191.379 51.9766C191.645 52.7578 191.777 53.6133 191.777 54.543V54.7891C191.777 55.7109 191.645 56.5664 191.379 57.3555C191.113 58.1367 190.723 58.8203 190.207 59.4062C189.699 59.9844 189.074 60.4336 188.332 60.7539C187.59 61.0742 186.738 61.2344 185.777 61.2344C184.816 61.2344 183.961 61.0742 183.211 60.7539C182.469 60.4336 181.84 59.9844 181.324 59.4062C180.816 58.8203 180.43 58.1367 180.164 57.3555C179.898 56.5664 179.766 55.7109 179.766 54.7891ZM183.141 54.543V54.7891C183.141 55.3203 183.188 55.8164 183.281 56.2773C183.375 56.7383 183.523 57.1445 183.727 57.4961C183.938 57.8398 184.211 58.1094 184.547 58.3047C184.883 58.5 185.293 58.5977 185.777 58.5977C186.246 58.5977 186.648 58.5 186.984 58.3047C187.32 58.1094 187.59 57.8398 187.793 57.4961C187.996 57.1445 188.145 56.7383 188.238 56.2773C188.34 55.8164 188.391 55.3203 188.391 54.7891V54.543C188.391 54.0273 188.34 53.543 188.238 53.0898C188.145 52.6289 187.992 52.2227 187.781 51.8711C187.578 51.5117 187.309 51.2305 186.973 51.0273C186.637 50.8242 186.23 50.7227 185.754 50.7227C185.277 50.7227 184.871 50.8242 184.535 51.0273C184.207 51.2305 183.938 51.5117 183.727 51.8711C183.523 52.2227 183.375 52.6289 183.281 53.0898C183.188 53.543 183.141 54.0273 183.141 54.543ZM201.352 57.9648V48.3203H204.727V61H201.551L201.352 57.9648ZM201.727 55.3633L202.723 55.3398C202.723 56.1836 202.625 56.9688 202.43 57.6953C202.234 58.4141 201.941 59.0391 201.551 59.5703C201.16 60.0938 200.668 60.5039 200.074 60.8008C199.48 61.0898 198.781 61.2344 197.977 61.2344C197.359 61.2344 196.789 61.1484 196.266 60.9766C195.75 60.7969 195.305 60.5195 194.93 60.1445C194.562 59.7617 194.273 59.2734 194.062 58.6797C193.859 58.0781 193.758 57.3555 193.758 56.5117V48.3203H197.133V56.5352C197.133 56.9102 197.176 57.2266 197.262 57.4844C197.355 57.7422 197.484 57.9531 197.648 58.1172C197.812 58.2812 198.004 58.3984 198.223 58.4688C198.449 58.5391 198.699 58.5742 198.973 58.5742C199.668 58.5742 200.215 58.4336 200.613 58.1523C201.02 57.8711 201.305 57.4883 201.469 57.0039C201.641 56.5117 201.727 55.9648 201.727 55.3633ZM210.68 51.0859V61H207.305V48.3203H210.48L210.68 51.0859ZM214.5 48.2383L214.441 51.3672C214.277 51.3438 214.078 51.3242 213.844 51.3086C213.617 51.2852 213.41 51.2734 213.223 51.2734C212.746 51.2734 212.332 51.3359 211.98 51.4609C211.637 51.5781 211.348 51.7539 211.113 51.9883C210.887 52.2227 210.715 52.5078 210.598 52.8438C210.488 53.1797 210.426 53.5625 210.41 53.9922L209.73 53.7812C209.73 52.9609 209.812 52.207 209.977 51.5195C210.141 50.8242 210.379 50.2188 210.691 49.7031C211.012 49.1875 211.402 48.7891 211.863 48.5078C212.324 48.2266 212.852 48.0859 213.445 48.0859C213.633 48.0859 213.824 48.1016 214.02 48.1328C214.215 48.1562 214.375 48.1914 214.5 48.2383ZM219.398 51.0273V61H216.023V48.3203H219.188L219.398 51.0273ZM218.906 54.2148H217.992C217.992 53.2773 218.113 52.4336 218.355 51.6836C218.598 50.9258 218.938 50.2812 219.375 49.75C219.812 49.2109 220.332 48.8008 220.934 48.5195C221.543 48.2305 222.223 48.0859 222.973 48.0859C223.566 48.0859 224.109 48.1719 224.602 48.3438C225.094 48.5156 225.516 48.7891 225.867 49.1641C226.227 49.5391 226.5 50.0352 226.688 50.6523C226.883 51.2695 226.98 52.0234 226.98 52.9141V61H223.582V52.9023C223.582 52.3398 223.504 51.9023 223.348 51.5898C223.191 51.2773 222.961 51.0586 222.656 50.9336C222.359 50.8008 221.992 50.7344 221.555 50.7344C221.102 50.7344 220.707 50.8242 220.371 51.0039C220.043 51.1836 219.77 51.4336 219.551 51.7539C219.34 52.0664 219.18 52.4336 219.07 52.8555C218.961 53.2773 218.906 53.7305 218.906 54.2148ZM235.383 61.2344C234.398 61.2344 233.516 61.0781 232.734 60.7656C231.953 60.4453 231.289 60.0039 230.742 59.4414C230.203 58.8789 229.789 58.2266 229.5 57.4844C229.211 56.7344 229.066 55.9375 229.066 55.0938V54.625C229.066 53.6641 229.203 52.7852 229.477 51.9883C229.75 51.1914 230.141 50.5 230.648 49.9141C231.164 49.3281 231.789 48.8789 232.523 48.5664C233.258 48.2461 234.086 48.0859 235.008 48.0859C235.906 48.0859 236.703 48.2344 237.398 48.5312C238.094 48.8281 238.676 49.25 239.145 49.7969C239.621 50.3438 239.98 51 240.223 51.7656C240.465 52.5234 240.586 53.3672 240.586 54.2969V55.7031H230.508V53.4531H237.27V53.1953C237.27 52.7266 237.184 52.3086 237.012 51.9414C236.848 51.5664 236.598 51.2695 236.262 51.0508C235.926 50.832 235.496 50.7227 234.973 50.7227C234.527 50.7227 234.145 50.8203 233.824 51.0156C233.504 51.2109 233.242 51.4844 233.039 51.8359C232.844 52.1875 232.695 52.6016 232.594 53.0781C232.5 53.5469 232.453 54.0625 232.453 54.625V55.0938C232.453 55.6016 232.523 56.0703 232.664 56.5C232.812 56.9297 233.02 57.3008 233.285 57.6133C233.559 57.9258 233.887 58.168 234.27 58.3398C234.66 58.5117 235.102 58.5977 235.594 58.5977C236.203 58.5977 236.77 58.4805 237.293 58.2461C237.824 58.0039 238.281 57.6406 238.664 57.1562L240.305 58.9375C240.039 59.3203 239.676 59.6875 239.215 60.0391C238.762 60.3906 238.215 60.6797 237.574 60.9062C236.934 61.125 236.203 61.2344 235.383 61.2344ZM246.105 59.5703L249.469 48.3203H253.09L247.992 62.9102C247.883 63.2305 247.734 63.5742 247.547 63.9414C247.367 64.3086 247.121 64.6562 246.809 64.9844C246.504 65.3203 246.117 65.5938 245.648 65.8047C245.188 66.0156 244.621 66.1211 243.949 66.1211C243.629 66.1211 243.367 66.1016 243.164 66.0625C242.961 66.0234 242.719 65.9688 242.438 65.8984V63.4258C242.523 63.4258 242.613 63.4258 242.707 63.4258C242.801 63.4336 242.891 63.4375 242.977 63.4375C243.422 63.4375 243.785 63.3867 244.066 63.2852C244.348 63.1836 244.574 63.0273 244.746 62.8164C244.918 62.6133 245.055 62.3477 245.156 62.0195L246.105 59.5703ZM244.699 48.3203L247.453 57.5078L247.934 61.082L245.637 61.3281L241.078 48.3203H244.699Z" fill="#888888"/>
<path d="M106.688 119H99.1172L99.1641 112.672H106.688C108.25 112.672 109.57 112.297 110.648 111.547C111.742 110.797 112.57 109.68 113.133 108.195C113.711 106.695 114 104.852 114 102.664V101.188C114 99.5469 113.836 98.1094 113.508 96.875C113.195 95.625 112.727 94.5859 112.102 93.7578C111.477 92.9141 110.695 92.2812 109.758 91.8594C108.836 91.4375 107.773 91.2266 106.57 91.2266H98.9766V84.875H106.57C108.883 84.875 111 85.2734 112.922 86.0703C114.859 86.8516 116.531 87.9766 117.938 89.4453C119.359 90.8984 120.453 92.625 121.219 94.625C122 96.6094 122.391 98.8125 122.391 101.234V102.664C122.391 105.07 122 107.273 121.219 109.273C120.453 111.273 119.367 113 117.961 114.453C116.555 115.906 114.891 117.031 112.969 117.828C111.062 118.609 108.969 119 106.688 119ZM103.828 84.875V119H95.6016V84.875H103.828ZM139.477 112.625V102.172C139.477 101.453 139.375 100.836 139.172 100.32C138.969 99.8047 138.648 99.4062 138.211 99.125C137.773 98.8281 137.188 98.6797 136.453 98.6797C135.859 98.6797 135.352 98.7812 134.93 98.9844C134.508 99.1875 134.188 99.4922 133.969 99.8984C133.75 100.305 133.641 100.82 133.641 101.445H125.742C125.742 100.273 126 99.1875 126.516 98.1875C127.047 97.1719 127.797 96.2891 128.766 95.5391C129.75 94.7891 130.922 94.2109 132.281 93.8047C133.656 93.3828 135.188 93.1719 136.875 93.1719C138.891 93.1719 140.688 93.5078 142.266 94.1797C143.859 94.8516 145.117 95.8594 146.039 97.2031C146.961 98.5312 147.422 100.203 147.422 102.219V112.602C147.422 114.258 147.516 115.516 147.703 116.375C147.891 117.219 148.156 117.961 148.5 118.602V119H140.578C140.203 118.219 139.922 117.266 139.734 116.141C139.562 115 139.477 113.828 139.477 112.625ZM140.438 103.508L140.484 107.727H136.992C136.258 107.727 135.633 107.828 135.117 108.031C134.617 108.234 134.211 108.516 133.898 108.875C133.602 109.219 133.383 109.609 133.242 110.047C133.117 110.484 133.055 110.945 133.055 111.43C133.055 111.898 133.164 112.32 133.383 112.695C133.617 113.055 133.93 113.336 134.32 113.539C134.711 113.742 135.148 113.844 135.633 113.844C136.508 113.844 137.25 113.68 137.859 113.352C138.484 113.008 138.961 112.594 139.289 112.109C139.617 111.625 139.781 111.172 139.781 110.75L141.516 113.984C141.203 114.609 140.844 115.242 140.438 115.883C140.047 116.523 139.555 117.117 138.961 117.664C138.383 118.195 137.672 118.633 136.828 118.977C135.984 119.305 134.961 119.469 133.758 119.469C132.195 119.469 130.758 119.148 129.445 118.508C128.148 117.867 127.109 116.977 126.328 115.836C125.547 114.68 125.156 113.352 125.156 111.852C125.156 110.539 125.391 109.367 125.859 108.336C126.344 107.305 127.07 106.43 128.039 105.711C129.008 104.992 130.242 104.445 131.742 104.07C133.242 103.695 135.008 103.508 137.039 103.508H140.438ZM165.164 93.6406V99.125H149.883V93.6406H165.164ZM153.094 87.3359H160.992V110.727C160.992 111.398 161.07 111.922 161.227 112.297C161.383 112.656 161.648 112.914 162.023 113.07C162.414 113.211 162.93 113.281 163.57 113.281C164.023 113.281 164.398 113.273 164.695 113.258C164.992 113.227 165.273 113.188 165.539 113.141V118.789C164.867 119.008 164.164 119.172 163.43 119.281C162.695 119.406 161.914 119.469 161.086 119.469C159.398 119.469 157.953 119.203 156.75 118.672C155.562 118.141 154.656 117.305 154.031 116.164C153.406 115.023 153.094 113.539 153.094 111.711V87.3359ZM181.477 112.625V102.172C181.477 101.453 181.375 100.836 181.172 100.32C180.969 99.8047 180.648 99.4062 180.211 99.125C179.773 98.8281 179.188 98.6797 178.453 98.6797C177.859 98.6797 177.352 98.7812 176.93 98.9844C176.508 99.1875 176.188 99.4922 175.969 99.8984C175.75 100.305 175.641 100.82 175.641 101.445H167.742C167.742 100.273 168 99.1875 168.516 98.1875C169.047 97.1719 169.797 96.2891 170.766 95.5391C171.75 94.7891 172.922 94.2109 174.281 93.8047C175.656 93.3828 177.188 93.1719 178.875 93.1719C180.891 93.1719 182.688 93.5078 184.266 94.1797C185.859 94.8516 187.117 95.8594 188.039 97.2031C188.961 98.5312 189.422 100.203 189.422 102.219V112.602C189.422 114.258 189.516 115.516 189.703 116.375C189.891 117.219 190.156 117.961 190.5 118.602V119H182.578C182.203 118.219 181.922 117.266 181.734 116.141C181.562 115 181.477 113.828 181.477 112.625ZM182.438 103.508L182.484 107.727H178.992C178.258 107.727 177.633 107.828 177.117 108.031C176.617 108.234 176.211 108.516 175.898 108.875C175.602 109.219 175.383 109.609 175.242 110.047C175.117 110.484 175.055 110.945 175.055 111.43C175.055 111.898 175.164 112.32 175.383 112.695C175.617 113.055 175.93 113.336 176.32 113.539C176.711 113.742 177.148 113.844 177.633 113.844C178.508 113.844 179.25 113.68 179.859 113.352C180.484 113.008 180.961 112.594 181.289 112.109C181.617 111.625 181.781 111.172 181.781 110.75L183.516 113.984C183.203 114.609 182.844 115.242 182.438 115.883C182.047 116.523 181.555 117.117 180.961 117.664C180.383 118.195 179.672 118.633 178.828 118.977C177.984 119.305 176.961 119.469 175.758 119.469C174.195 119.469 172.758 119.148 171.445 118.508C170.148 117.867 169.109 116.977 168.328 115.836C167.547 114.68 167.156 113.352 167.156 111.852C167.156 110.539 167.391 109.367 167.859 108.336C168.344 107.305 169.07 106.43 170.039 105.711C171.008 104.992 172.242 104.445 173.742 104.07C175.242 103.695 177.008 103.508 179.039 103.508H182.438ZM193.875 83H201.773V112.766L200.953 119H193.875V83ZM217.336 106.039V106.531C217.336 108.453 217.141 110.203 216.75 111.781C216.359 113.359 215.758 114.727 214.945 115.883C214.133 117.023 213.109 117.906 211.875 118.531C210.641 119.156 209.18 119.469 207.492 119.469C205.961 119.469 204.648 119.141 203.555 118.484C202.461 117.812 201.547 116.891 200.812 115.719C200.078 114.531 199.484 113.164 199.031 111.617C198.578 110.055 198.219 108.383 197.953 106.602V106.016C198.219 104.25 198.578 102.594 199.031 101.047C199.484 99.4844 200.078 98.1172 200.812 96.9453C201.547 95.7578 202.453 94.8359 203.531 94.1797C204.625 93.5078 205.93 93.1719 207.445 93.1719C209.148 93.1719 210.617 93.4922 211.852 94.1328C213.102 94.7734 214.133 95.6719 214.945 96.8281C215.758 97.9844 216.359 99.3438 216.75 100.906C217.141 102.469 217.336 104.18 217.336 106.039ZM209.438 106.531V106.039C209.438 105.117 209.383 104.25 209.273 103.438C209.164 102.625 208.969 101.906 208.688 101.281C208.406 100.656 208.008 100.164 207.492 99.8047C206.977 99.4453 206.305 99.2656 205.477 99.2656C204.633 99.2656 203.922 99.4062 203.344 99.6875C202.781 99.9688 202.328 100.375 201.984 100.906C201.656 101.422 201.422 102.062 201.281 102.828C201.141 103.578 201.078 104.43 201.094 105.383V107.234C201.062 108.531 201.18 109.641 201.445 110.562C201.711 111.484 202.172 112.188 202.828 112.672C203.484 113.156 204.383 113.398 205.523 113.398C206.367 113.398 207.047 113.234 207.562 112.906C208.094 112.578 208.492 112.109 208.758 111.5C209.023 110.891 209.203 110.164 209.297 109.32C209.391 108.477 209.438 107.547 209.438 106.531ZM234.023 112.625V102.172C234.023 101.453 233.922 100.836 233.719 100.32C233.516 99.8047 233.195 99.4062 232.758 99.125C232.32 98.8281 231.734 98.6797 231 98.6797C230.406 98.6797 229.898 98.7812 229.477 98.9844C229.055 99.1875 228.734 99.4922 228.516 99.8984C228.297 100.305 228.188 100.82 228.188 101.445H220.289C220.289 100.273 220.547 99.1875 221.062 98.1875C221.594 97.1719 222.344 96.2891 223.312 95.5391C224.297 94.7891 225.469 94.2109 226.828 93.8047C228.203 93.3828 229.734 93.1719 231.422 93.1719C233.438 93.1719 235.234 93.5078 236.812 94.1797C238.406 94.8516 239.664 95.8594 240.586 97.2031C241.508 98.5312 241.969 100.203 241.969 102.219V112.602C241.969 114.258 242.062 115.516 242.25 116.375C242.438 117.219 242.703 117.961 243.047 118.602V119H235.125C234.75 118.219 234.469 117.266 234.281 116.141C234.109 115 234.023 113.828 234.023 112.625ZM234.984 103.508L235.031 107.727H231.539C230.805 107.727 230.18 107.828 229.664 108.031C229.164 108.234 228.758 108.516 228.445 108.875C228.148 109.219 227.93 109.609 227.789 110.047C227.664 110.484 227.602 110.945 227.602 111.43C227.602 111.898 227.711 112.32 227.93 112.695C228.164 113.055 228.477 113.336 228.867 113.539C229.258 113.742 229.695 113.844 230.18 113.844C231.055 113.844 231.797 113.68 232.406 113.352C233.031 113.008 233.508 112.594 233.836 112.109C234.164 111.625 234.328 111.172 234.328 110.75L236.062 113.984C235.75 114.609 235.391 115.242 234.984 115.883C234.594 116.523 234.102 117.117 233.508 117.664C232.93 118.195 232.219 118.633 231.375 118.977C230.531 119.305 229.508 119.469 228.305 119.469C226.742 119.469 225.305 119.148 223.992 118.508C222.695 117.867 221.656 116.977 220.875 115.836C220.094 114.68 219.703 113.352 219.703 111.852C219.703 110.539 219.938 109.367 220.406 108.336C220.891 107.305 221.617 106.43 222.586 105.711C223.555 104.992 224.789 104.445 226.289 104.07C227.789 103.695 229.555 103.508 231.586 103.508H234.984ZM259.641 111.875C259.641 111.438 259.492 111.062 259.195 110.75C258.914 110.422 258.414 110.125 257.695 109.859C256.977 109.578 255.969 109.297 254.672 109.016C253.438 108.75 252.273 108.398 251.18 107.961C250.102 107.523 249.156 106.992 248.344 106.367C247.531 105.742 246.891 105 246.422 104.141C245.969 103.281 245.742 102.297 245.742 101.188C245.742 100.109 245.969 99.0938 246.422 98.1406C246.891 97.1719 247.57 96.3203 248.461 95.5859C249.367 94.8359 250.469 94.25 251.766 93.8281C253.062 93.3906 254.539 93.1719 256.195 93.1719C258.477 93.1719 260.445 93.5234 262.102 94.2266C263.758 94.9141 265.031 95.8828 265.922 97.1328C266.828 98.3672 267.281 99.7969 267.281 101.422H259.383C259.383 100.781 259.273 100.234 259.055 99.7812C258.852 99.3281 258.516 98.9844 258.047 98.75C257.578 98.5 256.953 98.375 256.172 98.375C255.625 98.375 255.125 98.4766 254.672 98.6797C254.234 98.8828 253.883 99.1641 253.617 99.5234C253.352 99.8828 253.219 100.305 253.219 100.789C253.219 101.133 253.297 101.445 253.453 101.727C253.625 101.992 253.883 102.242 254.227 102.477C254.57 102.695 255.008 102.898 255.539 103.086C256.07 103.258 256.711 103.414 257.461 103.555C259.164 103.867 260.758 104.312 262.242 104.891C263.727 105.469 264.93 106.289 265.852 107.352C266.789 108.414 267.258 109.844 267.258 111.641C267.258 112.766 267 113.805 266.484 114.758C265.969 115.695 265.227 116.523 264.258 117.242C263.289 117.945 262.125 118.492 260.766 118.883C259.406 119.273 257.875 119.469 256.172 119.469C253.75 119.469 251.703 119.039 250.031 118.18C248.359 117.305 247.094 116.211 246.234 114.898C245.391 113.57 244.969 112.227 244.969 110.867H252.328C252.359 111.648 252.547 112.289 252.891 112.789C253.25 113.289 253.727 113.656 254.32 113.891C254.914 114.125 255.602 114.242 256.383 114.242C257.102 114.242 257.695 114.141 258.164 113.938C258.648 113.734 259.016 113.461 259.266 113.117C259.516 112.758 259.641 112.344 259.641 111.875ZM283.242 119.469C281.18 119.469 279.336 119.148 277.711 118.508C276.086 117.852 274.711 116.953 273.586 115.812C272.477 114.672 271.625 113.359 271.031 111.875C270.453 110.391 270.164 108.82 270.164 107.164V106.273C270.164 104.414 270.422 102.695 270.938 101.117C271.453 99.5234 272.219 98.1328 273.234 96.9453C274.25 95.7578 275.523 94.8359 277.055 94.1797C278.586 93.5078 280.367 93.1719 282.398 93.1719C284.195 93.1719 285.805 93.4609 287.227 94.0391C288.648 94.6172 289.852 95.4453 290.836 96.5234C291.836 97.6016 292.594 98.9062 293.109 100.438C293.641 101.969 293.906 103.688 293.906 105.594V108.805H273.188V103.859H286.195V103.25C286.211 102.406 286.062 101.688 285.75 101.094C285.453 100.5 285.016 100.047 284.438 99.7344C283.859 99.4219 283.156 99.2656 282.328 99.2656C281.469 99.2656 280.758 99.4531 280.195 99.8281C279.648 100.203 279.219 100.719 278.906 101.375C278.609 102.016 278.398 102.758 278.273 103.602C278.148 104.445 278.086 105.336 278.086 106.273V107.164C278.086 108.102 278.211 108.953 278.461 109.719C278.727 110.484 279.102 111.141 279.586 111.688C280.086 112.219 280.68 112.633 281.367 112.93C282.07 113.227 282.867 113.375 283.758 113.375C284.836 113.375 285.898 113.172 286.945 112.766C287.992 112.359 288.891 111.688 289.641 110.75L293.227 115.016C292.711 115.75 291.977 116.461 291.023 117.148C290.086 117.836 288.961 118.398 287.648 118.836C286.336 119.258 284.867 119.469 283.242 119.469ZM320.531 119H312.961L313.008 112.672H320.531C322.094 112.672 323.414 112.297 324.492 111.547C325.586 110.797 326.414 109.68 326.977 108.195C327.555 106.695 327.844 104.852 327.844 102.664V101.188C327.844 99.5469 327.68 98.1094 327.352 96.875C327.039 95.625 326.57 94.5859 325.945 93.7578C325.32 92.9141 324.539 92.2812 323.602 91.8594C322.68 91.4375 321.617 91.2266 320.414 91.2266H312.82V84.875H320.414C322.727 84.875 324.844 85.2734 326.766 86.0703C328.703 86.8516 330.375 87.9766 331.781 89.4453C333.203 90.8984 334.297 92.625 335.062 94.625C335.844 96.6094 336.234 98.8125 336.234 101.234V102.664C336.234 105.07 335.844 107.273 335.062 109.273C334.297 111.273 333.211 113 331.805 114.453C330.398 115.906 328.734 117.031 326.812 117.828C324.906 118.609 322.812 119 320.531 119ZM317.672 84.875V119H309.445V84.875H317.672ZM352.43 119.469C350.367 119.469 348.523 119.148 346.898 118.508C345.273 117.852 343.898 116.953 342.773 115.812C341.664 114.672 340.812 113.359 340.219 111.875C339.641 110.391 339.352 108.82 339.352 107.164V106.273C339.352 104.414 339.609 102.695 340.125 101.117C340.641 99.5234 341.406 98.1328 342.422 96.9453C343.438 95.7578 344.711 94.8359 346.242 94.1797C347.773 93.5078 349.555 93.1719 351.586 93.1719C353.383 93.1719 354.992 93.4609 356.414 94.0391C357.836 94.6172 359.039 95.4453 360.023 96.5234C361.023 97.6016 361.781 98.9062 362.297 100.438C362.828 101.969 363.094 103.688 363.094 105.594V108.805H342.375V103.859H355.383V103.25C355.398 102.406 355.25 101.688 354.938 101.094C354.641 100.5 354.203 100.047 353.625 99.7344C353.047 99.4219 352.344 99.2656 351.516 99.2656C350.656 99.2656 349.945 99.4531 349.383 99.8281C348.836 100.203 348.406 100.719 348.094 101.375C347.797 102.016 347.586 102.758 347.461 103.602C347.336 104.445 347.273 105.336 347.273 106.273V107.164C347.273 108.102 347.398 108.953 347.648 109.719C347.914 110.484 348.289 111.141 348.773 111.688C349.273 112.219 349.867 112.633 350.555 112.93C351.258 113.227 352.055 113.375 352.945 113.375C354.023 113.375 355.086 113.172 356.133 112.766C357.18 112.359 358.078 111.688 358.828 110.75L362.414 115.016C361.898 115.75 361.164 116.461 360.211 117.148C359.273 117.836 358.148 118.398 356.836 118.836C355.523 119.258 354.055 119.469 352.43 119.469ZM379.594 111.875C379.594 111.438 379.445 111.062 379.148 110.75C378.867 110.422 378.367 110.125 377.648 109.859C376.93 109.578 375.922 109.297 374.625 109.016C373.391 108.75 372.227 108.398 371.133 107.961C370.055 107.523 369.109 106.992 368.297 106.367C367.484 105.742 366.844 105 366.375 104.141C365.922 103.281 365.695 102.297 365.695 101.188C365.695 100.109 365.922 99.0938 366.375 98.1406C366.844 97.1719 367.523 96.3203 368.414 95.5859C369.32 94.8359 370.422 94.25 371.719 93.8281C373.016 93.3906 374.492 93.1719 376.148 93.1719C378.43 93.1719 380.398 93.5234 382.055 94.2266C383.711 94.9141 384.984 95.8828 385.875 97.1328C386.781 98.3672 387.234 99.7969 387.234 101.422H379.336C379.336 100.781 379.227 100.234 379.008 99.7812C378.805 99.3281 378.469 98.9844 378 98.75C377.531 98.5 376.906 98.375 376.125 98.375C375.578 98.375 375.078 98.4766 374.625 98.6797C374.188 98.8828 373.836 99.1641 373.57 99.5234C373.305 99.8828 373.172 100.305 373.172 100.789C373.172 101.133 373.25 101.445 373.406 101.727C373.578 101.992 373.836 102.242 374.18 102.477C374.523 102.695 374.961 102.898 375.492 103.086C376.023 103.258 376.664 103.414 377.414 103.555C379.117 103.867 380.711 104.312 382.195 104.891C383.68 105.469 384.883 106.289 385.805 107.352C386.742 108.414 387.211 109.844 387.211 111.641C387.211 112.766 386.953 113.805 386.438 114.758C385.922 115.695 385.18 116.523 384.211 117.242C383.242 117.945 382.078 118.492 380.719 118.883C379.359 119.273 377.828 119.469 376.125 119.469C373.703 119.469 371.656 119.039 369.984 118.18C368.312 117.305 367.047 116.211 366.188 114.898C365.344 113.57 364.922 112.227 364.922 110.867H372.281C372.312 111.648 372.5 112.289 372.844 112.789C373.203 113.289 373.68 113.656 374.273 113.891C374.867 114.125 375.555 114.242 376.336 114.242C377.055 114.242 377.648 114.141 378.117 113.938C378.602 113.734 378.969 113.461 379.219 113.117C379.469 112.758 379.594 112.344 379.594 111.875ZM399.258 93.6406V119H391.336V93.6406H399.258ZM390.867 87.1016C390.867 85.9766 391.273 85.0547 392.086 84.3359C392.898 83.6172 393.953 83.2578 395.25 83.2578C396.547 83.2578 397.602 83.6172 398.414 84.3359C399.227 85.0547 399.633 85.9766 399.633 87.1016C399.633 88.2266 399.227 89.1484 398.414 89.8672C397.602 90.5859 396.547 90.9453 395.25 90.9453C393.953 90.9453 392.898 90.5859 392.086 89.8672C391.273 89.1484 390.867 88.2266 390.867 87.1016ZM420.07 93.6406H427.242V118.016C427.242 120.359 426.703 122.344 425.625 123.969C424.547 125.609 423.039 126.852 421.102 127.695C419.18 128.555 416.93 128.984 414.352 128.984C413.211 128.984 412.047 128.836 410.859 128.539C409.672 128.258 408.562 127.836 407.531 127.273C406.5 126.711 405.633 126.016 404.93 125.188L408.234 120.547C408.875 121.266 409.68 121.875 410.648 122.375C411.617 122.891 412.758 123.148 414.07 123.148C415.211 123.148 416.164 122.945 416.93 122.539C417.711 122.133 418.305 121.539 418.711 120.758C419.117 119.992 419.32 119.062 419.32 117.969V99.6406L420.07 93.6406ZM403.219 106.625V106.133C403.219 104.211 403.453 102.461 403.922 100.883C404.406 99.2891 405.094 97.9219 405.984 96.7812C406.891 95.625 407.984 94.7344 409.266 94.1094C410.547 93.4844 411.992 93.1719 413.602 93.1719C415.336 93.1719 416.758 93.5078 417.867 94.1797C418.992 94.8359 419.891 95.7578 420.562 96.9453C421.25 98.1328 421.781 99.5234 422.156 101.117C422.547 102.695 422.875 104.398 423.141 106.227V106.812C422.875 108.531 422.508 110.156 422.039 111.688C421.586 113.203 420.992 114.547 420.258 115.719C419.523 116.891 418.602 117.812 417.492 118.484C416.398 119.141 415.086 119.469 413.555 119.469C411.961 119.469 410.523 119.148 409.242 118.508C407.977 117.867 406.891 116.969 405.984 115.812C405.094 114.656 404.406 113.297 403.922 111.734C403.453 110.172 403.219 108.469 403.219 106.625ZM411.117 106.133V106.625C411.117 107.578 411.203 108.461 411.375 109.273C411.562 110.086 411.844 110.805 412.219 111.43C412.594 112.039 413.055 112.516 413.602 112.859C414.164 113.203 414.82 113.375 415.57 113.375C416.711 113.375 417.633 113.133 418.336 112.648C419.039 112.164 419.547 111.477 419.859 110.586C420.172 109.695 420.305 108.648 420.258 107.445V105.594C420.289 104.562 420.219 103.656 420.047 102.875C419.875 102.078 419.602 101.414 419.227 100.883C418.867 100.352 418.383 99.9531 417.773 99.6875C417.18 99.4062 416.461 99.2656 415.617 99.2656C414.883 99.2656 414.234 99.4375 413.672 99.7812C413.109 100.125 412.641 100.609 412.266 101.234C411.891 101.844 411.602 102.57 411.398 103.414C411.211 104.242 411.117 105.148 411.117 106.133ZM439.547 99.0547V119H431.648V93.6406H439.055L439.547 99.0547ZM438.609 105.453L436.758 105.5C436.758 103.562 436.992 101.836 437.461 100.32C437.93 98.7891 438.594 97.4922 439.453 96.4297C440.312 95.3672 441.336 94.5625 442.523 94.0156C443.727 93.4531 445.062 93.1719 446.531 93.1719C447.703 93.1719 448.773 93.3438 449.742 93.6875C450.727 94.0312 451.57 94.5859 452.273 95.3516C452.992 96.1172 453.539 97.1328 453.914 98.3984C454.305 99.6484 454.5 101.195 454.5 103.039V119H446.555V103.016C446.555 102 446.414 101.227 446.133 100.695C445.852 100.148 445.445 99.7734 444.914 99.5703C444.383 99.3672 443.734 99.2656 442.969 99.2656C442.156 99.2656 441.469 99.4219 440.906 99.7344C440.344 100.047 439.891 100.484 439.547 101.047C439.219 101.594 438.977 102.242 438.82 102.992C438.68 103.742 438.609 104.562 438.609 105.453Z" fill="black"/>
<path d="M1134 0H1348C1356.28 0 1363 6.71573 1363 15V148C1363 156.284 1356.28 163 1348 163H1134V0Z" fill="black"/>
<path d="M1217.58 64.1667C1217.58 66.0281 1218.51 67.7419 1220.09 69.2434C1221.67 70.7429 1223.94 72.0619 1226.71 73.1553C1232.26 75.343 1239.93 76.6667 1248.5 76.6667C1257.07 76.6667 1264.74 75.343 1270.29 73.1553C1273.06 72.0619 1275.33 70.7429 1276.91 69.2434C1278.49 67.7419 1279.42 66.0281 1279.42 64.1667C1279.42 62.3052 1278.49 60.5914 1276.91 59.0899C1275.33 57.5904 1273.06 56.2714 1270.29 55.178C1264.74 52.9903 1257.07 51.6667 1248.5 51.6667C1239.93 51.6667 1232.26 52.9903 1226.71 55.178C1223.94 56.2714 1221.67 57.5904 1220.09 59.0899C1218.51 60.5914 1217.58 62.3052 1217.58 64.1667ZM1221.62 64.1667C1221.62 63.0283 1222.37 61.8878 1223.88 60.7921C1225.37 59.7041 1227.52 58.7293 1230.11 57.9144C1235.28 56.2864 1242.07 55.3333 1248.5 55.3333C1254.93 55.3333 1261.72 56.2864 1266.89 57.9144C1269.48 58.7293 1271.63 59.7041 1273.12 60.7921C1274.63 61.8878 1275.37 63.0283 1275.37 64.1667C1275.37 65.305 1274.63 66.4455 1273.12 67.5412C1271.63 68.6292 1269.48 69.604 1266.89 70.4189C1261.72 72.0469 1254.93 73 1248.5 73C1242.07 73 1235.28 72.0469 1230.11 70.4189C1227.52 69.604 1225.37 68.6292 1223.88 67.5412C1222.37 66.4455 1221.62 65.305 1221.62 64.1667Z" fill="#F0F0F0" stroke="#F0F0F0"/>
<path d="M1217.58 74.8333C1217.58 76.6948 1218.51 78.4086 1220.09 79.9101C1221.67 81.4096 1223.94 82.7286 1226.71 83.822C1232.26 86.0097 1239.93 87.3333 1248.5 87.3333C1257.07 87.3333 1264.74 86.0097 1270.29 83.822C1273.06 82.7286 1275.33 81.4096 1276.91 79.9101C1278.49 78.4086 1279.42 76.6948 1279.42 74.8333V64.1667C1279.42 63.6576 1279.19 63.1851 1278.8 62.8479C1278.42 62.5126 1277.91 62.3333 1277.4 62.3333C1276.88 62.3333 1276.37 62.5126 1275.99 62.8479C1275.61 63.1851 1275.37 63.6576 1275.37 64.1667V74.8333C1275.37 75.9717 1274.63 77.1122 1273.12 78.2079C1271.63 79.2959 1269.48 80.2707 1266.89 81.0856C1261.72 82.7136 1254.93 83.6667 1248.5 83.6667C1242.07 83.6667 1235.28 82.7136 1230.11 81.0856C1227.52 80.2707 1225.37 79.2959 1223.88 78.2079C1222.37 77.1122 1221.62 75.9717 1221.62 74.8333V64.1667C1221.62 63.6576 1221.39 63.1851 1221.01 62.8479C1220.63 62.5126 1220.12 62.3333 1219.6 62.3333C1219.09 62.3333 1218.58 62.5126 1218.2 62.8479C1217.81 63.1851 1217.58 63.6576 1217.58 64.1667V74.8333Z" fill="#F0F0F0" stroke="#F0F0F0"/>
<path d="M1217.58 86.8333C1217.58 88.6948 1218.51 90.4086 1220.09 91.9101C1221.67 93.4095 1223.94 94.7286 1226.71 95.8219C1232.26 98.0097 1239.93 99.3333 1248.5 99.3333C1257.07 99.3333 1264.74 98.0097 1270.29 95.8219C1273.06 94.7286 1275.33 93.4095 1276.91 91.9101C1278.49 90.4086 1279.42 88.6948 1279.42 86.8333V74.8333C1279.42 74.3243 1279.19 73.8517 1278.8 73.5146C1278.42 73.1792 1277.91 73 1277.4 73C1276.88 73 1276.37 73.1792 1275.99 73.5146C1275.61 73.8517 1275.37 74.3243 1275.37 74.8333V86.8333C1275.37 87.9717 1274.63 89.1122 1273.12 90.2079C1271.63 91.2958 1269.48 92.2707 1266.89 93.0856C1261.72 94.7136 1254.93 95.6667 1248.5 95.6667C1242.07 95.6667 1235.28 94.7136 1230.11 93.0856C1227.52 92.2707 1225.37 91.2958 1223.88 90.2079C1222.37 89.1122 1221.62 87.9717 1221.62 86.8333V74.8333C1221.62 74.3243 1221.39 73.8517 1221.01 73.5146C1220.63 73.1792 1220.12 73 1219.6 73C1219.09 73 1218.58 73.1792 1218.2 73.5146C1217.81 73.8517 1217.58 74.3243 1217.58 74.8333V86.8333Z" fill="#F0F0F0" stroke="#F0F0F0"/>
<path d="M1217.58 98.8333C1217.58 100.695 1218.51 102.409 1220.09 103.91C1221.67 105.41 1223.94 106.729 1226.71 107.822C1232.26 110.01 1239.93 111.333 1248.5 111.333C1257.07 111.333 1264.74 110.01 1270.29 107.822C1273.06 106.729 1275.33 105.41 1276.91 103.91C1278.49 102.409 1279.42 100.695 1279.42 98.8333V86.8333C1279.42 86.3243 1279.19 85.8517 1278.8 85.5146C1278.42 85.1792 1277.91 85 1277.4 85C1276.88 85 1276.37 85.1792 1275.99 85.5146C1275.61 85.8517 1275.37 86.3243 1275.37 86.8333V98.8333C1275.37 99.9717 1274.63 101.112 1273.12 102.208C1271.63 103.296 1269.48 104.271 1266.89 105.086C1261.72 106.714 1254.93 107.667 1248.5 107.667C1242.07 107.667 1235.28 106.714 1230.11 105.086C1227.52 104.271 1225.37 103.296 1223.88 102.208C1222.37 101.112 1221.62 99.9717 1221.62 98.8333V86.8333C1221.62 86.3243 1221.39 85.8517 1221.01 85.5146C1220.63 85.1792 1220.12 85 1219.6 85C1219.09 85 1218.58 85.1792 1218.2 85.5146C1217.81 85.8517 1217.58 86.3243 1217.58 86.8333V98.8333Z" fill="#F0F0F0" stroke="#F0F0F0"/>
</svg>
