<svg width="1363" height="163" viewBox="0 0 1363 163" fill="none" xmlns="http://www.w3.org/2000/svg">
<path d="M0 15C0 6.71573 6.71573 0 15 0H37V163H15C6.71573 163 0 156.284 0 148V15Z" fill="#424242"/>
<rect width="1097" height="163" transform="translate(37)" fill="#F0F0F0"/>
<path d="M101.906 53.9219L94.3945 51.2383V48.0859L104.602 52.375V54.6367L101.906 53.9219ZM94.3945 56.1719L101.918 53.4297L104.602 52.7852V55.0352L94.3945 59.3242V56.1719ZM115.805 56.5352C115.805 56.2305 115.758 55.957 115.664 55.7148C115.578 55.4648 115.414 55.2383 115.172 55.0352C114.93 54.8242 114.59 54.6172 114.152 54.4141C113.715 54.2109 113.148 54 112.453 53.7812C111.68 53.5312 110.945 53.25 110.25 52.9375C109.562 52.625 108.953 52.2617 108.422 51.8477C107.898 51.4258 107.484 50.9375 107.18 50.3828C106.883 49.8281 106.734 49.1836 106.734 48.4492C106.734 47.7383 106.891 47.0938 107.203 46.5156C107.516 45.9297 107.953 45.4297 108.516 45.0156C109.078 44.5938 109.742 44.2695 110.508 44.043C111.281 43.8164 112.129 43.7031 113.051 43.7031C114.309 43.7031 115.406 43.9297 116.344 44.3828C117.281 44.8359 118.008 45.457 118.523 46.2461C119.047 47.0352 119.309 47.9375 119.309 48.9531H115.816C115.816 48.4531 115.711 48.0156 115.5 47.6406C115.297 47.2578 114.984 46.957 114.562 46.7383C114.148 46.5195 113.625 46.4102 112.992 46.4102C112.383 46.4102 111.875 46.5039 111.469 46.6914C111.062 46.8711 110.758 47.1172 110.555 47.4297C110.352 47.7344 110.25 48.0781 110.25 48.4609C110.25 48.75 110.32 49.0117 110.461 49.2461C110.609 49.4805 110.828 49.6992 111.117 49.9023C111.406 50.1055 111.762 50.2969 112.184 50.4766C112.605 50.6562 113.094 50.832 113.648 51.0039C114.578 51.2852 115.395 51.6016 116.098 51.9531C116.809 52.3047 117.402 52.6992 117.879 53.1367C118.355 53.5742 118.715 54.0703 118.957 54.625C119.199 55.1797 119.32 55.8086 119.32 56.5117C119.32 57.2539 119.176 57.918 118.887 58.5039C118.598 59.0898 118.18 59.5859 117.633 59.9922C117.086 60.3984 116.434 60.707 115.676 60.918C114.918 61.1289 114.07 61.2344 113.133 61.2344C112.289 61.2344 111.457 61.125 110.637 60.9062C109.816 60.6797 109.07 60.3398 108.398 59.8867C107.734 59.4336 107.203 58.8555 106.805 58.1523C106.406 57.4492 106.207 56.6172 106.207 55.6562H109.734C109.734 56.1875 109.816 56.6367 109.98 57.0039C110.145 57.3711 110.375 57.668 110.672 57.8945C110.977 58.1211 111.336 58.2852 111.75 58.3867C112.172 58.4883 112.633 58.5391 113.133 58.5391C113.742 58.5391 114.242 58.4531 114.633 58.2812C115.031 58.1094 115.324 57.8711 115.512 57.5664C115.707 57.2617 115.805 56.918 115.805 56.5352ZM124.875 50.7578V65.875H121.5V48.3203H124.629L124.875 50.7578ZM132.902 54.5195V54.7656C132.902 55.6875 132.793 56.543 132.574 57.332C132.363 58.1211 132.051 58.8086 131.637 59.3945C131.223 59.9727 130.707 60.4258 130.09 60.7539C129.48 61.0742 128.777 61.2344 127.98 61.2344C127.207 61.2344 126.535 61.0781 125.965 60.7656C125.395 60.4531 124.914 60.0156 124.523 59.4531C124.141 58.8828 123.832 58.2227 123.598 57.4727C123.363 56.7227 123.184 55.918 123.059 55.0586V54.4141C123.184 53.4922 123.363 52.6484 123.598 51.8828C123.832 51.1094 124.141 50.4414 124.523 49.8789C124.914 49.3086 125.391 48.8672 125.953 48.5547C126.523 48.2422 127.191 48.0859 127.957 48.0859C128.762 48.0859 129.469 48.2383 130.078 48.543C130.695 48.8477 131.211 49.2852 131.625 49.8555C132.047 50.4258 132.363 51.1055 132.574 51.8945C132.793 52.6836 132.902 53.5586 132.902 54.5195ZM129.516 54.7656V54.5195C129.516 53.9805 129.469 53.4844 129.375 53.0312C129.289 52.5703 129.148 52.168 128.953 51.8242C128.766 51.4805 128.516 51.2148 128.203 51.0273C127.898 50.832 127.527 50.7344 127.09 50.7344C126.629 50.7344 126.234 50.8086 125.906 50.957C125.586 51.1055 125.324 51.3203 125.121 51.6016C124.918 51.8828 124.766 52.2188 124.664 52.6094C124.562 53 124.5 53.4414 124.477 53.9336V55.5625C124.516 56.1406 124.625 56.6602 124.805 57.1211C124.984 57.5742 125.262 57.9336 125.637 58.1992C126.012 58.4648 126.504 58.5977 127.113 58.5977C127.559 58.5977 127.934 58.5 128.238 58.3047C128.543 58.1016 128.789 57.8242 128.977 57.4727C129.172 57.1211 129.309 56.7148 129.387 56.2539C129.473 55.793 129.516 55.2969 129.516 54.7656ZM141.844 58.1406V52.4922C141.844 52.0859 141.777 51.7383 141.645 51.4492C141.512 51.1523 141.305 50.9219 141.023 50.7578C140.75 50.5938 140.395 50.5117 139.957 50.5117C139.582 50.5117 139.258 50.5781 138.984 50.7109C138.711 50.8359 138.5 51.0195 138.352 51.2617C138.203 51.4961 138.129 51.7734 138.129 52.0938H134.754C134.754 51.5547 134.879 51.043 135.129 50.5586C135.379 50.0742 135.742 49.6484 136.219 49.2812C136.695 48.9062 137.262 48.6133 137.918 48.4023C138.582 48.1914 139.324 48.0859 140.145 48.0859C141.129 48.0859 142.004 48.25 142.77 48.5781C143.535 48.9062 144.137 49.3984 144.574 50.0547C145.02 50.7109 145.242 51.5312 145.242 52.5156V57.9414C145.242 58.6367 145.285 59.207 145.371 59.6523C145.457 60.0898 145.582 60.4727 145.746 60.8008V61H142.336C142.172 60.6562 142.047 60.2266 141.961 59.7109C141.883 59.1875 141.844 58.6641 141.844 58.1406ZM142.289 53.2773L142.312 55.1875H140.426C139.98 55.1875 139.594 55.2383 139.266 55.3398C138.938 55.4414 138.668 55.5859 138.457 55.7734C138.246 55.9531 138.09 56.1641 137.988 56.4062C137.895 56.6484 137.848 56.9141 137.848 57.2031C137.848 57.4922 137.914 57.7539 138.047 57.9883C138.18 58.2148 138.371 58.3945 138.621 58.5273C138.871 58.6523 139.164 58.7148 139.5 58.7148C140.008 58.7148 140.449 58.6133 140.824 58.4102C141.199 58.207 141.488 57.957 141.691 57.6602C141.902 57.3633 142.012 57.082 142.02 56.8164L142.91 58.2461C142.785 58.5664 142.613 58.8984 142.395 59.2422C142.184 59.5859 141.914 59.9102 141.586 60.2148C141.258 60.5117 140.863 60.7578 140.402 60.9531C139.941 61.1406 139.395 61.2344 138.762 61.2344C137.957 61.2344 137.227 61.0742 136.57 60.7539C135.922 60.4258 135.406 59.9766 135.023 59.4062C134.648 58.8281 134.461 58.1719 134.461 57.4375C134.461 56.7734 134.586 56.1836 134.836 55.668C135.086 55.1523 135.453 54.7188 135.938 54.3672C136.43 54.0078 137.043 53.7383 137.777 53.5586C138.512 53.3711 139.363 53.2773 140.332 53.2773H142.289ZM153.082 58.5977C153.496 58.5977 153.863 58.5195 154.184 58.3633C154.504 58.1992 154.754 57.9727 154.934 57.6836C155.121 57.3867 155.219 57.0391 155.227 56.6406H158.402C158.395 57.5312 158.156 58.3242 157.688 59.0195C157.219 59.707 156.59 60.25 155.801 60.6484C155.012 61.0391 154.129 61.2344 153.152 61.2344C152.168 61.2344 151.309 61.0703 150.574 60.7422C149.848 60.4141 149.242 59.9609 148.758 59.3828C148.273 58.7969 147.91 58.1172 147.668 57.3438C147.426 56.5625 147.305 55.7266 147.305 54.8359V54.4961C147.305 53.5977 147.426 52.7617 147.668 51.9883C147.91 51.207 148.273 50.5273 148.758 49.9492C149.242 49.3633 149.848 48.9062 150.574 48.5781C151.301 48.25 152.152 48.0859 153.129 48.0859C154.168 48.0859 155.078 48.2852 155.859 48.6836C156.648 49.082 157.266 49.6523 157.711 50.3945C158.164 51.1289 158.395 52 158.402 53.0078H155.227C155.219 52.5859 155.129 52.2031 154.957 51.8594C154.793 51.5156 154.551 51.2422 154.23 51.0391C153.918 50.8281 153.531 50.7227 153.07 50.7227C152.578 50.7227 152.176 50.8281 151.863 51.0391C151.551 51.2422 151.309 51.5234 151.137 51.8828C150.965 52.2344 150.844 52.6367 150.773 53.0898C150.711 53.5352 150.68 54.0039 150.68 54.4961V54.8359C150.68 55.3281 150.711 55.8008 150.773 56.2539C150.836 56.707 150.953 57.1094 151.125 57.4609C151.305 57.8125 151.551 58.0898 151.863 58.293C152.176 58.4961 152.582 58.5977 153.082 58.5977ZM166.195 61.2344C165.211 61.2344 164.328 61.0781 163.547 60.7656C162.766 60.4453 162.102 60.0039 161.555 59.4414C161.016 58.8789 160.602 58.2266 160.312 57.4844C160.023 56.7344 159.879 55.9375 159.879 55.0938V54.625C159.879 53.6641 160.016 52.7852 160.289 51.9883C160.562 51.1914 160.953 50.5 161.461 49.9141C161.977 49.3281 162.602 48.8789 163.336 48.5664C164.07 48.2461 164.898 48.0859 165.82 48.0859C166.719 48.0859 167.516 48.2344 168.211 48.5312C168.906 48.8281 169.488 49.25 169.957 49.7969C170.434 50.3438 170.793 51 171.035 51.7656C171.277 52.5234 171.398 53.3672 171.398 54.2969V55.7031H161.32V53.4531H168.082V53.1953C168.082 52.7266 167.996 52.3086 167.824 51.9414C167.66 51.5664 167.41 51.2695 167.074 51.0508C166.738 50.832 166.309 50.7227 165.785 50.7227C165.34 50.7227 164.957 50.8203 164.637 51.0156C164.316 51.2109 164.055 51.4844 163.852 51.8359C163.656 52.1875 163.508 52.6016 163.406 53.0781C163.312 53.5469 163.266 54.0625 163.266 54.625V55.0938C163.266 55.6016 163.336 56.0703 163.477 56.5C163.625 56.9297 163.832 57.3008 164.098 57.6133C164.371 57.9258 164.699 58.168 165.082 58.3398C165.473 58.5117 165.914 58.5977 166.406 58.5977C167.016 58.5977 167.582 58.4805 168.105 58.2461C168.637 58.0039 169.094 57.6406 169.477 57.1562L171.117 58.9375C170.852 59.3203 170.488 59.6875 170.027 60.0391C169.574 60.3906 169.027 60.6797 168.387 60.9062C167.746 61.125 167.016 61.2344 166.195 61.2344ZM186.41 55.7617V43.9375H189.914V55.7617C189.914 56.9023 189.664 57.8828 189.164 58.7031C188.664 59.5156 187.98 60.1406 187.113 60.5781C186.254 61.0156 185.285 61.2344 184.207 61.2344C183.09 61.2344 182.102 61.0469 181.242 60.6719C180.383 60.2969 179.707 59.7227 179.215 58.9492C178.723 58.168 178.477 57.1797 178.477 55.9844H182.004C182.004 56.6094 182.09 57.1055 182.262 57.4727C182.441 57.8398 182.695 58.1016 183.023 58.2578C183.352 58.4141 183.746 58.4922 184.207 58.4922C184.652 58.4922 185.039 58.3867 185.367 58.1758C185.695 57.9648 185.949 57.6562 186.129 57.25C186.316 56.8438 186.41 56.3477 186.41 55.7617ZM192.164 54.7891V54.543C192.164 53.6133 192.297 52.7578 192.562 51.9766C192.828 51.1875 193.215 50.5039 193.723 49.9258C194.23 49.3477 194.855 48.8984 195.598 48.5781C196.34 48.25 197.191 48.0859 198.152 48.0859C199.113 48.0859 199.969 48.25 200.719 48.5781C201.469 48.8984 202.098 49.3477 202.605 49.9258C203.121 50.5039 203.512 51.1875 203.777 51.9766C204.043 52.7578 204.176 53.6133 204.176 54.543V54.7891C204.176 55.7109 204.043 56.5664 203.777 57.3555C203.512 58.1367 203.121 58.8203 202.605 59.4062C202.098 59.9844 201.473 60.4336 200.73 60.7539C199.988 61.0742 199.137 61.2344 198.176 61.2344C197.215 61.2344 196.359 61.0742 195.609 60.7539C194.867 60.4336 194.238 59.9844 193.723 59.4062C193.215 58.8203 192.828 58.1367 192.562 57.3555C192.297 56.5664 192.164 55.7109 192.164 54.7891ZM195.539 54.543V54.7891C195.539 55.3203 195.586 55.8164 195.68 56.2773C195.773 56.7383 195.922 57.1445 196.125 57.4961C196.336 57.8398 196.609 58.1094 196.945 58.3047C197.281 58.5 197.691 58.5977 198.176 58.5977C198.645 58.5977 199.047 58.5 199.383 58.3047C199.719 58.1094 199.988 57.8398 200.191 57.4961C200.395 57.1445 200.543 56.7383 200.637 56.2773C200.738 55.8164 200.789 55.3203 200.789 54.7891V54.543C200.789 54.0273 200.738 53.543 200.637 53.0898C200.543 52.6289 200.391 52.2227 200.18 51.8711C199.977 51.5117 199.707 51.2305 199.371 51.0273C199.035 50.8242 198.629 50.7227 198.152 50.7227C197.676 50.7227 197.27 50.8242 196.934 51.0273C196.605 51.2305 196.336 51.5117 196.125 51.8711C195.922 52.2227 195.773 52.6289 195.68 53.0898C195.586 53.543 195.539 54.0273 195.539 54.543ZM213.75 57.9648V48.3203H217.125V61H213.949L213.75 57.9648ZM214.125 55.3633L215.121 55.3398C215.121 56.1836 215.023 56.9688 214.828 57.6953C214.633 58.4141 214.34 59.0391 213.949 59.5703C213.559 60.0938 213.066 60.5039 212.473 60.8008C211.879 61.0898 211.18 61.2344 210.375 61.2344C209.758 61.2344 209.188 61.1484 208.664 60.9766C208.148 60.7969 207.703 60.5195 207.328 60.1445C206.961 59.7617 206.672 59.2734 206.461 58.6797C206.258 58.0781 206.156 57.3555 206.156 56.5117V48.3203H209.531V56.5352C209.531 56.9102 209.574 57.2266 209.66 57.4844C209.754 57.7422 209.883 57.9531 210.047 58.1172C210.211 58.2812 210.402 58.3984 210.621 58.4688C210.848 58.5391 211.098 58.5742 211.371 58.5742C212.066 58.5742 212.613 58.4336 213.012 58.1523C213.418 57.8711 213.703 57.4883 213.867 57.0039C214.039 56.5117 214.125 55.9648 214.125 55.3633ZM223.078 51.0859V61H219.703V48.3203H222.879L223.078 51.0859ZM226.898 48.2383L226.84 51.3672C226.676 51.3438 226.477 51.3242 226.242 51.3086C226.016 51.2852 225.809 51.2734 225.621 51.2734C225.145 51.2734 224.73 51.3359 224.379 51.4609C224.035 51.5781 223.746 51.7539 223.512 51.9883C223.285 52.2227 223.113 52.5078 222.996 52.8438C222.887 53.1797 222.824 53.5625 222.809 53.9922L222.129 53.7812C222.129 52.9609 222.211 52.207 222.375 51.5195C222.539 50.8242 222.777 50.2188 223.09 49.7031C223.41 49.1875 223.801 48.7891 224.262 48.5078C224.723 48.2266 225.25 48.0859 225.844 48.0859C226.031 48.0859 226.223 48.1016 226.418 48.1328C226.613 48.1562 226.773 48.1914 226.898 48.2383ZM231.797 51.0273V61H228.422V48.3203H231.586L231.797 51.0273ZM231.305 54.2148H230.391C230.391 53.2773 230.512 52.4336 230.754 51.6836C230.996 50.9258 231.336 50.2812 231.773 49.75C232.211 49.2109 232.73 48.8008 233.332 48.5195C233.941 48.2305 234.621 48.0859 235.371 48.0859C235.965 48.0859 236.508 48.1719 237 48.3438C237.492 48.5156 237.914 48.7891 238.266 49.1641C238.625 49.5391 238.898 50.0352 239.086 50.6523C239.281 51.2695 239.379 52.0234 239.379 52.9141V61H235.98V52.9023C235.98 52.3398 235.902 51.9023 235.746 51.5898C235.59 51.2773 235.359 51.0586 235.055 50.9336C234.758 50.8008 234.391 50.7344 233.953 50.7344C233.5 50.7344 233.105 50.8242 232.77 51.0039C232.441 51.1836 232.168 51.4336 231.949 51.7539C231.738 52.0664 231.578 52.4336 231.469 52.8555C231.359 53.2773 231.305 53.7305 231.305 54.2148ZM247.781 61.2344C246.797 61.2344 245.914 61.0781 245.133 60.7656C244.352 60.4453 243.688 60.0039 243.141 59.4414C242.602 58.8789 242.188 58.2266 241.898 57.4844C241.609 56.7344 241.465 55.9375 241.465 55.0938V54.625C241.465 53.6641 241.602 52.7852 241.875 51.9883C242.148 51.1914 242.539 50.5 243.047 49.9141C243.562 49.3281 244.188 48.8789 244.922 48.5664C245.656 48.2461 246.484 48.0859 247.406 48.0859C248.305 48.0859 249.102 48.2344 249.797 48.5312C250.492 48.8281 251.074 49.25 251.543 49.7969C252.02 50.3438 252.379 51 252.621 51.7656C252.863 52.5234 252.984 53.3672 252.984 54.2969V55.7031H242.906V53.4531H249.668V53.1953C249.668 52.7266 249.582 52.3086 249.41 51.9414C249.246 51.5664 248.996 51.2695 248.66 51.0508C248.324 50.832 247.895 50.7227 247.371 50.7227C246.926 50.7227 246.543 50.8203 246.223 51.0156C245.902 51.2109 245.641 51.4844 245.438 51.8359C245.242 52.1875 245.094 52.6016 244.992 53.0781C244.898 53.5469 244.852 54.0625 244.852 54.625V55.0938C244.852 55.6016 244.922 56.0703 245.062 56.5C245.211 56.9297 245.418 57.3008 245.684 57.6133C245.957 57.9258 246.285 58.168 246.668 58.3398C247.059 58.5117 247.5 58.5977 247.992 58.5977C248.602 58.5977 249.168 58.4805 249.691 58.2461C250.223 58.0039 250.68 57.6406 251.062 57.1562L252.703 58.9375C252.438 59.3203 252.074 59.6875 251.613 60.0391C251.16 60.3906 250.613 60.6797 249.973 60.9062C249.332 61.125 248.602 61.2344 247.781 61.2344ZM258.504 59.5703L261.867 48.3203H265.488L260.391 62.9102C260.281 63.2305 260.133 63.5742 259.945 63.9414C259.766 64.3086 259.52 64.6562 259.207 64.9844C258.902 65.3203 258.516 65.5938 258.047 65.8047C257.586 66.0156 257.02 66.1211 256.348 66.1211C256.027 66.1211 255.766 66.1016 255.562 66.0625C255.359 66.0234 255.117 65.9688 254.836 65.8984V63.4258C254.922 63.4258 255.012 63.4258 255.105 63.4258C255.199 63.4336 255.289 63.4375 255.375 63.4375C255.82 63.4375 256.184 63.3867 256.465 63.2852C256.746 63.1836 256.973 63.0273 257.145 62.8164C257.316 62.6133 257.453 62.3477 257.555 62.0195L258.504 59.5703ZM257.098 48.3203L259.852 57.5078L260.332 61.082L258.035 61.3281L253.477 48.3203H257.098Z" fill="#888888"/>
<path d="M106.688 119H99.1172L99.1641 112.672H106.688C108.25 112.672 109.57 112.297 110.648 111.547C111.742 110.797 112.57 109.68 113.133 108.195C113.711 106.695 114 104.852 114 102.664V101.188C114 99.5469 113.836 98.1094 113.508 96.875C113.195 95.625 112.727 94.5859 112.102 93.7578C111.477 92.9141 110.695 92.2812 109.758 91.8594C108.836 91.4375 107.773 91.2266 106.57 91.2266H98.9766V84.875H106.57C108.883 84.875 111 85.2734 112.922 86.0703C114.859 86.8516 116.531 87.9766 117.938 89.4453C119.359 90.8984 120.453 92.625 121.219 94.625C122 96.6094 122.391 98.8125 122.391 101.234V102.664C122.391 105.07 122 107.273 121.219 109.273C120.453 111.273 119.367 113 117.961 114.453C116.555 115.906 114.891 117.031 112.969 117.828C111.062 118.609 108.969 119 106.688 119ZM103.828 84.875V119H95.6016V84.875H103.828ZM139.477 112.625V102.172C139.477 101.453 139.375 100.836 139.172 100.32C138.969 99.8047 138.648 99.4062 138.211 99.125C137.773 98.8281 137.188 98.6797 136.453 98.6797C135.859 98.6797 135.352 98.7812 134.93 98.9844C134.508 99.1875 134.188 99.4922 133.969 99.8984C133.75 100.305 133.641 100.82 133.641 101.445H125.742C125.742 100.273 126 99.1875 126.516 98.1875C127.047 97.1719 127.797 96.2891 128.766 95.5391C129.75 94.7891 130.922 94.2109 132.281 93.8047C133.656 93.3828 135.188 93.1719 136.875 93.1719C138.891 93.1719 140.688 93.5078 142.266 94.1797C143.859 94.8516 145.117 95.8594 146.039 97.2031C146.961 98.5312 147.422 100.203 147.422 102.219V112.602C147.422 114.258 147.516 115.516 147.703 116.375C147.891 117.219 148.156 117.961 148.5 118.602V119H140.578C140.203 118.219 139.922 117.266 139.734 116.141C139.562 115 139.477 113.828 139.477 112.625ZM140.438 103.508L140.484 107.727H136.992C136.258 107.727 135.633 107.828 135.117 108.031C134.617 108.234 134.211 108.516 133.898 108.875C133.602 109.219 133.383 109.609 133.242 110.047C133.117 110.484 133.055 110.945 133.055 111.43C133.055 111.898 133.164 112.32 133.383 112.695C133.617 113.055 133.93 113.336 134.32 113.539C134.711 113.742 135.148 113.844 135.633 113.844C136.508 113.844 137.25 113.68 137.859 113.352C138.484 113.008 138.961 112.594 139.289 112.109C139.617 111.625 139.781 111.172 139.781 110.75L141.516 113.984C141.203 114.609 140.844 115.242 140.438 115.883C140.047 116.523 139.555 117.117 138.961 117.664C138.383 118.195 137.672 118.633 136.828 118.977C135.984 119.305 134.961 119.469 133.758 119.469C132.195 119.469 130.758 119.148 129.445 118.508C128.148 117.867 127.109 116.977 126.328 115.836C125.547 114.68 125.156 113.352 125.156 111.852C125.156 110.539 125.391 109.367 125.859 108.336C126.344 107.305 127.07 106.43 128.039 105.711C129.008 104.992 130.242 104.445 131.742 104.07C133.242 103.695 135.008 103.508 137.039 103.508H140.438ZM165.164 93.6406V99.125H149.883V93.6406H165.164ZM153.094 87.3359H160.992V110.727C160.992 111.398 161.07 111.922 161.227 112.297C161.383 112.656 161.648 112.914 162.023 113.07C162.414 113.211 162.93 113.281 163.57 113.281C164.023 113.281 164.398 113.273 164.695 113.258C164.992 113.227 165.273 113.188 165.539 113.141V118.789C164.867 119.008 164.164 119.172 163.43 119.281C162.695 119.406 161.914 119.469 161.086 119.469C159.398 119.469 157.953 119.203 156.75 118.672C155.562 118.141 154.656 117.305 154.031 116.164C153.406 115.023 153.094 113.539 153.094 111.711V87.3359ZM181.477 112.625V102.172C181.477 101.453 181.375 100.836 181.172 100.32C180.969 99.8047 180.648 99.4062 180.211 99.125C179.773 98.8281 179.188 98.6797 178.453 98.6797C177.859 98.6797 177.352 98.7812 176.93 98.9844C176.508 99.1875 176.188 99.4922 175.969 99.8984C175.75 100.305 175.641 100.82 175.641 101.445H167.742C167.742 100.273 168 99.1875 168.516 98.1875C169.047 97.1719 169.797 96.2891 170.766 95.5391C171.75 94.7891 172.922 94.2109 174.281 93.8047C175.656 93.3828 177.188 93.1719 178.875 93.1719C180.891 93.1719 182.688 93.5078 184.266 94.1797C185.859 94.8516 187.117 95.8594 188.039 97.2031C188.961 98.5312 189.422 100.203 189.422 102.219V112.602C189.422 114.258 189.516 115.516 189.703 116.375C189.891 117.219 190.156 117.961 190.5 118.602V119H182.578C182.203 118.219 181.922 117.266 181.734 116.141C181.562 115 181.477 113.828 181.477 112.625ZM182.438 103.508L182.484 107.727H178.992C178.258 107.727 177.633 107.828 177.117 108.031C176.617 108.234 176.211 108.516 175.898 108.875C175.602 109.219 175.383 109.609 175.242 110.047C175.117 110.484 175.055 110.945 175.055 111.43C175.055 111.898 175.164 112.32 175.383 112.695C175.617 113.055 175.93 113.336 176.32 113.539C176.711 113.742 177.148 113.844 177.633 113.844C178.508 113.844 179.25 113.68 179.859 113.352C180.484 113.008 180.961 112.594 181.289 112.109C181.617 111.625 181.781 111.172 181.781 110.75L183.516 113.984C183.203 114.609 182.844 115.242 182.438 115.883C182.047 116.523 181.555 117.117 180.961 117.664C180.383 118.195 179.672 118.633 178.828 118.977C177.984 119.305 176.961 119.469 175.758 119.469C174.195 119.469 172.758 119.148 171.445 118.508C170.148 117.867 169.109 116.977 168.328 115.836C167.547 114.68 167.156 113.352 167.156 111.852C167.156 110.539 167.391 109.367 167.859 108.336C168.344 107.305 169.07 106.43 170.039 105.711C171.008 104.992 172.242 104.445 173.742 104.07C175.242 103.695 177.008 103.508 179.039 103.508H182.438ZM193.875 83H201.773V112.766L200.953 119H193.875V83ZM217.336 106.039V106.531C217.336 108.453 217.141 110.203 216.75 111.781C216.359 113.359 215.758 114.727 214.945 115.883C214.133 117.023 213.109 117.906 211.875 118.531C210.641 119.156 209.18 119.469 207.492 119.469C205.961 119.469 204.648 119.141 203.555 118.484C202.461 117.812 201.547 116.891 200.812 115.719C200.078 114.531 199.484 113.164 199.031 111.617C198.578 110.055 198.219 108.383 197.953 106.602V106.016C198.219 104.25 198.578 102.594 199.031 101.047C199.484 99.4844 200.078 98.1172 200.812 96.9453C201.547 95.7578 202.453 94.8359 203.531 94.1797C204.625 93.5078 205.93 93.1719 207.445 93.1719C209.148 93.1719 210.617 93.4922 211.852 94.1328C213.102 94.7734 214.133 95.6719 214.945 96.8281C215.758 97.9844 216.359 99.3438 216.75 100.906C217.141 102.469 217.336 104.18 217.336 106.039ZM209.438 106.531V106.039C209.438 105.117 209.383 104.25 209.273 103.438C209.164 102.625 208.969 101.906 208.688 101.281C208.406 100.656 208.008 100.164 207.492 99.8047C206.977 99.4453 206.305 99.2656 205.477 99.2656C204.633 99.2656 203.922 99.4062 203.344 99.6875C202.781 99.9688 202.328 100.375 201.984 100.906C201.656 101.422 201.422 102.062 201.281 102.828C201.141 103.578 201.078 104.43 201.094 105.383V107.234C201.062 108.531 201.18 109.641 201.445 110.562C201.711 111.484 202.172 112.188 202.828 112.672C203.484 113.156 204.383 113.398 205.523 113.398C206.367 113.398 207.047 113.234 207.562 112.906C208.094 112.578 208.492 112.109 208.758 111.5C209.023 110.891 209.203 110.164 209.297 109.32C209.391 108.477 209.438 107.547 209.438 106.531ZM234.023 112.625V102.172C234.023 101.453 233.922 100.836 233.719 100.32C233.516 99.8047 233.195 99.4062 232.758 99.125C232.32 98.8281 231.734 98.6797 231 98.6797C230.406 98.6797 229.898 98.7812 229.477 98.9844C229.055 99.1875 228.734 99.4922 228.516 99.8984C228.297 100.305 228.188 100.82 228.188 101.445H220.289C220.289 100.273 220.547 99.1875 221.062 98.1875C221.594 97.1719 222.344 96.2891 223.312 95.5391C224.297 94.7891 225.469 94.2109 226.828 93.8047C228.203 93.3828 229.734 93.1719 231.422 93.1719C233.438 93.1719 235.234 93.5078 236.812 94.1797C238.406 94.8516 239.664 95.8594 240.586 97.2031C241.508 98.5312 241.969 100.203 241.969 102.219V112.602C241.969 114.258 242.062 115.516 242.25 116.375C242.438 117.219 242.703 117.961 243.047 118.602V119H235.125C234.75 118.219 234.469 117.266 234.281 116.141C234.109 115 234.023 113.828 234.023 112.625ZM234.984 103.508L235.031 107.727H231.539C230.805 107.727 230.18 107.828 229.664 108.031C229.164 108.234 228.758 108.516 228.445 108.875C228.148 109.219 227.93 109.609 227.789 110.047C227.664 110.484 227.602 110.945 227.602 111.43C227.602 111.898 227.711 112.32 227.93 112.695C228.164 113.055 228.477 113.336 228.867 113.539C229.258 113.742 229.695 113.844 230.18 113.844C231.055 113.844 231.797 113.68 232.406 113.352C233.031 113.008 233.508 112.594 233.836 112.109C234.164 111.625 234.328 111.172 234.328 110.75L236.062 113.984C235.75 114.609 235.391 115.242 234.984 115.883C234.594 116.523 234.102 117.117 233.508 117.664C232.93 118.195 232.219 118.633 231.375 118.977C230.531 119.305 229.508 119.469 228.305 119.469C226.742 119.469 225.305 119.148 223.992 118.508C222.695 117.867 221.656 116.977 220.875 115.836C220.094 114.68 219.703 113.352 219.703 111.852C219.703 110.539 219.938 109.367 220.406 108.336C220.891 107.305 221.617 106.43 222.586 105.711C223.555 104.992 224.789 104.445 226.289 104.07C227.789 103.695 229.555 103.508 231.586 103.508H234.984ZM259.641 111.875C259.641 111.438 259.492 111.062 259.195 110.75C258.914 110.422 258.414 110.125 257.695 109.859C256.977 109.578 255.969 109.297 254.672 109.016C253.438 108.75 252.273 108.398 251.18 107.961C250.102 107.523 249.156 106.992 248.344 106.367C247.531 105.742 246.891 105 246.422 104.141C245.969 103.281 245.742 102.297 245.742 101.188C245.742 100.109 245.969 99.0938 246.422 98.1406C246.891 97.1719 247.57 96.3203 248.461 95.5859C249.367 94.8359 250.469 94.25 251.766 93.8281C253.062 93.3906 254.539 93.1719 256.195 93.1719C258.477 93.1719 260.445 93.5234 262.102 94.2266C263.758 94.9141 265.031 95.8828 265.922 97.1328C266.828 98.3672 267.281 99.7969 267.281 101.422H259.383C259.383 100.781 259.273 100.234 259.055 99.7812C258.852 99.3281 258.516 98.9844 258.047 98.75C257.578 98.5 256.953 98.375 256.172 98.375C255.625 98.375 255.125 98.4766 254.672 98.6797C254.234 98.8828 253.883 99.1641 253.617 99.5234C253.352 99.8828 253.219 100.305 253.219 100.789C253.219 101.133 253.297 101.445 253.453 101.727C253.625 101.992 253.883 102.242 254.227 102.477C254.57 102.695 255.008 102.898 255.539 103.086C256.07 103.258 256.711 103.414 257.461 103.555C259.164 103.867 260.758 104.312 262.242 104.891C263.727 105.469 264.93 106.289 265.852 107.352C266.789 108.414 267.258 109.844 267.258 111.641C267.258 112.766 267 113.805 266.484 114.758C265.969 115.695 265.227 116.523 264.258 117.242C263.289 117.945 262.125 118.492 260.766 118.883C259.406 119.273 257.875 119.469 256.172 119.469C253.75 119.469 251.703 119.039 250.031 118.18C248.359 117.305 247.094 116.211 246.234 114.898C245.391 113.57 244.969 112.227 244.969 110.867H252.328C252.359 111.648 252.547 112.289 252.891 112.789C253.25 113.289 253.727 113.656 254.32 113.891C254.914 114.125 255.602 114.242 256.383 114.242C257.102 114.242 257.695 114.141 258.164 113.938C258.648 113.734 259.016 113.461 259.266 113.117C259.516 112.758 259.641 112.344 259.641 111.875ZM283.242 119.469C281.18 119.469 279.336 119.148 277.711 118.508C276.086 117.852 274.711 116.953 273.586 115.812C272.477 114.672 271.625 113.359 271.031 111.875C270.453 110.391 270.164 108.82 270.164 107.164V106.273C270.164 104.414 270.422 102.695 270.938 101.117C271.453 99.5234 272.219 98.1328 273.234 96.9453C274.25 95.7578 275.523 94.8359 277.055 94.1797C278.586 93.5078 280.367 93.1719 282.398 93.1719C284.195 93.1719 285.805 93.4609 287.227 94.0391C288.648 94.6172 289.852 95.4453 290.836 96.5234C291.836 97.6016 292.594 98.9062 293.109 100.438C293.641 101.969 293.906 103.688 293.906 105.594V108.805H273.188V103.859H286.195V103.25C286.211 102.406 286.062 101.688 285.75 101.094C285.453 100.5 285.016 100.047 284.438 99.7344C283.859 99.4219 283.156 99.2656 282.328 99.2656C281.469 99.2656 280.758 99.4531 280.195 99.8281C279.648 100.203 279.219 100.719 278.906 101.375C278.609 102.016 278.398 102.758 278.273 103.602C278.148 104.445 278.086 105.336 278.086 106.273V107.164C278.086 108.102 278.211 108.953 278.461 109.719C278.727 110.484 279.102 111.141 279.586 111.688C280.086 112.219 280.68 112.633 281.367 112.93C282.07 113.227 282.867 113.375 283.758 113.375C284.836 113.375 285.898 113.172 286.945 112.766C287.992 112.359 288.891 111.688 289.641 110.75L293.227 115.016C292.711 115.75 291.977 116.461 291.023 117.148C290.086 117.836 288.961 118.398 287.648 118.836C286.336 119.258 284.867 119.469 283.242 119.469ZM320.531 119H312.961L313.008 112.672H320.531C322.094 112.672 323.414 112.297 324.492 111.547C325.586 110.797 326.414 109.68 326.977 108.195C327.555 106.695 327.844 104.852 327.844 102.664V101.188C327.844 99.5469 327.68 98.1094 327.352 96.875C327.039 95.625 326.57 94.5859 325.945 93.7578C325.32 92.9141 324.539 92.2812 323.602 91.8594C322.68 91.4375 321.617 91.2266 320.414 91.2266H312.82V84.875H320.414C322.727 84.875 324.844 85.2734 326.766 86.0703C328.703 86.8516 330.375 87.9766 331.781 89.4453C333.203 90.8984 334.297 92.625 335.062 94.625C335.844 96.6094 336.234 98.8125 336.234 101.234V102.664C336.234 105.07 335.844 107.273 335.062 109.273C334.297 111.273 333.211 113 331.805 114.453C330.398 115.906 328.734 117.031 326.812 117.828C324.906 118.609 322.812 119 320.531 119ZM317.672 84.875V119H309.445V84.875H317.672ZM352.43 119.469C350.367 119.469 348.523 119.148 346.898 118.508C345.273 117.852 343.898 116.953 342.773 115.812C341.664 114.672 340.812 113.359 340.219 111.875C339.641 110.391 339.352 108.82 339.352 107.164V106.273C339.352 104.414 339.609 102.695 340.125 101.117C340.641 99.5234 341.406 98.1328 342.422 96.9453C343.438 95.7578 344.711 94.8359 346.242 94.1797C347.773 93.5078 349.555 93.1719 351.586 93.1719C353.383 93.1719 354.992 93.4609 356.414 94.0391C357.836 94.6172 359.039 95.4453 360.023 96.5234C361.023 97.6016 361.781 98.9062 362.297 100.438C362.828 101.969 363.094 103.688 363.094 105.594V108.805H342.375V103.859H355.383V103.25C355.398 102.406 355.25 101.688 354.938 101.094C354.641 100.5 354.203 100.047 353.625 99.7344C353.047 99.4219 352.344 99.2656 351.516 99.2656C350.656 99.2656 349.945 99.4531 349.383 99.8281C348.836 100.203 348.406 100.719 348.094 101.375C347.797 102.016 347.586 102.758 347.461 103.602C347.336 104.445 347.273 105.336 347.273 106.273V107.164C347.273 108.102 347.398 108.953 347.648 109.719C347.914 110.484 348.289 111.141 348.773 111.688C349.273 112.219 349.867 112.633 350.555 112.93C351.258 113.227 352.055 113.375 352.945 113.375C354.023 113.375 355.086 113.172 356.133 112.766C357.18 112.359 358.078 111.688 358.828 110.75L362.414 115.016C361.898 115.75 361.164 116.461 360.211 117.148C359.273 117.836 358.148 118.398 356.836 118.836C355.523 119.258 354.055 119.469 352.43 119.469ZM379.594 111.875C379.594 111.438 379.445 111.062 379.148 110.75C378.867 110.422 378.367 110.125 377.648 109.859C376.93 109.578 375.922 109.297 374.625 109.016C373.391 108.75 372.227 108.398 371.133 107.961C370.055 107.523 369.109 106.992 368.297 106.367C367.484 105.742 366.844 105 366.375 104.141C365.922 103.281 365.695 102.297 365.695 101.188C365.695 100.109 365.922 99.0938 366.375 98.1406C366.844 97.1719 367.523 96.3203 368.414 95.5859C369.32 94.8359 370.422 94.25 371.719 93.8281C373.016 93.3906 374.492 93.1719 376.148 93.1719C378.43 93.1719 380.398 93.5234 382.055 94.2266C383.711 94.9141 384.984 95.8828 385.875 97.1328C386.781 98.3672 387.234 99.7969 387.234 101.422H379.336C379.336 100.781 379.227 100.234 379.008 99.7812C378.805 99.3281 378.469 98.9844 378 98.75C377.531 98.5 376.906 98.375 376.125 98.375C375.578 98.375 375.078 98.4766 374.625 98.6797C374.188 98.8828 373.836 99.1641 373.57 99.5234C373.305 99.8828 373.172 100.305 373.172 100.789C373.172 101.133 373.25 101.445 373.406 101.727C373.578 101.992 373.836 102.242 374.18 102.477C374.523 102.695 374.961 102.898 375.492 103.086C376.023 103.258 376.664 103.414 377.414 103.555C379.117 103.867 380.711 104.312 382.195 104.891C383.68 105.469 384.883 106.289 385.805 107.352C386.742 108.414 387.211 109.844 387.211 111.641C387.211 112.766 386.953 113.805 386.438 114.758C385.922 115.695 385.18 116.523 384.211 117.242C383.242 117.945 382.078 118.492 380.719 118.883C379.359 119.273 377.828 119.469 376.125 119.469C373.703 119.469 371.656 119.039 369.984 118.18C368.312 117.305 367.047 116.211 366.188 114.898C365.344 113.57 364.922 112.227 364.922 110.867H372.281C372.312 111.648 372.5 112.289 372.844 112.789C373.203 113.289 373.68 113.656 374.273 113.891C374.867 114.125 375.555 114.242 376.336 114.242C377.055 114.242 377.648 114.141 378.117 113.938C378.602 113.734 378.969 113.461 379.219 113.117C379.469 112.758 379.594 112.344 379.594 111.875ZM399.258 93.6406V119H391.336V93.6406H399.258ZM390.867 87.1016C390.867 85.9766 391.273 85.0547 392.086 84.3359C392.898 83.6172 393.953 83.2578 395.25 83.2578C396.547 83.2578 397.602 83.6172 398.414 84.3359C399.227 85.0547 399.633 85.9766 399.633 87.1016C399.633 88.2266 399.227 89.1484 398.414 89.8672C397.602 90.5859 396.547 90.9453 395.25 90.9453C393.953 90.9453 392.898 90.5859 392.086 89.8672C391.273 89.1484 390.867 88.2266 390.867 87.1016ZM420.07 93.6406H427.242V118.016C427.242 120.359 426.703 122.344 425.625 123.969C424.547 125.609 423.039 126.852 421.102 127.695C419.18 128.555 416.93 128.984 414.352 128.984C413.211 128.984 412.047 128.836 410.859 128.539C409.672 128.258 408.562 127.836 407.531 127.273C406.5 126.711 405.633 126.016 404.93 125.188L408.234 120.547C408.875 121.266 409.68 121.875 410.648 122.375C411.617 122.891 412.758 123.148 414.07 123.148C415.211 123.148 416.164 122.945 416.93 122.539C417.711 122.133 418.305 121.539 418.711 120.758C419.117 119.992 419.32 119.062 419.32 117.969V99.6406L420.07 93.6406ZM403.219 106.625V106.133C403.219 104.211 403.453 102.461 403.922 100.883C404.406 99.2891 405.094 97.9219 405.984 96.7812C406.891 95.625 407.984 94.7344 409.266 94.1094C410.547 93.4844 411.992 93.1719 413.602 93.1719C415.336 93.1719 416.758 93.5078 417.867 94.1797C418.992 94.8359 419.891 95.7578 420.562 96.9453C421.25 98.1328 421.781 99.5234 422.156 101.117C422.547 102.695 422.875 104.398 423.141 106.227V106.812C422.875 108.531 422.508 110.156 422.039 111.688C421.586 113.203 420.992 114.547 420.258 115.719C419.523 116.891 418.602 117.812 417.492 118.484C416.398 119.141 415.086 119.469 413.555 119.469C411.961 119.469 410.523 119.148 409.242 118.508C407.977 117.867 406.891 116.969 405.984 115.812C405.094 114.656 404.406 113.297 403.922 111.734C403.453 110.172 403.219 108.469 403.219 106.625ZM411.117 106.133V106.625C411.117 107.578 411.203 108.461 411.375 109.273C411.562 110.086 411.844 110.805 412.219 111.43C412.594 112.039 413.055 112.516 413.602 112.859C414.164 113.203 414.82 113.375 415.57 113.375C416.711 113.375 417.633 113.133 418.336 112.648C419.039 112.164 419.547 111.477 419.859 110.586C420.172 109.695 420.305 108.648 420.258 107.445V105.594C420.289 104.562 420.219 103.656 420.047 102.875C419.875 102.078 419.602 101.414 419.227 100.883C418.867 100.352 418.383 99.9531 417.773 99.6875C417.18 99.4062 416.461 99.2656 415.617 99.2656C414.883 99.2656 414.234 99.4375 413.672 99.7812C413.109 100.125 412.641 100.609 412.266 101.234C411.891 101.844 411.602 102.57 411.398 103.414C411.211 104.242 411.117 105.148 411.117 106.133ZM439.547 99.0547V119H431.648V93.6406H439.055L439.547 99.0547ZM438.609 105.453L436.758 105.5C436.758 103.562 436.992 101.836 437.461 100.32C437.93 98.7891 438.594 97.4922 439.453 96.4297C440.312 95.3672 441.336 94.5625 442.523 94.0156C443.727 93.4531 445.062 93.1719 446.531 93.1719C447.703 93.1719 448.773 93.3438 449.742 93.6875C450.727 94.0312 451.57 94.5859 452.273 95.3516C452.992 96.1172 453.539 97.1328 453.914 98.3984C454.305 99.6484 454.5 101.195 454.5 103.039V119H446.555V103.016C446.555 102 446.414 101.227 446.133 100.695C445.852 100.148 445.445 99.7734 444.914 99.5703C444.383 99.3672 443.734 99.2656 442.969 99.2656C442.156 99.2656 441.469 99.4219 440.906 99.7344C440.344 100.047 439.891 100.484 439.547 101.047C439.219 101.594 438.977 102.242 438.82 102.992C438.68 103.742 438.609 104.562 438.609 105.453Z" fill="black"/>
<path d="M1134 0H1348C1356.28 0 1363 6.71573 1363 15V148C1363 156.284 1356.28 163 1348 163H1134V0Z" fill="black"/>
<path d="M1217.58 64.1667C1217.58 66.0281 1218.51 67.7419 1220.09 69.2434C1221.67 70.7429 1223.94 72.0619 1226.71 73.1553C1232.26 75.343 1239.93 76.6667 1248.5 76.6667C1257.07 76.6667 1264.74 75.343 1270.29 73.1553C1273.06 72.0619 1275.33 70.7429 1276.91 69.2434C1278.49 67.7419 1279.42 66.0281 1279.42 64.1667C1279.42 62.3052 1278.49 60.5914 1276.91 59.0899C1275.33 57.5904 1273.06 56.2714 1270.29 55.178C1264.74 52.9903 1257.07 51.6667 1248.5 51.6667C1239.93 51.6667 1232.26 52.9903 1226.71 55.178C1223.94 56.2714 1221.67 57.5904 1220.09 59.0899C1218.51 60.5914 1217.58 62.3052 1217.58 64.1667ZM1221.62 64.1667C1221.62 63.0283 1222.37 61.8878 1223.88 60.7921C1225.37 59.7041 1227.52 58.7293 1230.11 57.9144C1235.28 56.2864 1242.07 55.3333 1248.5 55.3333C1254.93 55.3333 1261.72 56.2864 1266.89 57.9144C1269.48 58.7293 1271.63 59.7041 1273.12 60.7921C1274.63 61.8878 1275.37 63.0283 1275.37 64.1667C1275.37 65.305 1274.63 66.4455 1273.12 67.5412C1271.63 68.6292 1269.48 69.604 1266.89 70.4189C1261.72 72.0469 1254.93 73 1248.5 73C1242.07 73 1235.28 72.0469 1230.11 70.4189C1227.52 69.604 1225.37 68.6292 1223.88 67.5412C1222.37 66.4455 1221.62 65.305 1221.62 64.1667Z" fill="white" stroke="white"/>
<path d="M1217.58 74.8333C1217.58 76.6948 1218.51 78.4086 1220.09 79.9101C1221.67 81.4096 1223.94 82.7286 1226.71 83.822C1232.26 86.0097 1239.93 87.3333 1248.5 87.3333C1257.07 87.3333 1264.74 86.0097 1270.29 83.822C1273.06 82.7286 1275.33 81.4096 1276.91 79.9101C1278.49 78.4086 1279.42 76.6948 1279.42 74.8333V64.1667C1279.42 63.6576 1279.19 63.1851 1278.8 62.8479C1278.42 62.5126 1277.91 62.3333 1277.4 62.3333C1276.88 62.3333 1276.37 62.5126 1275.99 62.8479C1275.61 63.1851 1275.37 63.6576 1275.37 64.1667V74.8333C1275.37 75.9717 1274.63 77.1122 1273.12 78.2079C1271.63 79.2959 1269.48 80.2707 1266.89 81.0856C1261.72 82.7136 1254.93 83.6667 1248.5 83.6667C1242.07 83.6667 1235.28 82.7136 1230.11 81.0856C1227.52 80.2707 1225.37 79.2959 1223.88 78.2079C1222.37 77.1122 1221.62 75.9717 1221.62 74.8333V64.1667C1221.62 63.6576 1221.39 63.1851 1221.01 62.8479C1220.63 62.5126 1220.12 62.3333 1219.6 62.3333C1219.09 62.3333 1218.58 62.5126 1218.2 62.8479C1217.81 63.1851 1217.58 63.6576 1217.58 64.1667V74.8333Z" fill="white" stroke="white"/>
<path d="M1217.58 86.8333C1217.58 88.6948 1218.51 90.4086 1220.09 91.9101C1221.67 93.4095 1223.94 94.7286 1226.71 95.8219C1232.26 98.0097 1239.93 99.3333 1248.5 99.3333C1257.07 99.3333 1264.74 98.0097 1270.29 95.8219C1273.06 94.7286 1275.33 93.4095 1276.91 91.9101C1278.49 90.4086 1279.42 88.6948 1279.42 86.8333V74.8333C1279.42 74.3243 1279.19 73.8517 1278.8 73.5146C1278.42 73.1792 1277.91 73 1277.4 73C1276.88 73 1276.37 73.1792 1275.99 73.5146C1275.61 73.8517 1275.37 74.3243 1275.37 74.8333V86.8333C1275.37 87.9717 1274.63 89.1122 1273.12 90.2079C1271.63 91.2958 1269.48 92.2707 1266.89 93.0856C1261.72 94.7136 1254.93 95.6667 1248.5 95.6667C1242.07 95.6667 1235.28 94.7136 1230.11 93.0856C1227.52 92.2707 1225.37 91.2958 1223.88 90.2079C1222.37 89.1122 1221.62 87.9717 1221.62 86.8333V74.8333C1221.62 74.3243 1221.39 73.8517 1221.01 73.5146C1220.63 73.1792 1220.12 73 1219.6 73C1219.09 73 1218.58 73.1792 1218.2 73.5146C1217.81 73.8517 1217.58 74.3243 1217.58 74.8333V86.8333Z" fill="white" stroke="white"/>
<path d="M1217.58 98.8333C1217.58 100.695 1218.51 102.409 1220.09 103.91C1221.67 105.41 1223.94 106.729 1226.71 107.822C1232.26 110.01 1239.93 111.333 1248.5 111.333C1257.07 111.333 1264.74 110.01 1270.29 107.822C1273.06 106.729 1275.33 105.41 1276.91 103.91C1278.49 102.409 1279.42 100.695 1279.42 98.8333V86.8333C1279.42 86.3243 1279.19 85.8517 1278.8 85.5146C1278.42 85.1792 1277.91 85 1277.4 85C1276.88 85 1276.37 85.1792 1275.99 85.5146C1275.61 85.8517 1275.37 86.3243 1275.37 86.8333V98.8333C1275.37 99.9717 1274.63 101.112 1273.12 102.208C1271.63 103.296 1269.48 104.271 1266.89 105.086C1261.72 106.714 1254.93 107.667 1248.5 107.667C1242.07 107.667 1235.28 106.714 1230.11 105.086C1227.52 104.271 1225.37 103.296 1223.88 102.208C1222.37 101.112 1221.62 99.9717 1221.62 98.8333V86.8333C1221.62 86.3243 1221.39 85.8517 1221.01 85.5146C1220.63 85.1792 1220.12 85 1219.6 85C1219.09 85 1218.58 85.1792 1218.2 85.5146C1217.81 85.8517 1217.58 86.3243 1217.58 86.8333V98.8333Z" fill="white" stroke="white"/>
</svg>
