<svg width="1363" height="163" viewBox="0 0 1363 163" fill="none" xmlns="http://www.w3.org/2000/svg">
<path d="M0 15C0 6.71573 6.71573 0 15 0H37V163H15C6.71573 163 0 156.284 0 148V15Z" fill="#424242"/>
<rect width="1097" height="163" transform="translate(37)" fill="#F0F0F0"/>
<path d="M101.906 53.9219L94.3945 51.2383V48.0859L104.602 52.375V54.6367L101.906 53.9219ZM94.3945 56.1719L101.918 53.4297L104.602 52.7852V55.0352L94.3945 59.3242V56.1719ZM121.781 56.5352C121.781 56.2305 121.734 55.957 121.641 55.7148C121.555 55.4648 121.391 55.2383 121.148 55.0352C120.906 54.8242 120.566 54.6172 120.129 54.4141C119.691 54.2109 119.125 54 118.43 53.7812C117.656 53.5312 116.922 53.25 116.227 52.9375C115.539 52.625 114.93 52.2617 114.398 51.8477C113.875 51.4258 113.461 50.9375 113.156 50.3828C112.859 49.8281 112.711 49.1836 112.711 48.4492C112.711 47.7383 112.867 47.0938 113.18 46.5156C113.492 45.9297 113.93 45.4297 114.492 45.0156C115.055 44.5938 115.719 44.2695 116.484 44.043C117.258 43.8164 118.105 43.7031 119.027 43.7031C120.285 43.7031 121.383 43.9297 122.32 44.3828C123.258 44.8359 123.984 45.457 124.5 46.2461C125.023 47.0352 125.285 47.9375 125.285 48.9531H121.793C121.793 48.4531 121.688 48.0156 121.477 47.6406C121.273 47.2578 120.961 46.957 120.539 46.7383C120.125 46.5195 119.602 46.4102 118.969 46.4102C118.359 46.4102 117.852 46.5039 117.445 46.6914C117.039 46.8711 116.734 47.1172 116.531 47.4297C116.328 47.7344 116.227 48.0781 116.227 48.4609C116.227 48.75 116.297 49.0117 116.438 49.2461C116.586 49.4805 116.805 49.6992 117.094 49.9023C117.383 50.1055 117.738 50.2969 118.16 50.4766C118.582 50.6562 119.07 50.832 119.625 51.0039C120.555 51.2852 121.371 51.6016 122.074 51.9531C122.785 52.3047 123.379 52.6992 123.855 53.1367C124.332 53.5742 124.691 54.0703 124.934 54.625C125.176 55.1797 125.297 55.8086 125.297 56.5117C125.297 57.2539 125.152 57.918 124.863 58.5039C124.574 59.0898 124.156 59.5859 123.609 59.9922C123.062 60.3984 122.41 60.707 121.652 60.918C120.895 61.1289 120.047 61.2344 119.109 61.2344C118.266 61.2344 117.434 61.125 116.613 60.9062C115.793 60.6797 115.047 60.3398 114.375 59.8867C113.711 59.4336 113.18 58.8555 112.781 58.1523C112.383 57.4492 112.184 56.6172 112.184 55.6562H115.711C115.711 56.1875 115.793 56.6367 115.957 57.0039C116.121 57.3711 116.352 57.668 116.648 57.8945C116.953 58.1211 117.312 58.2852 117.727 58.3867C118.148 58.4883 118.609 58.5391 119.109 58.5391C119.719 58.5391 120.219 58.4531 120.609 58.2812C121.008 58.1094 121.301 57.8711 121.488 57.5664C121.684 57.2617 121.781 56.918 121.781 56.5352ZM130.852 50.7578V65.875H127.477V48.3203H130.605L130.852 50.7578ZM138.879 54.5195V54.7656C138.879 55.6875 138.77 56.543 138.551 57.332C138.34 58.1211 138.027 58.8086 137.613 59.3945C137.199 59.9727 136.684 60.4258 136.066 60.7539C135.457 61.0742 134.754 61.2344 133.957 61.2344C133.184 61.2344 132.512 61.0781 131.941 60.7656C131.371 60.4531 130.891 60.0156 130.5 59.4531C130.117 58.8828 129.809 58.2227 129.574 57.4727C129.34 56.7227 129.16 55.918 129.035 55.0586V54.4141C129.16 53.4922 129.34 52.6484 129.574 51.8828C129.809 51.1094 130.117 50.4414 130.5 49.8789C130.891 49.3086 131.367 48.8672 131.93 48.5547C132.5 48.2422 133.168 48.0859 133.934 48.0859C134.738 48.0859 135.445 48.2383 136.055 48.543C136.672 48.8477 137.188 49.2852 137.602 49.8555C138.023 50.4258 138.34 51.1055 138.551 51.8945C138.77 52.6836 138.879 53.5586 138.879 54.5195ZM135.492 54.7656V54.5195C135.492 53.9805 135.445 53.4844 135.352 53.0312C135.266 52.5703 135.125 52.168 134.93 51.8242C134.742 51.4805 134.492 51.2148 134.18 51.0273C133.875 50.832 133.504 50.7344 133.066 50.7344C132.605 50.7344 132.211 50.8086 131.883 50.957C131.562 51.1055 131.301 51.3203 131.098 51.6016C130.895 51.8828 130.742 52.2188 130.641 52.6094C130.539 53 130.477 53.4414 130.453 53.9336V55.5625C130.492 56.1406 130.602 56.6602 130.781 57.1211C130.961 57.5742 131.238 57.9336 131.613 58.1992C131.988 58.4648 132.48 58.5977 133.09 58.5977C133.535 58.5977 133.91 58.5 134.215 58.3047C134.52 58.1016 134.766 57.8242 134.953 57.4727C135.148 57.1211 135.285 56.7148 135.363 56.2539C135.449 55.793 135.492 55.2969 135.492 54.7656ZM147.82 58.1406V52.4922C147.82 52.0859 147.754 51.7383 147.621 51.4492C147.488 51.1523 147.281 50.9219 147 50.7578C146.727 50.5938 146.371 50.5117 145.934 50.5117C145.559 50.5117 145.234 50.5781 144.961 50.7109C144.688 50.8359 144.477 51.0195 144.328 51.2617C144.18 51.4961 144.105 51.7734 144.105 52.0938H140.73C140.73 51.5547 140.855 51.043 141.105 50.5586C141.355 50.0742 141.719 49.6484 142.195 49.2812C142.672 48.9062 143.238 48.6133 143.895 48.4023C144.559 48.1914 145.301 48.0859 146.121 48.0859C147.105 48.0859 147.98 48.25 148.746 48.5781C149.512 48.9062 150.113 49.3984 150.551 50.0547C150.996 50.7109 151.219 51.5312 151.219 52.5156V57.9414C151.219 58.6367 151.262 59.207 151.348 59.6523C151.434 60.0898 151.559 60.4727 151.723 60.8008V61H148.312C148.148 60.6562 148.023 60.2266 147.938 59.7109C147.859 59.1875 147.82 58.6641 147.82 58.1406ZM148.266 53.2773L148.289 55.1875H146.402C145.957 55.1875 145.57 55.2383 145.242 55.3398C144.914 55.4414 144.645 55.5859 144.434 55.7734C144.223 55.9531 144.066 56.1641 143.965 56.4062C143.871 56.6484 143.824 56.9141 143.824 57.2031C143.824 57.4922 143.891 57.7539 144.023 57.9883C144.156 58.2148 144.348 58.3945 144.598 58.5273C144.848 58.6523 145.141 58.7148 145.477 58.7148C145.984 58.7148 146.426 58.6133 146.801 58.4102C147.176 58.207 147.465 57.957 147.668 57.6602C147.879 57.3633 147.988 57.082 147.996 56.8164L148.887 58.2461C148.762 58.5664 148.59 58.8984 148.371 59.2422C148.16 59.5859 147.891 59.9102 147.562 60.2148C147.234 60.5117 146.84 60.7578 146.379 60.9531C145.918 61.1406 145.371 61.2344 144.738 61.2344C143.934 61.2344 143.203 61.0742 142.547 60.7539C141.898 60.4258 141.383 59.9766 141 59.4062C140.625 58.8281 140.438 58.1719 140.438 57.4375C140.438 56.7734 140.562 56.1836 140.812 55.668C141.062 55.1523 141.43 54.7188 141.914 54.3672C142.406 54.0078 143.02 53.7383 143.754 53.5586C144.488 53.3711 145.34 53.2773 146.309 53.2773H148.266ZM159.059 58.5977C159.473 58.5977 159.84 58.5195 160.16 58.3633C160.48 58.1992 160.73 57.9727 160.91 57.6836C161.098 57.3867 161.195 57.0391 161.203 56.6406H164.379C164.371 57.5312 164.133 58.3242 163.664 59.0195C163.195 59.707 162.566 60.25 161.777 60.6484C160.988 61.0391 160.105 61.2344 159.129 61.2344C158.145 61.2344 157.285 61.0703 156.551 60.7422C155.824 60.4141 155.219 59.9609 154.734 59.3828C154.25 58.7969 153.887 58.1172 153.645 57.3438C153.402 56.5625 153.281 55.7266 153.281 54.8359V54.4961C153.281 53.5977 153.402 52.7617 153.645 51.9883C153.887 51.207 154.25 50.5273 154.734 49.9492C155.219 49.3633 155.824 48.9062 156.551 48.5781C157.277 48.25 158.129 48.0859 159.105 48.0859C160.145 48.0859 161.055 48.2852 161.836 48.6836C162.625 49.082 163.242 49.6523 163.688 50.3945C164.141 51.1289 164.371 52 164.379 53.0078H161.203C161.195 52.5859 161.105 52.2031 160.934 51.8594C160.77 51.5156 160.527 51.2422 160.207 51.0391C159.895 50.8281 159.508 50.7227 159.047 50.7227C158.555 50.7227 158.152 50.8281 157.84 51.0391C157.527 51.2422 157.285 51.5234 157.113 51.8828C156.941 52.2344 156.82 52.6367 156.75 53.0898C156.688 53.5352 156.656 54.0039 156.656 54.4961V54.8359C156.656 55.3281 156.688 55.8008 156.75 56.2539C156.812 56.707 156.93 57.1094 157.102 57.4609C157.281 57.8125 157.527 58.0898 157.84 58.293C158.152 58.4961 158.559 58.5977 159.059 58.5977ZM172.172 61.2344C171.188 61.2344 170.305 61.0781 169.523 60.7656C168.742 60.4453 168.078 60.0039 167.531 59.4414C166.992 58.8789 166.578 58.2266 166.289 57.4844C166 56.7344 165.855 55.9375 165.855 55.0938V54.625C165.855 53.6641 165.992 52.7852 166.266 51.9883C166.539 51.1914 166.93 50.5 167.438 49.9141C167.953 49.3281 168.578 48.8789 169.312 48.5664C170.047 48.2461 170.875 48.0859 171.797 48.0859C172.695 48.0859 173.492 48.2344 174.188 48.5312C174.883 48.8281 175.465 49.25 175.934 49.7969C176.41 50.3438 176.77 51 177.012 51.7656C177.254 52.5234 177.375 53.3672 177.375 54.2969V55.7031H167.297V53.4531H174.059V53.1953C174.059 52.7266 173.973 52.3086 173.801 51.9414C173.637 51.5664 173.387 51.2695 173.051 51.0508C172.715 50.832 172.285 50.7227 171.762 50.7227C171.316 50.7227 170.934 50.8203 170.613 51.0156C170.293 51.2109 170.031 51.4844 169.828 51.8359C169.633 52.1875 169.484 52.6016 169.383 53.0781C169.289 53.5469 169.242 54.0625 169.242 54.625V55.0938C169.242 55.6016 169.312 56.0703 169.453 56.5C169.602 56.9297 169.809 57.3008 170.074 57.6133C170.348 57.9258 170.676 58.168 171.059 58.3398C171.449 58.5117 171.891 58.5977 172.383 58.5977C172.992 58.5977 173.559 58.4805 174.082 58.2461C174.613 58.0039 175.07 57.6406 175.453 57.1562L177.094 58.9375C176.828 59.3203 176.465 59.6875 176.004 60.0391C175.551 60.3906 175.004 60.6797 174.363 60.9062C173.723 61.125 172.992 61.2344 172.172 61.2344ZM192.387 55.7617V43.9375H195.891V55.7617C195.891 56.9023 195.641 57.8828 195.141 58.7031C194.641 59.5156 193.957 60.1406 193.09 60.5781C192.23 61.0156 191.262 61.2344 190.184 61.2344C189.066 61.2344 188.078 61.0469 187.219 60.6719C186.359 60.2969 185.684 59.7227 185.191 58.9492C184.699 58.168 184.453 57.1797 184.453 55.9844H187.98C187.98 56.6094 188.066 57.1055 188.238 57.4727C188.418 57.8398 188.672 58.1016 189 58.2578C189.328 58.4141 189.723 58.4922 190.184 58.4922C190.629 58.4922 191.016 58.3867 191.344 58.1758C191.672 57.9648 191.926 57.6562 192.105 57.25C192.293 56.8438 192.387 56.3477 192.387 55.7617ZM198.141 54.7891V54.543C198.141 53.6133 198.273 52.7578 198.539 51.9766C198.805 51.1875 199.191 50.5039 199.699 49.9258C200.207 49.3477 200.832 48.8984 201.574 48.5781C202.316 48.25 203.168 48.0859 204.129 48.0859C205.09 48.0859 205.945 48.25 206.695 48.5781C207.445 48.8984 208.074 49.3477 208.582 49.9258C209.098 50.5039 209.488 51.1875 209.754 51.9766C210.02 52.7578 210.152 53.6133 210.152 54.543V54.7891C210.152 55.7109 210.02 56.5664 209.754 57.3555C209.488 58.1367 209.098 58.8203 208.582 59.4062C208.074 59.9844 207.449 60.4336 206.707 60.7539C205.965 61.0742 205.113 61.2344 204.152 61.2344C203.191 61.2344 202.336 61.0742 201.586 60.7539C200.844 60.4336 200.215 59.9844 199.699 59.4062C199.191 58.8203 198.805 58.1367 198.539 57.3555C198.273 56.5664 198.141 55.7109 198.141 54.7891ZM201.516 54.543V54.7891C201.516 55.3203 201.562 55.8164 201.656 56.2773C201.75 56.7383 201.898 57.1445 202.102 57.4961C202.312 57.8398 202.586 58.1094 202.922 58.3047C203.258 58.5 203.668 58.5977 204.152 58.5977C204.621 58.5977 205.023 58.5 205.359 58.3047C205.695 58.1094 205.965 57.8398 206.168 57.4961C206.371 57.1445 206.52 56.7383 206.613 56.2773C206.715 55.8164 206.766 55.3203 206.766 54.7891V54.543C206.766 54.0273 206.715 53.543 206.613 53.0898C206.52 52.6289 206.367 52.2227 206.156 51.8711C205.953 51.5117 205.684 51.2305 205.348 51.0273C205.012 50.8242 204.605 50.7227 204.129 50.7227C203.652 50.7227 203.246 50.8242 202.91 51.0273C202.582 51.2305 202.312 51.5117 202.102 51.8711C201.898 52.2227 201.75 52.6289 201.656 53.0898C201.562 53.543 201.516 54.0273 201.516 54.543ZM219.727 57.9648V48.3203H223.102V61H219.926L219.727 57.9648ZM220.102 55.3633L221.098 55.3398C221.098 56.1836 221 56.9688 220.805 57.6953C220.609 58.4141 220.316 59.0391 219.926 59.5703C219.535 60.0938 219.043 60.5039 218.449 60.8008C217.855 61.0898 217.156 61.2344 216.352 61.2344C215.734 61.2344 215.164 61.1484 214.641 60.9766C214.125 60.7969 213.68 60.5195 213.305 60.1445C212.938 59.7617 212.648 59.2734 212.438 58.6797C212.234 58.0781 212.133 57.3555 212.133 56.5117V48.3203H215.508V56.5352C215.508 56.9102 215.551 57.2266 215.637 57.4844C215.73 57.7422 215.859 57.9531 216.023 58.1172C216.188 58.2812 216.379 58.3984 216.598 58.4688C216.824 58.5391 217.074 58.5742 217.348 58.5742C218.043 58.5742 218.59 58.4336 218.988 58.1523C219.395 57.8711 219.68 57.4883 219.844 57.0039C220.016 56.5117 220.102 55.9648 220.102 55.3633ZM229.055 51.0859V61H225.68V48.3203H228.855L229.055 51.0859ZM232.875 48.2383L232.816 51.3672C232.652 51.3438 232.453 51.3242 232.219 51.3086C231.992 51.2852 231.785 51.2734 231.598 51.2734C231.121 51.2734 230.707 51.3359 230.355 51.4609C230.012 51.5781 229.723 51.7539 229.488 51.9883C229.262 52.2227 229.09 52.5078 228.973 52.8438C228.863 53.1797 228.801 53.5625 228.785 53.9922L228.105 53.7812C228.105 52.9609 228.188 52.207 228.352 51.5195C228.516 50.8242 228.754 50.2188 229.066 49.7031C229.387 49.1875 229.777 48.7891 230.238 48.5078C230.699 48.2266 231.227 48.0859 231.82 48.0859C232.008 48.0859 232.199 48.1016 232.395 48.1328C232.59 48.1562 232.75 48.1914 232.875 48.2383ZM237.773 51.0273V61H234.398V48.3203H237.562L237.773 51.0273ZM237.281 54.2148H236.367C236.367 53.2773 236.488 52.4336 236.73 51.6836C236.973 50.9258 237.312 50.2812 237.75 49.75C238.188 49.2109 238.707 48.8008 239.309 48.5195C239.918 48.2305 240.598 48.0859 241.348 48.0859C241.941 48.0859 242.484 48.1719 242.977 48.3438C243.469 48.5156 243.891 48.7891 244.242 49.1641C244.602 49.5391 244.875 50.0352 245.062 50.6523C245.258 51.2695 245.355 52.0234 245.355 52.9141V61H241.957V52.9023C241.957 52.3398 241.879 51.9023 241.723 51.5898C241.566 51.2773 241.336 51.0586 241.031 50.9336C240.734 50.8008 240.367 50.7344 239.93 50.7344C239.477 50.7344 239.082 50.8242 238.746 51.0039C238.418 51.1836 238.145 51.4336 237.926 51.7539C237.715 52.0664 237.555 52.4336 237.445 52.8555C237.336 53.2773 237.281 53.7305 237.281 54.2148ZM253.758 61.2344C252.773 61.2344 251.891 61.0781 251.109 60.7656C250.328 60.4453 249.664 60.0039 249.117 59.4414C248.578 58.8789 248.164 58.2266 247.875 57.4844C247.586 56.7344 247.441 55.9375 247.441 55.0938V54.625C247.441 53.6641 247.578 52.7852 247.852 51.9883C248.125 51.1914 248.516 50.5 249.023 49.9141C249.539 49.3281 250.164 48.8789 250.898 48.5664C251.633 48.2461 252.461 48.0859 253.383 48.0859C254.281 48.0859 255.078 48.2344 255.773 48.5312C256.469 48.8281 257.051 49.25 257.52 49.7969C257.996 50.3438 258.355 51 258.598 51.7656C258.84 52.5234 258.961 53.3672 258.961 54.2969V55.7031H248.883V53.4531H255.645V53.1953C255.645 52.7266 255.559 52.3086 255.387 51.9414C255.223 51.5664 254.973 51.2695 254.637 51.0508C254.301 50.832 253.871 50.7227 253.348 50.7227C252.902 50.7227 252.52 50.8203 252.199 51.0156C251.879 51.2109 251.617 51.4844 251.414 51.8359C251.219 52.1875 251.07 52.6016 250.969 53.0781C250.875 53.5469 250.828 54.0625 250.828 54.625V55.0938C250.828 55.6016 250.898 56.0703 251.039 56.5C251.188 56.9297 251.395 57.3008 251.66 57.6133C251.934 57.9258 252.262 58.168 252.645 58.3398C253.035 58.5117 253.477 58.5977 253.969 58.5977C254.578 58.5977 255.145 58.4805 255.668 58.2461C256.199 58.0039 256.656 57.6406 257.039 57.1562L258.68 58.9375C258.414 59.3203 258.051 59.6875 257.59 60.0391C257.137 60.3906 256.59 60.6797 255.949 60.9062C255.309 61.125 254.578 61.2344 253.758 61.2344ZM264.48 59.5703L267.844 48.3203H271.465L266.367 62.9102C266.258 63.2305 266.109 63.5742 265.922 63.9414C265.742 64.3086 265.496 64.6562 265.184 64.9844C264.879 65.3203 264.492 65.5938 264.023 65.8047C263.562 66.0156 262.996 66.1211 262.324 66.1211C262.004 66.1211 261.742 66.1016 261.539 66.0625C261.336 66.0234 261.094 65.9688 260.812 65.8984V63.4258C260.898 63.4258 260.988 63.4258 261.082 63.4258C261.176 63.4336 261.266 63.4375 261.352 63.4375C261.797 63.4375 262.16 63.3867 262.441 63.2852C262.723 63.1836 262.949 63.0273 263.121 62.8164C263.293 62.6133 263.43 62.3477 263.531 62.0195L264.48 59.5703ZM263.074 48.3203L265.828 57.5078L266.309 61.082L264.012 61.3281L259.453 48.3203H263.074Z" fill="#888888"/>
<path d="M118.594 98.4219V104.75H101.086V98.4219H118.594ZM103.828 84.875V119H95.6016V84.875H103.828ZM124.125 84.875V119H115.922V84.875H124.125ZM127.992 106.578V106.086C127.992 104.227 128.258 102.516 128.789 100.953C129.32 99.375 130.102 98.0078 131.133 96.8516C132.164 95.6953 133.438 94.7969 134.953 94.1562C136.469 93.5 138.219 93.1719 140.203 93.1719C142.203 93.1719 143.961 93.5 145.477 94.1562C147.008 94.7969 148.289 95.6953 149.32 96.8516C150.352 98.0078 151.133 99.375 151.664 100.953C152.195 102.516 152.461 104.227 152.461 106.086V106.578C152.461 108.422 152.195 110.133 151.664 111.711C151.133 113.273 150.352 114.641 149.32 115.812C148.289 116.969 147.016 117.867 145.5 118.508C143.984 119.148 142.234 119.469 140.25 119.469C138.266 119.469 136.508 119.148 134.977 118.508C133.445 117.867 132.164 116.969 131.133 115.812C130.102 114.641 129.32 113.273 128.789 111.711C128.258 110.133 127.992 108.422 127.992 106.578ZM135.891 106.086V106.578C135.891 107.531 135.961 108.422 136.102 109.25C136.242 110.078 136.477 110.805 136.805 111.43C137.133 112.039 137.578 112.516 138.141 112.859C138.703 113.203 139.406 113.375 140.25 113.375C141.078 113.375 141.766 113.203 142.312 112.859C142.875 112.516 143.32 112.039 143.648 111.43C143.977 110.805 144.211 110.078 144.352 109.25C144.492 108.422 144.562 107.531 144.562 106.578V106.086C144.562 105.164 144.492 104.297 144.352 103.484C144.211 102.656 143.977 101.93 143.648 101.305C143.32 100.664 142.875 100.164 142.312 99.8047C141.75 99.4453 141.047 99.2656 140.203 99.2656C139.375 99.2656 138.68 99.4453 138.117 99.8047C137.57 100.164 137.133 100.664 136.805 101.305C136.477 101.93 136.242 102.656 136.102 103.484C135.961 104.297 135.891 105.164 135.891 106.086ZM163.688 111.453L168.375 93.6406H173.32L171.562 102.57L166.922 119H162.961L163.688 111.453ZM161.836 93.6406L164.742 111.312L165.07 119H160.266L154.266 93.6406H161.836ZM177.492 110.938L180.422 93.6406H187.992L182.039 119H177.234L177.492 110.938ZM173.883 93.6406L178.617 111.406L179.344 119H175.336L170.789 102.617L169.102 93.6406H173.883ZM218.297 84.875V119H210.07V84.875H218.297ZM228.562 84.875V91.2266H200.039V84.875H228.562ZM225.773 106.578V106.086C225.773 104.227 226.039 102.516 226.57 100.953C227.102 99.375 227.883 98.0078 228.914 96.8516C229.945 95.6953 231.219 94.7969 232.734 94.1562C234.25 93.5 236 93.1719 237.984 93.1719C239.984 93.1719 241.742 93.5 243.258 94.1562C244.789 94.7969 246.07 95.6953 247.102 96.8516C248.133 98.0078 248.914 99.375 249.445 100.953C249.977 102.516 250.242 104.227 250.242 106.086V106.578C250.242 108.422 249.977 110.133 249.445 111.711C248.914 113.273 248.133 114.641 247.102 115.812C246.07 116.969 244.797 117.867 243.281 118.508C241.766 119.148 240.016 119.469 238.031 119.469C236.047 119.469 234.289 119.148 232.758 118.508C231.227 117.867 229.945 116.969 228.914 115.812C227.883 114.641 227.102 113.273 226.57 111.711C226.039 110.133 225.773 108.422 225.773 106.578ZM233.672 106.086V106.578C233.672 107.531 233.742 108.422 233.883 109.25C234.023 110.078 234.258 110.805 234.586 111.43C234.914 112.039 235.359 112.516 235.922 112.859C236.484 113.203 237.188 113.375 238.031 113.375C238.859 113.375 239.547 113.203 240.094 112.859C240.656 112.516 241.102 112.039 241.43 111.43C241.758 110.805 241.992 110.078 242.133 109.25C242.273 108.422 242.344 107.531 242.344 106.578V106.086C242.344 105.164 242.273 104.297 242.133 103.484C241.992 102.656 241.758 101.93 241.43 101.305C241.102 100.664 240.656 100.164 240.094 99.8047C239.531 99.4453 238.828 99.2656 237.984 99.2656C237.156 99.2656 236.461 99.4453 235.898 99.8047C235.352 100.164 234.914 100.664 234.586 101.305C234.258 101.93 234.023 102.656 233.883 103.484C233.742 104.297 233.672 105.164 233.672 106.086ZM266.086 84.875H279.516C282.141 84.875 284.422 85.2656 286.359 86.0469C288.297 86.8281 289.789 87.9844 290.836 89.5156C291.898 91.0469 292.43 92.9375 292.43 95.1875C292.43 97.1406 292.125 98.7734 291.516 100.086C290.906 101.398 290.055 102.484 288.961 103.344C287.883 104.188 286.625 104.883 285.188 105.43L282.492 106.953H271.219L271.172 100.602H279.516C280.562 100.602 281.43 100.414 282.117 100.039C282.805 99.6641 283.32 99.1328 283.664 98.4453C284.023 97.7422 284.203 96.9062 284.203 95.9375C284.203 94.9531 284.023 94.1094 283.664 93.4062C283.305 92.7031 282.773 92.1641 282.07 91.7891C281.383 91.4141 280.531 91.2266 279.516 91.2266H274.312V119H266.086V84.875ZM284.766 119L277.219 103.906L285.938 103.859L293.578 118.648V119H284.766ZM311.836 112.836V93.6406H319.758V119H312.352L311.836 112.836ZM312.586 107.68L314.648 107.633C314.648 109.336 314.445 110.914 314.039 112.367C313.633 113.805 313.031 115.055 312.234 116.117C311.453 117.18 310.484 118.008 309.328 118.602C308.188 119.18 306.867 119.469 305.367 119.469C304.117 119.469 302.969 119.297 301.922 118.953C300.891 118.594 300 118.039 299.25 117.289C298.5 116.523 297.914 115.547 297.492 114.359C297.086 113.156 296.883 111.719 296.883 110.047V93.6406H304.781V110.094C304.781 110.656 304.852 111.141 304.992 111.547C305.133 111.953 305.336 112.297 305.602 112.578C305.867 112.844 306.195 113.047 306.586 113.188C306.992 113.312 307.453 113.375 307.969 113.375C309.156 113.375 310.086 113.125 310.758 112.625C311.43 112.125 311.898 111.445 312.164 110.586C312.445 109.727 312.586 108.758 312.586 107.68ZM331.875 99.0547V119H323.977V93.6406H331.383L331.875 99.0547ZM330.938 105.453L329.086 105.5C329.086 103.562 329.32 101.836 329.789 100.32C330.258 98.7891 330.922 97.4922 331.781 96.4297C332.641 95.3672 333.664 94.5625 334.852 94.0156C336.055 93.4531 337.391 93.1719 338.859 93.1719C340.031 93.1719 341.102 93.3438 342.07 93.6875C343.055 94.0312 343.898 94.5859 344.602 95.3516C345.32 96.1172 345.867 97.1328 346.242 98.3984C346.633 99.6484 346.828 101.195 346.828 103.039V119H338.883V103.016C338.883 102 338.742 101.227 338.461 100.695C338.18 100.148 337.773 99.7734 337.242 99.5703C336.711 99.3672 336.062 99.2656 335.297 99.2656C334.484 99.2656 333.797 99.4219 333.234 99.7344C332.672 100.047 332.219 100.484 331.875 101.047C331.547 101.594 331.305 102.242 331.148 102.992C331.008 103.742 330.938 104.562 330.938 105.453ZM363.773 108.195H357.047C357.047 106.82 357.141 105.609 357.328 104.562C357.531 103.5 357.875 102.547 358.359 101.703C358.844 100.859 359.5 100.078 360.328 99.3594C361.062 98.75 361.695 98.1641 362.227 97.6016C362.758 97.0391 363.164 96.4688 363.445 95.8906C363.727 95.3125 363.867 94.6953 363.867 94.0391C363.867 93.2266 363.75 92.5625 363.516 92.0469C363.297 91.5312 362.961 91.1484 362.508 90.8984C362.07 90.6328 361.516 90.5 360.844 90.5C360.297 90.5 359.781 90.6328 359.297 90.8984C358.828 91.1641 358.445 91.5781 358.148 92.1406C357.852 92.6875 357.688 93.4141 357.656 94.3203H349.711C349.758 91.9922 350.273 90.1016 351.258 88.6484C352.258 87.1797 353.586 86.1094 355.242 85.4375C356.914 84.75 358.781 84.4062 360.844 84.4062C363.125 84.4062 365.086 84.7578 366.727 85.4609C368.367 86.1641 369.625 87.2109 370.5 88.6016C371.375 89.9766 371.812 91.6719 371.812 93.6875C371.812 95.0312 371.555 96.2031 371.039 97.2031C370.539 98.1875 369.859 99.1094 369 99.9688C368.156 100.812 367.211 101.719 366.164 102.688C365.258 103.484 364.641 104.297 364.312 105.125C363.984 105.938 363.805 106.961 363.773 108.195ZM356.086 115.32C356.086 114.195 356.492 113.258 357.305 112.508C358.117 111.742 359.172 111.359 360.469 111.359C361.766 111.359 362.82 111.742 363.633 112.508C364.445 113.258 364.852 114.195 364.852 115.32C364.852 116.445 364.445 117.391 363.633 118.156C362.82 118.906 361.766 119.281 360.469 119.281C359.172 119.281 358.117 118.906 357.305 118.156C356.492 117.391 356.086 116.445 356.086 115.32Z" fill="black"/>
<path d="M1134 0H1348C1356.28 0 1363 6.71573 1363 15V148C1363 156.284 1356.28 163 1348 163H1134V0Z" fill="black"/>
<path d="M1260.62 78.8847C1263.81 78.8847 1266.93 79.805 1269.59 81.5293C1272.25 83.2536 1274.32 85.7044 1275.54 88.5718C1276.76 91.4391 1277.08 94.5943 1276.46 97.6383C1275.84 100.682 1274.3 103.478 1272.04 105.673C1269.78 107.868 1266.9 109.362 1263.77 109.968C1260.63 110.573 1257.39 110.262 1254.43 109.075C1251.48 107.887 1248.96 105.876 1247.18 103.295C1245.41 100.714 1244.46 97.6806 1244.46 94.5769C1244.46 90.4151 1246.16 86.4237 1249.19 83.4808C1252.22 80.538 1256.33 78.8847 1260.62 78.8847ZM1260.62 73.6539C1256.36 73.6539 1252.19 74.881 1248.65 77.1801C1245.11 79.4791 1242.35 82.7469 1240.72 86.57C1239.09 90.3932 1238.66 94.6001 1239.49 98.6588C1240.32 102.717 1242.37 106.446 1245.39 109.372C1248.4 112.298 1252.24 114.291 1256.41 115.098C1260.59 115.905 1264.92 115.491 1268.86 113.907C1272.79 112.324 1276.16 109.642 1278.52 106.201C1280.89 102.76 1282.15 98.7151 1282.15 94.5769C1282.15 89.0278 1279.88 83.706 1275.85 79.7821C1271.81 75.8583 1266.33 73.6539 1260.62 73.6539Z" fill="white"/>
<path d="M1274.08 47.5H1220.23C1218.8 47.5 1217.43 48.0511 1216.42 49.0321C1215.41 50.013 1214.85 51.3435 1214.85 52.7307V105.038C1214.85 106.426 1215.41 107.756 1216.42 108.737C1217.43 109.718 1218.8 110.269 1220.23 110.269H1231V105.038H1220.23V68.423H1279.46V52.7307C1279.46 51.3435 1278.89 50.013 1277.88 49.0321C1276.87 48.0511 1275.5 47.5 1274.08 47.5ZM1220.23 63.1922V52.7307H1274.08V63.1922H1220.23Z" fill="white"/>
<path d="M1255.23 86.731V102.423L1268.69 94.5771L1255.23 86.731Z" fill="white"/>
</svg>
