<svg width="1363" height="163" viewBox="0 0 1363 163" fill="none" xmlns="http://www.w3.org/2000/svg">
<path d="M0 15C0 6.71573 6.71573 0 15 0H29V163H15C6.71573 163 0 156.284 0 148V15Z" fill="#61DBFB"/>
<rect width="1105" height="163" transform="translate(29)" fill="#F0F0F0"/>
<path d="M95.4062 56.5352C95.4062 56.2305 95.3594 55.957 95.2656 55.7148C95.1797 55.4648 95.0156 55.2383 94.7734 55.0352C94.5312 54.8242 94.1914 54.6172 93.7539 54.4141C93.3164 54.2109 92.75 54 92.0547 53.7812C91.2812 53.5312 90.5469 53.25 89.8516 52.9375C89.1641 52.625 88.5547 52.2617 88.0234 51.8477C87.5 51.4258 87.0859 50.9375 86.7812 50.3828C86.4844 49.8281 86.3359 49.1836 86.3359 48.4492C86.3359 47.7383 86.4922 47.0938 86.8047 46.5156C87.1172 45.9297 87.5547 45.4297 88.1172 45.0156C88.6797 44.5938 89.3438 44.2695 90.1094 44.043C90.8828 43.8164 91.7305 43.7031 92.6523 43.7031C93.9102 43.7031 95.0078 43.9297 95.9453 44.3828C96.8828 44.8359 97.6094 45.457 98.125 46.2461C98.6484 47.0352 98.9102 47.9375 98.9102 48.9531H95.418C95.418 48.4531 95.3125 48.0156 95.1016 47.6406C94.8984 47.2578 94.5859 46.957 94.1641 46.7383C93.75 46.5195 93.2266 46.4102 92.5938 46.4102C91.9844 46.4102 91.4766 46.5039 91.0703 46.6914C90.6641 46.8711 90.3594 47.1172 90.1562 47.4297C89.9531 47.7344 89.8516 48.0781 89.8516 48.4609C89.8516 48.75 89.9219 49.0117 90.0625 49.2461C90.2109 49.4805 90.4297 49.6992 90.7188 49.9023C91.0078 50.1055 91.3633 50.2969 91.7852 50.4766C92.207 50.6562 92.6953 50.832 93.25 51.0039C94.1797 51.2852 94.9961 51.6016 95.6992 51.9531C96.4102 52.3047 97.0039 52.6992 97.4805 53.1367C97.957 53.5742 98.3164 54.0703 98.5586 54.625C98.8008 55.1797 98.9219 55.8086 98.9219 56.5117C98.9219 57.2539 98.7773 57.918 98.4883 58.5039C98.1992 59.0898 97.7812 59.5859 97.2344 59.9922C96.6875 60.3984 96.0352 60.707 95.2773 60.918C94.5195 61.1289 93.6719 61.2344 92.7344 61.2344C91.8906 61.2344 91.0586 61.125 90.2383 60.9062C89.418 60.6797 88.6719 60.3398 88 59.8867C87.3359 59.4336 86.8047 58.8555 86.4062 58.1523C86.0078 57.4492 85.8086 56.6172 85.8086 55.6562H89.3359C89.3359 56.1875 89.418 56.6367 89.582 57.0039C89.7461 57.3711 89.9766 57.668 90.2734 57.8945C90.5781 58.1211 90.9375 58.2852 91.3516 58.3867C91.7734 58.4883 92.2344 58.5391 92.7344 58.5391C93.3438 58.5391 93.8438 58.4531 94.2344 58.2812C94.6328 58.1094 94.9258 57.8711 95.1133 57.5664C95.3086 57.2617 95.4062 56.918 95.4062 56.5352ZM104.477 50.7578V65.875H101.102V48.3203H104.23L104.477 50.7578ZM112.504 54.5195V54.7656C112.504 55.6875 112.395 56.543 112.176 57.332C111.965 58.1211 111.652 58.8086 111.238 59.3945C110.824 59.9727 110.309 60.4258 109.691 60.7539C109.082 61.0742 108.379 61.2344 107.582 61.2344C106.809 61.2344 106.137 61.0781 105.566 60.7656C104.996 60.4531 104.516 60.0156 104.125 59.4531C103.742 58.8828 103.434 58.2227 103.199 57.4727C102.965 56.7227 102.785 55.918 102.66 55.0586V54.4141C102.785 53.4922 102.965 52.6484 103.199 51.8828C103.434 51.1094 103.742 50.4414 104.125 49.8789C104.516 49.3086 104.992 48.8672 105.555 48.5547C106.125 48.2422 106.793 48.0859 107.559 48.0859C108.363 48.0859 109.07 48.2383 109.68 48.543C110.297 48.8477 110.812 49.2852 111.227 49.8555C111.648 50.4258 111.965 51.1055 112.176 51.8945C112.395 52.6836 112.504 53.5586 112.504 54.5195ZM109.117 54.7656V54.5195C109.117 53.9805 109.07 53.4844 108.977 53.0312C108.891 52.5703 108.75 52.168 108.555 51.8242C108.367 51.4805 108.117 51.2148 107.805 51.0273C107.5 50.832 107.129 50.7344 106.691 50.7344C106.23 50.7344 105.836 50.8086 105.508 50.957C105.188 51.1055 104.926 51.3203 104.723 51.6016C104.52 51.8828 104.367 52.2188 104.266 52.6094C104.164 53 104.102 53.4414 104.078 53.9336V55.5625C104.117 56.1406 104.227 56.6602 104.406 57.1211C104.586 57.5742 104.863 57.9336 105.238 58.1992C105.613 58.4648 106.105 58.5977 106.715 58.5977C107.16 58.5977 107.535 58.5 107.84 58.3047C108.145 58.1016 108.391 57.8242 108.578 57.4727C108.773 57.1211 108.91 56.7148 108.988 56.2539C109.074 55.793 109.117 55.2969 109.117 54.7656ZM121.445 58.1406V52.4922C121.445 52.0859 121.379 51.7383 121.246 51.4492C121.113 51.1523 120.906 50.9219 120.625 50.7578C120.352 50.5938 119.996 50.5117 119.559 50.5117C119.184 50.5117 118.859 50.5781 118.586 50.7109C118.312 50.8359 118.102 51.0195 117.953 51.2617C117.805 51.4961 117.73 51.7734 117.73 52.0938H114.355C114.355 51.5547 114.48 51.043 114.73 50.5586C114.98 50.0742 115.344 49.6484 115.82 49.2812C116.297 48.9062 116.863 48.6133 117.52 48.4023C118.184 48.1914 118.926 48.0859 119.746 48.0859C120.73 48.0859 121.605 48.25 122.371 48.5781C123.137 48.9062 123.738 49.3984 124.176 50.0547C124.621 50.7109 124.844 51.5312 124.844 52.5156V57.9414C124.844 58.6367 124.887 59.207 124.973 59.6523C125.059 60.0898 125.184 60.4727 125.348 60.8008V61H121.938C121.773 60.6562 121.648 60.2266 121.562 59.7109C121.484 59.1875 121.445 58.6641 121.445 58.1406ZM121.891 53.2773L121.914 55.1875H120.027C119.582 55.1875 119.195 55.2383 118.867 55.3398C118.539 55.4414 118.27 55.5859 118.059 55.7734C117.848 55.9531 117.691 56.1641 117.59 56.4062C117.496 56.6484 117.449 56.9141 117.449 57.2031C117.449 57.4922 117.516 57.7539 117.648 57.9883C117.781 58.2148 117.973 58.3945 118.223 58.5273C118.473 58.6523 118.766 58.7148 119.102 58.7148C119.609 58.7148 120.051 58.6133 120.426 58.4102C120.801 58.207 121.09 57.957 121.293 57.6602C121.504 57.3633 121.613 57.082 121.621 56.8164L122.512 58.2461C122.387 58.5664 122.215 58.8984 121.996 59.2422C121.785 59.5859 121.516 59.9102 121.188 60.2148C120.859 60.5117 120.465 60.7578 120.004 60.9531C119.543 61.1406 118.996 61.2344 118.363 61.2344C117.559 61.2344 116.828 61.0742 116.172 60.7539C115.523 60.4258 115.008 59.9766 114.625 59.4062C114.25 58.8281 114.062 58.1719 114.062 57.4375C114.062 56.7734 114.188 56.1836 114.438 55.668C114.688 55.1523 115.055 54.7188 115.539 54.3672C116.031 54.0078 116.645 53.7383 117.379 53.5586C118.113 53.3711 118.965 53.2773 119.934 53.2773H121.891ZM132.684 58.5977C133.098 58.5977 133.465 58.5195 133.785 58.3633C134.105 58.1992 134.355 57.9727 134.535 57.6836C134.723 57.3867 134.82 57.0391 134.828 56.6406H138.004C137.996 57.5312 137.758 58.3242 137.289 59.0195C136.82 59.707 136.191 60.25 135.402 60.6484C134.613 61.0391 133.73 61.2344 132.754 61.2344C131.77 61.2344 130.91 61.0703 130.176 60.7422C129.449 60.4141 128.844 59.9609 128.359 59.3828C127.875 58.7969 127.512 58.1172 127.27 57.3438C127.027 56.5625 126.906 55.7266 126.906 54.8359V54.4961C126.906 53.5977 127.027 52.7617 127.27 51.9883C127.512 51.207 127.875 50.5273 128.359 49.9492C128.844 49.3633 129.449 48.9062 130.176 48.5781C130.902 48.25 131.754 48.0859 132.73 48.0859C133.77 48.0859 134.68 48.2852 135.461 48.6836C136.25 49.082 136.867 49.6523 137.312 50.3945C137.766 51.1289 137.996 52 138.004 53.0078H134.828C134.82 52.5859 134.73 52.2031 134.559 51.8594C134.395 51.5156 134.152 51.2422 133.832 51.0391C133.52 50.8281 133.133 50.7227 132.672 50.7227C132.18 50.7227 131.777 50.8281 131.465 51.0391C131.152 51.2422 130.91 51.5234 130.738 51.8828C130.566 52.2344 130.445 52.6367 130.375 53.0898C130.312 53.5352 130.281 54.0039 130.281 54.4961V54.8359C130.281 55.3281 130.312 55.8008 130.375 56.2539C130.438 56.707 130.555 57.1094 130.727 57.4609C130.906 57.8125 131.152 58.0898 131.465 58.293C131.777 58.4961 132.184 58.5977 132.684 58.5977ZM145.797 61.2344C144.812 61.2344 143.93 61.0781 143.148 60.7656C142.367 60.4453 141.703 60.0039 141.156 59.4414C140.617 58.8789 140.203 58.2266 139.914 57.4844C139.625 56.7344 139.48 55.9375 139.48 55.0938V54.625C139.48 53.6641 139.617 52.7852 139.891 51.9883C140.164 51.1914 140.555 50.5 141.062 49.9141C141.578 49.3281 142.203 48.8789 142.938 48.5664C143.672 48.2461 144.5 48.0859 145.422 48.0859C146.32 48.0859 147.117 48.2344 147.812 48.5312C148.508 48.8281 149.09 49.25 149.559 49.7969C150.035 50.3438 150.395 51 150.637 51.7656C150.879 52.5234 151 53.3672 151 54.2969V55.7031H140.922V53.4531H147.684V53.1953C147.684 52.7266 147.598 52.3086 147.426 51.9414C147.262 51.5664 147.012 51.2695 146.676 51.0508C146.34 50.832 145.91 50.7227 145.387 50.7227C144.941 50.7227 144.559 50.8203 144.238 51.0156C143.918 51.2109 143.656 51.4844 143.453 51.8359C143.258 52.1875 143.109 52.6016 143.008 53.0781C142.914 53.5469 142.867 54.0625 142.867 54.625V55.0938C142.867 55.6016 142.938 56.0703 143.078 56.5C143.227 56.9297 143.434 57.3008 143.699 57.6133C143.973 57.9258 144.301 58.168 144.684 58.3398C145.074 58.5117 145.516 58.5977 146.008 58.5977C146.617 58.5977 147.184 58.4805 147.707 58.2461C148.238 58.0039 148.695 57.6406 149.078 57.1562L150.719 58.9375C150.453 59.3203 150.09 59.6875 149.629 60.0391C149.176 60.3906 148.629 60.6797 147.988 60.9062C147.348 61.125 146.617 61.2344 145.797 61.2344ZM166.012 55.7617V43.9375H169.516V55.7617C169.516 56.9023 169.266 57.8828 168.766 58.7031C168.266 59.5156 167.582 60.1406 166.715 60.5781C165.855 61.0156 164.887 61.2344 163.809 61.2344C162.691 61.2344 161.703 61.0469 160.844 60.6719C159.984 60.2969 159.309 59.7227 158.816 58.9492C158.324 58.168 158.078 57.1797 158.078 55.9844H161.605C161.605 56.6094 161.691 57.1055 161.863 57.4727C162.043 57.8398 162.297 58.1016 162.625 58.2578C162.953 58.4141 163.348 58.4922 163.809 58.4922C164.254 58.4922 164.641 58.3867 164.969 58.1758C165.297 57.9648 165.551 57.6562 165.73 57.25C165.918 56.8438 166.012 56.3477 166.012 55.7617ZM171.766 54.7891V54.543C171.766 53.6133 171.898 52.7578 172.164 51.9766C172.43 51.1875 172.816 50.5039 173.324 49.9258C173.832 49.3477 174.457 48.8984 175.199 48.5781C175.941 48.25 176.793 48.0859 177.754 48.0859C178.715 48.0859 179.57 48.25 180.32 48.5781C181.07 48.8984 181.699 49.3477 182.207 49.9258C182.723 50.5039 183.113 51.1875 183.379 51.9766C183.645 52.7578 183.777 53.6133 183.777 54.543V54.7891C183.777 55.7109 183.645 56.5664 183.379 57.3555C183.113 58.1367 182.723 58.8203 182.207 59.4062C181.699 59.9844 181.074 60.4336 180.332 60.7539C179.59 61.0742 178.738 61.2344 177.777 61.2344C176.816 61.2344 175.961 61.0742 175.211 60.7539C174.469 60.4336 173.84 59.9844 173.324 59.4062C172.816 58.8203 172.43 58.1367 172.164 57.3555C171.898 56.5664 171.766 55.7109 171.766 54.7891ZM175.141 54.543V54.7891C175.141 55.3203 175.188 55.8164 175.281 56.2773C175.375 56.7383 175.523 57.1445 175.727 57.4961C175.938 57.8398 176.211 58.1094 176.547 58.3047C176.883 58.5 177.293 58.5977 177.777 58.5977C178.246 58.5977 178.648 58.5 178.984 58.3047C179.32 58.1094 179.59 57.8398 179.793 57.4961C179.996 57.1445 180.145 56.7383 180.238 56.2773C180.34 55.8164 180.391 55.3203 180.391 54.7891V54.543C180.391 54.0273 180.34 53.543 180.238 53.0898C180.145 52.6289 179.992 52.2227 179.781 51.8711C179.578 51.5117 179.309 51.2305 178.973 51.0273C178.637 50.8242 178.23 50.7227 177.754 50.7227C177.277 50.7227 176.871 50.8242 176.535 51.0273C176.207 51.2305 175.938 51.5117 175.727 51.8711C175.523 52.2227 175.375 52.6289 175.281 53.0898C175.188 53.543 175.141 54.0273 175.141 54.543ZM193.352 57.9648V48.3203H196.727V61H193.551L193.352 57.9648ZM193.727 55.3633L194.723 55.3398C194.723 56.1836 194.625 56.9688 194.43 57.6953C194.234 58.4141 193.941 59.0391 193.551 59.5703C193.16 60.0938 192.668 60.5039 192.074 60.8008C191.48 61.0898 190.781 61.2344 189.977 61.2344C189.359 61.2344 188.789 61.1484 188.266 60.9766C187.75 60.7969 187.305 60.5195 186.93 60.1445C186.562 59.7617 186.273 59.2734 186.062 58.6797C185.859 58.0781 185.758 57.3555 185.758 56.5117V48.3203H189.133V56.5352C189.133 56.9102 189.176 57.2266 189.262 57.4844C189.355 57.7422 189.484 57.9531 189.648 58.1172C189.812 58.2812 190.004 58.3984 190.223 58.4688C190.449 58.5391 190.699 58.5742 190.973 58.5742C191.668 58.5742 192.215 58.4336 192.613 58.1523C193.02 57.8711 193.305 57.4883 193.469 57.0039C193.641 56.5117 193.727 55.9648 193.727 55.3633ZM202.68 51.0859V61H199.305V48.3203H202.48L202.68 51.0859ZM206.5 48.2383L206.441 51.3672C206.277 51.3438 206.078 51.3242 205.844 51.3086C205.617 51.2852 205.41 51.2734 205.223 51.2734C204.746 51.2734 204.332 51.3359 203.98 51.4609C203.637 51.5781 203.348 51.7539 203.113 51.9883C202.887 52.2227 202.715 52.5078 202.598 52.8438C202.488 53.1797 202.426 53.5625 202.41 53.9922L201.73 53.7812C201.73 52.9609 201.812 52.207 201.977 51.5195C202.141 50.8242 202.379 50.2188 202.691 49.7031C203.012 49.1875 203.402 48.7891 203.863 48.5078C204.324 48.2266 204.852 48.0859 205.445 48.0859C205.633 48.0859 205.824 48.1016 206.02 48.1328C206.215 48.1562 206.375 48.1914 206.5 48.2383ZM211.398 51.0273V61H208.023V48.3203H211.188L211.398 51.0273ZM210.906 54.2148H209.992C209.992 53.2773 210.113 52.4336 210.355 51.6836C210.598 50.9258 210.938 50.2812 211.375 49.75C211.812 49.2109 212.332 48.8008 212.934 48.5195C213.543 48.2305 214.223 48.0859 214.973 48.0859C215.566 48.0859 216.109 48.1719 216.602 48.3438C217.094 48.5156 217.516 48.7891 217.867 49.1641C218.227 49.5391 218.5 50.0352 218.688 50.6523C218.883 51.2695 218.98 52.0234 218.98 52.9141V61H215.582V52.9023C215.582 52.3398 215.504 51.9023 215.348 51.5898C215.191 51.2773 214.961 51.0586 214.656 50.9336C214.359 50.8008 213.992 50.7344 213.555 50.7344C213.102 50.7344 212.707 50.8242 212.371 51.0039C212.043 51.1836 211.77 51.4336 211.551 51.7539C211.34 52.0664 211.18 52.4336 211.07 52.8555C210.961 53.2773 210.906 53.7305 210.906 54.2148ZM227.383 61.2344C226.398 61.2344 225.516 61.0781 224.734 60.7656C223.953 60.4453 223.289 60.0039 222.742 59.4414C222.203 58.8789 221.789 58.2266 221.5 57.4844C221.211 56.7344 221.066 55.9375 221.066 55.0938V54.625C221.066 53.6641 221.203 52.7852 221.477 51.9883C221.75 51.1914 222.141 50.5 222.648 49.9141C223.164 49.3281 223.789 48.8789 224.523 48.5664C225.258 48.2461 226.086 48.0859 227.008 48.0859C227.906 48.0859 228.703 48.2344 229.398 48.5312C230.094 48.8281 230.676 49.25 231.145 49.7969C231.621 50.3438 231.98 51 232.223 51.7656C232.465 52.5234 232.586 53.3672 232.586 54.2969V55.7031H222.508V53.4531H229.27V53.1953C229.27 52.7266 229.184 52.3086 229.012 51.9414C228.848 51.5664 228.598 51.2695 228.262 51.0508C227.926 50.832 227.496 50.7227 226.973 50.7227C226.527 50.7227 226.145 50.8203 225.824 51.0156C225.504 51.2109 225.242 51.4844 225.039 51.8359C224.844 52.1875 224.695 52.6016 224.594 53.0781C224.5 53.5469 224.453 54.0625 224.453 54.625V55.0938C224.453 55.6016 224.523 56.0703 224.664 56.5C224.812 56.9297 225.02 57.3008 225.285 57.6133C225.559 57.9258 225.887 58.168 226.27 58.3398C226.66 58.5117 227.102 58.5977 227.594 58.5977C228.203 58.5977 228.77 58.4805 229.293 58.2461C229.824 58.0039 230.281 57.6406 230.664 57.1562L232.305 58.9375C232.039 59.3203 231.676 59.6875 231.215 60.0391C230.762 60.3906 230.215 60.6797 229.574 60.9062C228.934 61.125 228.203 61.2344 227.383 61.2344ZM238.105 59.5703L241.469 48.3203H245.09L239.992 62.9102C239.883 63.2305 239.734 63.5742 239.547 63.9414C239.367 64.3086 239.121 64.6562 238.809 64.9844C238.504 65.3203 238.117 65.5938 237.648 65.8047C237.188 66.0156 236.621 66.1211 235.949 66.1211C235.629 66.1211 235.367 66.1016 235.164 66.0625C234.961 66.0234 234.719 65.9688 234.438 65.8984V63.4258C234.523 63.4258 234.613 63.4258 234.707 63.4258C234.801 63.4336 234.891 63.4375 234.977 63.4375C235.422 63.4375 235.785 63.3867 236.066 63.2852C236.348 63.1836 236.574 63.0273 236.746 62.8164C236.918 62.6133 237.055 62.3477 237.156 62.0195L238.105 59.5703ZM236.699 48.3203L239.453 57.5078L239.934 61.082L237.637 61.3281L233.078 48.3203H236.699Z" fill="#888888"/>
<path d="M110.594 98.4219V104.75H93.0859V98.4219H110.594ZM95.8281 84.875V119H87.6016V84.875H95.8281ZM116.125 84.875V119H107.922V84.875H116.125ZM119.992 106.578V106.086C119.992 104.227 120.258 102.516 120.789 100.953C121.32 99.375 122.102 98.0078 123.133 96.8516C124.164 95.6953 125.438 94.7969 126.953 94.1562C128.469 93.5 130.219 93.1719 132.203 93.1719C134.203 93.1719 135.961 93.5 137.477 94.1562C139.008 94.7969 140.289 95.6953 141.32 96.8516C142.352 98.0078 143.133 99.375 143.664 100.953C144.195 102.516 144.461 104.227 144.461 106.086V106.578C144.461 108.422 144.195 110.133 143.664 111.711C143.133 113.273 142.352 114.641 141.32 115.812C140.289 116.969 139.016 117.867 137.5 118.508C135.984 119.148 134.234 119.469 132.25 119.469C130.266 119.469 128.508 119.148 126.977 118.508C125.445 117.867 124.164 116.969 123.133 115.812C122.102 114.641 121.32 113.273 120.789 111.711C120.258 110.133 119.992 108.422 119.992 106.578ZM127.891 106.086V106.578C127.891 107.531 127.961 108.422 128.102 109.25C128.242 110.078 128.477 110.805 128.805 111.43C129.133 112.039 129.578 112.516 130.141 112.859C130.703 113.203 131.406 113.375 132.25 113.375C133.078 113.375 133.766 113.203 134.312 112.859C134.875 112.516 135.32 112.039 135.648 111.43C135.977 110.805 136.211 110.078 136.352 109.25C136.492 108.422 136.562 107.531 136.562 106.578V106.086C136.562 105.164 136.492 104.297 136.352 103.484C136.211 102.656 135.977 101.93 135.648 101.305C135.32 100.664 134.875 100.164 134.312 99.8047C133.75 99.4453 133.047 99.2656 132.203 99.2656C131.375 99.2656 130.68 99.4453 130.117 99.8047C129.57 100.164 129.133 100.664 128.805 101.305C128.477 101.93 128.242 102.656 128.102 103.484C127.961 104.297 127.891 105.164 127.891 106.086ZM155.688 111.453L160.375 93.6406H165.32L163.562 102.57L158.922 119H154.961L155.688 111.453ZM153.836 93.6406L156.742 111.312L157.07 119H152.266L146.266 93.6406H153.836ZM169.492 110.938L172.422 93.6406H179.992L174.039 119H169.234L169.492 110.938ZM165.883 93.6406L170.617 111.406L171.344 119H167.336L162.789 102.617L161.102 93.6406H165.883ZM210.297 84.875V119H202.07V84.875H210.297ZM220.562 84.875V91.2266H192.039V84.875H220.562ZM217.773 106.578V106.086C217.773 104.227 218.039 102.516 218.57 100.953C219.102 99.375 219.883 98.0078 220.914 96.8516C221.945 95.6953 223.219 94.7969 224.734 94.1562C226.25 93.5 228 93.1719 229.984 93.1719C231.984 93.1719 233.742 93.5 235.258 94.1562C236.789 94.7969 238.07 95.6953 239.102 96.8516C240.133 98.0078 240.914 99.375 241.445 100.953C241.977 102.516 242.242 104.227 242.242 106.086V106.578C242.242 108.422 241.977 110.133 241.445 111.711C240.914 113.273 240.133 114.641 239.102 115.812C238.07 116.969 236.797 117.867 235.281 118.508C233.766 119.148 232.016 119.469 230.031 119.469C228.047 119.469 226.289 119.148 224.758 118.508C223.227 117.867 221.945 116.969 220.914 115.812C219.883 114.641 219.102 113.273 218.57 111.711C218.039 110.133 217.773 108.422 217.773 106.578ZM225.672 106.086V106.578C225.672 107.531 225.742 108.422 225.883 109.25C226.023 110.078 226.258 110.805 226.586 111.43C226.914 112.039 227.359 112.516 227.922 112.859C228.484 113.203 229.188 113.375 230.031 113.375C230.859 113.375 231.547 113.203 232.094 112.859C232.656 112.516 233.102 112.039 233.43 111.43C233.758 110.805 233.992 110.078 234.133 109.25C234.273 108.422 234.344 107.531 234.344 106.578V106.086C234.344 105.164 234.273 104.297 234.133 103.484C233.992 102.656 233.758 101.93 233.43 101.305C233.102 100.664 232.656 100.164 232.094 99.8047C231.531 99.4453 230.828 99.2656 229.984 99.2656C229.156 99.2656 228.461 99.4453 227.898 99.8047C227.352 100.164 226.914 100.664 226.586 101.305C226.258 101.93 226.023 102.656 225.883 103.484C225.742 104.297 225.672 105.164 225.672 106.086ZM258.086 84.875H271.516C274.141 84.875 276.422 85.2656 278.359 86.0469C280.297 86.8281 281.789 87.9844 282.836 89.5156C283.898 91.0469 284.43 92.9375 284.43 95.1875C284.43 97.1406 284.125 98.7734 283.516 100.086C282.906 101.398 282.055 102.484 280.961 103.344C279.883 104.188 278.625 104.883 277.188 105.43L274.492 106.953H263.219L263.172 100.602H271.516C272.562 100.602 273.43 100.414 274.117 100.039C274.805 99.6641 275.32 99.1328 275.664 98.4453C276.023 97.7422 276.203 96.9062 276.203 95.9375C276.203 94.9531 276.023 94.1094 275.664 93.4062C275.305 92.7031 274.773 92.1641 274.07 91.7891C273.383 91.4141 272.531 91.2266 271.516 91.2266H266.312V119H258.086V84.875ZM276.766 119L269.219 103.906L277.938 103.859L285.578 118.648V119H276.766ZM303.836 112.836V93.6406H311.758V119H304.352L303.836 112.836ZM304.586 107.68L306.648 107.633C306.648 109.336 306.445 110.914 306.039 112.367C305.633 113.805 305.031 115.055 304.234 116.117C303.453 117.18 302.484 118.008 301.328 118.602C300.188 119.18 298.867 119.469 297.367 119.469C296.117 119.469 294.969 119.297 293.922 118.953C292.891 118.594 292 118.039 291.25 117.289C290.5 116.523 289.914 115.547 289.492 114.359C289.086 113.156 288.883 111.719 288.883 110.047V93.6406H296.781V110.094C296.781 110.656 296.852 111.141 296.992 111.547C297.133 111.953 297.336 112.297 297.602 112.578C297.867 112.844 298.195 113.047 298.586 113.188C298.992 113.312 299.453 113.375 299.969 113.375C301.156 113.375 302.086 113.125 302.758 112.625C303.43 112.125 303.898 111.445 304.164 110.586C304.445 109.727 304.586 108.758 304.586 107.68ZM323.875 99.0547V119H315.977V93.6406H323.383L323.875 99.0547ZM322.938 105.453L321.086 105.5C321.086 103.562 321.32 101.836 321.789 100.32C322.258 98.7891 322.922 97.4922 323.781 96.4297C324.641 95.3672 325.664 94.5625 326.852 94.0156C328.055 93.4531 329.391 93.1719 330.859 93.1719C332.031 93.1719 333.102 93.3438 334.07 93.6875C335.055 94.0312 335.898 94.5859 336.602 95.3516C337.32 96.1172 337.867 97.1328 338.242 98.3984C338.633 99.6484 338.828 101.195 338.828 103.039V119H330.883V103.016C330.883 102 330.742 101.227 330.461 100.695C330.18 100.148 329.773 99.7734 329.242 99.5703C328.711 99.3672 328.062 99.2656 327.297 99.2656C326.484 99.2656 325.797 99.4219 325.234 99.7344C324.672 100.047 324.219 100.484 323.875 101.047C323.547 101.594 323.305 102.242 323.148 102.992C323.008 103.742 322.938 104.562 322.938 105.453ZM355.773 108.195H349.047C349.047 106.82 349.141 105.609 349.328 104.562C349.531 103.5 349.875 102.547 350.359 101.703C350.844 100.859 351.5 100.078 352.328 99.3594C353.062 98.75 353.695 98.1641 354.227 97.6016C354.758 97.0391 355.164 96.4688 355.445 95.8906C355.727 95.3125 355.867 94.6953 355.867 94.0391C355.867 93.2266 355.75 92.5625 355.516 92.0469C355.297 91.5312 354.961 91.1484 354.508 90.8984C354.07 90.6328 353.516 90.5 352.844 90.5C352.297 90.5 351.781 90.6328 351.297 90.8984C350.828 91.1641 350.445 91.5781 350.148 92.1406C349.852 92.6875 349.688 93.4141 349.656 94.3203H341.711C341.758 91.9922 342.273 90.1016 343.258 88.6484C344.258 87.1797 345.586 86.1094 347.242 85.4375C348.914 84.75 350.781 84.4062 352.844 84.4062C355.125 84.4062 357.086 84.7578 358.727 85.4609C360.367 86.1641 361.625 87.2109 362.5 88.6016C363.375 89.9766 363.812 91.6719 363.812 93.6875C363.812 95.0312 363.555 96.2031 363.039 97.2031C362.539 98.1875 361.859 99.1094 361 99.9688C360.156 100.812 359.211 101.719 358.164 102.688C357.258 103.484 356.641 104.297 356.312 105.125C355.984 105.938 355.805 106.961 355.773 108.195ZM348.086 115.32C348.086 114.195 348.492 113.258 349.305 112.508C350.117 111.742 351.172 111.359 352.469 111.359C353.766 111.359 354.82 111.742 355.633 112.508C356.445 113.258 356.852 114.195 356.852 115.32C356.852 116.445 356.445 117.391 355.633 118.156C354.82 118.906 353.766 119.281 352.469 119.281C351.172 119.281 350.117 118.906 349.305 118.156C348.492 117.391 348.086 116.445 348.086 115.32Z" fill="black"/>
<path d="M1134 0H1348C1356.28 0 1363 6.71573 1363 15V148C1363 156.284 1356.28 163 1348 163H1134V0Z" fill="black"/>
<path d="M1260.62 78.8847C1263.81 78.8847 1266.93 79.805 1269.59 81.5293C1272.25 83.2536 1274.32 85.7044 1275.54 88.5718C1276.76 91.4391 1277.08 94.5943 1276.46 97.6383C1275.84 100.682 1274.3 103.478 1272.04 105.673C1269.78 107.868 1266.9 109.362 1263.77 109.968C1260.63 110.573 1257.39 110.262 1254.43 109.075C1251.48 107.887 1248.96 105.876 1247.18 103.295C1245.41 100.714 1244.46 97.6806 1244.46 94.5769C1244.46 90.4151 1246.16 86.4237 1249.19 83.4808C1252.22 80.538 1256.33 78.8847 1260.62 78.8847ZM1260.62 73.6539C1256.36 73.6539 1252.19 74.881 1248.65 77.1801C1245.11 79.4791 1242.35 82.7469 1240.72 86.57C1239.09 90.3932 1238.66 94.6001 1239.49 98.6588C1240.32 102.717 1242.37 106.446 1245.39 109.372C1248.4 112.298 1252.24 114.291 1256.41 115.098C1260.59 115.905 1264.92 115.491 1268.86 113.907C1272.79 112.324 1276.16 109.642 1278.52 106.201C1280.89 102.76 1282.15 98.7151 1282.15 94.5769C1282.15 89.0278 1279.88 83.706 1275.85 79.7821C1271.81 75.8583 1266.33 73.6539 1260.62 73.6539Z" fill="white"/>
<path d="M1274.08 47.5H1220.23C1218.8 47.5 1217.43 48.0511 1216.42 49.0321C1215.41 50.013 1214.85 51.3435 1214.85 52.7307V105.038C1214.85 106.426 1215.41 107.756 1216.42 108.737C1217.43 109.718 1218.8 110.269 1220.23 110.269H1231V105.038H1220.23V68.423H1279.46V52.7307C1279.46 51.3435 1278.89 50.013 1277.88 49.0321C1276.87 48.0511 1275.5 47.5 1274.08 47.5ZM1220.23 63.1922V52.7307H1274.08V63.1922H1220.23Z" fill="white"/>
<path d="M1255.23 86.731V102.423L1268.69 94.5771L1255.23 86.731Z" fill="white"/>
</svg>
