<svg width="1363" height="163" viewBox="0 0 1363 163" fill="none" xmlns="http://www.w3.org/2000/svg">
<path d="M0 15C0 6.71573 6.71573 0 15 0H37V163H15C6.71573 163 0 156.284 0 148V15Z" fill="#61DBFB"/>
<rect width="1097" height="163" transform="translate(37)" fill="#F0F0F0"/>
<path d="M103.406 56.5352C103.406 56.2305 103.359 55.957 103.266 55.7148C103.18 55.4648 103.016 55.2383 102.773 55.0352C102.531 54.8242 102.191 54.6172 101.754 54.4141C101.316 54.2109 100.75 54 100.055 53.7812C99.2812 53.5312 98.5469 53.25 97.8516 52.9375C97.1641 52.625 96.5547 52.2617 96.0234 51.8477C95.5 51.4258 95.0859 50.9375 94.7812 50.3828C94.4844 49.8281 94.3359 49.1836 94.3359 48.4492C94.3359 47.7383 94.4922 47.0938 94.8047 46.5156C95.1172 45.9297 95.5547 45.4297 96.1172 45.0156C96.6797 44.5938 97.3438 44.2695 98.1094 44.043C98.8828 43.8164 99.7305 43.7031 100.652 43.7031C101.91 43.7031 103.008 43.9297 103.945 44.3828C104.883 44.8359 105.609 45.457 106.125 46.2461C106.648 47.0352 106.91 47.9375 106.91 48.9531H103.418C103.418 48.4531 103.312 48.0156 103.102 47.6406C102.898 47.2578 102.586 46.957 102.164 46.7383C101.75 46.5195 101.227 46.4102 100.594 46.4102C99.9844 46.4102 99.4766 46.5039 99.0703 46.6914C98.6641 46.8711 98.3594 47.1172 98.1562 47.4297C97.9531 47.7344 97.8516 48.0781 97.8516 48.4609C97.8516 48.75 97.9219 49.0117 98.0625 49.2461C98.2109 49.4805 98.4297 49.6992 98.7188 49.9023C99.0078 50.1055 99.3633 50.2969 99.7852 50.4766C100.207 50.6562 100.695 50.832 101.25 51.0039C102.18 51.2852 102.996 51.6016 103.699 51.9531C104.41 52.3047 105.004 52.6992 105.48 53.1367C105.957 53.5742 106.316 54.0703 106.559 54.625C106.801 55.1797 106.922 55.8086 106.922 56.5117C106.922 57.2539 106.777 57.918 106.488 58.5039C106.199 59.0898 105.781 59.5859 105.234 59.9922C104.688 60.3984 104.035 60.707 103.277 60.918C102.52 61.1289 101.672 61.2344 100.734 61.2344C99.8906 61.2344 99.0586 61.125 98.2383 60.9062C97.418 60.6797 96.6719 60.3398 96 59.8867C95.3359 59.4336 94.8047 58.8555 94.4062 58.1523C94.0078 57.4492 93.8086 56.6172 93.8086 55.6562H97.3359C97.3359 56.1875 97.418 56.6367 97.582 57.0039C97.7461 57.3711 97.9766 57.668 98.2734 57.8945C98.5781 58.1211 98.9375 58.2852 99.3516 58.3867C99.7734 58.4883 100.234 58.5391 100.734 58.5391C101.344 58.5391 101.844 58.4531 102.234 58.2812C102.633 58.1094 102.926 57.8711 103.113 57.5664C103.309 57.2617 103.406 56.918 103.406 56.5352ZM112.477 50.7578V65.875H109.102V48.3203H112.23L112.477 50.7578ZM120.504 54.5195V54.7656C120.504 55.6875 120.395 56.543 120.176 57.332C119.965 58.1211 119.652 58.8086 119.238 59.3945C118.824 59.9727 118.309 60.4258 117.691 60.7539C117.082 61.0742 116.379 61.2344 115.582 61.2344C114.809 61.2344 114.137 61.0781 113.566 60.7656C112.996 60.4531 112.516 60.0156 112.125 59.4531C111.742 58.8828 111.434 58.2227 111.199 57.4727C110.965 56.7227 110.785 55.918 110.66 55.0586V54.4141C110.785 53.4922 110.965 52.6484 111.199 51.8828C111.434 51.1094 111.742 50.4414 112.125 49.8789C112.516 49.3086 112.992 48.8672 113.555 48.5547C114.125 48.2422 114.793 48.0859 115.559 48.0859C116.363 48.0859 117.07 48.2383 117.68 48.543C118.297 48.8477 118.812 49.2852 119.227 49.8555C119.648 50.4258 119.965 51.1055 120.176 51.8945C120.395 52.6836 120.504 53.5586 120.504 54.5195ZM117.117 54.7656V54.5195C117.117 53.9805 117.07 53.4844 116.977 53.0312C116.891 52.5703 116.75 52.168 116.555 51.8242C116.367 51.4805 116.117 51.2148 115.805 51.0273C115.5 50.832 115.129 50.7344 114.691 50.7344C114.23 50.7344 113.836 50.8086 113.508 50.957C113.188 51.1055 112.926 51.3203 112.723 51.6016C112.52 51.8828 112.367 52.2188 112.266 52.6094C112.164 53 112.102 53.4414 112.078 53.9336V55.5625C112.117 56.1406 112.227 56.6602 112.406 57.1211C112.586 57.5742 112.863 57.9336 113.238 58.1992C113.613 58.4648 114.105 58.5977 114.715 58.5977C115.16 58.5977 115.535 58.5 115.84 58.3047C116.145 58.1016 116.391 57.8242 116.578 57.4727C116.773 57.1211 116.91 56.7148 116.988 56.2539C117.074 55.793 117.117 55.2969 117.117 54.7656ZM129.445 58.1406V52.4922C129.445 52.0859 129.379 51.7383 129.246 51.4492C129.113 51.1523 128.906 50.9219 128.625 50.7578C128.352 50.5938 127.996 50.5117 127.559 50.5117C127.184 50.5117 126.859 50.5781 126.586 50.7109C126.312 50.8359 126.102 51.0195 125.953 51.2617C125.805 51.4961 125.73 51.7734 125.73 52.0938H122.355C122.355 51.5547 122.48 51.043 122.73 50.5586C122.98 50.0742 123.344 49.6484 123.82 49.2812C124.297 48.9062 124.863 48.6133 125.52 48.4023C126.184 48.1914 126.926 48.0859 127.746 48.0859C128.73 48.0859 129.605 48.25 130.371 48.5781C131.137 48.9062 131.738 49.3984 132.176 50.0547C132.621 50.7109 132.844 51.5312 132.844 52.5156V57.9414C132.844 58.6367 132.887 59.207 132.973 59.6523C133.059 60.0898 133.184 60.4727 133.348 60.8008V61H129.938C129.773 60.6562 129.648 60.2266 129.562 59.7109C129.484 59.1875 129.445 58.6641 129.445 58.1406ZM129.891 53.2773L129.914 55.1875H128.027C127.582 55.1875 127.195 55.2383 126.867 55.3398C126.539 55.4414 126.27 55.5859 126.059 55.7734C125.848 55.9531 125.691 56.1641 125.59 56.4062C125.496 56.6484 125.449 56.9141 125.449 57.2031C125.449 57.4922 125.516 57.7539 125.648 57.9883C125.781 58.2148 125.973 58.3945 126.223 58.5273C126.473 58.6523 126.766 58.7148 127.102 58.7148C127.609 58.7148 128.051 58.6133 128.426 58.4102C128.801 58.207 129.09 57.957 129.293 57.6602C129.504 57.3633 129.613 57.082 129.621 56.8164L130.512 58.2461C130.387 58.5664 130.215 58.8984 129.996 59.2422C129.785 59.5859 129.516 59.9102 129.188 60.2148C128.859 60.5117 128.465 60.7578 128.004 60.9531C127.543 61.1406 126.996 61.2344 126.363 61.2344C125.559 61.2344 124.828 61.0742 124.172 60.7539C123.523 60.4258 123.008 59.9766 122.625 59.4062C122.25 58.8281 122.062 58.1719 122.062 57.4375C122.062 56.7734 122.188 56.1836 122.438 55.668C122.688 55.1523 123.055 54.7188 123.539 54.3672C124.031 54.0078 124.645 53.7383 125.379 53.5586C126.113 53.3711 126.965 53.2773 127.934 53.2773H129.891ZM140.684 58.5977C141.098 58.5977 141.465 58.5195 141.785 58.3633C142.105 58.1992 142.355 57.9727 142.535 57.6836C142.723 57.3867 142.82 57.0391 142.828 56.6406H146.004C145.996 57.5312 145.758 58.3242 145.289 59.0195C144.82 59.707 144.191 60.25 143.402 60.6484C142.613 61.0391 141.73 61.2344 140.754 61.2344C139.77 61.2344 138.91 61.0703 138.176 60.7422C137.449 60.4141 136.844 59.9609 136.359 59.3828C135.875 58.7969 135.512 58.1172 135.27 57.3438C135.027 56.5625 134.906 55.7266 134.906 54.8359V54.4961C134.906 53.5977 135.027 52.7617 135.27 51.9883C135.512 51.207 135.875 50.5273 136.359 49.9492C136.844 49.3633 137.449 48.9062 138.176 48.5781C138.902 48.25 139.754 48.0859 140.73 48.0859C141.77 48.0859 142.68 48.2852 143.461 48.6836C144.25 49.082 144.867 49.6523 145.312 50.3945C145.766 51.1289 145.996 52 146.004 53.0078H142.828C142.82 52.5859 142.73 52.2031 142.559 51.8594C142.395 51.5156 142.152 51.2422 141.832 51.0391C141.52 50.8281 141.133 50.7227 140.672 50.7227C140.18 50.7227 139.777 50.8281 139.465 51.0391C139.152 51.2422 138.91 51.5234 138.738 51.8828C138.566 52.2344 138.445 52.6367 138.375 53.0898C138.312 53.5352 138.281 54.0039 138.281 54.4961V54.8359C138.281 55.3281 138.312 55.8008 138.375 56.2539C138.438 56.707 138.555 57.1094 138.727 57.4609C138.906 57.8125 139.152 58.0898 139.465 58.293C139.777 58.4961 140.184 58.5977 140.684 58.5977ZM153.797 61.2344C152.812 61.2344 151.93 61.0781 151.148 60.7656C150.367 60.4453 149.703 60.0039 149.156 59.4414C148.617 58.8789 148.203 58.2266 147.914 57.4844C147.625 56.7344 147.48 55.9375 147.48 55.0938V54.625C147.48 53.6641 147.617 52.7852 147.891 51.9883C148.164 51.1914 148.555 50.5 149.062 49.9141C149.578 49.3281 150.203 48.8789 150.938 48.5664C151.672 48.2461 152.5 48.0859 153.422 48.0859C154.32 48.0859 155.117 48.2344 155.812 48.5312C156.508 48.8281 157.09 49.25 157.559 49.7969C158.035 50.3438 158.395 51 158.637 51.7656C158.879 52.5234 159 53.3672 159 54.2969V55.7031H148.922V53.4531H155.684V53.1953C155.684 52.7266 155.598 52.3086 155.426 51.9414C155.262 51.5664 155.012 51.2695 154.676 51.0508C154.34 50.832 153.91 50.7227 153.387 50.7227C152.941 50.7227 152.559 50.8203 152.238 51.0156C151.918 51.2109 151.656 51.4844 151.453 51.8359C151.258 52.1875 151.109 52.6016 151.008 53.0781C150.914 53.5469 150.867 54.0625 150.867 54.625V55.0938C150.867 55.6016 150.938 56.0703 151.078 56.5C151.227 56.9297 151.434 57.3008 151.699 57.6133C151.973 57.9258 152.301 58.168 152.684 58.3398C153.074 58.5117 153.516 58.5977 154.008 58.5977C154.617 58.5977 155.184 58.4805 155.707 58.2461C156.238 58.0039 156.695 57.6406 157.078 57.1562L158.719 58.9375C158.453 59.3203 158.09 59.6875 157.629 60.0391C157.176 60.3906 156.629 60.6797 155.988 60.9062C155.348 61.125 154.617 61.2344 153.797 61.2344ZM174.012 55.7617V43.9375H177.516V55.7617C177.516 56.9023 177.266 57.8828 176.766 58.7031C176.266 59.5156 175.582 60.1406 174.715 60.5781C173.855 61.0156 172.887 61.2344 171.809 61.2344C170.691 61.2344 169.703 61.0469 168.844 60.6719C167.984 60.2969 167.309 59.7227 166.816 58.9492C166.324 58.168 166.078 57.1797 166.078 55.9844H169.605C169.605 56.6094 169.691 57.1055 169.863 57.4727C170.043 57.8398 170.297 58.1016 170.625 58.2578C170.953 58.4141 171.348 58.4922 171.809 58.4922C172.254 58.4922 172.641 58.3867 172.969 58.1758C173.297 57.9648 173.551 57.6562 173.73 57.25C173.918 56.8438 174.012 56.3477 174.012 55.7617ZM179.766 54.7891V54.543C179.766 53.6133 179.898 52.7578 180.164 51.9766C180.43 51.1875 180.816 50.5039 181.324 49.9258C181.832 49.3477 182.457 48.8984 183.199 48.5781C183.941 48.25 184.793 48.0859 185.754 48.0859C186.715 48.0859 187.57 48.25 188.32 48.5781C189.07 48.8984 189.699 49.3477 190.207 49.9258C190.723 50.5039 191.113 51.1875 191.379 51.9766C191.645 52.7578 191.777 53.6133 191.777 54.543V54.7891C191.777 55.7109 191.645 56.5664 191.379 57.3555C191.113 58.1367 190.723 58.8203 190.207 59.4062C189.699 59.9844 189.074 60.4336 188.332 60.7539C187.59 61.0742 186.738 61.2344 185.777 61.2344C184.816 61.2344 183.961 61.0742 183.211 60.7539C182.469 60.4336 181.84 59.9844 181.324 59.4062C180.816 58.8203 180.43 58.1367 180.164 57.3555C179.898 56.5664 179.766 55.7109 179.766 54.7891ZM183.141 54.543V54.7891C183.141 55.3203 183.188 55.8164 183.281 56.2773C183.375 56.7383 183.523 57.1445 183.727 57.4961C183.938 57.8398 184.211 58.1094 184.547 58.3047C184.883 58.5 185.293 58.5977 185.777 58.5977C186.246 58.5977 186.648 58.5 186.984 58.3047C187.32 58.1094 187.59 57.8398 187.793 57.4961C187.996 57.1445 188.145 56.7383 188.238 56.2773C188.34 55.8164 188.391 55.3203 188.391 54.7891V54.543C188.391 54.0273 188.34 53.543 188.238 53.0898C188.145 52.6289 187.992 52.2227 187.781 51.8711C187.578 51.5117 187.309 51.2305 186.973 51.0273C186.637 50.8242 186.23 50.7227 185.754 50.7227C185.277 50.7227 184.871 50.8242 184.535 51.0273C184.207 51.2305 183.938 51.5117 183.727 51.8711C183.523 52.2227 183.375 52.6289 183.281 53.0898C183.188 53.543 183.141 54.0273 183.141 54.543ZM201.352 57.9648V48.3203H204.727V61H201.551L201.352 57.9648ZM201.727 55.3633L202.723 55.3398C202.723 56.1836 202.625 56.9688 202.43 57.6953C202.234 58.4141 201.941 59.0391 201.551 59.5703C201.16 60.0938 200.668 60.5039 200.074 60.8008C199.48 61.0898 198.781 61.2344 197.977 61.2344C197.359 61.2344 196.789 61.1484 196.266 60.9766C195.75 60.7969 195.305 60.5195 194.93 60.1445C194.562 59.7617 194.273 59.2734 194.062 58.6797C193.859 58.0781 193.758 57.3555 193.758 56.5117V48.3203H197.133V56.5352C197.133 56.9102 197.176 57.2266 197.262 57.4844C197.355 57.7422 197.484 57.9531 197.648 58.1172C197.812 58.2812 198.004 58.3984 198.223 58.4688C198.449 58.5391 198.699 58.5742 198.973 58.5742C199.668 58.5742 200.215 58.4336 200.613 58.1523C201.02 57.8711 201.305 57.4883 201.469 57.0039C201.641 56.5117 201.727 55.9648 201.727 55.3633ZM210.68 51.0859V61H207.305V48.3203H210.48L210.68 51.0859ZM214.5 48.2383L214.441 51.3672C214.277 51.3438 214.078 51.3242 213.844 51.3086C213.617 51.2852 213.41 51.2734 213.223 51.2734C212.746 51.2734 212.332 51.3359 211.98 51.4609C211.637 51.5781 211.348 51.7539 211.113 51.9883C210.887 52.2227 210.715 52.5078 210.598 52.8438C210.488 53.1797 210.426 53.5625 210.41 53.9922L209.73 53.7812C209.73 52.9609 209.812 52.207 209.977 51.5195C210.141 50.8242 210.379 50.2188 210.691 49.7031C211.012 49.1875 211.402 48.7891 211.863 48.5078C212.324 48.2266 212.852 48.0859 213.445 48.0859C213.633 48.0859 213.824 48.1016 214.02 48.1328C214.215 48.1562 214.375 48.1914 214.5 48.2383ZM219.398 51.0273V61H216.023V48.3203H219.188L219.398 51.0273ZM218.906 54.2148H217.992C217.992 53.2773 218.113 52.4336 218.355 51.6836C218.598 50.9258 218.938 50.2812 219.375 49.75C219.812 49.2109 220.332 48.8008 220.934 48.5195C221.543 48.2305 222.223 48.0859 222.973 48.0859C223.566 48.0859 224.109 48.1719 224.602 48.3438C225.094 48.5156 225.516 48.7891 225.867 49.1641C226.227 49.5391 226.5 50.0352 226.688 50.6523C226.883 51.2695 226.98 52.0234 226.98 52.9141V61H223.582V52.9023C223.582 52.3398 223.504 51.9023 223.348 51.5898C223.191 51.2773 222.961 51.0586 222.656 50.9336C222.359 50.8008 221.992 50.7344 221.555 50.7344C221.102 50.7344 220.707 50.8242 220.371 51.0039C220.043 51.1836 219.77 51.4336 219.551 51.7539C219.34 52.0664 219.18 52.4336 219.07 52.8555C218.961 53.2773 218.906 53.7305 218.906 54.2148ZM235.383 61.2344C234.398 61.2344 233.516 61.0781 232.734 60.7656C231.953 60.4453 231.289 60.0039 230.742 59.4414C230.203 58.8789 229.789 58.2266 229.5 57.4844C229.211 56.7344 229.066 55.9375 229.066 55.0938V54.625C229.066 53.6641 229.203 52.7852 229.477 51.9883C229.75 51.1914 230.141 50.5 230.648 49.9141C231.164 49.3281 231.789 48.8789 232.523 48.5664C233.258 48.2461 234.086 48.0859 235.008 48.0859C235.906 48.0859 236.703 48.2344 237.398 48.5312C238.094 48.8281 238.676 49.25 239.145 49.7969C239.621 50.3438 239.98 51 240.223 51.7656C240.465 52.5234 240.586 53.3672 240.586 54.2969V55.7031H230.508V53.4531H237.27V53.1953C237.27 52.7266 237.184 52.3086 237.012 51.9414C236.848 51.5664 236.598 51.2695 236.262 51.0508C235.926 50.832 235.496 50.7227 234.973 50.7227C234.527 50.7227 234.145 50.8203 233.824 51.0156C233.504 51.2109 233.242 51.4844 233.039 51.8359C232.844 52.1875 232.695 52.6016 232.594 53.0781C232.5 53.5469 232.453 54.0625 232.453 54.625V55.0938C232.453 55.6016 232.523 56.0703 232.664 56.5C232.812 56.9297 233.02 57.3008 233.285 57.6133C233.559 57.9258 233.887 58.168 234.27 58.3398C234.66 58.5117 235.102 58.5977 235.594 58.5977C236.203 58.5977 236.77 58.4805 237.293 58.2461C237.824 58.0039 238.281 57.6406 238.664 57.1562L240.305 58.9375C240.039 59.3203 239.676 59.6875 239.215 60.0391C238.762 60.3906 238.215 60.6797 237.574 60.9062C236.934 61.125 236.203 61.2344 235.383 61.2344ZM246.105 59.5703L249.469 48.3203H253.09L247.992 62.9102C247.883 63.2305 247.734 63.5742 247.547 63.9414C247.367 64.3086 247.121 64.6562 246.809 64.9844C246.504 65.3203 246.117 65.5938 245.648 65.8047C245.188 66.0156 244.621 66.1211 243.949 66.1211C243.629 66.1211 243.367 66.1016 243.164 66.0625C242.961 66.0234 242.719 65.9688 242.438 65.8984V63.4258C242.523 63.4258 242.613 63.4258 242.707 63.4258C242.801 63.4336 242.891 63.4375 242.977 63.4375C243.422 63.4375 243.785 63.3867 244.066 63.2852C244.348 63.1836 244.574 63.0273 244.746 62.8164C244.918 62.6133 245.055 62.3477 245.156 62.0195L246.105 59.5703ZM244.699 48.3203L247.453 57.5078L247.934 61.082L245.637 61.3281L241.078 48.3203H244.699Z" fill="#888888"/>
<path d="M114.117 84.875H122.344V107.164C122.344 109.82 121.789 112.07 120.68 113.914C119.57 115.742 118.016 117.125 116.016 118.062C114.016 119 111.664 119.469 108.961 119.469C106.289 119.469 103.938 119 101.906 118.062C99.8906 117.125 98.3125 115.742 97.1719 113.914C96.0469 112.07 95.4844 109.82 95.4844 107.164V84.875H103.734V107.164C103.734 108.57 103.938 109.719 104.344 110.609C104.75 111.484 105.344 112.125 106.125 112.531C106.906 112.938 107.852 113.141 108.961 113.141C110.086 113.141 111.031 112.938 111.797 112.531C112.562 112.125 113.141 111.484 113.531 110.609C113.922 109.719 114.117 108.57 114.117 107.164V84.875ZM136.266 84.875V119H128.062V84.875H136.266ZM172.523 84.875H180.75V107.164C180.75 109.82 180.195 112.07 179.086 113.914C177.977 115.742 176.422 117.125 174.422 118.062C172.422 119 170.07 119.469 167.367 119.469C164.695 119.469 162.344 119 160.312 118.062C158.297 117.125 156.719 115.742 155.578 113.914C154.453 112.07 153.891 109.82 153.891 107.164V84.875H162.141V107.164C162.141 108.57 162.344 109.719 162.75 110.609C163.156 111.484 163.75 112.125 164.531 112.531C165.312 112.938 166.258 113.141 167.367 113.141C168.492 113.141 169.438 112.938 170.203 112.531C170.969 112.125 171.547 111.484 171.938 110.609C172.328 109.719 172.523 108.57 172.523 107.164V84.875ZM193.078 84.875L198.656 96.2188L204.234 84.875H213.609L204.094 101.797L213.867 119H204.398L198.656 107.445L192.914 119H183.422L193.219 101.797L183.68 84.875H193.078Z" fill="black"/>
<path d="M1134 0H1348C1356.28 0 1363 6.71573 1363 15V148C1363 156.284 1356.28 163 1348 163H1134V0Z" fill="black"/>
<path d="M1248.5 111.917C1244.51 111.917 1240.55 111.13 1236.86 109.601C1233.17 108.073 1229.82 105.832 1226.99 103.008C1221.29 97.3036 1218.08 89.567 1218.08 81.5C1218.08 73.433 1221.29 65.6964 1226.99 59.9922C1232.7 54.2879 1240.43 51.0833 1248.5 51.0833C1265.23 51.0833 1278.92 63.25 1278.92 78.4583C1278.92 83.2985 1276.99 87.9405 1273.57 91.363C1270.15 94.7856 1265.51 96.7083 1260.67 96.7083H1255.19C1254.28 96.7083 1253.67 97.3167 1253.67 98.2292C1253.67 98.5333 1253.97 98.8375 1253.97 99.1417C1255.19 100.662 1255.8 102.487 1255.8 104.312C1256.1 108.571 1252.76 111.917 1248.5 111.917ZM1248.5 57.1667C1242.05 57.1667 1235.86 59.7303 1231.29 64.2937C1226.73 68.8571 1224.17 75.0464 1224.17 81.5C1224.17 87.9536 1226.73 94.1429 1231.29 98.7063C1235.86 103.27 1242.05 105.833 1248.5 105.833C1249.41 105.833 1250.02 105.225 1250.02 104.312C1250.02 103.704 1249.72 103.4 1249.72 103.096C1248.5 101.575 1247.89 100.054 1247.89 98.2292C1247.89 93.9708 1251.24 90.625 1255.5 90.625H1260.67C1263.89 90.625 1266.99 89.3432 1269.27 87.0615C1271.55 84.7798 1272.83 81.6851 1272.83 78.4583C1272.83 66.5958 1261.88 57.1667 1248.5 57.1667ZM1231.77 75.4167C1234.2 75.4167 1236.33 77.5458 1236.33 79.9792C1236.33 82.4125 1234.2 84.5417 1231.77 84.5417C1229.34 84.5417 1227.21 82.4125 1227.21 79.9792C1227.21 77.5458 1229.34 75.4167 1231.77 75.4167ZM1240.9 63.25C1243.33 63.25 1245.46 65.3792 1245.46 67.8125C1245.46 70.2458 1243.33 72.375 1240.9 72.375C1238.46 72.375 1236.33 70.2458 1236.33 67.8125C1236.33 65.3792 1238.46 63.25 1240.9 63.25ZM1256.1 63.25C1258.54 63.25 1260.67 65.3792 1260.67 67.8125C1260.67 70.2458 1258.54 72.375 1256.1 72.375C1253.67 72.375 1251.54 70.2458 1251.54 67.8125C1251.54 65.3792 1253.67 63.25 1256.1 63.25ZM1265.23 75.4167C1267.66 75.4167 1269.79 77.5458 1269.79 79.9792C1269.79 82.4125 1267.66 84.5417 1265.23 84.5417C1262.8 84.5417 1260.67 82.4125 1260.67 79.9792C1260.67 77.5458 1262.8 75.4167 1265.23 75.4167Z" fill="#F0F0F0"/>
</svg>
