<svg width="1363" height="163" viewBox="0 0 1363 163" fill="none" xmlns="http://www.w3.org/2000/svg">
<path d="M0 15C0 6.71573 6.71573 0 15 0H37V163H15C6.71573 163 0 156.284 0 148V15Z" fill="#424242"/>
<rect width="1097" height="163" transform="translate(37)" fill="#F0F0F0"/>
<path d="M101.906 53.9219L94.3945 51.2383V48.0859L104.602 52.375V54.6367L101.906 53.9219ZM94.3945 56.1719L101.918 53.4297L104.602 52.7852V55.0352L94.3945 59.3242V56.1719ZM121.781 56.5352C121.781 56.2305 121.734 55.957 121.641 55.7148C121.555 55.4648 121.391 55.2383 121.148 55.0352C120.906 54.8242 120.566 54.6172 120.129 54.4141C119.691 54.2109 119.125 54 118.43 53.7812C117.656 53.5312 116.922 53.25 116.227 52.9375C115.539 52.625 114.93 52.2617 114.398 51.8477C113.875 51.4258 113.461 50.9375 113.156 50.3828C112.859 49.8281 112.711 49.1836 112.711 48.4492C112.711 47.7383 112.867 47.0938 113.18 46.5156C113.492 45.9297 113.93 45.4297 114.492 45.0156C115.055 44.5938 115.719 44.2695 116.484 44.043C117.258 43.8164 118.105 43.7031 119.027 43.7031C120.285 43.7031 121.383 43.9297 122.32 44.3828C123.258 44.8359 123.984 45.457 124.5 46.2461C125.023 47.0352 125.285 47.9375 125.285 48.9531H121.793C121.793 48.4531 121.688 48.0156 121.477 47.6406C121.273 47.2578 120.961 46.957 120.539 46.7383C120.125 46.5195 119.602 46.4102 118.969 46.4102C118.359 46.4102 117.852 46.5039 117.445 46.6914C117.039 46.8711 116.734 47.1172 116.531 47.4297C116.328 47.7344 116.227 48.0781 116.227 48.4609C116.227 48.75 116.297 49.0117 116.438 49.2461C116.586 49.4805 116.805 49.6992 117.094 49.9023C117.383 50.1055 117.738 50.2969 118.16 50.4766C118.582 50.6562 119.07 50.832 119.625 51.0039C120.555 51.2852 121.371 51.6016 122.074 51.9531C122.785 52.3047 123.379 52.6992 123.855 53.1367C124.332 53.5742 124.691 54.0703 124.934 54.625C125.176 55.1797 125.297 55.8086 125.297 56.5117C125.297 57.2539 125.152 57.918 124.863 58.5039C124.574 59.0898 124.156 59.5859 123.609 59.9922C123.062 60.3984 122.41 60.707 121.652 60.918C120.895 61.1289 120.047 61.2344 119.109 61.2344C118.266 61.2344 117.434 61.125 116.613 60.9062C115.793 60.6797 115.047 60.3398 114.375 59.8867C113.711 59.4336 113.18 58.8555 112.781 58.1523C112.383 57.4492 112.184 56.6172 112.184 55.6562H115.711C115.711 56.1875 115.793 56.6367 115.957 57.0039C116.121 57.3711 116.352 57.668 116.648 57.8945C116.953 58.1211 117.312 58.2852 117.727 58.3867C118.148 58.4883 118.609 58.5391 119.109 58.5391C119.719 58.5391 120.219 58.4531 120.609 58.2812C121.008 58.1094 121.301 57.8711 121.488 57.5664C121.684 57.2617 121.781 56.918 121.781 56.5352ZM130.852 50.7578V65.875H127.477V48.3203H130.605L130.852 50.7578ZM138.879 54.5195V54.7656C138.879 55.6875 138.77 56.543 138.551 57.332C138.34 58.1211 138.027 58.8086 137.613 59.3945C137.199 59.9727 136.684 60.4258 136.066 60.7539C135.457 61.0742 134.754 61.2344 133.957 61.2344C133.184 61.2344 132.512 61.0781 131.941 60.7656C131.371 60.4531 130.891 60.0156 130.5 59.4531C130.117 58.8828 129.809 58.2227 129.574 57.4727C129.34 56.7227 129.16 55.918 129.035 55.0586V54.4141C129.16 53.4922 129.34 52.6484 129.574 51.8828C129.809 51.1094 130.117 50.4414 130.5 49.8789C130.891 49.3086 131.367 48.8672 131.93 48.5547C132.5 48.2422 133.168 48.0859 133.934 48.0859C134.738 48.0859 135.445 48.2383 136.055 48.543C136.672 48.8477 137.188 49.2852 137.602 49.8555C138.023 50.4258 138.34 51.1055 138.551 51.8945C138.77 52.6836 138.879 53.5586 138.879 54.5195ZM135.492 54.7656V54.5195C135.492 53.9805 135.445 53.4844 135.352 53.0312C135.266 52.5703 135.125 52.168 134.93 51.8242C134.742 51.4805 134.492 51.2148 134.18 51.0273C133.875 50.832 133.504 50.7344 133.066 50.7344C132.605 50.7344 132.211 50.8086 131.883 50.957C131.562 51.1055 131.301 51.3203 131.098 51.6016C130.895 51.8828 130.742 52.2188 130.641 52.6094C130.539 53 130.477 53.4414 130.453 53.9336V55.5625C130.492 56.1406 130.602 56.6602 130.781 57.1211C130.961 57.5742 131.238 57.9336 131.613 58.1992C131.988 58.4648 132.48 58.5977 133.09 58.5977C133.535 58.5977 133.91 58.5 134.215 58.3047C134.52 58.1016 134.766 57.8242 134.953 57.4727C135.148 57.1211 135.285 56.7148 135.363 56.2539C135.449 55.793 135.492 55.2969 135.492 54.7656ZM147.82 58.1406V52.4922C147.82 52.0859 147.754 51.7383 147.621 51.4492C147.488 51.1523 147.281 50.9219 147 50.7578C146.727 50.5938 146.371 50.5117 145.934 50.5117C145.559 50.5117 145.234 50.5781 144.961 50.7109C144.688 50.8359 144.477 51.0195 144.328 51.2617C144.18 51.4961 144.105 51.7734 144.105 52.0938H140.73C140.73 51.5547 140.855 51.043 141.105 50.5586C141.355 50.0742 141.719 49.6484 142.195 49.2812C142.672 48.9062 143.238 48.6133 143.895 48.4023C144.559 48.1914 145.301 48.0859 146.121 48.0859C147.105 48.0859 147.98 48.25 148.746 48.5781C149.512 48.9062 150.113 49.3984 150.551 50.0547C150.996 50.7109 151.219 51.5312 151.219 52.5156V57.9414C151.219 58.6367 151.262 59.207 151.348 59.6523C151.434 60.0898 151.559 60.4727 151.723 60.8008V61H148.312C148.148 60.6562 148.023 60.2266 147.938 59.7109C147.859 59.1875 147.82 58.6641 147.82 58.1406ZM148.266 53.2773L148.289 55.1875H146.402C145.957 55.1875 145.57 55.2383 145.242 55.3398C144.914 55.4414 144.645 55.5859 144.434 55.7734C144.223 55.9531 144.066 56.1641 143.965 56.4062C143.871 56.6484 143.824 56.9141 143.824 57.2031C143.824 57.4922 143.891 57.7539 144.023 57.9883C144.156 58.2148 144.348 58.3945 144.598 58.5273C144.848 58.6523 145.141 58.7148 145.477 58.7148C145.984 58.7148 146.426 58.6133 146.801 58.4102C147.176 58.207 147.465 57.957 147.668 57.6602C147.879 57.3633 147.988 57.082 147.996 56.8164L148.887 58.2461C148.762 58.5664 148.59 58.8984 148.371 59.2422C148.16 59.5859 147.891 59.9102 147.562 60.2148C147.234 60.5117 146.84 60.7578 146.379 60.9531C145.918 61.1406 145.371 61.2344 144.738 61.2344C143.934 61.2344 143.203 61.0742 142.547 60.7539C141.898 60.4258 141.383 59.9766 141 59.4062C140.625 58.8281 140.438 58.1719 140.438 57.4375C140.438 56.7734 140.562 56.1836 140.812 55.668C141.062 55.1523 141.43 54.7188 141.914 54.3672C142.406 54.0078 143.02 53.7383 143.754 53.5586C144.488 53.3711 145.34 53.2773 146.309 53.2773H148.266ZM159.059 58.5977C159.473 58.5977 159.84 58.5195 160.16 58.3633C160.48 58.1992 160.73 57.9727 160.91 57.6836C161.098 57.3867 161.195 57.0391 161.203 56.6406H164.379C164.371 57.5312 164.133 58.3242 163.664 59.0195C163.195 59.707 162.566 60.25 161.777 60.6484C160.988 61.0391 160.105 61.2344 159.129 61.2344C158.145 61.2344 157.285 61.0703 156.551 60.7422C155.824 60.4141 155.219 59.9609 154.734 59.3828C154.25 58.7969 153.887 58.1172 153.645 57.3438C153.402 56.5625 153.281 55.7266 153.281 54.8359V54.4961C153.281 53.5977 153.402 52.7617 153.645 51.9883C153.887 51.207 154.25 50.5273 154.734 49.9492C155.219 49.3633 155.824 48.9062 156.551 48.5781C157.277 48.25 158.129 48.0859 159.105 48.0859C160.145 48.0859 161.055 48.2852 161.836 48.6836C162.625 49.082 163.242 49.6523 163.688 50.3945C164.141 51.1289 164.371 52 164.379 53.0078H161.203C161.195 52.5859 161.105 52.2031 160.934 51.8594C160.77 51.5156 160.527 51.2422 160.207 51.0391C159.895 50.8281 159.508 50.7227 159.047 50.7227C158.555 50.7227 158.152 50.8281 157.84 51.0391C157.527 51.2422 157.285 51.5234 157.113 51.8828C156.941 52.2344 156.82 52.6367 156.75 53.0898C156.688 53.5352 156.656 54.0039 156.656 54.4961V54.8359C156.656 55.3281 156.688 55.8008 156.75 56.2539C156.812 56.707 156.93 57.1094 157.102 57.4609C157.281 57.8125 157.527 58.0898 157.84 58.293C158.152 58.4961 158.559 58.5977 159.059 58.5977ZM172.172 61.2344C171.188 61.2344 170.305 61.0781 169.523 60.7656C168.742 60.4453 168.078 60.0039 167.531 59.4414C166.992 58.8789 166.578 58.2266 166.289 57.4844C166 56.7344 165.855 55.9375 165.855 55.0938V54.625C165.855 53.6641 165.992 52.7852 166.266 51.9883C166.539 51.1914 166.93 50.5 167.438 49.9141C167.953 49.3281 168.578 48.8789 169.312 48.5664C170.047 48.2461 170.875 48.0859 171.797 48.0859C172.695 48.0859 173.492 48.2344 174.188 48.5312C174.883 48.8281 175.465 49.25 175.934 49.7969C176.41 50.3438 176.77 51 177.012 51.7656C177.254 52.5234 177.375 53.3672 177.375 54.2969V55.7031H167.297V53.4531H174.059V53.1953C174.059 52.7266 173.973 52.3086 173.801 51.9414C173.637 51.5664 173.387 51.2695 173.051 51.0508C172.715 50.832 172.285 50.7227 171.762 50.7227C171.316 50.7227 170.934 50.8203 170.613 51.0156C170.293 51.2109 170.031 51.4844 169.828 51.8359C169.633 52.1875 169.484 52.6016 169.383 53.0781C169.289 53.5469 169.242 54.0625 169.242 54.625V55.0938C169.242 55.6016 169.312 56.0703 169.453 56.5C169.602 56.9297 169.809 57.3008 170.074 57.6133C170.348 57.9258 170.676 58.168 171.059 58.3398C171.449 58.5117 171.891 58.5977 172.383 58.5977C172.992 58.5977 173.559 58.4805 174.082 58.2461C174.613 58.0039 175.07 57.6406 175.453 57.1562L177.094 58.9375C176.828 59.3203 176.465 59.6875 176.004 60.0391C175.551 60.3906 175.004 60.6797 174.363 60.9062C173.723 61.125 172.992 61.2344 172.172 61.2344ZM192.387 55.7617V43.9375H195.891V55.7617C195.891 56.9023 195.641 57.8828 195.141 58.7031C194.641 59.5156 193.957 60.1406 193.09 60.5781C192.23 61.0156 191.262 61.2344 190.184 61.2344C189.066 61.2344 188.078 61.0469 187.219 60.6719C186.359 60.2969 185.684 59.7227 185.191 58.9492C184.699 58.168 184.453 57.1797 184.453 55.9844H187.98C187.98 56.6094 188.066 57.1055 188.238 57.4727C188.418 57.8398 188.672 58.1016 189 58.2578C189.328 58.4141 189.723 58.4922 190.184 58.4922C190.629 58.4922 191.016 58.3867 191.344 58.1758C191.672 57.9648 191.926 57.6562 192.105 57.25C192.293 56.8438 192.387 56.3477 192.387 55.7617ZM198.141 54.7891V54.543C198.141 53.6133 198.273 52.7578 198.539 51.9766C198.805 51.1875 199.191 50.5039 199.699 49.9258C200.207 49.3477 200.832 48.8984 201.574 48.5781C202.316 48.25 203.168 48.0859 204.129 48.0859C205.09 48.0859 205.945 48.25 206.695 48.5781C207.445 48.8984 208.074 49.3477 208.582 49.9258C209.098 50.5039 209.488 51.1875 209.754 51.9766C210.02 52.7578 210.152 53.6133 210.152 54.543V54.7891C210.152 55.7109 210.02 56.5664 209.754 57.3555C209.488 58.1367 209.098 58.8203 208.582 59.4062C208.074 59.9844 207.449 60.4336 206.707 60.7539C205.965 61.0742 205.113 61.2344 204.152 61.2344C203.191 61.2344 202.336 61.0742 201.586 60.7539C200.844 60.4336 200.215 59.9844 199.699 59.4062C199.191 58.8203 198.805 58.1367 198.539 57.3555C198.273 56.5664 198.141 55.7109 198.141 54.7891ZM201.516 54.543V54.7891C201.516 55.3203 201.562 55.8164 201.656 56.2773C201.75 56.7383 201.898 57.1445 202.102 57.4961C202.312 57.8398 202.586 58.1094 202.922 58.3047C203.258 58.5 203.668 58.5977 204.152 58.5977C204.621 58.5977 205.023 58.5 205.359 58.3047C205.695 58.1094 205.965 57.8398 206.168 57.4961C206.371 57.1445 206.52 56.7383 206.613 56.2773C206.715 55.8164 206.766 55.3203 206.766 54.7891V54.543C206.766 54.0273 206.715 53.543 206.613 53.0898C206.52 52.6289 206.367 52.2227 206.156 51.8711C205.953 51.5117 205.684 51.2305 205.348 51.0273C205.012 50.8242 204.605 50.7227 204.129 50.7227C203.652 50.7227 203.246 50.8242 202.91 51.0273C202.582 51.2305 202.312 51.5117 202.102 51.8711C201.898 52.2227 201.75 52.6289 201.656 53.0898C201.562 53.543 201.516 54.0273 201.516 54.543ZM219.727 57.9648V48.3203H223.102V61H219.926L219.727 57.9648ZM220.102 55.3633L221.098 55.3398C221.098 56.1836 221 56.9688 220.805 57.6953C220.609 58.4141 220.316 59.0391 219.926 59.5703C219.535 60.0938 219.043 60.5039 218.449 60.8008C217.855 61.0898 217.156 61.2344 216.352 61.2344C215.734 61.2344 215.164 61.1484 214.641 60.9766C214.125 60.7969 213.68 60.5195 213.305 60.1445C212.938 59.7617 212.648 59.2734 212.438 58.6797C212.234 58.0781 212.133 57.3555 212.133 56.5117V48.3203H215.508V56.5352C215.508 56.9102 215.551 57.2266 215.637 57.4844C215.73 57.7422 215.859 57.9531 216.023 58.1172C216.188 58.2812 216.379 58.3984 216.598 58.4688C216.824 58.5391 217.074 58.5742 217.348 58.5742C218.043 58.5742 218.59 58.4336 218.988 58.1523C219.395 57.8711 219.68 57.4883 219.844 57.0039C220.016 56.5117 220.102 55.9648 220.102 55.3633ZM229.055 51.0859V61H225.68V48.3203H228.855L229.055 51.0859ZM232.875 48.2383L232.816 51.3672C232.652 51.3438 232.453 51.3242 232.219 51.3086C231.992 51.2852 231.785 51.2734 231.598 51.2734C231.121 51.2734 230.707 51.3359 230.355 51.4609C230.012 51.5781 229.723 51.7539 229.488 51.9883C229.262 52.2227 229.09 52.5078 228.973 52.8438C228.863 53.1797 228.801 53.5625 228.785 53.9922L228.105 53.7812C228.105 52.9609 228.188 52.207 228.352 51.5195C228.516 50.8242 228.754 50.2188 229.066 49.7031C229.387 49.1875 229.777 48.7891 230.238 48.5078C230.699 48.2266 231.227 48.0859 231.82 48.0859C232.008 48.0859 232.199 48.1016 232.395 48.1328C232.59 48.1562 232.75 48.1914 232.875 48.2383ZM237.773 51.0273V61H234.398V48.3203H237.562L237.773 51.0273ZM237.281 54.2148H236.367C236.367 53.2773 236.488 52.4336 236.73 51.6836C236.973 50.9258 237.312 50.2812 237.75 49.75C238.188 49.2109 238.707 48.8008 239.309 48.5195C239.918 48.2305 240.598 48.0859 241.348 48.0859C241.941 48.0859 242.484 48.1719 242.977 48.3438C243.469 48.5156 243.891 48.7891 244.242 49.1641C244.602 49.5391 244.875 50.0352 245.062 50.6523C245.258 51.2695 245.355 52.0234 245.355 52.9141V61H241.957V52.9023C241.957 52.3398 241.879 51.9023 241.723 51.5898C241.566 51.2773 241.336 51.0586 241.031 50.9336C240.734 50.8008 240.367 50.7344 239.93 50.7344C239.477 50.7344 239.082 50.8242 238.746 51.0039C238.418 51.1836 238.145 51.4336 237.926 51.7539C237.715 52.0664 237.555 52.4336 237.445 52.8555C237.336 53.2773 237.281 53.7305 237.281 54.2148ZM253.758 61.2344C252.773 61.2344 251.891 61.0781 251.109 60.7656C250.328 60.4453 249.664 60.0039 249.117 59.4414C248.578 58.8789 248.164 58.2266 247.875 57.4844C247.586 56.7344 247.441 55.9375 247.441 55.0938V54.625C247.441 53.6641 247.578 52.7852 247.852 51.9883C248.125 51.1914 248.516 50.5 249.023 49.9141C249.539 49.3281 250.164 48.8789 250.898 48.5664C251.633 48.2461 252.461 48.0859 253.383 48.0859C254.281 48.0859 255.078 48.2344 255.773 48.5312C256.469 48.8281 257.051 49.25 257.52 49.7969C257.996 50.3438 258.355 51 258.598 51.7656C258.84 52.5234 258.961 53.3672 258.961 54.2969V55.7031H248.883V53.4531H255.645V53.1953C255.645 52.7266 255.559 52.3086 255.387 51.9414C255.223 51.5664 254.973 51.2695 254.637 51.0508C254.301 50.832 253.871 50.7227 253.348 50.7227C252.902 50.7227 252.52 50.8203 252.199 51.0156C251.879 51.2109 251.617 51.4844 251.414 51.8359C251.219 52.1875 251.07 52.6016 250.969 53.0781C250.875 53.5469 250.828 54.0625 250.828 54.625V55.0938C250.828 55.6016 250.898 56.0703 251.039 56.5C251.188 56.9297 251.395 57.3008 251.66 57.6133C251.934 57.9258 252.262 58.168 252.645 58.3398C253.035 58.5117 253.477 58.5977 253.969 58.5977C254.578 58.5977 255.145 58.4805 255.668 58.2461C256.199 58.0039 256.656 57.6406 257.039 57.1562L258.68 58.9375C258.414 59.3203 258.051 59.6875 257.59 60.0391C257.137 60.3906 256.59 60.6797 255.949 60.9062C255.309 61.125 254.578 61.2344 253.758 61.2344ZM264.48 59.5703L267.844 48.3203H271.465L266.367 62.9102C266.258 63.2305 266.109 63.5742 265.922 63.9414C265.742 64.3086 265.496 64.6562 265.184 64.9844C264.879 65.3203 264.492 65.5938 264.023 65.8047C263.562 66.0156 262.996 66.1211 262.324 66.1211C262.004 66.1211 261.742 66.1016 261.539 66.0625C261.336 66.0234 261.094 65.9688 260.812 65.8984V63.4258C260.898 63.4258 260.988 63.4258 261.082 63.4258C261.176 63.4336 261.266 63.4375 261.352 63.4375C261.797 63.4375 262.16 63.3867 262.441 63.2852C262.723 63.1836 262.949 63.0273 263.121 62.8164C263.293 62.6133 263.43 62.3477 263.531 62.0195L264.48 59.5703ZM263.074 48.3203L265.828 57.5078L266.309 61.082L264.012 61.3281L259.453 48.3203H263.074Z" fill="#888888"/>
<path d="M110.062 92.0469L101.742 119H92.9062L105.445 84.875H111.047L110.062 92.0469ZM116.953 119L108.609 92.0469L107.531 84.875H113.203L125.812 119H116.953ZM116.625 106.273V112.625H99.1172V106.273H116.625ZM135.258 115.906L142.055 84.875H146.109L148.312 87.5234L141.07 119H136.594L135.258 115.906ZM133.453 84.875L139.195 116.141L137.719 119H132.539L125.297 84.875H133.453ZM152.039 115.977L157.734 84.875H165.867L158.625 119H153.469L152.039 115.977ZM149.039 84.875L156 116.094L154.594 119H150.117L142.711 87.4766L145.008 84.875H149.039ZM186.68 109.93C186.68 109.398 186.602 108.922 186.445 108.5C186.289 108.062 186 107.656 185.578 107.281C185.156 106.906 184.547 106.531 183.75 106.156C182.969 105.766 181.938 105.359 180.656 104.938C179.156 104.438 177.711 103.875 176.32 103.25C174.93 102.609 173.688 101.867 172.594 101.023C171.5 100.164 170.633 99.1641 169.992 98.0234C169.352 96.8672 169.031 95.5234 169.031 93.9922C169.031 92.5234 169.359 91.2031 170.016 90.0312C170.672 88.8438 171.586 87.8359 172.758 87.0078C173.945 86.1641 175.336 85.5234 176.93 85.0859C178.523 84.6328 180.266 84.4062 182.156 84.4062C184.656 84.4062 186.859 84.8438 188.766 85.7188C190.688 86.5781 192.188 87.8047 193.266 89.3984C194.359 90.9766 194.906 92.8438 194.906 95H186.727C186.727 94.1406 186.547 93.3828 186.188 92.7266C185.844 92.0703 185.32 91.5547 184.617 91.1797C183.914 90.8047 183.031 90.6172 181.969 90.6172C180.938 90.6172 180.07 90.7734 179.367 91.0859C178.664 91.3984 178.133 91.8203 177.773 92.3516C177.414 92.8672 177.234 93.4375 177.234 94.0625C177.234 94.5781 177.375 95.0469 177.656 95.4688C177.953 95.875 178.367 96.2578 178.898 96.6172C179.445 96.9766 180.102 97.3203 180.867 97.6484C181.648 97.9766 182.523 98.2969 183.492 98.6094C185.305 99.1875 186.914 99.8359 188.32 100.555C189.742 101.258 190.938 102.062 191.906 102.969C192.891 103.859 193.633 104.875 194.133 106.016C194.648 107.156 194.906 108.445 194.906 109.883C194.906 111.414 194.609 112.773 194.016 113.961C193.422 115.148 192.57 116.156 191.461 116.984C190.352 117.797 189.023 118.414 187.477 118.836C185.93 119.258 184.203 119.469 182.297 119.469C180.547 119.469 178.82 119.25 177.117 118.812C175.43 118.359 173.898 117.672 172.523 116.75C171.148 115.812 170.047 114.617 169.219 113.164C168.406 111.695 168 109.953 168 107.938H176.25C176.25 108.938 176.383 109.781 176.648 110.469C176.914 111.156 177.305 111.711 177.82 112.133C178.336 112.539 178.969 112.836 179.719 113.023C180.469 113.195 181.328 113.281 182.297 113.281C183.344 113.281 184.188 113.133 184.828 112.836C185.469 112.523 185.938 112.117 186.234 111.617C186.531 111.102 186.68 110.539 186.68 109.93ZM222.188 119H214.617L214.664 112.672H222.188C223.75 112.672 225.07 112.297 226.148 111.547C227.242 110.797 228.07 109.68 228.633 108.195C229.211 106.695 229.5 104.852 229.5 102.664V101.188C229.5 99.5469 229.336 98.1094 229.008 96.875C228.695 95.625 228.227 94.5859 227.602 93.7578C226.977 92.9141 226.195 92.2812 225.258 91.8594C224.336 91.4375 223.273 91.2266 222.07 91.2266H214.477V84.875H222.07C224.383 84.875 226.5 85.2734 228.422 86.0703C230.359 86.8516 232.031 87.9766 233.438 89.4453C234.859 90.8984 235.953 92.625 236.719 94.625C237.5 96.6094 237.891 98.8125 237.891 101.234V102.664C237.891 105.07 237.5 107.273 236.719 109.273C235.953 111.273 234.867 113 233.461 114.453C232.055 115.906 230.391 117.031 228.469 117.828C226.562 118.609 224.469 119 222.188 119ZM219.328 84.875V119H211.102V84.875H219.328ZM254.086 119.469C252.023 119.469 250.18 119.148 248.555 118.508C246.93 117.852 245.555 116.953 244.43 115.812C243.32 114.672 242.469 113.359 241.875 111.875C241.297 110.391 241.008 108.82 241.008 107.164V106.273C241.008 104.414 241.266 102.695 241.781 101.117C242.297 99.5234 243.062 98.1328 244.078 96.9453C245.094 95.7578 246.367 94.8359 247.898 94.1797C249.43 93.5078 251.211 93.1719 253.242 93.1719C255.039 93.1719 256.648 93.4609 258.07 94.0391C259.492 94.6172 260.695 95.4453 261.68 96.5234C262.68 97.6016 263.438 98.9062 263.953 100.438C264.484 101.969 264.75 103.688 264.75 105.594V108.805H244.031V103.859H257.039V103.25C257.055 102.406 256.906 101.688 256.594 101.094C256.297 100.5 255.859 100.047 255.281 99.7344C254.703 99.4219 254 99.2656 253.172 99.2656C252.312 99.2656 251.602 99.4531 251.039 99.8281C250.492 100.203 250.062 100.719 249.75 101.375C249.453 102.016 249.242 102.758 249.117 103.602C248.992 104.445 248.93 105.336 248.93 106.273V107.164C248.93 108.102 249.055 108.953 249.305 109.719C249.57 110.484 249.945 111.141 250.43 111.688C250.93 112.219 251.523 112.633 252.211 112.93C252.914 113.227 253.711 113.375 254.602 113.375C255.68 113.375 256.742 113.172 257.789 112.766C258.836 112.359 259.734 111.688 260.484 110.75L264.07 115.016C263.555 115.75 262.82 116.461 261.867 117.148C260.93 117.836 259.805 118.398 258.492 118.836C257.18 119.258 255.711 119.469 254.086 119.469ZM275.93 98.5156V128.75H268.031V93.6406H275.391L275.93 98.5156ZM291.492 106.016V106.508C291.492 108.352 291.281 110.062 290.859 111.641C290.438 113.219 289.812 114.594 288.984 115.766C288.156 116.938 287.125 117.852 285.891 118.508C284.672 119.148 283.258 119.469 281.648 119.469C280.133 119.469 278.828 119.133 277.734 118.461C276.641 117.789 275.727 116.859 274.992 115.672C274.258 114.484 273.664 113.125 273.211 111.594C272.758 110.062 272.398 108.445 272.133 106.742V106.109C272.398 104.281 272.758 102.586 273.211 101.023C273.664 99.4453 274.258 98.0703 274.992 96.8984C275.727 95.7266 276.633 94.8125 277.711 94.1562C278.805 93.5 280.109 93.1719 281.625 93.1719C283.234 93.1719 284.648 93.4766 285.867 94.0859C287.102 94.6953 288.133 95.5703 288.961 96.7109C289.805 97.8359 290.438 99.1875 290.859 100.766C291.281 102.344 291.492 104.094 291.492 106.016ZM283.594 106.508V106.016C283.594 105.031 283.523 104.133 283.383 103.32C283.242 102.492 283.016 101.773 282.703 101.164C282.406 100.555 282.008 100.086 281.508 99.7578C281.008 99.4297 280.391 99.2656 279.656 99.2656C278.812 99.2656 278.102 99.3984 277.523 99.6641C276.961 99.9141 276.508 100.305 276.164 100.836C275.836 101.352 275.602 102 275.461 102.781C275.336 103.547 275.281 104.445 275.297 105.477V107.398C275.266 108.586 275.383 109.633 275.648 110.539C275.914 111.43 276.375 112.125 277.031 112.625C277.688 113.125 278.578 113.375 279.703 113.375C280.453 113.375 281.078 113.203 281.578 112.859C282.078 112.5 282.477 112.008 282.773 111.383C283.07 110.742 283.281 110.008 283.406 109.18C283.531 108.352 283.594 107.461 283.594 106.508ZM303.352 83V119H295.43V83H303.352ZM307.242 106.578V106.086C307.242 104.227 307.508 102.516 308.039 100.953C308.57 99.375 309.352 98.0078 310.383 96.8516C311.414 95.6953 312.688 94.7969 314.203 94.1562C315.719 93.5 317.469 93.1719 319.453 93.1719C321.453 93.1719 323.211 93.5 324.727 94.1562C326.258 94.7969 327.539 95.6953 328.57 96.8516C329.602 98.0078 330.383 99.375 330.914 100.953C331.445 102.516 331.711 104.227 331.711 106.086V106.578C331.711 108.422 331.445 110.133 330.914 111.711C330.383 113.273 329.602 114.641 328.57 115.812C327.539 116.969 326.266 117.867 324.75 118.508C323.234 119.148 321.484 119.469 319.5 119.469C317.516 119.469 315.758 119.148 314.227 118.508C312.695 117.867 311.414 116.969 310.383 115.812C309.352 114.641 308.57 113.273 308.039 111.711C307.508 110.133 307.242 108.422 307.242 106.578ZM315.141 106.086V106.578C315.141 107.531 315.211 108.422 315.352 109.25C315.492 110.078 315.727 110.805 316.055 111.43C316.383 112.039 316.828 112.516 317.391 112.859C317.953 113.203 318.656 113.375 319.5 113.375C320.328 113.375 321.016 113.203 321.562 112.859C322.125 112.516 322.57 112.039 322.898 111.43C323.227 110.805 323.461 110.078 323.602 109.25C323.742 108.422 323.812 107.531 323.812 106.578V106.086C323.812 105.164 323.742 104.297 323.602 103.484C323.461 102.656 323.227 101.93 322.898 101.305C322.57 100.664 322.125 100.164 321.562 99.8047C321 99.4453 320.297 99.2656 319.453 99.2656C318.625 99.2656 317.93 99.4453 317.367 99.8047C316.82 100.164 316.383 100.664 316.055 101.305C315.727 101.93 315.492 102.656 315.352 103.484C315.211 104.297 315.141 105.164 315.141 106.086ZM342.633 116.023L349.195 93.6406H357.68L347.484 122.773C347.266 123.414 346.977 124.102 346.617 124.836C346.258 125.586 345.766 126.297 345.141 126.969C344.516 127.641 343.711 128.188 342.727 128.609C341.758 129.031 340.555 129.242 339.117 129.242C338.352 129.242 337.789 129.203 337.43 129.125C337.086 129.062 336.555 128.945 335.836 128.773V123.125C336.039 123.125 336.211 123.125 336.352 123.125C336.508 123.125 336.68 123.125 336.867 123.125C337.711 123.125 338.383 123.039 338.883 122.867C339.398 122.695 339.789 122.445 340.055 122.117C340.336 121.789 340.555 121.391 340.711 120.922L342.633 116.023ZM340.969 93.6406L345.961 111.383L346.828 119.75H341.531L332.508 93.6406H340.969ZM367.711 99.0078V119H359.812V93.6406H367.219L367.711 99.0078ZM366.75 105.453L364.945 105.5C364.945 103.719 365.156 102.078 365.578 100.578C366 99.0781 366.625 97.7734 367.453 96.6641C368.281 95.5547 369.297 94.6953 370.5 94.0859C371.719 93.4766 373.125 93.1719 374.719 93.1719C375.828 93.1719 376.836 93.3438 377.742 93.6875C378.648 94.0156 379.43 94.5391 380.086 95.2578C380.742 95.9609 381.242 96.8828 381.586 98.0234C381.945 99.1484 382.125 100.5 382.125 102.078V119H374.227V103.086C374.227 102.008 374.102 101.195 373.852 100.648C373.617 100.102 373.273 99.7344 372.82 99.5469C372.367 99.3594 371.812 99.2656 371.156 99.2656C370.469 99.2656 369.852 99.4219 369.305 99.7344C368.758 100.047 368.289 100.484 367.898 101.047C367.523 101.594 367.234 102.242 367.031 102.992C366.844 103.742 366.75 104.562 366.75 105.453ZM381.234 105.453L379.031 105.5C379.031 103.719 379.227 102.078 379.617 100.578C380.023 99.0781 380.625 97.7734 381.422 96.6641C382.234 95.5547 383.242 94.6953 384.445 94.0859C385.648 93.4766 387.047 93.1719 388.641 93.1719C389.797 93.1719 390.859 93.3438 391.828 93.6875C392.797 94.0312 393.633 94.5859 394.336 95.3516C395.039 96.1172 395.586 97.1328 395.977 98.3984C396.367 99.6484 396.562 101.195 396.562 103.039V119H388.641V103.039C388.641 101.992 388.516 101.203 388.266 100.672C388.031 100.125 387.688 99.7578 387.234 99.5703C386.781 99.3672 386.242 99.2656 385.617 99.2656C384.867 99.2656 384.219 99.4219 383.672 99.7344C383.125 100.047 382.664 100.484 382.289 101.047C381.93 101.594 381.664 102.242 381.492 102.992C381.32 103.742 381.234 104.562 381.234 105.453ZM413.367 119.469C411.305 119.469 409.461 119.148 407.836 118.508C406.211 117.852 404.836 116.953 403.711 115.812C402.602 114.672 401.75 113.359 401.156 111.875C400.578 110.391 400.289 108.82 400.289 107.164V106.273C400.289 104.414 400.547 102.695 401.062 101.117C401.578 99.5234 402.344 98.1328 403.359 96.9453C404.375 95.7578 405.648 94.8359 407.18 94.1797C408.711 93.5078 410.492 93.1719 412.523 93.1719C414.32 93.1719 415.93 93.4609 417.352 94.0391C418.773 94.6172 419.977 95.4453 420.961 96.5234C421.961 97.6016 422.719 98.9062 423.234 100.438C423.766 101.969 424.031 103.688 424.031 105.594V108.805H403.312V103.859H416.32V103.25C416.336 102.406 416.188 101.688 415.875 101.094C415.578 100.5 415.141 100.047 414.562 99.7344C413.984 99.4219 413.281 99.2656 412.453 99.2656C411.594 99.2656 410.883 99.4531 410.32 99.8281C409.773 100.203 409.344 100.719 409.031 101.375C408.734 102.016 408.523 102.758 408.398 103.602C408.273 104.445 408.211 105.336 408.211 106.273V107.164C408.211 108.102 408.336 108.953 408.586 109.719C408.852 110.484 409.227 111.141 409.711 111.688C410.211 112.219 410.805 112.633 411.492 112.93C412.195 113.227 412.992 113.375 413.883 113.375C414.961 113.375 416.023 113.172 417.07 112.766C418.117 112.359 419.016 111.688 419.766 110.75L423.352 115.016C422.836 115.75 422.102 116.461 421.148 117.148C420.211 117.836 419.086 118.398 417.773 118.836C416.461 119.258 414.992 119.469 413.367 119.469ZM435 99.0547V119H427.102V93.6406H434.508L435 99.0547ZM434.062 105.453L432.211 105.5C432.211 103.562 432.445 101.836 432.914 100.32C433.383 98.7891 434.047 97.4922 434.906 96.4297C435.766 95.3672 436.789 94.5625 437.977 94.0156C439.18 93.4531 440.516 93.1719 441.984 93.1719C443.156 93.1719 444.227 93.3438 445.195 93.6875C446.18 94.0312 447.023 94.5859 447.727 95.3516C448.445 96.1172 448.992 97.1328 449.367 98.3984C449.758 99.6484 449.953 101.195 449.953 103.039V119H442.008V103.016C442.008 102 441.867 101.227 441.586 100.695C441.305 100.148 440.898 99.7734 440.367 99.5703C439.836 99.3672 439.188 99.2656 438.422 99.2656C437.609 99.2656 436.922 99.4219 436.359 99.7344C435.797 100.047 435.344 100.484 435 101.047C434.672 101.594 434.43 102.242 434.273 102.992C434.133 103.742 434.062 104.562 434.062 105.453ZM467.695 93.6406V99.125H452.414V93.6406H467.695ZM455.625 87.3359H463.523V110.727C463.523 111.398 463.602 111.922 463.758 112.297C463.914 112.656 464.18 112.914 464.555 113.07C464.945 113.211 465.461 113.281 466.102 113.281C466.555 113.281 466.93 113.273 467.227 113.258C467.523 113.227 467.805 113.188 468.07 113.141V118.789C467.398 119.008 466.695 119.172 465.961 119.281C465.227 119.406 464.445 119.469 463.617 119.469C461.93 119.469 460.484 119.203 459.281 118.672C458.094 118.141 457.188 117.305 456.562 116.164C455.938 115.023 455.625 113.539 455.625 111.711V87.3359Z" fill="black"/>
<path d="M1134 0H1348C1356.28 0 1363 6.71573 1363 15V148C1363 156.284 1356.28 163 1348 163H1134V0Z" fill="black"/>
<path d="M1212.5 117.5L1212.5 45.5L1284.5 45.5L1284.5 117.5L1212.5 117.5Z" fill="white" fill-opacity="0.01"/>
<path d="M1221.5 81.5125L1221.5 108.5L1275.5 108.5L1275.5 81.5" stroke="white" stroke-width="7.24" stroke-linecap="round" stroke-linejoin="round"/>
<path d="M1262 68L1248.5 54.5L1235 68" stroke="white" stroke-width="7.24" stroke-linecap="round" stroke-linejoin="round"/>
<path d="M1248.49 93.5L1248.49 54.5" stroke="white" stroke-width="7.24" stroke-linecap="round" stroke-linejoin="round"/>
</svg>
