<svg width="1363" height="163" viewBox="0 0 1363 163" fill="none" xmlns="http://www.w3.org/2000/svg">
<path d="M0 15C0 6.71573 6.71573 0 15 0H37V163H15C6.71573 163 0 156.284 0 148V15Z" fill="#0049B6"/>
<rect width="1097" height="163" transform="translate(37)" fill="#F0F0F0"/>
<path d="M104.414 55.3398H107.918C107.848 56.4883 107.531 57.5078 106.969 58.3984C106.414 59.2891 105.637 59.9844 104.637 60.4844C103.645 60.9844 102.449 61.2344 101.051 61.2344C99.957 61.2344 98.9766 61.0469 98.1094 60.6719C97.2422 60.2891 96.5 59.7422 95.8828 59.0312C95.2734 58.3203 94.8086 57.4609 94.4883 56.4531C94.168 55.4453 94.0078 54.3164 94.0078 53.0664V51.8828C94.0078 50.6328 94.1719 49.5039 94.5 48.4961C94.8359 47.4805 95.3125 46.6172 95.9297 45.9062C96.5547 45.1953 97.3008 44.6484 98.168 44.2656C99.0352 43.8828 100.004 43.6914 101.074 43.6914C102.496 43.6914 103.695 43.9492 104.672 44.4648C105.656 44.9805 106.418 45.6914 106.957 46.5977C107.504 47.5039 107.832 48.5352 107.941 49.6914H104.426C104.387 49.0039 104.25 48.4219 104.016 47.9453C103.781 47.4609 103.426 47.0977 102.949 46.8555C102.48 46.6055 101.855 46.4805 101.074 46.4805C100.488 46.4805 99.9766 46.5898 99.5391 46.8086C99.1016 47.0273 98.7344 47.3594 98.4375 47.8047C98.1406 48.25 97.918 48.8125 97.7695 49.4922C97.6289 50.1641 97.5586 50.9531 97.5586 51.8594V53.0664C97.5586 53.9492 97.625 54.7266 97.7578 55.3984C97.8906 56.0625 98.0938 56.625 98.3672 57.0859C98.6484 57.5391 99.0078 57.8828 99.4453 58.1172C99.8906 58.3438 100.426 58.457 101.051 58.457C101.785 58.457 102.391 58.3398 102.867 58.1055C103.344 57.8711 103.707 57.5234 103.957 57.0625C104.215 56.6016 104.367 56.0273 104.414 55.3398ZM115.852 61.2344C114.867 61.2344 113.984 61.0781 113.203 60.7656C112.422 60.4453 111.758 60.0039 111.211 59.4414C110.672 58.8789 110.258 58.2266 109.969 57.4844C109.68 56.7344 109.535 55.9375 109.535 55.0938V54.625C109.535 53.6641 109.672 52.7852 109.945 51.9883C110.219 51.1914 110.609 50.5 111.117 49.9141C111.633 49.3281 112.258 48.8789 112.992 48.5664C113.727 48.2461 114.555 48.0859 115.477 48.0859C116.375 48.0859 117.172 48.2344 117.867 48.5312C118.562 48.8281 119.145 49.25 119.613 49.7969C120.09 50.3438 120.449 51 120.691 51.7656C120.934 52.5234 121.055 53.3672 121.055 54.2969V55.7031H110.977V53.4531H117.738V53.1953C117.738 52.7266 117.652 52.3086 117.48 51.9414C117.316 51.5664 117.066 51.2695 116.73 51.0508C116.395 50.832 115.965 50.7227 115.441 50.7227C114.996 50.7227 114.613 50.8203 114.293 51.0156C113.973 51.2109 113.711 51.4844 113.508 51.8359C113.312 52.1875 113.164 52.6016 113.062 53.0781C112.969 53.5469 112.922 54.0625 112.922 54.625V55.0938C112.922 55.6016 112.992 56.0703 113.133 56.5C113.281 56.9297 113.488 57.3008 113.754 57.6133C114.027 57.9258 114.355 58.168 114.738 58.3398C115.129 58.5117 115.57 58.5977 116.062 58.5977C116.672 58.5977 117.238 58.4805 117.762 58.2461C118.293 58.0039 118.75 57.6406 119.133 57.1562L120.773 58.9375C120.508 59.3203 120.145 59.6875 119.684 60.0391C119.23 60.3906 118.684 60.6797 118.043 60.9062C117.402 61.125 116.672 61.2344 115.852 61.2344ZM126.539 43V61H123.152V43H126.539ZM135.164 61.2344C134.18 61.2344 133.297 61.0781 132.516 60.7656C131.734 60.4453 131.07 60.0039 130.523 59.4414C129.984 58.8789 129.57 58.2266 129.281 57.4844C128.992 56.7344 128.848 55.9375 128.848 55.0938V54.625C128.848 53.6641 128.984 52.7852 129.258 51.9883C129.531 51.1914 129.922 50.5 130.43 49.9141C130.945 49.3281 131.57 48.8789 132.305 48.5664C133.039 48.2461 133.867 48.0859 134.789 48.0859C135.688 48.0859 136.484 48.2344 137.18 48.5312C137.875 48.8281 138.457 49.25 138.926 49.7969C139.402 50.3438 139.762 51 140.004 51.7656C140.246 52.5234 140.367 53.3672 140.367 54.2969V55.7031H130.289V53.4531H137.051V53.1953C137.051 52.7266 136.965 52.3086 136.793 51.9414C136.629 51.5664 136.379 51.2695 136.043 51.0508C135.707 50.832 135.277 50.7227 134.754 50.7227C134.309 50.7227 133.926 50.8203 133.605 51.0156C133.285 51.2109 133.023 51.4844 132.82 51.8359C132.625 52.1875 132.477 52.6016 132.375 53.0781C132.281 53.5469 132.234 54.0625 132.234 54.625V55.0938C132.234 55.6016 132.305 56.0703 132.445 56.5C132.594 56.9297 132.801 57.3008 133.066 57.6133C133.34 57.9258 133.668 58.168 134.051 58.3398C134.441 58.5117 134.883 58.5977 135.375 58.5977C135.984 58.5977 136.551 58.4805 137.074 58.2461C137.605 58.0039 138.062 57.6406 138.445 57.1562L140.086 58.9375C139.82 59.3203 139.457 59.6875 138.996 60.0391C138.543 60.3906 137.996 60.6797 137.355 60.9062C136.715 61.125 135.984 61.2344 135.164 61.2344ZM149.145 57.4961C149.145 57.2539 149.074 57.0352 148.934 56.8398C148.793 56.6445 148.531 56.4648 148.148 56.3008C147.773 56.1289 147.23 55.9727 146.52 55.832C145.879 55.6914 145.281 55.5156 144.727 55.3047C144.18 55.0859 143.703 54.8242 143.297 54.5195C142.898 54.2148 142.586 53.8555 142.359 53.4414C142.133 53.0195 142.02 52.5391 142.02 52C142.02 51.4688 142.133 50.9688 142.359 50.5C142.594 50.0312 142.926 49.6172 143.355 49.2578C143.793 48.8906 144.324 48.6055 144.949 48.4023C145.582 48.1914 146.293 48.0859 147.082 48.0859C148.184 48.0859 149.129 48.2617 149.918 48.6133C150.715 48.9648 151.324 49.4492 151.746 50.0664C152.176 50.6758 152.391 51.3711 152.391 52.1523H149.016C149.016 51.8242 148.945 51.5312 148.805 51.2734C148.672 51.0078 148.461 50.8008 148.172 50.6523C147.891 50.4961 147.523 50.418 147.07 50.418C146.695 50.418 146.371 50.4844 146.098 50.6172C145.824 50.7422 145.613 50.9141 145.465 51.1328C145.324 51.3438 145.254 51.5781 145.254 51.8359C145.254 52.0312 145.293 52.207 145.371 52.3633C145.457 52.5117 145.594 52.6484 145.781 52.7734C145.969 52.8984 146.211 53.0156 146.508 53.125C146.812 53.2266 147.188 53.3203 147.633 53.4062C148.547 53.5938 149.363 53.8398 150.082 54.1445C150.801 54.4414 151.371 54.8477 151.793 55.3633C152.215 55.8711 152.426 56.5391 152.426 57.3672C152.426 57.9297 152.301 58.4453 152.051 58.9141C151.801 59.3828 151.441 59.793 150.973 60.1445C150.504 60.4883 149.941 60.7578 149.285 60.9531C148.637 61.1406 147.906 61.2344 147.094 61.2344C145.914 61.2344 144.914 61.0234 144.094 60.6016C143.281 60.1797 142.664 59.6445 142.242 58.9961C141.828 58.3398 141.621 57.668 141.621 56.9805H144.82C144.836 57.4414 144.953 57.8125 145.172 58.0938C145.398 58.375 145.684 58.5781 146.027 58.7031C146.379 58.8281 146.758 58.8906 147.164 58.8906C147.602 58.8906 147.965 58.832 148.254 58.7148C148.543 58.5898 148.762 58.4258 148.91 58.2227C149.066 58.0117 149.145 57.7695 149.145 57.4961ZM160.828 48.3203V50.7109H153.445V48.3203H160.828ZM155.273 45.1914H158.648V57.1797C158.648 57.5469 158.695 57.8281 158.789 58.0234C158.891 58.2188 159.039 58.3555 159.234 58.4336C159.43 58.5039 159.676 58.5391 159.973 58.5391C160.184 58.5391 160.371 58.5312 160.535 58.5156C160.707 58.4922 160.852 58.4688 160.969 58.4453L160.98 60.9297C160.691 61.0234 160.379 61.0977 160.043 61.1523C159.707 61.207 159.336 61.2344 158.93 61.2344C158.188 61.2344 157.539 61.1133 156.984 60.8711C156.438 60.6211 156.016 60.2227 155.719 59.6758C155.422 59.1289 155.273 58.4102 155.273 57.5195V45.1914ZM166.312 48.3203V61H162.926V48.3203H166.312ZM162.715 45.0156C162.715 44.5234 162.887 44.1172 163.23 43.7969C163.574 43.4766 164.035 43.3164 164.613 43.3164C165.184 43.3164 165.641 43.4766 165.984 43.7969C166.336 44.1172 166.512 44.5234 166.512 45.0156C166.512 45.5078 166.336 45.9141 165.984 46.2344C165.641 46.5547 165.184 46.7148 164.613 46.7148C164.035 46.7148 163.574 46.5547 163.23 46.2344C162.887 45.9141 162.715 45.5078 162.715 45.0156ZM175.945 58.1406V52.4922C175.945 52.0859 175.879 51.7383 175.746 51.4492C175.613 51.1523 175.406 50.9219 175.125 50.7578C174.852 50.5938 174.496 50.5117 174.059 50.5117C173.684 50.5117 173.359 50.5781 173.086 50.7109C172.812 50.8359 172.602 51.0195 172.453 51.2617C172.305 51.4961 172.23 51.7734 172.23 52.0938H168.855C168.855 51.5547 168.98 51.043 169.23 50.5586C169.48 50.0742 169.844 49.6484 170.32 49.2812C170.797 48.9062 171.363 48.6133 172.02 48.4023C172.684 48.1914 173.426 48.0859 174.246 48.0859C175.23 48.0859 176.105 48.25 176.871 48.5781C177.637 48.9062 178.238 49.3984 178.676 50.0547C179.121 50.7109 179.344 51.5312 179.344 52.5156V57.9414C179.344 58.6367 179.387 59.207 179.473 59.6523C179.559 60.0898 179.684 60.4727 179.848 60.8008V61H176.438C176.273 60.6562 176.148 60.2266 176.062 59.7109C175.984 59.1875 175.945 58.6641 175.945 58.1406ZM176.391 53.2773L176.414 55.1875H174.527C174.082 55.1875 173.695 55.2383 173.367 55.3398C173.039 55.4414 172.77 55.5859 172.559 55.7734C172.348 55.9531 172.191 56.1641 172.09 56.4062C171.996 56.6484 171.949 56.9141 171.949 57.2031C171.949 57.4922 172.016 57.7539 172.148 57.9883C172.281 58.2148 172.473 58.3945 172.723 58.5273C172.973 58.6523 173.266 58.7148 173.602 58.7148C174.109 58.7148 174.551 58.6133 174.926 58.4102C175.301 58.207 175.59 57.957 175.793 57.6602C176.004 57.3633 176.113 57.082 176.121 56.8164L177.012 58.2461C176.887 58.5664 176.715 58.8984 176.496 59.2422C176.285 59.5859 176.016 59.9102 175.688 60.2148C175.359 60.5117 174.965 60.7578 174.504 60.9531C174.043 61.1406 173.496 61.2344 172.863 61.2344C172.059 61.2344 171.328 61.0742 170.672 60.7539C170.023 60.4258 169.508 59.9766 169.125 59.4062C168.75 58.8281 168.562 58.1719 168.562 57.4375C168.562 56.7734 168.688 56.1836 168.938 55.668C169.188 55.1523 169.555 54.7188 170.039 54.3672C170.531 54.0078 171.145 53.7383 171.879 53.5586C172.613 53.3711 173.465 53.2773 174.434 53.2773H176.391ZM185.508 43V61H182.121V43H185.508ZM195.152 54.918H190.805V52.1758H195.152C195.824 52.1758 196.371 52.0664 196.793 51.8477C197.215 51.6211 197.523 51.3086 197.719 50.9102C197.914 50.5117 198.012 50.0625 198.012 49.5625C198.012 49.0547 197.914 48.582 197.719 48.1445C197.523 47.707 197.215 47.3555 196.793 47.0898C196.371 46.8242 195.824 46.6914 195.152 46.6914H192.023V61H188.508V43.9375H195.152C196.488 43.9375 197.633 44.1797 198.586 44.6641C199.547 45.1406 200.281 45.8008 200.789 46.6445C201.297 47.4883 201.551 48.4531 201.551 49.5391C201.551 50.6406 201.297 51.5938 200.789 52.3984C200.281 53.2031 199.547 53.8242 198.586 54.2617C197.633 54.6992 196.488 54.918 195.152 54.918ZM210.469 58.1406V52.4922C210.469 52.0859 210.402 51.7383 210.27 51.4492C210.137 51.1523 209.93 50.9219 209.648 50.7578C209.375 50.5938 209.02 50.5117 208.582 50.5117C208.207 50.5117 207.883 50.5781 207.609 50.7109C207.336 50.8359 207.125 51.0195 206.977 51.2617C206.828 51.4961 206.754 51.7734 206.754 52.0938H203.379C203.379 51.5547 203.504 51.043 203.754 50.5586C204.004 50.0742 204.367 49.6484 204.844 49.2812C205.32 48.9062 205.887 48.6133 206.543 48.4023C207.207 48.1914 207.949 48.0859 208.77 48.0859C209.754 48.0859 210.629 48.25 211.395 48.5781C212.16 48.9062 212.762 49.3984 213.199 50.0547C213.645 50.7109 213.867 51.5312 213.867 52.5156V57.9414C213.867 58.6367 213.91 59.207 213.996 59.6523C214.082 60.0898 214.207 60.4727 214.371 60.8008V61H210.961C210.797 60.6562 210.672 60.2266 210.586 59.7109C210.508 59.1875 210.469 58.6641 210.469 58.1406ZM210.914 53.2773L210.938 55.1875H209.051C208.605 55.1875 208.219 55.2383 207.891 55.3398C207.562 55.4414 207.293 55.5859 207.082 55.7734C206.871 55.9531 206.715 56.1641 206.613 56.4062C206.52 56.6484 206.473 56.9141 206.473 57.2031C206.473 57.4922 206.539 57.7539 206.672 57.9883C206.805 58.2148 206.996 58.3945 207.246 58.5273C207.496 58.6523 207.789 58.7148 208.125 58.7148C208.633 58.7148 209.074 58.6133 209.449 58.4102C209.824 58.207 210.113 57.957 210.316 57.6602C210.527 57.3633 210.637 57.082 210.645 56.8164L211.535 58.2461C211.41 58.5664 211.238 58.8984 211.02 59.2422C210.809 59.5859 210.539 59.9102 210.211 60.2148C209.883 60.5117 209.488 60.7578 209.027 60.9531C208.566 61.1406 208.02 61.2344 207.387 61.2344C206.582 61.2344 205.852 61.0742 205.195 60.7539C204.547 60.4258 204.031 59.9766 203.648 59.4062C203.273 58.8281 203.086 58.1719 203.086 57.4375C203.086 56.7734 203.211 56.1836 203.461 55.668C203.711 55.1523 204.078 54.7188 204.562 54.3672C205.055 54.0078 205.668 53.7383 206.402 53.5586C207.137 53.3711 207.988 53.2773 208.957 53.2773H210.914ZM222.68 48.3203V50.7109H215.297V48.3203H222.68ZM217.125 45.1914H220.5V57.1797C220.5 57.5469 220.547 57.8281 220.641 58.0234C220.742 58.2188 220.891 58.3555 221.086 58.4336C221.281 58.5039 221.527 58.5391 221.824 58.5391C222.035 58.5391 222.223 58.5312 222.387 58.5156C222.559 58.4922 222.703 58.4688 222.82 58.4453L222.832 60.9297C222.543 61.0234 222.23 61.0977 221.895 61.1523C221.559 61.207 221.188 61.2344 220.781 61.2344C220.039 61.2344 219.391 61.1133 218.836 60.8711C218.289 60.6211 217.867 60.2227 217.57 59.6758C217.273 59.1289 217.125 58.4102 217.125 57.5195V45.1914ZM227.895 43V61H224.52V43H227.895ZM227.414 54.2148H226.488C226.496 53.332 226.613 52.5195 226.84 51.7773C227.066 51.0273 227.391 50.3789 227.812 49.832C228.234 49.2773 228.738 48.8477 229.324 48.543C229.918 48.2383 230.574 48.0859 231.293 48.0859C231.918 48.0859 232.484 48.1758 232.992 48.3555C233.508 48.5273 233.949 48.8086 234.316 49.1992C234.691 49.582 234.98 50.0859 235.184 50.7109C235.387 51.3359 235.488 52.0938 235.488 52.9844V61H232.09V52.9609C232.09 52.3984 232.008 51.957 231.844 51.6367C231.688 51.3086 231.457 51.0781 231.152 50.9453C230.855 50.8047 230.488 50.7344 230.051 50.7344C229.566 50.7344 229.152 50.8242 228.809 51.0039C228.473 51.1836 228.203 51.4336 228 51.7539C227.797 52.0664 227.648 52.4336 227.555 52.8555C227.461 53.2773 227.414 53.7305 227.414 54.2148ZM241.676 57.7188L244.312 48.3203H246.457L245.766 52.0117L243.129 61H241.336L241.676 57.7188ZM240.34 48.3203L242.227 57.707L242.402 61H240.293L237.082 48.3203H240.34ZM248.871 57.5547L250.711 48.3203H253.98L250.77 61H248.672L248.871 57.5547ZM246.75 48.3203L249.375 57.6484L249.738 61H247.934L245.297 52.0234L244.629 48.3203H246.75ZM262.523 58.1406V52.4922C262.523 52.0859 262.457 51.7383 262.324 51.4492C262.191 51.1523 261.984 50.9219 261.703 50.7578C261.43 50.5938 261.074 50.5117 260.637 50.5117C260.262 50.5117 259.938 50.5781 259.664 50.7109C259.391 50.8359 259.18 51.0195 259.031 51.2617C258.883 51.4961 258.809 51.7734 258.809 52.0938H255.434C255.434 51.5547 255.559 51.043 255.809 50.5586C256.059 50.0742 256.422 49.6484 256.898 49.2812C257.375 48.9062 257.941 48.6133 258.598 48.4023C259.262 48.1914 260.004 48.0859 260.824 48.0859C261.809 48.0859 262.684 48.25 263.449 48.5781C264.215 48.9062 264.816 49.3984 265.254 50.0547C265.699 50.7109 265.922 51.5312 265.922 52.5156V57.9414C265.922 58.6367 265.965 59.207 266.051 59.6523C266.137 60.0898 266.262 60.4727 266.426 60.8008V61H263.016C262.852 60.6562 262.727 60.2266 262.641 59.7109C262.562 59.1875 262.523 58.6641 262.523 58.1406ZM262.969 53.2773L262.992 55.1875H261.105C260.66 55.1875 260.273 55.2383 259.945 55.3398C259.617 55.4414 259.348 55.5859 259.137 55.7734C258.926 55.9531 258.77 56.1641 258.668 56.4062C258.574 56.6484 258.527 56.9141 258.527 57.2031C258.527 57.4922 258.594 57.7539 258.727 57.9883C258.859 58.2148 259.051 58.3945 259.301 58.5273C259.551 58.6523 259.844 58.7148 260.18 58.7148C260.688 58.7148 261.129 58.6133 261.504 58.4102C261.879 58.207 262.168 57.957 262.371 57.6602C262.582 57.3633 262.691 57.082 262.699 56.8164L263.59 58.2461C263.465 58.5664 263.293 58.8984 263.074 59.2422C262.863 59.5859 262.594 59.9102 262.266 60.2148C261.938 60.5117 261.543 60.7578 261.082 60.9531C260.621 61.1406 260.074 61.2344 259.441 61.2344C258.637 61.2344 257.906 61.0742 257.25 60.7539C256.602 60.4258 256.086 59.9766 255.703 59.4062C255.328 58.8281 255.141 58.1719 255.141 57.4375C255.141 56.7734 255.266 56.1836 255.516 55.668C255.766 55.1523 256.133 54.7188 256.617 54.3672C257.109 54.0078 257.723 53.7383 258.457 53.5586C259.191 53.3711 260.043 53.2773 261.012 53.2773H262.969ZM272.098 59.5703L275.461 48.3203H279.082L273.984 62.9102C273.875 63.2305 273.727 63.5742 273.539 63.9414C273.359 64.3086 273.113 64.6562 272.801 64.9844C272.496 65.3203 272.109 65.5938 271.641 65.8047C271.18 66.0156 270.613 66.1211 269.941 66.1211C269.621 66.1211 269.359 66.1016 269.156 66.0625C268.953 66.0234 268.711 65.9688 268.43 65.8984V63.4258C268.516 63.4258 268.605 63.4258 268.699 63.4258C268.793 63.4336 268.883 63.4375 268.969 63.4375C269.414 63.4375 269.777 63.3867 270.059 63.2852C270.34 63.1836 270.566 63.0273 270.738 62.8164C270.91 62.6133 271.047 62.3477 271.148 62.0195L272.098 59.5703ZM270.691 48.3203L273.445 57.5078L273.926 61.082L271.629 61.3281L267.07 48.3203H270.691Z" fill="#888888"/>
<path d="M106.688 119H99.1172L99.1641 112.672H106.688C108.25 112.672 109.57 112.297 110.648 111.547C111.742 110.797 112.57 109.68 113.133 108.195C113.711 106.695 114 104.852 114 102.664V101.188C114 99.5469 113.836 98.1094 113.508 96.875C113.195 95.625 112.727 94.5859 112.102 93.7578C111.477 92.9141 110.695 92.2812 109.758 91.8594C108.836 91.4375 107.773 91.2266 106.57 91.2266H98.9766V84.875H106.57C108.883 84.875 111 85.2734 112.922 86.0703C114.859 86.8516 116.531 87.9766 117.938 89.4453C119.359 90.8984 120.453 92.625 121.219 94.625C122 96.6094 122.391 98.8125 122.391 101.234V102.664C122.391 105.07 122 107.273 121.219 109.273C120.453 111.273 119.367 113 117.961 114.453C116.555 115.906 114.891 117.031 112.969 117.828C111.062 118.609 108.969 119 106.688 119ZM103.828 84.875V119H95.6016V84.875H103.828ZM139.477 112.625V102.172C139.477 101.453 139.375 100.836 139.172 100.32C138.969 99.8047 138.648 99.4062 138.211 99.125C137.773 98.8281 137.188 98.6797 136.453 98.6797C135.859 98.6797 135.352 98.7812 134.93 98.9844C134.508 99.1875 134.188 99.4922 133.969 99.8984C133.75 100.305 133.641 100.82 133.641 101.445H125.742C125.742 100.273 126 99.1875 126.516 98.1875C127.047 97.1719 127.797 96.2891 128.766 95.5391C129.75 94.7891 130.922 94.2109 132.281 93.8047C133.656 93.3828 135.188 93.1719 136.875 93.1719C138.891 93.1719 140.688 93.5078 142.266 94.1797C143.859 94.8516 145.117 95.8594 146.039 97.2031C146.961 98.5312 147.422 100.203 147.422 102.219V112.602C147.422 114.258 147.516 115.516 147.703 116.375C147.891 117.219 148.156 117.961 148.5 118.602V119H140.578C140.203 118.219 139.922 117.266 139.734 116.141C139.562 115 139.477 113.828 139.477 112.625ZM140.438 103.508L140.484 107.727H136.992C136.258 107.727 135.633 107.828 135.117 108.031C134.617 108.234 134.211 108.516 133.898 108.875C133.602 109.219 133.383 109.609 133.242 110.047C133.117 110.484 133.055 110.945 133.055 111.43C133.055 111.898 133.164 112.32 133.383 112.695C133.617 113.055 133.93 113.336 134.32 113.539C134.711 113.742 135.148 113.844 135.633 113.844C136.508 113.844 137.25 113.68 137.859 113.352C138.484 113.008 138.961 112.594 139.289 112.109C139.617 111.625 139.781 111.172 139.781 110.75L141.516 113.984C141.203 114.609 140.844 115.242 140.438 115.883C140.047 116.523 139.555 117.117 138.961 117.664C138.383 118.195 137.672 118.633 136.828 118.977C135.984 119.305 134.961 119.469 133.758 119.469C132.195 119.469 130.758 119.148 129.445 118.508C128.148 117.867 127.109 116.977 126.328 115.836C125.547 114.68 125.156 113.352 125.156 111.852C125.156 110.539 125.391 109.367 125.859 108.336C126.344 107.305 127.07 106.43 128.039 105.711C129.008 104.992 130.242 104.445 131.742 104.07C133.242 103.695 135.008 103.508 137.039 103.508H140.438ZM165.164 93.6406V99.125H149.883V93.6406H165.164ZM153.094 87.3359H160.992V110.727C160.992 111.398 161.07 111.922 161.227 112.297C161.383 112.656 161.648 112.914 162.023 113.07C162.414 113.211 162.93 113.281 163.57 113.281C164.023 113.281 164.398 113.273 164.695 113.258C164.992 113.227 165.273 113.188 165.539 113.141V118.789C164.867 119.008 164.164 119.172 163.43 119.281C162.695 119.406 161.914 119.469 161.086 119.469C159.398 119.469 157.953 119.203 156.75 118.672C155.562 118.141 154.656 117.305 154.031 116.164C153.406 115.023 153.094 113.539 153.094 111.711V87.3359ZM181.477 112.625V102.172C181.477 101.453 181.375 100.836 181.172 100.32C180.969 99.8047 180.648 99.4062 180.211 99.125C179.773 98.8281 179.188 98.6797 178.453 98.6797C177.859 98.6797 177.352 98.7812 176.93 98.9844C176.508 99.1875 176.188 99.4922 175.969 99.8984C175.75 100.305 175.641 100.82 175.641 101.445H167.742C167.742 100.273 168 99.1875 168.516 98.1875C169.047 97.1719 169.797 96.2891 170.766 95.5391C171.75 94.7891 172.922 94.2109 174.281 93.8047C175.656 93.3828 177.188 93.1719 178.875 93.1719C180.891 93.1719 182.688 93.5078 184.266 94.1797C185.859 94.8516 187.117 95.8594 188.039 97.2031C188.961 98.5312 189.422 100.203 189.422 102.219V112.602C189.422 114.258 189.516 115.516 189.703 116.375C189.891 117.219 190.156 117.961 190.5 118.602V119H182.578C182.203 118.219 181.922 117.266 181.734 116.141C181.562 115 181.477 113.828 181.477 112.625ZM182.438 103.508L182.484 107.727H178.992C178.258 107.727 177.633 107.828 177.117 108.031C176.617 108.234 176.211 108.516 175.898 108.875C175.602 109.219 175.383 109.609 175.242 110.047C175.117 110.484 175.055 110.945 175.055 111.43C175.055 111.898 175.164 112.32 175.383 112.695C175.617 113.055 175.93 113.336 176.32 113.539C176.711 113.742 177.148 113.844 177.633 113.844C178.508 113.844 179.25 113.68 179.859 113.352C180.484 113.008 180.961 112.594 181.289 112.109C181.617 111.625 181.781 111.172 181.781 110.75L183.516 113.984C183.203 114.609 182.844 115.242 182.438 115.883C182.047 116.523 181.555 117.117 180.961 117.664C180.383 118.195 179.672 118.633 178.828 118.977C177.984 119.305 176.961 119.469 175.758 119.469C174.195 119.469 172.758 119.148 171.445 118.508C170.148 117.867 169.109 116.977 168.328 115.836C167.547 114.68 167.156 113.352 167.156 111.852C167.156 110.539 167.391 109.367 167.859 108.336C168.344 107.305 169.07 106.43 170.039 105.711C171.008 104.992 172.242 104.445 173.742 104.07C175.242 103.695 177.008 103.508 179.039 103.508H182.438ZM193.875 83H201.773V112.766L200.953 119H193.875V83ZM217.336 106.039V106.531C217.336 108.453 217.141 110.203 216.75 111.781C216.359 113.359 215.758 114.727 214.945 115.883C214.133 117.023 213.109 117.906 211.875 118.531C210.641 119.156 209.18 119.469 207.492 119.469C205.961 119.469 204.648 119.141 203.555 118.484C202.461 117.812 201.547 116.891 200.812 115.719C200.078 114.531 199.484 113.164 199.031 111.617C198.578 110.055 198.219 108.383 197.953 106.602V106.016C198.219 104.25 198.578 102.594 199.031 101.047C199.484 99.4844 200.078 98.1172 200.812 96.9453C201.547 95.7578 202.453 94.8359 203.531 94.1797C204.625 93.5078 205.93 93.1719 207.445 93.1719C209.148 93.1719 210.617 93.4922 211.852 94.1328C213.102 94.7734 214.133 95.6719 214.945 96.8281C215.758 97.9844 216.359 99.3438 216.75 100.906C217.141 102.469 217.336 104.18 217.336 106.039ZM209.438 106.531V106.039C209.438 105.117 209.383 104.25 209.273 103.438C209.164 102.625 208.969 101.906 208.688 101.281C208.406 100.656 208.008 100.164 207.492 99.8047C206.977 99.4453 206.305 99.2656 205.477 99.2656C204.633 99.2656 203.922 99.4062 203.344 99.6875C202.781 99.9688 202.328 100.375 201.984 100.906C201.656 101.422 201.422 102.062 201.281 102.828C201.141 103.578 201.078 104.43 201.094 105.383V107.234C201.062 108.531 201.18 109.641 201.445 110.562C201.711 111.484 202.172 112.188 202.828 112.672C203.484 113.156 204.383 113.398 205.523 113.398C206.367 113.398 207.047 113.234 207.562 112.906C208.094 112.578 208.492 112.109 208.758 111.5C209.023 110.891 209.203 110.164 209.297 109.32C209.391 108.477 209.438 107.547 209.438 106.531ZM234.023 112.625V102.172C234.023 101.453 233.922 100.836 233.719 100.32C233.516 99.8047 233.195 99.4062 232.758 99.125C232.32 98.8281 231.734 98.6797 231 98.6797C230.406 98.6797 229.898 98.7812 229.477 98.9844C229.055 99.1875 228.734 99.4922 228.516 99.8984C228.297 100.305 228.188 100.82 228.188 101.445H220.289C220.289 100.273 220.547 99.1875 221.062 98.1875C221.594 97.1719 222.344 96.2891 223.312 95.5391C224.297 94.7891 225.469 94.2109 226.828 93.8047C228.203 93.3828 229.734 93.1719 231.422 93.1719C233.438 93.1719 235.234 93.5078 236.812 94.1797C238.406 94.8516 239.664 95.8594 240.586 97.2031C241.508 98.5312 241.969 100.203 241.969 102.219V112.602C241.969 114.258 242.062 115.516 242.25 116.375C242.438 117.219 242.703 117.961 243.047 118.602V119H235.125C234.75 118.219 234.469 117.266 234.281 116.141C234.109 115 234.023 113.828 234.023 112.625ZM234.984 103.508L235.031 107.727H231.539C230.805 107.727 230.18 107.828 229.664 108.031C229.164 108.234 228.758 108.516 228.445 108.875C228.148 109.219 227.93 109.609 227.789 110.047C227.664 110.484 227.602 110.945 227.602 111.43C227.602 111.898 227.711 112.32 227.93 112.695C228.164 113.055 228.477 113.336 228.867 113.539C229.258 113.742 229.695 113.844 230.18 113.844C231.055 113.844 231.797 113.68 232.406 113.352C233.031 113.008 233.508 112.594 233.836 112.109C234.164 111.625 234.328 111.172 234.328 110.75L236.062 113.984C235.75 114.609 235.391 115.242 234.984 115.883C234.594 116.523 234.102 117.117 233.508 117.664C232.93 118.195 232.219 118.633 231.375 118.977C230.531 119.305 229.508 119.469 228.305 119.469C226.742 119.469 225.305 119.148 223.992 118.508C222.695 117.867 221.656 116.977 220.875 115.836C220.094 114.68 219.703 113.352 219.703 111.852C219.703 110.539 219.938 109.367 220.406 108.336C220.891 107.305 221.617 106.43 222.586 105.711C223.555 104.992 224.789 104.445 226.289 104.07C227.789 103.695 229.555 103.508 231.586 103.508H234.984ZM259.641 111.875C259.641 111.438 259.492 111.062 259.195 110.75C258.914 110.422 258.414 110.125 257.695 109.859C256.977 109.578 255.969 109.297 254.672 109.016C253.438 108.75 252.273 108.398 251.18 107.961C250.102 107.523 249.156 106.992 248.344 106.367C247.531 105.742 246.891 105 246.422 104.141C245.969 103.281 245.742 102.297 245.742 101.188C245.742 100.109 245.969 99.0938 246.422 98.1406C246.891 97.1719 247.57 96.3203 248.461 95.5859C249.367 94.8359 250.469 94.25 251.766 93.8281C253.062 93.3906 254.539 93.1719 256.195 93.1719C258.477 93.1719 260.445 93.5234 262.102 94.2266C263.758 94.9141 265.031 95.8828 265.922 97.1328C266.828 98.3672 267.281 99.7969 267.281 101.422H259.383C259.383 100.781 259.273 100.234 259.055 99.7812C258.852 99.3281 258.516 98.9844 258.047 98.75C257.578 98.5 256.953 98.375 256.172 98.375C255.625 98.375 255.125 98.4766 254.672 98.6797C254.234 98.8828 253.883 99.1641 253.617 99.5234C253.352 99.8828 253.219 100.305 253.219 100.789C253.219 101.133 253.297 101.445 253.453 101.727C253.625 101.992 253.883 102.242 254.227 102.477C254.57 102.695 255.008 102.898 255.539 103.086C256.07 103.258 256.711 103.414 257.461 103.555C259.164 103.867 260.758 104.312 262.242 104.891C263.727 105.469 264.93 106.289 265.852 107.352C266.789 108.414 267.258 109.844 267.258 111.641C267.258 112.766 267 113.805 266.484 114.758C265.969 115.695 265.227 116.523 264.258 117.242C263.289 117.945 262.125 118.492 260.766 118.883C259.406 119.273 257.875 119.469 256.172 119.469C253.75 119.469 251.703 119.039 250.031 118.18C248.359 117.305 247.094 116.211 246.234 114.898C245.391 113.57 244.969 112.227 244.969 110.867H252.328C252.359 111.648 252.547 112.289 252.891 112.789C253.25 113.289 253.727 113.656 254.32 113.891C254.914 114.125 255.602 114.242 256.383 114.242C257.102 114.242 257.695 114.141 258.164 113.938C258.648 113.734 259.016 113.461 259.266 113.117C259.516 112.758 259.641 112.344 259.641 111.875ZM283.242 119.469C281.18 119.469 279.336 119.148 277.711 118.508C276.086 117.852 274.711 116.953 273.586 115.812C272.477 114.672 271.625 113.359 271.031 111.875C270.453 110.391 270.164 108.82 270.164 107.164V106.273C270.164 104.414 270.422 102.695 270.938 101.117C271.453 99.5234 272.219 98.1328 273.234 96.9453C274.25 95.7578 275.523 94.8359 277.055 94.1797C278.586 93.5078 280.367 93.1719 282.398 93.1719C284.195 93.1719 285.805 93.4609 287.227 94.0391C288.648 94.6172 289.852 95.4453 290.836 96.5234C291.836 97.6016 292.594 98.9062 293.109 100.438C293.641 101.969 293.906 103.688 293.906 105.594V108.805H273.188V103.859H286.195V103.25C286.211 102.406 286.062 101.688 285.75 101.094C285.453 100.5 285.016 100.047 284.438 99.7344C283.859 99.4219 283.156 99.2656 282.328 99.2656C281.469 99.2656 280.758 99.4531 280.195 99.8281C279.648 100.203 279.219 100.719 278.906 101.375C278.609 102.016 278.398 102.758 278.273 103.602C278.148 104.445 278.086 105.336 278.086 106.273V107.164C278.086 108.102 278.211 108.953 278.461 109.719C278.727 110.484 279.102 111.141 279.586 111.688C280.086 112.219 280.68 112.633 281.367 112.93C282.07 113.227 282.867 113.375 283.758 113.375C284.836 113.375 285.898 113.172 286.945 112.766C287.992 112.359 288.891 111.688 289.641 110.75L293.227 115.016C292.711 115.75 291.977 116.461 291.023 117.148C290.086 117.836 288.961 118.398 287.648 118.836C286.336 119.258 284.867 119.469 283.242 119.469ZM320.531 119H312.961L313.008 112.672H320.531C322.094 112.672 323.414 112.297 324.492 111.547C325.586 110.797 326.414 109.68 326.977 108.195C327.555 106.695 327.844 104.852 327.844 102.664V101.188C327.844 99.5469 327.68 98.1094 327.352 96.875C327.039 95.625 326.57 94.5859 325.945 93.7578C325.32 92.9141 324.539 92.2812 323.602 91.8594C322.68 91.4375 321.617 91.2266 320.414 91.2266H312.82V84.875H320.414C322.727 84.875 324.844 85.2734 326.766 86.0703C328.703 86.8516 330.375 87.9766 331.781 89.4453C333.203 90.8984 334.297 92.625 335.062 94.625C335.844 96.6094 336.234 98.8125 336.234 101.234V102.664C336.234 105.07 335.844 107.273 335.062 109.273C334.297 111.273 333.211 113 331.805 114.453C330.398 115.906 328.734 117.031 326.812 117.828C324.906 118.609 322.812 119 320.531 119ZM317.672 84.875V119H309.445V84.875H317.672ZM352.43 119.469C350.367 119.469 348.523 119.148 346.898 118.508C345.273 117.852 343.898 116.953 342.773 115.812C341.664 114.672 340.812 113.359 340.219 111.875C339.641 110.391 339.352 108.82 339.352 107.164V106.273C339.352 104.414 339.609 102.695 340.125 101.117C340.641 99.5234 341.406 98.1328 342.422 96.9453C343.438 95.7578 344.711 94.8359 346.242 94.1797C347.773 93.5078 349.555 93.1719 351.586 93.1719C353.383 93.1719 354.992 93.4609 356.414 94.0391C357.836 94.6172 359.039 95.4453 360.023 96.5234C361.023 97.6016 361.781 98.9062 362.297 100.438C362.828 101.969 363.094 103.688 363.094 105.594V108.805H342.375V103.859H355.383V103.25C355.398 102.406 355.25 101.688 354.938 101.094C354.641 100.5 354.203 100.047 353.625 99.7344C353.047 99.4219 352.344 99.2656 351.516 99.2656C350.656 99.2656 349.945 99.4531 349.383 99.8281C348.836 100.203 348.406 100.719 348.094 101.375C347.797 102.016 347.586 102.758 347.461 103.602C347.336 104.445 347.273 105.336 347.273 106.273V107.164C347.273 108.102 347.398 108.953 347.648 109.719C347.914 110.484 348.289 111.141 348.773 111.688C349.273 112.219 349.867 112.633 350.555 112.93C351.258 113.227 352.055 113.375 352.945 113.375C354.023 113.375 355.086 113.172 356.133 112.766C357.18 112.359 358.078 111.688 358.828 110.75L362.414 115.016C361.898 115.75 361.164 116.461 360.211 117.148C359.273 117.836 358.148 118.398 356.836 118.836C355.523 119.258 354.055 119.469 352.43 119.469ZM379.594 111.875C379.594 111.438 379.445 111.062 379.148 110.75C378.867 110.422 378.367 110.125 377.648 109.859C376.93 109.578 375.922 109.297 374.625 109.016C373.391 108.75 372.227 108.398 371.133 107.961C370.055 107.523 369.109 106.992 368.297 106.367C367.484 105.742 366.844 105 366.375 104.141C365.922 103.281 365.695 102.297 365.695 101.188C365.695 100.109 365.922 99.0938 366.375 98.1406C366.844 97.1719 367.523 96.3203 368.414 95.5859C369.32 94.8359 370.422 94.25 371.719 93.8281C373.016 93.3906 374.492 93.1719 376.148 93.1719C378.43 93.1719 380.398 93.5234 382.055 94.2266C383.711 94.9141 384.984 95.8828 385.875 97.1328C386.781 98.3672 387.234 99.7969 387.234 101.422H379.336C379.336 100.781 379.227 100.234 379.008 99.7812C378.805 99.3281 378.469 98.9844 378 98.75C377.531 98.5 376.906 98.375 376.125 98.375C375.578 98.375 375.078 98.4766 374.625 98.6797C374.188 98.8828 373.836 99.1641 373.57 99.5234C373.305 99.8828 373.172 100.305 373.172 100.789C373.172 101.133 373.25 101.445 373.406 101.727C373.578 101.992 373.836 102.242 374.18 102.477C374.523 102.695 374.961 102.898 375.492 103.086C376.023 103.258 376.664 103.414 377.414 103.555C379.117 103.867 380.711 104.312 382.195 104.891C383.68 105.469 384.883 106.289 385.805 107.352C386.742 108.414 387.211 109.844 387.211 111.641C387.211 112.766 386.953 113.805 386.438 114.758C385.922 115.695 385.18 116.523 384.211 117.242C383.242 117.945 382.078 118.492 380.719 118.883C379.359 119.273 377.828 119.469 376.125 119.469C373.703 119.469 371.656 119.039 369.984 118.18C368.312 117.305 367.047 116.211 366.188 114.898C365.344 113.57 364.922 112.227 364.922 110.867H372.281C372.312 111.648 372.5 112.289 372.844 112.789C373.203 113.289 373.68 113.656 374.273 113.891C374.867 114.125 375.555 114.242 376.336 114.242C377.055 114.242 377.648 114.141 378.117 113.938C378.602 113.734 378.969 113.461 379.219 113.117C379.469 112.758 379.594 112.344 379.594 111.875ZM399.258 93.6406V119H391.336V93.6406H399.258ZM390.867 87.1016C390.867 85.9766 391.273 85.0547 392.086 84.3359C392.898 83.6172 393.953 83.2578 395.25 83.2578C396.547 83.2578 397.602 83.6172 398.414 84.3359C399.227 85.0547 399.633 85.9766 399.633 87.1016C399.633 88.2266 399.227 89.1484 398.414 89.8672C397.602 90.5859 396.547 90.9453 395.25 90.9453C393.953 90.9453 392.898 90.5859 392.086 89.8672C391.273 89.1484 390.867 88.2266 390.867 87.1016ZM420.07 93.6406H427.242V118.016C427.242 120.359 426.703 122.344 425.625 123.969C424.547 125.609 423.039 126.852 421.102 127.695C419.18 128.555 416.93 128.984 414.352 128.984C413.211 128.984 412.047 128.836 410.859 128.539C409.672 128.258 408.562 127.836 407.531 127.273C406.5 126.711 405.633 126.016 404.93 125.188L408.234 120.547C408.875 121.266 409.68 121.875 410.648 122.375C411.617 122.891 412.758 123.148 414.07 123.148C415.211 123.148 416.164 122.945 416.93 122.539C417.711 122.133 418.305 121.539 418.711 120.758C419.117 119.992 419.32 119.062 419.32 117.969V99.6406L420.07 93.6406ZM403.219 106.625V106.133C403.219 104.211 403.453 102.461 403.922 100.883C404.406 99.2891 405.094 97.9219 405.984 96.7812C406.891 95.625 407.984 94.7344 409.266 94.1094C410.547 93.4844 411.992 93.1719 413.602 93.1719C415.336 93.1719 416.758 93.5078 417.867 94.1797C418.992 94.8359 419.891 95.7578 420.562 96.9453C421.25 98.1328 421.781 99.5234 422.156 101.117C422.547 102.695 422.875 104.398 423.141 106.227V106.812C422.875 108.531 422.508 110.156 422.039 111.688C421.586 113.203 420.992 114.547 420.258 115.719C419.523 116.891 418.602 117.812 417.492 118.484C416.398 119.141 415.086 119.469 413.555 119.469C411.961 119.469 410.523 119.148 409.242 118.508C407.977 117.867 406.891 116.969 405.984 115.812C405.094 114.656 404.406 113.297 403.922 111.734C403.453 110.172 403.219 108.469 403.219 106.625ZM411.117 106.133V106.625C411.117 107.578 411.203 108.461 411.375 109.273C411.562 110.086 411.844 110.805 412.219 111.43C412.594 112.039 413.055 112.516 413.602 112.859C414.164 113.203 414.82 113.375 415.57 113.375C416.711 113.375 417.633 113.133 418.336 112.648C419.039 112.164 419.547 111.477 419.859 110.586C420.172 109.695 420.305 108.648 420.258 107.445V105.594C420.289 104.562 420.219 103.656 420.047 102.875C419.875 102.078 419.602 101.414 419.227 100.883C418.867 100.352 418.383 99.9531 417.773 99.6875C417.18 99.4062 416.461 99.2656 415.617 99.2656C414.883 99.2656 414.234 99.4375 413.672 99.7812C413.109 100.125 412.641 100.609 412.266 101.234C411.891 101.844 411.602 102.57 411.398 103.414C411.211 104.242 411.117 105.148 411.117 106.133ZM439.547 99.0547V119H431.648V93.6406H439.055L439.547 99.0547ZM438.609 105.453L436.758 105.5C436.758 103.562 436.992 101.836 437.461 100.32C437.93 98.7891 438.594 97.4922 439.453 96.4297C440.312 95.3672 441.336 94.5625 442.523 94.0156C443.727 93.4531 445.062 93.1719 446.531 93.1719C447.703 93.1719 448.773 93.3438 449.742 93.6875C450.727 94.0312 451.57 94.5859 452.273 95.3516C452.992 96.1172 453.539 97.1328 453.914 98.3984C454.305 99.6484 454.5 101.195 454.5 103.039V119H446.555V103.016C446.555 102 446.414 101.227 446.133 100.695C445.852 100.148 445.445 99.7734 444.914 99.5703C444.383 99.3672 443.734 99.2656 442.969 99.2656C442.156 99.2656 441.469 99.4219 440.906 99.7344C440.344 100.047 439.891 100.484 439.547 101.047C439.219 101.594 438.977 102.242 438.82 102.992C438.68 103.742 438.609 104.562 438.609 105.453Z" fill="black"/>
<path d="M1134 0H1348C1356.28 0 1363 6.71573 1363 15V148C1363 156.284 1356.28 163 1348 163H1134V0Z" fill="black"/>
<path d="M1217.58 64.1667C1217.58 66.0281 1218.51 67.7419 1220.09 69.2434C1221.67 70.7429 1223.94 72.0619 1226.71 73.1553C1232.26 75.343 1239.93 76.6667 1248.5 76.6667C1257.07 76.6667 1264.74 75.343 1270.29 73.1553C1273.06 72.0619 1275.33 70.7429 1276.91 69.2434C1278.49 67.7419 1279.42 66.0281 1279.42 64.1667C1279.42 62.3052 1278.49 60.5914 1276.91 59.0899C1275.33 57.5904 1273.06 56.2714 1270.29 55.178C1264.74 52.9903 1257.07 51.6667 1248.5 51.6667C1239.93 51.6667 1232.26 52.9903 1226.71 55.178C1223.94 56.2714 1221.67 57.5904 1220.09 59.0899C1218.51 60.5914 1217.58 62.3052 1217.58 64.1667ZM1221.62 64.1667C1221.62 63.0283 1222.37 61.8878 1223.88 60.7921C1225.37 59.7041 1227.52 58.7293 1230.11 57.9144C1235.28 56.2864 1242.07 55.3333 1248.5 55.3333C1254.93 55.3333 1261.72 56.2864 1266.89 57.9144C1269.48 58.7293 1271.63 59.7041 1273.12 60.7921C1274.63 61.8878 1275.37 63.0283 1275.37 64.1667C1275.37 65.305 1274.63 66.4455 1273.12 67.5412C1271.63 68.6292 1269.48 69.604 1266.89 70.4189C1261.72 72.0469 1254.93 73 1248.5 73C1242.07 73 1235.28 72.0469 1230.11 70.4189C1227.52 69.604 1225.37 68.6292 1223.88 67.5412C1222.37 66.4455 1221.62 65.305 1221.62 64.1667Z" fill="#0049B6" stroke="#0049B6"/>
<path d="M1217.58 74.8333C1217.58 76.6948 1218.51 78.4086 1220.09 79.9101C1221.67 81.4096 1223.94 82.7286 1226.71 83.822C1232.26 86.0097 1239.93 87.3333 1248.5 87.3333C1257.07 87.3333 1264.74 86.0097 1270.29 83.822C1273.06 82.7286 1275.33 81.4096 1276.91 79.9101C1278.49 78.4086 1279.42 76.6948 1279.42 74.8333V64.1667C1279.42 63.6576 1279.19 63.1851 1278.8 62.8479C1278.42 62.5126 1277.91 62.3333 1277.4 62.3333C1276.88 62.3333 1276.37 62.5126 1275.99 62.8479C1275.61 63.1851 1275.37 63.6576 1275.37 64.1667V74.8333C1275.37 75.9717 1274.63 77.1122 1273.12 78.2079C1271.63 79.2959 1269.48 80.2707 1266.89 81.0856C1261.72 82.7136 1254.93 83.6667 1248.5 83.6667C1242.07 83.6667 1235.28 82.7136 1230.11 81.0856C1227.52 80.2707 1225.37 79.2959 1223.88 78.2079C1222.37 77.1122 1221.62 75.9717 1221.62 74.8333V64.1667C1221.62 63.6576 1221.39 63.1851 1221.01 62.8479C1220.63 62.5126 1220.12 62.3333 1219.6 62.3333C1219.09 62.3333 1218.58 62.5126 1218.2 62.8479C1217.81 63.1851 1217.58 63.6576 1217.58 64.1667V74.8333Z" fill="#0049B6" stroke="#0049B6"/>
<path d="M1217.58 86.8333C1217.58 88.6948 1218.51 90.4086 1220.09 91.9101C1221.67 93.4095 1223.94 94.7286 1226.71 95.8219C1232.26 98.0097 1239.93 99.3333 1248.5 99.3333C1257.07 99.3333 1264.74 98.0097 1270.29 95.8219C1273.06 94.7286 1275.33 93.4095 1276.91 91.9101C1278.49 90.4086 1279.42 88.6948 1279.42 86.8333V74.8333C1279.42 74.3243 1279.19 73.8517 1278.8 73.5146C1278.42 73.1792 1277.91 73 1277.4 73C1276.88 73 1276.37 73.1792 1275.99 73.5146C1275.61 73.8517 1275.37 74.3243 1275.37 74.8333V86.8333C1275.37 87.9717 1274.63 89.1122 1273.12 90.2079C1271.63 91.2958 1269.48 92.2707 1266.89 93.0856C1261.72 94.7136 1254.93 95.6667 1248.5 95.6667C1242.07 95.6667 1235.28 94.7136 1230.11 93.0856C1227.52 92.2707 1225.37 91.2958 1223.88 90.2079C1222.37 89.1122 1221.62 87.9717 1221.62 86.8333V74.8333C1221.62 74.3243 1221.39 73.8517 1221.01 73.5146C1220.63 73.1792 1220.12 73 1219.6 73C1219.09 73 1218.58 73.1792 1218.2 73.5146C1217.81 73.8517 1217.58 74.3243 1217.58 74.8333V86.8333Z" fill="#0049B6" stroke="#0049B6"/>
<path d="M1217.58 98.8333C1217.58 100.695 1218.51 102.409 1220.09 103.91C1221.67 105.41 1223.94 106.729 1226.71 107.822C1232.26 110.01 1239.93 111.333 1248.5 111.333C1257.07 111.333 1264.74 110.01 1270.29 107.822C1273.06 106.729 1275.33 105.41 1276.91 103.91C1278.49 102.409 1279.42 100.695 1279.42 98.8333V86.8333C1279.42 86.3243 1279.19 85.8517 1278.8 85.5146C1278.42 85.1792 1277.91 85 1277.4 85C1276.88 85 1276.37 85.1792 1275.99 85.5146C1275.61 85.8517 1275.37 86.3243 1275.37 86.8333V98.8333C1275.37 99.9717 1274.63 101.112 1273.12 102.208C1271.63 103.296 1269.48 104.271 1266.89 105.086C1261.72 106.714 1254.93 107.667 1248.5 107.667C1242.07 107.667 1235.28 106.714 1230.11 105.086C1227.52 104.271 1225.37 103.296 1223.88 102.208C1222.37 101.112 1221.62 99.9717 1221.62 98.8333V86.8333C1221.62 86.3243 1221.39 85.8517 1221.01 85.5146C1220.63 85.1792 1220.12 85 1219.6 85C1219.09 85 1218.58 85.1792 1218.2 85.5146C1217.81 85.8517 1217.58 86.3243 1217.58 86.8333V98.8333Z" fill="#0049B6" stroke="#0049B6"/>
</svg>
