<svg width="1363" height="163" viewBox="0 0 1363 163" fill="none" xmlns="http://www.w3.org/2000/svg">
<path d="M0 15C0 6.71573 6.71573 0 15 0H37V163H15C6.71573 163 0 156.284 0 148V15Z" fill="#61DBFB"/>
<rect width="1097" height="163" transform="translate(37)" fill="#F0F0F0"/>
<path d="M103.406 56.5352C103.406 56.2305 103.359 55.957 103.266 55.7148C103.18 55.4648 103.016 55.2383 102.773 55.0352C102.531 54.8242 102.191 54.6172 101.754 54.4141C101.316 54.2109 100.75 54 100.055 53.7812C99.2812 53.5312 98.5469 53.25 97.8516 52.9375C97.1641 52.625 96.5547 52.2617 96.0234 51.8477C95.5 51.4258 95.0859 50.9375 94.7812 50.3828C94.4844 49.8281 94.3359 49.1836 94.3359 48.4492C94.3359 47.7383 94.4922 47.0938 94.8047 46.5156C95.1172 45.9297 95.5547 45.4297 96.1172 45.0156C96.6797 44.5938 97.3438 44.2695 98.1094 44.043C98.8828 43.8164 99.7305 43.7031 100.652 43.7031C101.91 43.7031 103.008 43.9297 103.945 44.3828C104.883 44.8359 105.609 45.457 106.125 46.2461C106.648 47.0352 106.91 47.9375 106.91 48.9531H103.418C103.418 48.4531 103.312 48.0156 103.102 47.6406C102.898 47.2578 102.586 46.957 102.164 46.7383C101.75 46.5195 101.227 46.4102 100.594 46.4102C99.9844 46.4102 99.4766 46.5039 99.0703 46.6914C98.6641 46.8711 98.3594 47.1172 98.1562 47.4297C97.9531 47.7344 97.8516 48.0781 97.8516 48.4609C97.8516 48.75 97.9219 49.0117 98.0625 49.2461C98.2109 49.4805 98.4297 49.6992 98.7188 49.9023C99.0078 50.1055 99.3633 50.2969 99.7852 50.4766C100.207 50.6562 100.695 50.832 101.25 51.0039C102.18 51.2852 102.996 51.6016 103.699 51.9531C104.41 52.3047 105.004 52.6992 105.48 53.1367C105.957 53.5742 106.316 54.0703 106.559 54.625C106.801 55.1797 106.922 55.8086 106.922 56.5117C106.922 57.2539 106.777 57.918 106.488 58.5039C106.199 59.0898 105.781 59.5859 105.234 59.9922C104.688 60.3984 104.035 60.707 103.277 60.918C102.52 61.1289 101.672 61.2344 100.734 61.2344C99.8906 61.2344 99.0586 61.125 98.2383 60.9062C97.418 60.6797 96.6719 60.3398 96 59.8867C95.3359 59.4336 94.8047 58.8555 94.4062 58.1523C94.0078 57.4492 93.8086 56.6172 93.8086 55.6562H97.3359C97.3359 56.1875 97.418 56.6367 97.582 57.0039C97.7461 57.3711 97.9766 57.668 98.2734 57.8945C98.5781 58.1211 98.9375 58.2852 99.3516 58.3867C99.7734 58.4883 100.234 58.5391 100.734 58.5391C101.344 58.5391 101.844 58.4531 102.234 58.2812C102.633 58.1094 102.926 57.8711 103.113 57.5664C103.309 57.2617 103.406 56.918 103.406 56.5352ZM112.477 50.7578V65.875H109.102V48.3203H112.23L112.477 50.7578ZM120.504 54.5195V54.7656C120.504 55.6875 120.395 56.543 120.176 57.332C119.965 58.1211 119.652 58.8086 119.238 59.3945C118.824 59.9727 118.309 60.4258 117.691 60.7539C117.082 61.0742 116.379 61.2344 115.582 61.2344C114.809 61.2344 114.137 61.0781 113.566 60.7656C112.996 60.4531 112.516 60.0156 112.125 59.4531C111.742 58.8828 111.434 58.2227 111.199 57.4727C110.965 56.7227 110.785 55.918 110.66 55.0586V54.4141C110.785 53.4922 110.965 52.6484 111.199 51.8828C111.434 51.1094 111.742 50.4414 112.125 49.8789C112.516 49.3086 112.992 48.8672 113.555 48.5547C114.125 48.2422 114.793 48.0859 115.559 48.0859C116.363 48.0859 117.07 48.2383 117.68 48.543C118.297 48.8477 118.812 49.2852 119.227 49.8555C119.648 50.4258 119.965 51.1055 120.176 51.8945C120.395 52.6836 120.504 53.5586 120.504 54.5195ZM117.117 54.7656V54.5195C117.117 53.9805 117.07 53.4844 116.977 53.0312C116.891 52.5703 116.75 52.168 116.555 51.8242C116.367 51.4805 116.117 51.2148 115.805 51.0273C115.5 50.832 115.129 50.7344 114.691 50.7344C114.23 50.7344 113.836 50.8086 113.508 50.957C113.188 51.1055 112.926 51.3203 112.723 51.6016C112.52 51.8828 112.367 52.2188 112.266 52.6094C112.164 53 112.102 53.4414 112.078 53.9336V55.5625C112.117 56.1406 112.227 56.6602 112.406 57.1211C112.586 57.5742 112.863 57.9336 113.238 58.1992C113.613 58.4648 114.105 58.5977 114.715 58.5977C115.16 58.5977 115.535 58.5 115.84 58.3047C116.145 58.1016 116.391 57.8242 116.578 57.4727C116.773 57.1211 116.91 56.7148 116.988 56.2539C117.074 55.793 117.117 55.2969 117.117 54.7656ZM129.445 58.1406V52.4922C129.445 52.0859 129.379 51.7383 129.246 51.4492C129.113 51.1523 128.906 50.9219 128.625 50.7578C128.352 50.5938 127.996 50.5117 127.559 50.5117C127.184 50.5117 126.859 50.5781 126.586 50.7109C126.312 50.8359 126.102 51.0195 125.953 51.2617C125.805 51.4961 125.73 51.7734 125.73 52.0938H122.355C122.355 51.5547 122.48 51.043 122.73 50.5586C122.98 50.0742 123.344 49.6484 123.82 49.2812C124.297 48.9062 124.863 48.6133 125.52 48.4023C126.184 48.1914 126.926 48.0859 127.746 48.0859C128.73 48.0859 129.605 48.25 130.371 48.5781C131.137 48.9062 131.738 49.3984 132.176 50.0547C132.621 50.7109 132.844 51.5312 132.844 52.5156V57.9414C132.844 58.6367 132.887 59.207 132.973 59.6523C133.059 60.0898 133.184 60.4727 133.348 60.8008V61H129.938C129.773 60.6562 129.648 60.2266 129.562 59.7109C129.484 59.1875 129.445 58.6641 129.445 58.1406ZM129.891 53.2773L129.914 55.1875H128.027C127.582 55.1875 127.195 55.2383 126.867 55.3398C126.539 55.4414 126.27 55.5859 126.059 55.7734C125.848 55.9531 125.691 56.1641 125.59 56.4062C125.496 56.6484 125.449 56.9141 125.449 57.2031C125.449 57.4922 125.516 57.7539 125.648 57.9883C125.781 58.2148 125.973 58.3945 126.223 58.5273C126.473 58.6523 126.766 58.7148 127.102 58.7148C127.609 58.7148 128.051 58.6133 128.426 58.4102C128.801 58.207 129.09 57.957 129.293 57.6602C129.504 57.3633 129.613 57.082 129.621 56.8164L130.512 58.2461C130.387 58.5664 130.215 58.8984 129.996 59.2422C129.785 59.5859 129.516 59.9102 129.188 60.2148C128.859 60.5117 128.465 60.7578 128.004 60.9531C127.543 61.1406 126.996 61.2344 126.363 61.2344C125.559 61.2344 124.828 61.0742 124.172 60.7539C123.523 60.4258 123.008 59.9766 122.625 59.4062C122.25 58.8281 122.062 58.1719 122.062 57.4375C122.062 56.7734 122.188 56.1836 122.438 55.668C122.688 55.1523 123.055 54.7188 123.539 54.3672C124.031 54.0078 124.645 53.7383 125.379 53.5586C126.113 53.3711 126.965 53.2773 127.934 53.2773H129.891ZM140.684 58.5977C141.098 58.5977 141.465 58.5195 141.785 58.3633C142.105 58.1992 142.355 57.9727 142.535 57.6836C142.723 57.3867 142.82 57.0391 142.828 56.6406H146.004C145.996 57.5312 145.758 58.3242 145.289 59.0195C144.82 59.707 144.191 60.25 143.402 60.6484C142.613 61.0391 141.73 61.2344 140.754 61.2344C139.77 61.2344 138.91 61.0703 138.176 60.7422C137.449 60.4141 136.844 59.9609 136.359 59.3828C135.875 58.7969 135.512 58.1172 135.27 57.3438C135.027 56.5625 134.906 55.7266 134.906 54.8359V54.4961C134.906 53.5977 135.027 52.7617 135.27 51.9883C135.512 51.207 135.875 50.5273 136.359 49.9492C136.844 49.3633 137.449 48.9062 138.176 48.5781C138.902 48.25 139.754 48.0859 140.73 48.0859C141.77 48.0859 142.68 48.2852 143.461 48.6836C144.25 49.082 144.867 49.6523 145.312 50.3945C145.766 51.1289 145.996 52 146.004 53.0078H142.828C142.82 52.5859 142.73 52.2031 142.559 51.8594C142.395 51.5156 142.152 51.2422 141.832 51.0391C141.52 50.8281 141.133 50.7227 140.672 50.7227C140.18 50.7227 139.777 50.8281 139.465 51.0391C139.152 51.2422 138.91 51.5234 138.738 51.8828C138.566 52.2344 138.445 52.6367 138.375 53.0898C138.312 53.5352 138.281 54.0039 138.281 54.4961V54.8359C138.281 55.3281 138.312 55.8008 138.375 56.2539C138.438 56.707 138.555 57.1094 138.727 57.4609C138.906 57.8125 139.152 58.0898 139.465 58.293C139.777 58.4961 140.184 58.5977 140.684 58.5977ZM153.797 61.2344C152.812 61.2344 151.93 61.0781 151.148 60.7656C150.367 60.4453 149.703 60.0039 149.156 59.4414C148.617 58.8789 148.203 58.2266 147.914 57.4844C147.625 56.7344 147.48 55.9375 147.48 55.0938V54.625C147.48 53.6641 147.617 52.7852 147.891 51.9883C148.164 51.1914 148.555 50.5 149.062 49.9141C149.578 49.3281 150.203 48.8789 150.938 48.5664C151.672 48.2461 152.5 48.0859 153.422 48.0859C154.32 48.0859 155.117 48.2344 155.812 48.5312C156.508 48.8281 157.09 49.25 157.559 49.7969C158.035 50.3438 158.395 51 158.637 51.7656C158.879 52.5234 159 53.3672 159 54.2969V55.7031H148.922V53.4531H155.684V53.1953C155.684 52.7266 155.598 52.3086 155.426 51.9414C155.262 51.5664 155.012 51.2695 154.676 51.0508C154.34 50.832 153.91 50.7227 153.387 50.7227C152.941 50.7227 152.559 50.8203 152.238 51.0156C151.918 51.2109 151.656 51.4844 151.453 51.8359C151.258 52.1875 151.109 52.6016 151.008 53.0781C150.914 53.5469 150.867 54.0625 150.867 54.625V55.0938C150.867 55.6016 150.938 56.0703 151.078 56.5C151.227 56.9297 151.434 57.3008 151.699 57.6133C151.973 57.9258 152.301 58.168 152.684 58.3398C153.074 58.5117 153.516 58.5977 154.008 58.5977C154.617 58.5977 155.184 58.4805 155.707 58.2461C156.238 58.0039 156.695 57.6406 157.078 57.1562L158.719 58.9375C158.453 59.3203 158.09 59.6875 157.629 60.0391C157.176 60.3906 156.629 60.6797 155.988 60.9062C155.348 61.125 154.617 61.2344 153.797 61.2344ZM174.012 55.7617V43.9375H177.516V55.7617C177.516 56.9023 177.266 57.8828 176.766 58.7031C176.266 59.5156 175.582 60.1406 174.715 60.5781C173.855 61.0156 172.887 61.2344 171.809 61.2344C170.691 61.2344 169.703 61.0469 168.844 60.6719C167.984 60.2969 167.309 59.7227 166.816 58.9492C166.324 58.168 166.078 57.1797 166.078 55.9844H169.605C169.605 56.6094 169.691 57.1055 169.863 57.4727C170.043 57.8398 170.297 58.1016 170.625 58.2578C170.953 58.4141 171.348 58.4922 171.809 58.4922C172.254 58.4922 172.641 58.3867 172.969 58.1758C173.297 57.9648 173.551 57.6562 173.73 57.25C173.918 56.8438 174.012 56.3477 174.012 55.7617ZM179.766 54.7891V54.543C179.766 53.6133 179.898 52.7578 180.164 51.9766C180.43 51.1875 180.816 50.5039 181.324 49.9258C181.832 49.3477 182.457 48.8984 183.199 48.5781C183.941 48.25 184.793 48.0859 185.754 48.0859C186.715 48.0859 187.57 48.25 188.32 48.5781C189.07 48.8984 189.699 49.3477 190.207 49.9258C190.723 50.5039 191.113 51.1875 191.379 51.9766C191.645 52.7578 191.777 53.6133 191.777 54.543V54.7891C191.777 55.7109 191.645 56.5664 191.379 57.3555C191.113 58.1367 190.723 58.8203 190.207 59.4062C189.699 59.9844 189.074 60.4336 188.332 60.7539C187.59 61.0742 186.738 61.2344 185.777 61.2344C184.816 61.2344 183.961 61.0742 183.211 60.7539C182.469 60.4336 181.84 59.9844 181.324 59.4062C180.816 58.8203 180.43 58.1367 180.164 57.3555C179.898 56.5664 179.766 55.7109 179.766 54.7891ZM183.141 54.543V54.7891C183.141 55.3203 183.188 55.8164 183.281 56.2773C183.375 56.7383 183.523 57.1445 183.727 57.4961C183.938 57.8398 184.211 58.1094 184.547 58.3047C184.883 58.5 185.293 58.5977 185.777 58.5977C186.246 58.5977 186.648 58.5 186.984 58.3047C187.32 58.1094 187.59 57.8398 187.793 57.4961C187.996 57.1445 188.145 56.7383 188.238 56.2773C188.34 55.8164 188.391 55.3203 188.391 54.7891V54.543C188.391 54.0273 188.34 53.543 188.238 53.0898C188.145 52.6289 187.992 52.2227 187.781 51.8711C187.578 51.5117 187.309 51.2305 186.973 51.0273C186.637 50.8242 186.23 50.7227 185.754 50.7227C185.277 50.7227 184.871 50.8242 184.535 51.0273C184.207 51.2305 183.938 51.5117 183.727 51.8711C183.523 52.2227 183.375 52.6289 183.281 53.0898C183.188 53.543 183.141 54.0273 183.141 54.543ZM201.352 57.9648V48.3203H204.727V61H201.551L201.352 57.9648ZM201.727 55.3633L202.723 55.3398C202.723 56.1836 202.625 56.9688 202.43 57.6953C202.234 58.4141 201.941 59.0391 201.551 59.5703C201.16 60.0938 200.668 60.5039 200.074 60.8008C199.48 61.0898 198.781 61.2344 197.977 61.2344C197.359 61.2344 196.789 61.1484 196.266 60.9766C195.75 60.7969 195.305 60.5195 194.93 60.1445C194.562 59.7617 194.273 59.2734 194.062 58.6797C193.859 58.0781 193.758 57.3555 193.758 56.5117V48.3203H197.133V56.5352C197.133 56.9102 197.176 57.2266 197.262 57.4844C197.355 57.7422 197.484 57.9531 197.648 58.1172C197.812 58.2812 198.004 58.3984 198.223 58.4688C198.449 58.5391 198.699 58.5742 198.973 58.5742C199.668 58.5742 200.215 58.4336 200.613 58.1523C201.02 57.8711 201.305 57.4883 201.469 57.0039C201.641 56.5117 201.727 55.9648 201.727 55.3633ZM210.68 51.0859V61H207.305V48.3203H210.48L210.68 51.0859ZM214.5 48.2383L214.441 51.3672C214.277 51.3438 214.078 51.3242 213.844 51.3086C213.617 51.2852 213.41 51.2734 213.223 51.2734C212.746 51.2734 212.332 51.3359 211.98 51.4609C211.637 51.5781 211.348 51.7539 211.113 51.9883C210.887 52.2227 210.715 52.5078 210.598 52.8438C210.488 53.1797 210.426 53.5625 210.41 53.9922L209.73 53.7812C209.73 52.9609 209.812 52.207 209.977 51.5195C210.141 50.8242 210.379 50.2188 210.691 49.7031C211.012 49.1875 211.402 48.7891 211.863 48.5078C212.324 48.2266 212.852 48.0859 213.445 48.0859C213.633 48.0859 213.824 48.1016 214.02 48.1328C214.215 48.1562 214.375 48.1914 214.5 48.2383ZM219.398 51.0273V61H216.023V48.3203H219.188L219.398 51.0273ZM218.906 54.2148H217.992C217.992 53.2773 218.113 52.4336 218.355 51.6836C218.598 50.9258 218.938 50.2812 219.375 49.75C219.812 49.2109 220.332 48.8008 220.934 48.5195C221.543 48.2305 222.223 48.0859 222.973 48.0859C223.566 48.0859 224.109 48.1719 224.602 48.3438C225.094 48.5156 225.516 48.7891 225.867 49.1641C226.227 49.5391 226.5 50.0352 226.688 50.6523C226.883 51.2695 226.98 52.0234 226.98 52.9141V61H223.582V52.9023C223.582 52.3398 223.504 51.9023 223.348 51.5898C223.191 51.2773 222.961 51.0586 222.656 50.9336C222.359 50.8008 221.992 50.7344 221.555 50.7344C221.102 50.7344 220.707 50.8242 220.371 51.0039C220.043 51.1836 219.77 51.4336 219.551 51.7539C219.34 52.0664 219.18 52.4336 219.07 52.8555C218.961 53.2773 218.906 53.7305 218.906 54.2148ZM235.383 61.2344C234.398 61.2344 233.516 61.0781 232.734 60.7656C231.953 60.4453 231.289 60.0039 230.742 59.4414C230.203 58.8789 229.789 58.2266 229.5 57.4844C229.211 56.7344 229.066 55.9375 229.066 55.0938V54.625C229.066 53.6641 229.203 52.7852 229.477 51.9883C229.75 51.1914 230.141 50.5 230.648 49.9141C231.164 49.3281 231.789 48.8789 232.523 48.5664C233.258 48.2461 234.086 48.0859 235.008 48.0859C235.906 48.0859 236.703 48.2344 237.398 48.5312C238.094 48.8281 238.676 49.25 239.145 49.7969C239.621 50.3438 239.98 51 240.223 51.7656C240.465 52.5234 240.586 53.3672 240.586 54.2969V55.7031H230.508V53.4531H237.27V53.1953C237.27 52.7266 237.184 52.3086 237.012 51.9414C236.848 51.5664 236.598 51.2695 236.262 51.0508C235.926 50.832 235.496 50.7227 234.973 50.7227C234.527 50.7227 234.145 50.8203 233.824 51.0156C233.504 51.2109 233.242 51.4844 233.039 51.8359C232.844 52.1875 232.695 52.6016 232.594 53.0781C232.5 53.5469 232.453 54.0625 232.453 54.625V55.0938C232.453 55.6016 232.523 56.0703 232.664 56.5C232.812 56.9297 233.02 57.3008 233.285 57.6133C233.559 57.9258 233.887 58.168 234.27 58.3398C234.66 58.5117 235.102 58.5977 235.594 58.5977C236.203 58.5977 236.77 58.4805 237.293 58.2461C237.824 58.0039 238.281 57.6406 238.664 57.1562L240.305 58.9375C240.039 59.3203 239.676 59.6875 239.215 60.0391C238.762 60.3906 238.215 60.6797 237.574 60.9062C236.934 61.125 236.203 61.2344 235.383 61.2344ZM246.105 59.5703L249.469 48.3203H253.09L247.992 62.9102C247.883 63.2305 247.734 63.5742 247.547 63.9414C247.367 64.3086 247.121 64.6562 246.809 64.9844C246.504 65.3203 246.117 65.5938 245.648 65.8047C245.188 66.0156 244.621 66.1211 243.949 66.1211C243.629 66.1211 243.367 66.1016 243.164 66.0625C242.961 66.0234 242.719 65.9688 242.438 65.8984V63.4258C242.523 63.4258 242.613 63.4258 242.707 63.4258C242.801 63.4336 242.891 63.4375 242.977 63.4375C243.422 63.4375 243.785 63.3867 244.066 63.2852C244.348 63.1836 244.574 63.0273 244.746 62.8164C244.918 62.6133 245.055 62.3477 245.156 62.0195L246.105 59.5703ZM244.699 48.3203L247.453 57.5078L247.934 61.082L245.637 61.3281L241.078 48.3203H244.699Z" fill="#888888"/>
<path d="M104.344 84.875V119H96.1406V84.875H104.344ZM117.727 99.0078V119H109.828V93.6406H117.234L117.727 99.0078ZM116.766 105.453L114.961 105.5C114.961 103.719 115.172 102.078 115.594 100.578C116.016 99.0781 116.641 97.7734 117.469 96.6641C118.297 95.5547 119.312 94.6953 120.516 94.0859C121.734 93.4766 123.141 93.1719 124.734 93.1719C125.844 93.1719 126.852 93.3438 127.758 93.6875C128.664 94.0156 129.445 94.5391 130.102 95.2578C130.758 95.9609 131.258 96.8828 131.602 98.0234C131.961 99.1484 132.141 100.5 132.141 102.078V119H124.242V103.086C124.242 102.008 124.117 101.195 123.867 100.648C123.633 100.102 123.289 99.7344 122.836 99.5469C122.383 99.3594 121.828 99.2656 121.172 99.2656C120.484 99.2656 119.867 99.4219 119.32 99.7344C118.773 100.047 118.305 100.484 117.914 101.047C117.539 101.594 117.25 102.242 117.047 102.992C116.859 103.742 116.766 104.562 116.766 105.453ZM131.25 105.453L129.047 105.5C129.047 103.719 129.242 102.078 129.633 100.578C130.039 99.0781 130.641 97.7734 131.438 96.6641C132.25 95.5547 133.258 94.6953 134.461 94.0859C135.664 93.4766 137.062 93.1719 138.656 93.1719C139.812 93.1719 140.875 93.3438 141.844 93.6875C142.812 94.0312 143.648 94.5859 144.352 95.3516C145.055 96.1172 145.602 97.1328 145.992 98.3984C146.383 99.6484 146.578 101.195 146.578 103.039V119H138.656V103.039C138.656 101.992 138.531 101.203 138.281 100.672C138.047 100.125 137.703 99.7578 137.25 99.5703C136.797 99.3672 136.258 99.2656 135.633 99.2656C134.883 99.2656 134.234 99.4219 133.688 99.7344C133.141 100.047 132.68 100.484 132.305 101.047C131.945 101.594 131.68 102.242 131.508 102.992C131.336 103.742 131.25 104.562 131.25 105.453ZM159.07 98.5156V128.75H151.172V93.6406H158.531L159.07 98.5156ZM174.633 106.016V106.508C174.633 108.352 174.422 110.062 174 111.641C173.578 113.219 172.953 114.594 172.125 115.766C171.297 116.938 170.266 117.852 169.031 118.508C167.812 119.148 166.398 119.469 164.789 119.469C163.273 119.469 161.969 119.133 160.875 118.461C159.781 117.789 158.867 116.859 158.133 115.672C157.398 114.484 156.805 113.125 156.352 111.594C155.898 110.062 155.539 108.445 155.273 106.742V106.109C155.539 104.281 155.898 102.586 156.352 101.023C156.805 99.4453 157.398 98.0703 158.133 96.8984C158.867 95.7266 159.773 94.8125 160.852 94.1562C161.945 93.5 163.25 93.1719 164.766 93.1719C166.375 93.1719 167.789 93.4766 169.008 94.0859C170.242 94.6953 171.273 95.5703 172.102 96.7109C172.945 97.8359 173.578 99.1875 174 100.766C174.422 102.344 174.633 104.094 174.633 106.016ZM166.734 106.508V106.016C166.734 105.031 166.664 104.133 166.523 103.32C166.383 102.492 166.156 101.773 165.844 101.164C165.547 100.555 165.148 100.086 164.648 99.7578C164.148 99.4297 163.531 99.2656 162.797 99.2656C161.953 99.2656 161.242 99.3984 160.664 99.6641C160.102 99.9141 159.648 100.305 159.305 100.836C158.977 101.352 158.742 102 158.602 102.781C158.477 103.547 158.422 104.445 158.438 105.477V107.398C158.406 108.586 158.523 109.633 158.789 110.539C159.055 111.43 159.516 112.125 160.172 112.625C160.828 113.125 161.719 113.375 162.844 113.375C163.594 113.375 164.219 113.203 164.719 112.859C165.219 112.5 165.617 112.008 165.914 111.383C166.211 110.742 166.422 110.008 166.547 109.18C166.672 108.352 166.734 107.461 166.734 106.508ZM186.492 83V119H178.57V83H186.492ZM203.648 119.469C201.586 119.469 199.742 119.148 198.117 118.508C196.492 117.852 195.117 116.953 193.992 115.812C192.883 114.672 192.031 113.359 191.438 111.875C190.859 110.391 190.57 108.82 190.57 107.164V106.273C190.57 104.414 190.828 102.695 191.344 101.117C191.859 99.5234 192.625 98.1328 193.641 96.9453C194.656 95.7578 195.93 94.8359 197.461 94.1797C198.992 93.5078 200.773 93.1719 202.805 93.1719C204.602 93.1719 206.211 93.4609 207.633 94.0391C209.055 94.6172 210.258 95.4453 211.242 96.5234C212.242 97.6016 213 98.9062 213.516 100.438C214.047 101.969 214.312 103.688 214.312 105.594V108.805H193.594V103.859H206.602V103.25C206.617 102.406 206.469 101.688 206.156 101.094C205.859 100.5 205.422 100.047 204.844 99.7344C204.266 99.4219 203.562 99.2656 202.734 99.2656C201.875 99.2656 201.164 99.4531 200.602 99.8281C200.055 100.203 199.625 100.719 199.312 101.375C199.016 102.016 198.805 102.758 198.68 103.602C198.555 104.445 198.492 105.336 198.492 106.273V107.164C198.492 108.102 198.617 108.953 198.867 109.719C199.133 110.484 199.508 111.141 199.992 111.688C200.492 112.219 201.086 112.633 201.773 112.93C202.477 113.227 203.273 113.375 204.164 113.375C205.242 113.375 206.305 113.172 207.352 112.766C208.398 112.359 209.297 111.688 210.047 110.75L213.633 115.016C213.117 115.75 212.383 116.461 211.43 117.148C210.492 117.836 209.367 118.398 208.055 118.836C206.742 119.258 205.273 119.469 203.648 119.469ZM225.492 99.0078V119H217.594V93.6406H225L225.492 99.0078ZM224.531 105.453L222.727 105.5C222.727 103.719 222.938 102.078 223.359 100.578C223.781 99.0781 224.406 97.7734 225.234 96.6641C226.062 95.5547 227.078 94.6953 228.281 94.0859C229.5 93.4766 230.906 93.1719 232.5 93.1719C233.609 93.1719 234.617 93.3438 235.523 93.6875C236.43 94.0156 237.211 94.5391 237.867 95.2578C238.523 95.9609 239.023 96.8828 239.367 98.0234C239.727 99.1484 239.906 100.5 239.906 102.078V119H232.008V103.086C232.008 102.008 231.883 101.195 231.633 100.648C231.398 100.102 231.055 99.7344 230.602 99.5469C230.148 99.3594 229.594 99.2656 228.938 99.2656C228.25 99.2656 227.633 99.4219 227.086 99.7344C226.539 100.047 226.07 100.484 225.68 101.047C225.305 101.594 225.016 102.242 224.812 102.992C224.625 103.742 224.531 104.562 224.531 105.453ZM239.016 105.453L236.812 105.5C236.812 103.719 237.008 102.078 237.398 100.578C237.805 99.0781 238.406 97.7734 239.203 96.6641C240.016 95.5547 241.023 94.6953 242.227 94.0859C243.43 93.4766 244.828 93.1719 246.422 93.1719C247.578 93.1719 248.641 93.3438 249.609 93.6875C250.578 94.0312 251.414 94.5859 252.117 95.3516C252.82 96.1172 253.367 97.1328 253.758 98.3984C254.148 99.6484 254.344 101.195 254.344 103.039V119H246.422V103.039C246.422 101.992 246.297 101.203 246.047 100.672C245.812 100.125 245.469 99.7578 245.016 99.5703C244.562 99.3672 244.023 99.2656 243.398 99.2656C242.648 99.2656 242 99.4219 241.453 99.7344C240.906 100.047 240.445 100.484 240.07 101.047C239.711 101.594 239.445 102.242 239.273 102.992C239.102 103.742 239.016 104.562 239.016 105.453ZM271.148 119.469C269.086 119.469 267.242 119.148 265.617 118.508C263.992 117.852 262.617 116.953 261.492 115.812C260.383 114.672 259.531 113.359 258.938 111.875C258.359 110.391 258.07 108.82 258.07 107.164V106.273C258.07 104.414 258.328 102.695 258.844 101.117C259.359 99.5234 260.125 98.1328 261.141 96.9453C262.156 95.7578 263.43 94.8359 264.961 94.1797C266.492 93.5078 268.273 93.1719 270.305 93.1719C272.102 93.1719 273.711 93.4609 275.133 94.0391C276.555 94.6172 277.758 95.4453 278.742 96.5234C279.742 97.6016 280.5 98.9062 281.016 100.438C281.547 101.969 281.812 103.688 281.812 105.594V108.805H261.094V103.859H274.102V103.25C274.117 102.406 273.969 101.688 273.656 101.094C273.359 100.5 272.922 100.047 272.344 99.7344C271.766 99.4219 271.062 99.2656 270.234 99.2656C269.375 99.2656 268.664 99.4531 268.102 99.8281C267.555 100.203 267.125 100.719 266.812 101.375C266.516 102.016 266.305 102.758 266.18 103.602C266.055 104.445 265.992 105.336 265.992 106.273V107.164C265.992 108.102 266.117 108.953 266.367 109.719C266.633 110.484 267.008 111.141 267.492 111.688C267.992 112.219 268.586 112.633 269.273 112.93C269.977 113.227 270.773 113.375 271.664 113.375C272.742 113.375 273.805 113.172 274.852 112.766C275.898 112.359 276.797 111.688 277.547 110.75L281.133 115.016C280.617 115.75 279.883 116.461 278.93 117.148C277.992 117.836 276.867 118.398 275.555 118.836C274.242 119.258 272.773 119.469 271.148 119.469ZM292.781 99.0547V119H284.883V93.6406H292.289L292.781 99.0547ZM291.844 105.453L289.992 105.5C289.992 103.562 290.227 101.836 290.695 100.32C291.164 98.7891 291.828 97.4922 292.688 96.4297C293.547 95.3672 294.57 94.5625 295.758 94.0156C296.961 93.4531 298.297 93.1719 299.766 93.1719C300.938 93.1719 302.008 93.3438 302.977 93.6875C303.961 94.0312 304.805 94.5859 305.508 95.3516C306.227 96.1172 306.773 97.1328 307.148 98.3984C307.539 99.6484 307.734 101.195 307.734 103.039V119H299.789V103.016C299.789 102 299.648 101.227 299.367 100.695C299.086 100.148 298.68 99.7734 298.148 99.5703C297.617 99.3672 296.969 99.2656 296.203 99.2656C295.391 99.2656 294.703 99.4219 294.141 99.7344C293.578 100.047 293.125 100.484 292.781 101.047C292.453 101.594 292.211 102.242 292.055 102.992C291.914 103.742 291.844 104.562 291.844 105.453ZM325.477 93.6406V99.125H310.195V93.6406H325.477ZM313.406 87.3359H321.305V110.727C321.305 111.398 321.383 111.922 321.539 112.297C321.695 112.656 321.961 112.914 322.336 113.07C322.727 113.211 323.242 113.281 323.883 113.281C324.336 113.281 324.711 113.273 325.008 113.258C325.305 113.227 325.586 113.188 325.852 113.141V118.789C325.18 119.008 324.477 119.172 323.742 119.281C323.008 119.406 322.227 119.469 321.398 119.469C319.711 119.469 318.266 119.203 317.062 118.672C315.875 118.141 314.969 117.305 314.344 116.164C313.719 115.023 313.406 113.539 313.406 111.711V87.3359ZM341.789 112.625V102.172C341.789 101.453 341.688 100.836 341.484 100.32C341.281 99.8047 340.961 99.4062 340.523 99.125C340.086 98.8281 339.5 98.6797 338.766 98.6797C338.172 98.6797 337.664 98.7812 337.242 98.9844C336.82 99.1875 336.5 99.4922 336.281 99.8984C336.062 100.305 335.953 100.82 335.953 101.445H328.055C328.055 100.273 328.312 99.1875 328.828 98.1875C329.359 97.1719 330.109 96.2891 331.078 95.5391C332.062 94.7891 333.234 94.2109 334.594 93.8047C335.969 93.3828 337.5 93.1719 339.188 93.1719C341.203 93.1719 343 93.5078 344.578 94.1797C346.172 94.8516 347.43 95.8594 348.352 97.2031C349.273 98.5312 349.734 100.203 349.734 102.219V112.602C349.734 114.258 349.828 115.516 350.016 116.375C350.203 117.219 350.469 117.961 350.812 118.602V119H342.891C342.516 118.219 342.234 117.266 342.047 116.141C341.875 115 341.789 113.828 341.789 112.625ZM342.75 103.508L342.797 107.727H339.305C338.57 107.727 337.945 107.828 337.43 108.031C336.93 108.234 336.523 108.516 336.211 108.875C335.914 109.219 335.695 109.609 335.555 110.047C335.43 110.484 335.367 110.945 335.367 111.43C335.367 111.898 335.477 112.32 335.695 112.695C335.93 113.055 336.242 113.336 336.633 113.539C337.023 113.742 337.461 113.844 337.945 113.844C338.82 113.844 339.562 113.68 340.172 113.352C340.797 113.008 341.273 112.594 341.602 112.109C341.93 111.625 342.094 111.172 342.094 110.75L343.828 113.984C343.516 114.609 343.156 115.242 342.75 115.883C342.359 116.523 341.867 117.117 341.273 117.664C340.695 118.195 339.984 118.633 339.141 118.977C338.297 119.305 337.273 119.469 336.07 119.469C334.508 119.469 333.07 119.148 331.758 118.508C330.461 117.867 329.422 116.977 328.641 115.836C327.859 114.68 327.469 113.352 327.469 111.852C327.469 110.539 327.703 109.367 328.172 108.336C328.656 107.305 329.383 106.43 330.352 105.711C331.32 104.992 332.555 104.445 334.055 104.07C335.555 103.695 337.32 103.508 339.352 103.508H342.75ZM367.477 93.6406V99.125H352.195V93.6406H367.477ZM355.406 87.3359H363.305V110.727C363.305 111.398 363.383 111.922 363.539 112.297C363.695 112.656 363.961 112.914 364.336 113.07C364.727 113.211 365.242 113.281 365.883 113.281C366.336 113.281 366.711 113.273 367.008 113.258C367.305 113.227 367.586 113.188 367.852 113.141V118.789C367.18 119.008 366.477 119.172 365.742 119.281C365.008 119.406 364.227 119.469 363.398 119.469C361.711 119.469 360.266 119.203 359.062 118.672C357.875 118.141 356.969 117.305 356.344 116.164C355.719 115.023 355.406 113.539 355.406 111.711V87.3359ZM378.961 93.6406V119H371.039V93.6406H378.961ZM370.57 87.1016C370.57 85.9766 370.977 85.0547 371.789 84.3359C372.602 83.6172 373.656 83.2578 374.953 83.2578C376.25 83.2578 377.305 83.6172 378.117 84.3359C378.93 85.0547 379.336 85.9766 379.336 87.1016C379.336 88.2266 378.93 89.1484 378.117 89.8672C377.305 90.5859 376.25 90.9453 374.953 90.9453C373.656 90.9453 372.602 90.5859 371.789 89.8672C370.977 89.1484 370.57 88.2266 370.57 87.1016ZM382.852 106.578V106.086C382.852 104.227 383.117 102.516 383.648 100.953C384.18 99.375 384.961 98.0078 385.992 96.8516C387.023 95.6953 388.297 94.7969 389.812 94.1562C391.328 93.5 393.078 93.1719 395.062 93.1719C397.062 93.1719 398.82 93.5 400.336 94.1562C401.867 94.7969 403.148 95.6953 404.18 96.8516C405.211 98.0078 405.992 99.375 406.523 100.953C407.055 102.516 407.32 104.227 407.32 106.086V106.578C407.32 108.422 407.055 110.133 406.523 111.711C405.992 113.273 405.211 114.641 404.18 115.812C403.148 116.969 401.875 117.867 400.359 118.508C398.844 119.148 397.094 119.469 395.109 119.469C393.125 119.469 391.367 119.148 389.836 118.508C388.305 117.867 387.023 116.969 385.992 115.812C384.961 114.641 384.18 113.273 383.648 111.711C383.117 110.133 382.852 108.422 382.852 106.578ZM390.75 106.086V106.578C390.75 107.531 390.82 108.422 390.961 109.25C391.102 110.078 391.336 110.805 391.664 111.43C391.992 112.039 392.438 112.516 393 112.859C393.562 113.203 394.266 113.375 395.109 113.375C395.938 113.375 396.625 113.203 397.172 112.859C397.734 112.516 398.18 112.039 398.508 111.43C398.836 110.805 399.07 110.078 399.211 109.25C399.352 108.422 399.422 107.531 399.422 106.578V106.086C399.422 105.164 399.352 104.297 399.211 103.484C399.07 102.656 398.836 101.93 398.508 101.305C398.18 100.664 397.734 100.164 397.172 99.8047C396.609 99.4453 395.906 99.2656 395.062 99.2656C394.234 99.2656 393.539 99.4453 392.977 99.8047C392.43 100.164 391.992 100.664 391.664 101.305C391.336 101.93 391.102 102.656 390.961 103.484C390.82 104.297 390.75 105.164 390.75 106.086ZM418.594 99.0547V119H410.695V93.6406H418.102L418.594 99.0547ZM417.656 105.453L415.805 105.5C415.805 103.562 416.039 101.836 416.508 100.32C416.977 98.7891 417.641 97.4922 418.5 96.4297C419.359 95.3672 420.383 94.5625 421.57 94.0156C422.773 93.4531 424.109 93.1719 425.578 93.1719C426.75 93.1719 427.82 93.3438 428.789 93.6875C429.773 94.0312 430.617 94.5859 431.32 95.3516C432.039 96.1172 432.586 97.1328 432.961 98.3984C433.352 99.6484 433.547 101.195 433.547 103.039V119H425.602V103.016C425.602 102 425.461 101.227 425.18 100.695C424.898 100.148 424.492 99.7734 423.961 99.5703C423.43 99.3672 422.781 99.2656 422.016 99.2656C421.203 99.2656 420.516 99.4219 419.953 99.7344C419.391 100.047 418.938 100.484 418.594 101.047C418.266 101.594 418.023 102.242 417.867 102.992C417.727 103.742 417.656 104.562 417.656 105.453Z" fill="black"/>
<path d="M1134 0H1348C1356.28 0 1363 6.71573 1363 15V148C1363 156.284 1356.28 163 1348 163H1134V0Z" fill="black"/>
<path d="M1280.07 47.5H1216.93L1214.5 49.9286V113.071L1216.93 115.5H1280.07L1282.5 113.071V49.9286L1280.07 47.5ZM1277.64 110.643H1233.93V100.929H1245.1C1246.56 103.843 1249.96 105.786 1253.36 105.786C1258.7 105.786 1263.07 101.414 1263.07 96.0714C1263.07 90.7286 1258.7 86.3571 1253.36 86.3571C1248.01 86.3571 1243.64 90.7286 1243.64 96.0714H1229.07V110.643H1219.36V52.3571H1229.07V63.5286C1226.16 64.9857 1224.21 68.3857 1224.21 71.7857C1224.21 77.1286 1228.59 81.5 1233.93 81.5C1239.27 81.5 1243.64 77.1286 1243.64 71.7857H1253.36C1253.36 77.1286 1257.73 81.5 1263.07 81.5C1268.41 81.5 1272.79 77.1286 1272.79 71.7857C1272.79 66.4429 1268.41 62.0714 1263.07 62.0714C1259.67 62.0714 1256.27 64.0143 1254.81 66.9286H1242.19C1240.73 64.0143 1237.33 62.0714 1233.93 62.0714V52.3571H1277.64V110.643ZM1248.5 96.0714C1248.5 93.1571 1250.44 91.2143 1253.36 91.2143C1256.27 91.2143 1258.21 93.1571 1258.21 96.0714C1258.21 98.9857 1256.27 100.929 1253.36 100.929C1250.44 100.929 1248.5 98.9857 1248.5 96.0714ZM1233.93 66.9286C1236.84 66.9286 1238.79 68.8714 1238.79 71.7857C1238.79 74.7 1236.84 76.6429 1233.93 76.6429C1231.01 76.6429 1229.07 74.7 1229.07 71.7857C1229.07 68.8714 1231.01 66.9286 1233.93 66.9286ZM1263.07 66.9286C1265.99 66.9286 1267.93 68.8714 1267.93 71.7857C1267.93 74.7 1265.99 76.6429 1263.07 76.6429C1260.16 76.6429 1258.21 74.7 1258.21 71.7857C1258.21 68.8714 1260.16 66.9286 1263.07 66.9286Z" fill="#F0F0F0"/>
</svg>
