<svg width="1363" height="163" viewBox="0 0 1363 163" fill="none" xmlns="http://www.w3.org/2000/svg">
<path d="M0 15C0 6.71573 6.71573 0 15 0H37V163H15C6.71573 163 0 156.284 0 148V15Z" fill="#424242"/>
<rect width="1097" height="163" transform="translate(37)" fill="#F0F0F0"/>
<path d="M101.906 53.9219L94.3945 51.2383V48.0859L104.602 52.375V54.6367L101.906 53.9219ZM94.3945 56.1719L101.918 53.4297L104.602 52.7852V55.0352L94.3945 59.3242V56.1719ZM121.781 56.5352C121.781 56.2305 121.734 55.957 121.641 55.7148C121.555 55.4648 121.391 55.2383 121.148 55.0352C120.906 54.8242 120.566 54.6172 120.129 54.4141C119.691 54.2109 119.125 54 118.43 53.7812C117.656 53.5312 116.922 53.25 116.227 52.9375C115.539 52.625 114.93 52.2617 114.398 51.8477C113.875 51.4258 113.461 50.9375 113.156 50.3828C112.859 49.8281 112.711 49.1836 112.711 48.4492C112.711 47.7383 112.867 47.0938 113.18 46.5156C113.492 45.9297 113.93 45.4297 114.492 45.0156C115.055 44.5938 115.719 44.2695 116.484 44.043C117.258 43.8164 118.105 43.7031 119.027 43.7031C120.285 43.7031 121.383 43.9297 122.32 44.3828C123.258 44.8359 123.984 45.457 124.5 46.2461C125.023 47.0352 125.285 47.9375 125.285 48.9531H121.793C121.793 48.4531 121.688 48.0156 121.477 47.6406C121.273 47.2578 120.961 46.957 120.539 46.7383C120.125 46.5195 119.602 46.4102 118.969 46.4102C118.359 46.4102 117.852 46.5039 117.445 46.6914C117.039 46.8711 116.734 47.1172 116.531 47.4297C116.328 47.7344 116.227 48.0781 116.227 48.4609C116.227 48.75 116.297 49.0117 116.438 49.2461C116.586 49.4805 116.805 49.6992 117.094 49.9023C117.383 50.1055 117.738 50.2969 118.16 50.4766C118.582 50.6562 119.07 50.832 119.625 51.0039C120.555 51.2852 121.371 51.6016 122.074 51.9531C122.785 52.3047 123.379 52.6992 123.855 53.1367C124.332 53.5742 124.691 54.0703 124.934 54.625C125.176 55.1797 125.297 55.8086 125.297 56.5117C125.297 57.2539 125.152 57.918 124.863 58.5039C124.574 59.0898 124.156 59.5859 123.609 59.9922C123.062 60.3984 122.41 60.707 121.652 60.918C120.895 61.1289 120.047 61.2344 119.109 61.2344C118.266 61.2344 117.434 61.125 116.613 60.9062C115.793 60.6797 115.047 60.3398 114.375 59.8867C113.711 59.4336 113.18 58.8555 112.781 58.1523C112.383 57.4492 112.184 56.6172 112.184 55.6562H115.711C115.711 56.1875 115.793 56.6367 115.957 57.0039C116.121 57.3711 116.352 57.668 116.648 57.8945C116.953 58.1211 117.312 58.2852 117.727 58.3867C118.148 58.4883 118.609 58.5391 119.109 58.5391C119.719 58.5391 120.219 58.4531 120.609 58.2812C121.008 58.1094 121.301 57.8711 121.488 57.5664C121.684 57.2617 121.781 56.918 121.781 56.5352ZM130.852 50.7578V65.875H127.477V48.3203H130.605L130.852 50.7578ZM138.879 54.5195V54.7656C138.879 55.6875 138.77 56.543 138.551 57.332C138.34 58.1211 138.027 58.8086 137.613 59.3945C137.199 59.9727 136.684 60.4258 136.066 60.7539C135.457 61.0742 134.754 61.2344 133.957 61.2344C133.184 61.2344 132.512 61.0781 131.941 60.7656C131.371 60.4531 130.891 60.0156 130.5 59.4531C130.117 58.8828 129.809 58.2227 129.574 57.4727C129.34 56.7227 129.16 55.918 129.035 55.0586V54.4141C129.16 53.4922 129.34 52.6484 129.574 51.8828C129.809 51.1094 130.117 50.4414 130.5 49.8789C130.891 49.3086 131.367 48.8672 131.93 48.5547C132.5 48.2422 133.168 48.0859 133.934 48.0859C134.738 48.0859 135.445 48.2383 136.055 48.543C136.672 48.8477 137.188 49.2852 137.602 49.8555C138.023 50.4258 138.34 51.1055 138.551 51.8945C138.77 52.6836 138.879 53.5586 138.879 54.5195ZM135.492 54.7656V54.5195C135.492 53.9805 135.445 53.4844 135.352 53.0312C135.266 52.5703 135.125 52.168 134.93 51.8242C134.742 51.4805 134.492 51.2148 134.18 51.0273C133.875 50.832 133.504 50.7344 133.066 50.7344C132.605 50.7344 132.211 50.8086 131.883 50.957C131.562 51.1055 131.301 51.3203 131.098 51.6016C130.895 51.8828 130.742 52.2188 130.641 52.6094C130.539 53 130.477 53.4414 130.453 53.9336V55.5625C130.492 56.1406 130.602 56.6602 130.781 57.1211C130.961 57.5742 131.238 57.9336 131.613 58.1992C131.988 58.4648 132.48 58.5977 133.09 58.5977C133.535 58.5977 133.91 58.5 134.215 58.3047C134.52 58.1016 134.766 57.8242 134.953 57.4727C135.148 57.1211 135.285 56.7148 135.363 56.2539C135.449 55.793 135.492 55.2969 135.492 54.7656ZM147.82 58.1406V52.4922C147.82 52.0859 147.754 51.7383 147.621 51.4492C147.488 51.1523 147.281 50.9219 147 50.7578C146.727 50.5938 146.371 50.5117 145.934 50.5117C145.559 50.5117 145.234 50.5781 144.961 50.7109C144.688 50.8359 144.477 51.0195 144.328 51.2617C144.18 51.4961 144.105 51.7734 144.105 52.0938H140.73C140.73 51.5547 140.855 51.043 141.105 50.5586C141.355 50.0742 141.719 49.6484 142.195 49.2812C142.672 48.9062 143.238 48.6133 143.895 48.4023C144.559 48.1914 145.301 48.0859 146.121 48.0859C147.105 48.0859 147.98 48.25 148.746 48.5781C149.512 48.9062 150.113 49.3984 150.551 50.0547C150.996 50.7109 151.219 51.5312 151.219 52.5156V57.9414C151.219 58.6367 151.262 59.207 151.348 59.6523C151.434 60.0898 151.559 60.4727 151.723 60.8008V61H148.312C148.148 60.6562 148.023 60.2266 147.938 59.7109C147.859 59.1875 147.82 58.6641 147.82 58.1406ZM148.266 53.2773L148.289 55.1875H146.402C145.957 55.1875 145.57 55.2383 145.242 55.3398C144.914 55.4414 144.645 55.5859 144.434 55.7734C144.223 55.9531 144.066 56.1641 143.965 56.4062C143.871 56.6484 143.824 56.9141 143.824 57.2031C143.824 57.4922 143.891 57.7539 144.023 57.9883C144.156 58.2148 144.348 58.3945 144.598 58.5273C144.848 58.6523 145.141 58.7148 145.477 58.7148C145.984 58.7148 146.426 58.6133 146.801 58.4102C147.176 58.207 147.465 57.957 147.668 57.6602C147.879 57.3633 147.988 57.082 147.996 56.8164L148.887 58.2461C148.762 58.5664 148.59 58.8984 148.371 59.2422C148.16 59.5859 147.891 59.9102 147.562 60.2148C147.234 60.5117 146.84 60.7578 146.379 60.9531C145.918 61.1406 145.371 61.2344 144.738 61.2344C143.934 61.2344 143.203 61.0742 142.547 60.7539C141.898 60.4258 141.383 59.9766 141 59.4062C140.625 58.8281 140.438 58.1719 140.438 57.4375C140.438 56.7734 140.562 56.1836 140.812 55.668C141.062 55.1523 141.43 54.7188 141.914 54.3672C142.406 54.0078 143.02 53.7383 143.754 53.5586C144.488 53.3711 145.34 53.2773 146.309 53.2773H148.266ZM159.059 58.5977C159.473 58.5977 159.84 58.5195 160.16 58.3633C160.48 58.1992 160.73 57.9727 160.91 57.6836C161.098 57.3867 161.195 57.0391 161.203 56.6406H164.379C164.371 57.5312 164.133 58.3242 163.664 59.0195C163.195 59.707 162.566 60.25 161.777 60.6484C160.988 61.0391 160.105 61.2344 159.129 61.2344C158.145 61.2344 157.285 61.0703 156.551 60.7422C155.824 60.4141 155.219 59.9609 154.734 59.3828C154.25 58.7969 153.887 58.1172 153.645 57.3438C153.402 56.5625 153.281 55.7266 153.281 54.8359V54.4961C153.281 53.5977 153.402 52.7617 153.645 51.9883C153.887 51.207 154.25 50.5273 154.734 49.9492C155.219 49.3633 155.824 48.9062 156.551 48.5781C157.277 48.25 158.129 48.0859 159.105 48.0859C160.145 48.0859 161.055 48.2852 161.836 48.6836C162.625 49.082 163.242 49.6523 163.688 50.3945C164.141 51.1289 164.371 52 164.379 53.0078H161.203C161.195 52.5859 161.105 52.2031 160.934 51.8594C160.77 51.5156 160.527 51.2422 160.207 51.0391C159.895 50.8281 159.508 50.7227 159.047 50.7227C158.555 50.7227 158.152 50.8281 157.84 51.0391C157.527 51.2422 157.285 51.5234 157.113 51.8828C156.941 52.2344 156.82 52.6367 156.75 53.0898C156.688 53.5352 156.656 54.0039 156.656 54.4961V54.8359C156.656 55.3281 156.688 55.8008 156.75 56.2539C156.812 56.707 156.93 57.1094 157.102 57.4609C157.281 57.8125 157.527 58.0898 157.84 58.293C158.152 58.4961 158.559 58.5977 159.059 58.5977ZM172.172 61.2344C171.188 61.2344 170.305 61.0781 169.523 60.7656C168.742 60.4453 168.078 60.0039 167.531 59.4414C166.992 58.8789 166.578 58.2266 166.289 57.4844C166 56.7344 165.855 55.9375 165.855 55.0938V54.625C165.855 53.6641 165.992 52.7852 166.266 51.9883C166.539 51.1914 166.93 50.5 167.438 49.9141C167.953 49.3281 168.578 48.8789 169.312 48.5664C170.047 48.2461 170.875 48.0859 171.797 48.0859C172.695 48.0859 173.492 48.2344 174.188 48.5312C174.883 48.8281 175.465 49.25 175.934 49.7969C176.41 50.3438 176.77 51 177.012 51.7656C177.254 52.5234 177.375 53.3672 177.375 54.2969V55.7031H167.297V53.4531H174.059V53.1953C174.059 52.7266 173.973 52.3086 173.801 51.9414C173.637 51.5664 173.387 51.2695 173.051 51.0508C172.715 50.832 172.285 50.7227 171.762 50.7227C171.316 50.7227 170.934 50.8203 170.613 51.0156C170.293 51.2109 170.031 51.4844 169.828 51.8359C169.633 52.1875 169.484 52.6016 169.383 53.0781C169.289 53.5469 169.242 54.0625 169.242 54.625V55.0938C169.242 55.6016 169.312 56.0703 169.453 56.5C169.602 56.9297 169.809 57.3008 170.074 57.6133C170.348 57.9258 170.676 58.168 171.059 58.3398C171.449 58.5117 171.891 58.5977 172.383 58.5977C172.992 58.5977 173.559 58.4805 174.082 58.2461C174.613 58.0039 175.07 57.6406 175.453 57.1562L177.094 58.9375C176.828 59.3203 176.465 59.6875 176.004 60.0391C175.551 60.3906 175.004 60.6797 174.363 60.9062C173.723 61.125 172.992 61.2344 172.172 61.2344ZM192.387 55.7617V43.9375H195.891V55.7617C195.891 56.9023 195.641 57.8828 195.141 58.7031C194.641 59.5156 193.957 60.1406 193.09 60.5781C192.23 61.0156 191.262 61.2344 190.184 61.2344C189.066 61.2344 188.078 61.0469 187.219 60.6719C186.359 60.2969 185.684 59.7227 185.191 58.9492C184.699 58.168 184.453 57.1797 184.453 55.9844H187.98C187.98 56.6094 188.066 57.1055 188.238 57.4727C188.418 57.8398 188.672 58.1016 189 58.2578C189.328 58.4141 189.723 58.4922 190.184 58.4922C190.629 58.4922 191.016 58.3867 191.344 58.1758C191.672 57.9648 191.926 57.6562 192.105 57.25C192.293 56.8438 192.387 56.3477 192.387 55.7617ZM198.141 54.7891V54.543C198.141 53.6133 198.273 52.7578 198.539 51.9766C198.805 51.1875 199.191 50.5039 199.699 49.9258C200.207 49.3477 200.832 48.8984 201.574 48.5781C202.316 48.25 203.168 48.0859 204.129 48.0859C205.09 48.0859 205.945 48.25 206.695 48.5781C207.445 48.8984 208.074 49.3477 208.582 49.9258C209.098 50.5039 209.488 51.1875 209.754 51.9766C210.02 52.7578 210.152 53.6133 210.152 54.543V54.7891C210.152 55.7109 210.02 56.5664 209.754 57.3555C209.488 58.1367 209.098 58.8203 208.582 59.4062C208.074 59.9844 207.449 60.4336 206.707 60.7539C205.965 61.0742 205.113 61.2344 204.152 61.2344C203.191 61.2344 202.336 61.0742 201.586 60.7539C200.844 60.4336 200.215 59.9844 199.699 59.4062C199.191 58.8203 198.805 58.1367 198.539 57.3555C198.273 56.5664 198.141 55.7109 198.141 54.7891ZM201.516 54.543V54.7891C201.516 55.3203 201.562 55.8164 201.656 56.2773C201.75 56.7383 201.898 57.1445 202.102 57.4961C202.312 57.8398 202.586 58.1094 202.922 58.3047C203.258 58.5 203.668 58.5977 204.152 58.5977C204.621 58.5977 205.023 58.5 205.359 58.3047C205.695 58.1094 205.965 57.8398 206.168 57.4961C206.371 57.1445 206.52 56.7383 206.613 56.2773C206.715 55.8164 206.766 55.3203 206.766 54.7891V54.543C206.766 54.0273 206.715 53.543 206.613 53.0898C206.52 52.6289 206.367 52.2227 206.156 51.8711C205.953 51.5117 205.684 51.2305 205.348 51.0273C205.012 50.8242 204.605 50.7227 204.129 50.7227C203.652 50.7227 203.246 50.8242 202.91 51.0273C202.582 51.2305 202.312 51.5117 202.102 51.8711C201.898 52.2227 201.75 52.6289 201.656 53.0898C201.562 53.543 201.516 54.0273 201.516 54.543ZM219.727 57.9648V48.3203H223.102V61H219.926L219.727 57.9648ZM220.102 55.3633L221.098 55.3398C221.098 56.1836 221 56.9688 220.805 57.6953C220.609 58.4141 220.316 59.0391 219.926 59.5703C219.535 60.0938 219.043 60.5039 218.449 60.8008C217.855 61.0898 217.156 61.2344 216.352 61.2344C215.734 61.2344 215.164 61.1484 214.641 60.9766C214.125 60.7969 213.68 60.5195 213.305 60.1445C212.938 59.7617 212.648 59.2734 212.438 58.6797C212.234 58.0781 212.133 57.3555 212.133 56.5117V48.3203H215.508V56.5352C215.508 56.9102 215.551 57.2266 215.637 57.4844C215.73 57.7422 215.859 57.9531 216.023 58.1172C216.188 58.2812 216.379 58.3984 216.598 58.4688C216.824 58.5391 217.074 58.5742 217.348 58.5742C218.043 58.5742 218.59 58.4336 218.988 58.1523C219.395 57.8711 219.68 57.4883 219.844 57.0039C220.016 56.5117 220.102 55.9648 220.102 55.3633ZM229.055 51.0859V61H225.68V48.3203H228.855L229.055 51.0859ZM232.875 48.2383L232.816 51.3672C232.652 51.3438 232.453 51.3242 232.219 51.3086C231.992 51.2852 231.785 51.2734 231.598 51.2734C231.121 51.2734 230.707 51.3359 230.355 51.4609C230.012 51.5781 229.723 51.7539 229.488 51.9883C229.262 52.2227 229.09 52.5078 228.973 52.8438C228.863 53.1797 228.801 53.5625 228.785 53.9922L228.105 53.7812C228.105 52.9609 228.188 52.207 228.352 51.5195C228.516 50.8242 228.754 50.2188 229.066 49.7031C229.387 49.1875 229.777 48.7891 230.238 48.5078C230.699 48.2266 231.227 48.0859 231.82 48.0859C232.008 48.0859 232.199 48.1016 232.395 48.1328C232.59 48.1562 232.75 48.1914 232.875 48.2383ZM237.773 51.0273V61H234.398V48.3203H237.562L237.773 51.0273ZM237.281 54.2148H236.367C236.367 53.2773 236.488 52.4336 236.73 51.6836C236.973 50.9258 237.312 50.2812 237.75 49.75C238.188 49.2109 238.707 48.8008 239.309 48.5195C239.918 48.2305 240.598 48.0859 241.348 48.0859C241.941 48.0859 242.484 48.1719 242.977 48.3438C243.469 48.5156 243.891 48.7891 244.242 49.1641C244.602 49.5391 244.875 50.0352 245.062 50.6523C245.258 51.2695 245.355 52.0234 245.355 52.9141V61H241.957V52.9023C241.957 52.3398 241.879 51.9023 241.723 51.5898C241.566 51.2773 241.336 51.0586 241.031 50.9336C240.734 50.8008 240.367 50.7344 239.93 50.7344C239.477 50.7344 239.082 50.8242 238.746 51.0039C238.418 51.1836 238.145 51.4336 237.926 51.7539C237.715 52.0664 237.555 52.4336 237.445 52.8555C237.336 53.2773 237.281 53.7305 237.281 54.2148ZM253.758 61.2344C252.773 61.2344 251.891 61.0781 251.109 60.7656C250.328 60.4453 249.664 60.0039 249.117 59.4414C248.578 58.8789 248.164 58.2266 247.875 57.4844C247.586 56.7344 247.441 55.9375 247.441 55.0938V54.625C247.441 53.6641 247.578 52.7852 247.852 51.9883C248.125 51.1914 248.516 50.5 249.023 49.9141C249.539 49.3281 250.164 48.8789 250.898 48.5664C251.633 48.2461 252.461 48.0859 253.383 48.0859C254.281 48.0859 255.078 48.2344 255.773 48.5312C256.469 48.8281 257.051 49.25 257.52 49.7969C257.996 50.3438 258.355 51 258.598 51.7656C258.84 52.5234 258.961 53.3672 258.961 54.2969V55.7031H248.883V53.4531H255.645V53.1953C255.645 52.7266 255.559 52.3086 255.387 51.9414C255.223 51.5664 254.973 51.2695 254.637 51.0508C254.301 50.832 253.871 50.7227 253.348 50.7227C252.902 50.7227 252.52 50.8203 252.199 51.0156C251.879 51.2109 251.617 51.4844 251.414 51.8359C251.219 52.1875 251.07 52.6016 250.969 53.0781C250.875 53.5469 250.828 54.0625 250.828 54.625V55.0938C250.828 55.6016 250.898 56.0703 251.039 56.5C251.188 56.9297 251.395 57.3008 251.66 57.6133C251.934 57.9258 252.262 58.168 252.645 58.3398C253.035 58.5117 253.477 58.5977 253.969 58.5977C254.578 58.5977 255.145 58.4805 255.668 58.2461C256.199 58.0039 256.656 57.6406 257.039 57.1562L258.68 58.9375C258.414 59.3203 258.051 59.6875 257.59 60.0391C257.137 60.3906 256.59 60.6797 255.949 60.9062C255.309 61.125 254.578 61.2344 253.758 61.2344ZM264.48 59.5703L267.844 48.3203H271.465L266.367 62.9102C266.258 63.2305 266.109 63.5742 265.922 63.9414C265.742 64.3086 265.496 64.6562 265.184 64.9844C264.879 65.3203 264.492 65.5938 264.023 65.8047C263.562 66.0156 262.996 66.1211 262.324 66.1211C262.004 66.1211 261.742 66.1016 261.539 66.0625C261.336 66.0234 261.094 65.9688 260.812 65.8984V63.4258C260.898 63.4258 260.988 63.4258 261.082 63.4258C261.176 63.4336 261.266 63.4375 261.352 63.4375C261.797 63.4375 262.16 63.3867 262.441 63.2852C262.723 63.1836 262.949 63.0273 263.121 62.8164C263.293 62.6133 263.43 62.3477 263.531 62.0195L264.48 59.5703ZM263.074 48.3203L265.828 57.5078L266.309 61.082L264.012 61.3281L259.453 48.3203H263.074Z" fill="#888888"/>
<path d="M114.117 84.875H122.344V107.164C122.344 109.82 121.789 112.07 120.68 113.914C119.57 115.742 118.016 117.125 116.016 118.062C114.016 119 111.664 119.469 108.961 119.469C106.289 119.469 103.938 119 101.906 118.062C99.8906 117.125 98.3125 115.742 97.1719 113.914C96.0469 112.07 95.4844 109.82 95.4844 107.164V84.875H103.734V107.164C103.734 108.57 103.938 109.719 104.344 110.609C104.75 111.484 105.344 112.125 106.125 112.531C106.906 112.938 107.852 113.141 108.961 113.141C110.086 113.141 111.031 112.938 111.797 112.531C112.562 112.125 113.141 111.484 113.531 110.609C113.922 109.719 114.117 108.57 114.117 107.164V84.875ZM136.266 84.875V119H128.062V84.875H136.266ZM172.523 84.875H180.75V107.164C180.75 109.82 180.195 112.07 179.086 113.914C177.977 115.742 176.422 117.125 174.422 118.062C172.422 119 170.07 119.469 167.367 119.469C164.695 119.469 162.344 119 160.312 118.062C158.297 117.125 156.719 115.742 155.578 113.914C154.453 112.07 153.891 109.82 153.891 107.164V84.875H162.141V107.164C162.141 108.57 162.344 109.719 162.75 110.609C163.156 111.484 163.75 112.125 164.531 112.531C165.312 112.938 166.258 113.141 167.367 113.141C168.492 113.141 169.438 112.938 170.203 112.531C170.969 112.125 171.547 111.484 171.938 110.609C172.328 109.719 172.523 108.57 172.523 107.164V84.875ZM193.078 84.875L198.656 96.2188L204.234 84.875H213.609L204.094 101.797L213.867 119H204.398L198.656 107.445L192.914 119H183.422L193.219 101.797L183.68 84.875H193.078Z" fill="black"/>
<path d="M1134 0H1348C1356.28 0 1363 6.71573 1363 15V148C1363 156.284 1356.28 163 1348 163H1134V0Z" fill="black"/>
<path d="M1248.5 111.917C1244.51 111.917 1240.55 111.13 1236.86 109.601C1233.17 108.073 1229.82 105.832 1226.99 103.008C1221.29 97.3036 1218.08 89.567 1218.08 81.5C1218.08 73.433 1221.29 65.6964 1226.99 59.9922C1232.7 54.2879 1240.43 51.0833 1248.5 51.0833C1265.23 51.0833 1278.92 63.25 1278.92 78.4583C1278.92 83.2985 1276.99 87.9405 1273.57 91.363C1270.15 94.7856 1265.51 96.7083 1260.67 96.7083H1255.19C1254.28 96.7083 1253.67 97.3167 1253.67 98.2292C1253.67 98.5333 1253.97 98.8375 1253.97 99.1417C1255.19 100.663 1255.8 102.488 1255.8 104.313C1256.1 108.571 1252.76 111.917 1248.5 111.917ZM1248.5 57.1667C1242.05 57.1667 1235.86 59.7304 1231.29 64.2937C1226.73 68.8571 1224.17 75.0464 1224.17 81.5C1224.17 87.9536 1226.73 94.1429 1231.29 98.7063C1235.86 103.27 1242.05 105.833 1248.5 105.833C1249.41 105.833 1250.02 105.225 1250.02 104.313C1250.02 103.704 1249.72 103.4 1249.72 103.096C1248.5 101.575 1247.89 100.054 1247.89 98.2292C1247.89 93.9708 1251.24 90.625 1255.5 90.625H1260.67C1263.89 90.625 1266.99 89.3432 1269.27 87.0615C1271.55 84.7798 1272.83 81.6851 1272.83 78.4583C1272.83 66.5958 1261.88 57.1667 1248.5 57.1667ZM1231.77 75.4167C1234.2 75.4167 1236.33 77.5458 1236.33 79.9792C1236.33 82.4125 1234.2 84.5417 1231.77 84.5417C1229.34 84.5417 1227.21 82.4125 1227.21 79.9792C1227.21 77.5458 1229.34 75.4167 1231.77 75.4167ZM1240.9 63.25C1243.33 63.25 1245.46 65.3792 1245.46 67.8125C1245.46 70.2458 1243.33 72.375 1240.9 72.375C1238.46 72.375 1236.33 70.2458 1236.33 67.8125C1236.33 65.3792 1238.46 63.25 1240.9 63.25ZM1256.1 63.25C1258.54 63.25 1260.67 65.3792 1260.67 67.8125C1260.67 70.2458 1258.54 72.375 1256.1 72.375C1253.67 72.375 1251.54 70.2458 1251.54 67.8125C1251.54 65.3792 1253.67 63.25 1256.1 63.25ZM1265.23 75.4167C1267.66 75.4167 1269.79 77.5458 1269.79 79.9792C1269.79 82.4125 1267.66 84.5417 1265.23 84.5417C1262.8 84.5417 1260.67 82.4125 1260.67 79.9792C1260.67 77.5458 1262.8 75.4167 1265.23 75.4167Z" fill="white"/>
</svg>
